G04 #@! TF.GenerationSoftware,KiCad,Pcbnew,(5.1.4)-1*
G04 #@! TF.CreationDate,2019-10-24T16:58:35-04:00*
G04 #@! TF.ProjectId,TQFP44,54514650-3434-42e6-9b69-6361645f7063,B*
G04 #@! TF.SameCoordinates,Original*
G04 #@! TF.FileFunction,Copper,L2,Bot*
G04 #@! TF.FilePolarity,Positive*
%FSLAX46Y46*%
G04 Gerber Fmt 4.6, Leading zero omitted, Abs format (unit mm)*
G04 Created by KiCad (PCBNEW (5.1.4)-1) date 2019-10-24 16:58:35*
%MOMM*%
%LPD*%
G04 APERTURE LIST*
%ADD10O,1.700000X1.700000*%
%ADD11R,1.700000X1.700000*%
%ADD12C,0.150000*%
G04 APERTURE END LIST*
D10*
X124460000Y-36830000D03*
X121920000Y-36830000D03*
X119380000Y-36830000D03*
X116840000Y-36830000D03*
X114300000Y-36830000D03*
X111760000Y-36830000D03*
X109220000Y-36830000D03*
X106680000Y-36830000D03*
X104140000Y-36830000D03*
X101600000Y-36830000D03*
X99060000Y-36830000D03*
X96520000Y-36830000D03*
X93980000Y-36830000D03*
X91440000Y-36830000D03*
X88900000Y-36830000D03*
X86360000Y-36830000D03*
X83820000Y-36830000D03*
X81280000Y-36830000D03*
X78740000Y-36830000D03*
X76200000Y-36830000D03*
X73660000Y-36830000D03*
D11*
X71120000Y-36830000D03*
D10*
X124460000Y-54610000D03*
X121920000Y-54610000D03*
X119380000Y-54610000D03*
X116840000Y-54610000D03*
X114300000Y-54610000D03*
X111760000Y-54610000D03*
X109220000Y-54610000D03*
X106680000Y-54610000D03*
X104140000Y-54610000D03*
X101600000Y-54610000D03*
X99060000Y-54610000D03*
X96520000Y-54610000D03*
X93980000Y-54610000D03*
X91440000Y-54610000D03*
X88900000Y-54610000D03*
X86360000Y-54610000D03*
X83820000Y-54610000D03*
X81280000Y-54610000D03*
X78740000Y-54610000D03*
X76200000Y-54610000D03*
X73660000Y-54610000D03*
D11*
X71120000Y-54610000D03*
D12*
G36*
X124894804Y-34634071D02*
G01*
X125313052Y-34760348D01*
X125698802Y-34965455D01*
X126037369Y-35241585D01*
X126315850Y-35578211D01*
X126523647Y-35962523D01*
X126652838Y-36379871D01*
X126699993Y-36828520D01*
X126700000Y-36830477D01*
X126700001Y-54595319D01*
X126655929Y-55044803D01*
X126529652Y-55463052D01*
X126324547Y-55848800D01*
X126048418Y-56187367D01*
X125711789Y-56465850D01*
X125327478Y-56673646D01*
X124910129Y-56802838D01*
X124461480Y-56849993D01*
X124459523Y-56850000D01*
X71134670Y-56850000D01*
X70685197Y-56805929D01*
X70266948Y-56679652D01*
X69881200Y-56474547D01*
X69542633Y-56198418D01*
X69264150Y-55861789D01*
X69056354Y-55477478D01*
X68927162Y-55060129D01*
X68880007Y-54611480D01*
X68880000Y-54609523D01*
X68880000Y-53760000D01*
X70043912Y-53760000D01*
X70043912Y-55460000D01*
X70048256Y-55504108D01*
X70061122Y-55546520D01*
X70082015Y-55585608D01*
X70110132Y-55619868D01*
X70144392Y-55647985D01*
X70183480Y-55668878D01*
X70225892Y-55681744D01*
X70270000Y-55686088D01*
X71970000Y-55686088D01*
X72014108Y-55681744D01*
X72056520Y-55668878D01*
X72095608Y-55647985D01*
X72129868Y-55619868D01*
X72157985Y-55585608D01*
X72178878Y-55546520D01*
X72191744Y-55504108D01*
X72196088Y-55460000D01*
X72196088Y-54610000D01*
X72579799Y-54610000D01*
X72600555Y-54820737D01*
X72662024Y-55023375D01*
X72761846Y-55210128D01*
X72896183Y-55373817D01*
X73059872Y-55508154D01*
X73246625Y-55607976D01*
X73449263Y-55669445D01*
X73607194Y-55685000D01*
X73712806Y-55685000D01*
X73870737Y-55669445D01*
X74073375Y-55607976D01*
X74260128Y-55508154D01*
X74423817Y-55373817D01*
X74558154Y-55210128D01*
X74657976Y-55023375D01*
X74719445Y-54820737D01*
X74740201Y-54610000D01*
X75119799Y-54610000D01*
X75140555Y-54820737D01*
X75202024Y-55023375D01*
X75301846Y-55210128D01*
X75436183Y-55373817D01*
X75599872Y-55508154D01*
X75786625Y-55607976D01*
X75989263Y-55669445D01*
X76147194Y-55685000D01*
X76252806Y-55685000D01*
X76410737Y-55669445D01*
X76613375Y-55607976D01*
X76800128Y-55508154D01*
X76963817Y-55373817D01*
X77098154Y-55210128D01*
X77197976Y-55023375D01*
X77259445Y-54820737D01*
X77280201Y-54610000D01*
X77659799Y-54610000D01*
X77680555Y-54820737D01*
X77742024Y-55023375D01*
X77841846Y-55210128D01*
X77976183Y-55373817D01*
X78139872Y-55508154D01*
X78326625Y-55607976D01*
X78529263Y-55669445D01*
X78687194Y-55685000D01*
X78792806Y-55685000D01*
X78950737Y-55669445D01*
X79153375Y-55607976D01*
X79340128Y-55508154D01*
X79503817Y-55373817D01*
X79638154Y-55210128D01*
X79737976Y-55023375D01*
X79799445Y-54820737D01*
X79820201Y-54610000D01*
X80199799Y-54610000D01*
X80220555Y-54820737D01*
X80282024Y-55023375D01*
X80381846Y-55210128D01*
X80516183Y-55373817D01*
X80679872Y-55508154D01*
X80866625Y-55607976D01*
X81069263Y-55669445D01*
X81227194Y-55685000D01*
X81332806Y-55685000D01*
X81490737Y-55669445D01*
X81693375Y-55607976D01*
X81880128Y-55508154D01*
X82043817Y-55373817D01*
X82178154Y-55210128D01*
X82277976Y-55023375D01*
X82339445Y-54820737D01*
X82360201Y-54610000D01*
X82739799Y-54610000D01*
X82760555Y-54820737D01*
X82822024Y-55023375D01*
X82921846Y-55210128D01*
X83056183Y-55373817D01*
X83219872Y-55508154D01*
X83406625Y-55607976D01*
X83609263Y-55669445D01*
X83767194Y-55685000D01*
X83872806Y-55685000D01*
X84030737Y-55669445D01*
X84233375Y-55607976D01*
X84420128Y-55508154D01*
X84583817Y-55373817D01*
X84718154Y-55210128D01*
X84817976Y-55023375D01*
X84879445Y-54820737D01*
X84900201Y-54610000D01*
X85279799Y-54610000D01*
X85300555Y-54820737D01*
X85362024Y-55023375D01*
X85461846Y-55210128D01*
X85596183Y-55373817D01*
X85759872Y-55508154D01*
X85946625Y-55607976D01*
X86149263Y-55669445D01*
X86307194Y-55685000D01*
X86412806Y-55685000D01*
X86570737Y-55669445D01*
X86773375Y-55607976D01*
X86960128Y-55508154D01*
X87123817Y-55373817D01*
X87258154Y-55210128D01*
X87357976Y-55023375D01*
X87419445Y-54820737D01*
X87440201Y-54610000D01*
X87819799Y-54610000D01*
X87840555Y-54820737D01*
X87902024Y-55023375D01*
X88001846Y-55210128D01*
X88136183Y-55373817D01*
X88299872Y-55508154D01*
X88486625Y-55607976D01*
X88689263Y-55669445D01*
X88847194Y-55685000D01*
X88952806Y-55685000D01*
X89110737Y-55669445D01*
X89313375Y-55607976D01*
X89500128Y-55508154D01*
X89663817Y-55373817D01*
X89798154Y-55210128D01*
X89897976Y-55023375D01*
X89959445Y-54820737D01*
X89980201Y-54610000D01*
X90359799Y-54610000D01*
X90380555Y-54820737D01*
X90442024Y-55023375D01*
X90541846Y-55210128D01*
X90676183Y-55373817D01*
X90839872Y-55508154D01*
X91026625Y-55607976D01*
X91229263Y-55669445D01*
X91387194Y-55685000D01*
X91492806Y-55685000D01*
X91650737Y-55669445D01*
X91853375Y-55607976D01*
X92040128Y-55508154D01*
X92203817Y-55373817D01*
X92338154Y-55210128D01*
X92437976Y-55023375D01*
X92499445Y-54820737D01*
X92520201Y-54610000D01*
X92899799Y-54610000D01*
X92920555Y-54820737D01*
X92982024Y-55023375D01*
X93081846Y-55210128D01*
X93216183Y-55373817D01*
X93379872Y-55508154D01*
X93566625Y-55607976D01*
X93769263Y-55669445D01*
X93927194Y-55685000D01*
X94032806Y-55685000D01*
X94190737Y-55669445D01*
X94393375Y-55607976D01*
X94580128Y-55508154D01*
X94743817Y-55373817D01*
X94878154Y-55210128D01*
X94977976Y-55023375D01*
X95039445Y-54820737D01*
X95060201Y-54610000D01*
X95439799Y-54610000D01*
X95460555Y-54820737D01*
X95522024Y-55023375D01*
X95621846Y-55210128D01*
X95756183Y-55373817D01*
X95919872Y-55508154D01*
X96106625Y-55607976D01*
X96309263Y-55669445D01*
X96467194Y-55685000D01*
X96572806Y-55685000D01*
X96730737Y-55669445D01*
X96933375Y-55607976D01*
X97120128Y-55508154D01*
X97283817Y-55373817D01*
X97418154Y-55210128D01*
X97517976Y-55023375D01*
X97579445Y-54820737D01*
X97600201Y-54610000D01*
X97979799Y-54610000D01*
X98000555Y-54820737D01*
X98062024Y-55023375D01*
X98161846Y-55210128D01*
X98296183Y-55373817D01*
X98459872Y-55508154D01*
X98646625Y-55607976D01*
X98849263Y-55669445D01*
X99007194Y-55685000D01*
X99112806Y-55685000D01*
X99270737Y-55669445D01*
X99473375Y-55607976D01*
X99660128Y-55508154D01*
X99823817Y-55373817D01*
X99958154Y-55210128D01*
X100057976Y-55023375D01*
X100119445Y-54820737D01*
X100140201Y-54610000D01*
X100519799Y-54610000D01*
X100540555Y-54820737D01*
X100602024Y-55023375D01*
X100701846Y-55210128D01*
X100836183Y-55373817D01*
X100999872Y-55508154D01*
X101186625Y-55607976D01*
X101389263Y-55669445D01*
X101547194Y-55685000D01*
X101652806Y-55685000D01*
X101810737Y-55669445D01*
X102013375Y-55607976D01*
X102200128Y-55508154D01*
X102363817Y-55373817D01*
X102498154Y-55210128D01*
X102597976Y-55023375D01*
X102659445Y-54820737D01*
X102680201Y-54610000D01*
X103059799Y-54610000D01*
X103080555Y-54820737D01*
X103142024Y-55023375D01*
X103241846Y-55210128D01*
X103376183Y-55373817D01*
X103539872Y-55508154D01*
X103726625Y-55607976D01*
X103929263Y-55669445D01*
X104087194Y-55685000D01*
X104192806Y-55685000D01*
X104350737Y-55669445D01*
X104553375Y-55607976D01*
X104740128Y-55508154D01*
X104903817Y-55373817D01*
X105038154Y-55210128D01*
X105137976Y-55023375D01*
X105199445Y-54820737D01*
X105220201Y-54610000D01*
X105599799Y-54610000D01*
X105620555Y-54820737D01*
X105682024Y-55023375D01*
X105781846Y-55210128D01*
X105916183Y-55373817D01*
X106079872Y-55508154D01*
X106266625Y-55607976D01*
X106469263Y-55669445D01*
X106627194Y-55685000D01*
X106732806Y-55685000D01*
X106890737Y-55669445D01*
X107093375Y-55607976D01*
X107280128Y-55508154D01*
X107443817Y-55373817D01*
X107578154Y-55210128D01*
X107677976Y-55023375D01*
X107739445Y-54820737D01*
X107760201Y-54610000D01*
X108139799Y-54610000D01*
X108160555Y-54820737D01*
X108222024Y-55023375D01*
X108321846Y-55210128D01*
X108456183Y-55373817D01*
X108619872Y-55508154D01*
X108806625Y-55607976D01*
X109009263Y-55669445D01*
X109167194Y-55685000D01*
X109272806Y-55685000D01*
X109430737Y-55669445D01*
X109633375Y-55607976D01*
X109820128Y-55508154D01*
X109983817Y-55373817D01*
X110118154Y-55210128D01*
X110217976Y-55023375D01*
X110279445Y-54820737D01*
X110300201Y-54610000D01*
X110679799Y-54610000D01*
X110700555Y-54820737D01*
X110762024Y-55023375D01*
X110861846Y-55210128D01*
X110996183Y-55373817D01*
X111159872Y-55508154D01*
X111346625Y-55607976D01*
X111549263Y-55669445D01*
X111707194Y-55685000D01*
X111812806Y-55685000D01*
X111970737Y-55669445D01*
X112173375Y-55607976D01*
X112360128Y-55508154D01*
X112523817Y-55373817D01*
X112658154Y-55210128D01*
X112757976Y-55023375D01*
X112819445Y-54820737D01*
X112840201Y-54610000D01*
X113219799Y-54610000D01*
X113240555Y-54820737D01*
X113302024Y-55023375D01*
X113401846Y-55210128D01*
X113536183Y-55373817D01*
X113699872Y-55508154D01*
X113886625Y-55607976D01*
X114089263Y-55669445D01*
X114247194Y-55685000D01*
X114352806Y-55685000D01*
X114510737Y-55669445D01*
X114713375Y-55607976D01*
X114900128Y-55508154D01*
X115063817Y-55373817D01*
X115198154Y-55210128D01*
X115297976Y-55023375D01*
X115359445Y-54820737D01*
X115380201Y-54610000D01*
X115759799Y-54610000D01*
X115780555Y-54820737D01*
X115842024Y-55023375D01*
X115941846Y-55210128D01*
X116076183Y-55373817D01*
X116239872Y-55508154D01*
X116426625Y-55607976D01*
X116629263Y-55669445D01*
X116787194Y-55685000D01*
X116892806Y-55685000D01*
X117050737Y-55669445D01*
X117253375Y-55607976D01*
X117440128Y-55508154D01*
X117603817Y-55373817D01*
X117738154Y-55210128D01*
X117837976Y-55023375D01*
X117899445Y-54820737D01*
X117920201Y-54610000D01*
X118299799Y-54610000D01*
X118320555Y-54820737D01*
X118382024Y-55023375D01*
X118481846Y-55210128D01*
X118616183Y-55373817D01*
X118779872Y-55508154D01*
X118966625Y-55607976D01*
X119169263Y-55669445D01*
X119327194Y-55685000D01*
X119432806Y-55685000D01*
X119590737Y-55669445D01*
X119793375Y-55607976D01*
X119980128Y-55508154D01*
X120143817Y-55373817D01*
X120278154Y-55210128D01*
X120377976Y-55023375D01*
X120439445Y-54820737D01*
X120460201Y-54610000D01*
X120839799Y-54610000D01*
X120860555Y-54820737D01*
X120922024Y-55023375D01*
X121021846Y-55210128D01*
X121156183Y-55373817D01*
X121319872Y-55508154D01*
X121506625Y-55607976D01*
X121709263Y-55669445D01*
X121867194Y-55685000D01*
X121972806Y-55685000D01*
X122130737Y-55669445D01*
X122333375Y-55607976D01*
X122520128Y-55508154D01*
X122683817Y-55373817D01*
X122818154Y-55210128D01*
X122917976Y-55023375D01*
X122979445Y-54820737D01*
X123000201Y-54610000D01*
X123379799Y-54610000D01*
X123400555Y-54820737D01*
X123462024Y-55023375D01*
X123561846Y-55210128D01*
X123696183Y-55373817D01*
X123859872Y-55508154D01*
X124046625Y-55607976D01*
X124249263Y-55669445D01*
X124407194Y-55685000D01*
X124512806Y-55685000D01*
X124670737Y-55669445D01*
X124873375Y-55607976D01*
X125060128Y-55508154D01*
X125223817Y-55373817D01*
X125358154Y-55210128D01*
X125457976Y-55023375D01*
X125519445Y-54820737D01*
X125540201Y-54610000D01*
X125519445Y-54399263D01*
X125457976Y-54196625D01*
X125358154Y-54009872D01*
X125223817Y-53846183D01*
X125060128Y-53711846D01*
X124873375Y-53612024D01*
X124670737Y-53550555D01*
X124512806Y-53535000D01*
X124407194Y-53535000D01*
X124249263Y-53550555D01*
X124046625Y-53612024D01*
X123859872Y-53711846D01*
X123696183Y-53846183D01*
X123561846Y-54009872D01*
X123462024Y-54196625D01*
X123400555Y-54399263D01*
X123379799Y-54610000D01*
X123000201Y-54610000D01*
X122979445Y-54399263D01*
X122917976Y-54196625D01*
X122818154Y-54009872D01*
X122683817Y-53846183D01*
X122520128Y-53711846D01*
X122333375Y-53612024D01*
X122130737Y-53550555D01*
X121972806Y-53535000D01*
X121867194Y-53535000D01*
X121709263Y-53550555D01*
X121506625Y-53612024D01*
X121319872Y-53711846D01*
X121156183Y-53846183D01*
X121021846Y-54009872D01*
X120922024Y-54196625D01*
X120860555Y-54399263D01*
X120839799Y-54610000D01*
X120460201Y-54610000D01*
X120439445Y-54399263D01*
X120377976Y-54196625D01*
X120278154Y-54009872D01*
X120143817Y-53846183D01*
X119980128Y-53711846D01*
X119793375Y-53612024D01*
X119590737Y-53550555D01*
X119432806Y-53535000D01*
X119327194Y-53535000D01*
X119169263Y-53550555D01*
X118966625Y-53612024D01*
X118779872Y-53711846D01*
X118616183Y-53846183D01*
X118481846Y-54009872D01*
X118382024Y-54196625D01*
X118320555Y-54399263D01*
X118299799Y-54610000D01*
X117920201Y-54610000D01*
X117899445Y-54399263D01*
X117837976Y-54196625D01*
X117738154Y-54009872D01*
X117603817Y-53846183D01*
X117440128Y-53711846D01*
X117253375Y-53612024D01*
X117050737Y-53550555D01*
X116892806Y-53535000D01*
X116787194Y-53535000D01*
X116629263Y-53550555D01*
X116426625Y-53612024D01*
X116239872Y-53711846D01*
X116076183Y-53846183D01*
X115941846Y-54009872D01*
X115842024Y-54196625D01*
X115780555Y-54399263D01*
X115759799Y-54610000D01*
X115380201Y-54610000D01*
X115359445Y-54399263D01*
X115297976Y-54196625D01*
X115198154Y-54009872D01*
X115063817Y-53846183D01*
X114900128Y-53711846D01*
X114713375Y-53612024D01*
X114510737Y-53550555D01*
X114352806Y-53535000D01*
X114247194Y-53535000D01*
X114089263Y-53550555D01*
X113886625Y-53612024D01*
X113699872Y-53711846D01*
X113536183Y-53846183D01*
X113401846Y-54009872D01*
X113302024Y-54196625D01*
X113240555Y-54399263D01*
X113219799Y-54610000D01*
X112840201Y-54610000D01*
X112819445Y-54399263D01*
X112757976Y-54196625D01*
X112658154Y-54009872D01*
X112523817Y-53846183D01*
X112360128Y-53711846D01*
X112173375Y-53612024D01*
X111970737Y-53550555D01*
X111812806Y-53535000D01*
X111707194Y-53535000D01*
X111549263Y-53550555D01*
X111346625Y-53612024D01*
X111159872Y-53711846D01*
X110996183Y-53846183D01*
X110861846Y-54009872D01*
X110762024Y-54196625D01*
X110700555Y-54399263D01*
X110679799Y-54610000D01*
X110300201Y-54610000D01*
X110279445Y-54399263D01*
X110217976Y-54196625D01*
X110118154Y-54009872D01*
X109983817Y-53846183D01*
X109820128Y-53711846D01*
X109633375Y-53612024D01*
X109430737Y-53550555D01*
X109272806Y-53535000D01*
X109167194Y-53535000D01*
X109009263Y-53550555D01*
X108806625Y-53612024D01*
X108619872Y-53711846D01*
X108456183Y-53846183D01*
X108321846Y-54009872D01*
X108222024Y-54196625D01*
X108160555Y-54399263D01*
X108139799Y-54610000D01*
X107760201Y-54610000D01*
X107739445Y-54399263D01*
X107677976Y-54196625D01*
X107578154Y-54009872D01*
X107443817Y-53846183D01*
X107280128Y-53711846D01*
X107093375Y-53612024D01*
X106890737Y-53550555D01*
X106732806Y-53535000D01*
X106627194Y-53535000D01*
X106469263Y-53550555D01*
X106266625Y-53612024D01*
X106079872Y-53711846D01*
X105916183Y-53846183D01*
X105781846Y-54009872D01*
X105682024Y-54196625D01*
X105620555Y-54399263D01*
X105599799Y-54610000D01*
X105220201Y-54610000D01*
X105199445Y-54399263D01*
X105137976Y-54196625D01*
X105038154Y-54009872D01*
X104903817Y-53846183D01*
X104740128Y-53711846D01*
X104553375Y-53612024D01*
X104350737Y-53550555D01*
X104192806Y-53535000D01*
X104087194Y-53535000D01*
X103929263Y-53550555D01*
X103726625Y-53612024D01*
X103539872Y-53711846D01*
X103376183Y-53846183D01*
X103241846Y-54009872D01*
X103142024Y-54196625D01*
X103080555Y-54399263D01*
X103059799Y-54610000D01*
X102680201Y-54610000D01*
X102659445Y-54399263D01*
X102597976Y-54196625D01*
X102498154Y-54009872D01*
X102363817Y-53846183D01*
X102200128Y-53711846D01*
X102013375Y-53612024D01*
X101810737Y-53550555D01*
X101652806Y-53535000D01*
X101547194Y-53535000D01*
X101389263Y-53550555D01*
X101186625Y-53612024D01*
X100999872Y-53711846D01*
X100836183Y-53846183D01*
X100701846Y-54009872D01*
X100602024Y-54196625D01*
X100540555Y-54399263D01*
X100519799Y-54610000D01*
X100140201Y-54610000D01*
X100119445Y-54399263D01*
X100057976Y-54196625D01*
X99958154Y-54009872D01*
X99823817Y-53846183D01*
X99660128Y-53711846D01*
X99473375Y-53612024D01*
X99270737Y-53550555D01*
X99112806Y-53535000D01*
X99007194Y-53535000D01*
X98849263Y-53550555D01*
X98646625Y-53612024D01*
X98459872Y-53711846D01*
X98296183Y-53846183D01*
X98161846Y-54009872D01*
X98062024Y-54196625D01*
X98000555Y-54399263D01*
X97979799Y-54610000D01*
X97600201Y-54610000D01*
X97579445Y-54399263D01*
X97517976Y-54196625D01*
X97418154Y-54009872D01*
X97283817Y-53846183D01*
X97120128Y-53711846D01*
X96933375Y-53612024D01*
X96730737Y-53550555D01*
X96572806Y-53535000D01*
X96467194Y-53535000D01*
X96309263Y-53550555D01*
X96106625Y-53612024D01*
X95919872Y-53711846D01*
X95756183Y-53846183D01*
X95621846Y-54009872D01*
X95522024Y-54196625D01*
X95460555Y-54399263D01*
X95439799Y-54610000D01*
X95060201Y-54610000D01*
X95039445Y-54399263D01*
X94977976Y-54196625D01*
X94878154Y-54009872D01*
X94743817Y-53846183D01*
X94580128Y-53711846D01*
X94393375Y-53612024D01*
X94190737Y-53550555D01*
X94032806Y-53535000D01*
X93927194Y-53535000D01*
X93769263Y-53550555D01*
X93566625Y-53612024D01*
X93379872Y-53711846D01*
X93216183Y-53846183D01*
X93081846Y-54009872D01*
X92982024Y-54196625D01*
X92920555Y-54399263D01*
X92899799Y-54610000D01*
X92520201Y-54610000D01*
X92499445Y-54399263D01*
X92437976Y-54196625D01*
X92338154Y-54009872D01*
X92203817Y-53846183D01*
X92040128Y-53711846D01*
X91853375Y-53612024D01*
X91650737Y-53550555D01*
X91492806Y-53535000D01*
X91387194Y-53535000D01*
X91229263Y-53550555D01*
X91026625Y-53612024D01*
X90839872Y-53711846D01*
X90676183Y-53846183D01*
X90541846Y-54009872D01*
X90442024Y-54196625D01*
X90380555Y-54399263D01*
X90359799Y-54610000D01*
X89980201Y-54610000D01*
X89959445Y-54399263D01*
X89897976Y-54196625D01*
X89798154Y-54009872D01*
X89663817Y-53846183D01*
X89500128Y-53711846D01*
X89313375Y-53612024D01*
X89110737Y-53550555D01*
X88952806Y-53535000D01*
X88847194Y-53535000D01*
X88689263Y-53550555D01*
X88486625Y-53612024D01*
X88299872Y-53711846D01*
X88136183Y-53846183D01*
X88001846Y-54009872D01*
X87902024Y-54196625D01*
X87840555Y-54399263D01*
X87819799Y-54610000D01*
X87440201Y-54610000D01*
X87419445Y-54399263D01*
X87357976Y-54196625D01*
X87258154Y-54009872D01*
X87123817Y-53846183D01*
X86960128Y-53711846D01*
X86773375Y-53612024D01*
X86570737Y-53550555D01*
X86412806Y-53535000D01*
X86307194Y-53535000D01*
X86149263Y-53550555D01*
X85946625Y-53612024D01*
X85759872Y-53711846D01*
X85596183Y-53846183D01*
X85461846Y-54009872D01*
X85362024Y-54196625D01*
X85300555Y-54399263D01*
X85279799Y-54610000D01*
X84900201Y-54610000D01*
X84879445Y-54399263D01*
X84817976Y-54196625D01*
X84718154Y-54009872D01*
X84583817Y-53846183D01*
X84420128Y-53711846D01*
X84233375Y-53612024D01*
X84030737Y-53550555D01*
X83872806Y-53535000D01*
X83767194Y-53535000D01*
X83609263Y-53550555D01*
X83406625Y-53612024D01*
X83219872Y-53711846D01*
X83056183Y-53846183D01*
X82921846Y-54009872D01*
X82822024Y-54196625D01*
X82760555Y-54399263D01*
X82739799Y-54610000D01*
X82360201Y-54610000D01*
X82339445Y-54399263D01*
X82277976Y-54196625D01*
X82178154Y-54009872D01*
X82043817Y-53846183D01*
X81880128Y-53711846D01*
X81693375Y-53612024D01*
X81490737Y-53550555D01*
X81332806Y-53535000D01*
X81227194Y-53535000D01*
X81069263Y-53550555D01*
X80866625Y-53612024D01*
X80679872Y-53711846D01*
X80516183Y-53846183D01*
X80381846Y-54009872D01*
X80282024Y-54196625D01*
X80220555Y-54399263D01*
X80199799Y-54610000D01*
X79820201Y-54610000D01*
X79799445Y-54399263D01*
X79737976Y-54196625D01*
X79638154Y-54009872D01*
X79503817Y-53846183D01*
X79340128Y-53711846D01*
X79153375Y-53612024D01*
X78950737Y-53550555D01*
X78792806Y-53535000D01*
X78687194Y-53535000D01*
X78529263Y-53550555D01*
X78326625Y-53612024D01*
X78139872Y-53711846D01*
X77976183Y-53846183D01*
X77841846Y-54009872D01*
X77742024Y-54196625D01*
X77680555Y-54399263D01*
X77659799Y-54610000D01*
X77280201Y-54610000D01*
X77259445Y-54399263D01*
X77197976Y-54196625D01*
X77098154Y-54009872D01*
X76963817Y-53846183D01*
X76800128Y-53711846D01*
X76613375Y-53612024D01*
X76410737Y-53550555D01*
X76252806Y-53535000D01*
X76147194Y-53535000D01*
X75989263Y-53550555D01*
X75786625Y-53612024D01*
X75599872Y-53711846D01*
X75436183Y-53846183D01*
X75301846Y-54009872D01*
X75202024Y-54196625D01*
X75140555Y-54399263D01*
X75119799Y-54610000D01*
X74740201Y-54610000D01*
X74719445Y-54399263D01*
X74657976Y-54196625D01*
X74558154Y-54009872D01*
X74423817Y-53846183D01*
X74260128Y-53711846D01*
X74073375Y-53612024D01*
X73870737Y-53550555D01*
X73712806Y-53535000D01*
X73607194Y-53535000D01*
X73449263Y-53550555D01*
X73246625Y-53612024D01*
X73059872Y-53711846D01*
X72896183Y-53846183D01*
X72761846Y-54009872D01*
X72662024Y-54196625D01*
X72600555Y-54399263D01*
X72579799Y-54610000D01*
X72196088Y-54610000D01*
X72196088Y-53760000D01*
X72191744Y-53715892D01*
X72178878Y-53673480D01*
X72157985Y-53634392D01*
X72129868Y-53600132D01*
X72095608Y-53572015D01*
X72056520Y-53551122D01*
X72014108Y-53538256D01*
X71970000Y-53533912D01*
X70270000Y-53533912D01*
X70225892Y-53538256D01*
X70183480Y-53551122D01*
X70144392Y-53572015D01*
X70110132Y-53600132D01*
X70082015Y-53634392D01*
X70061122Y-53673480D01*
X70048256Y-53715892D01*
X70043912Y-53760000D01*
X68880000Y-53760000D01*
X68880000Y-36844670D01*
X68924071Y-36395196D01*
X69049426Y-35980000D01*
X70043912Y-35980000D01*
X70043912Y-37680000D01*
X70048256Y-37724108D01*
X70061122Y-37766520D01*
X70082015Y-37805608D01*
X70110132Y-37839868D01*
X70144392Y-37867985D01*
X70183480Y-37888878D01*
X70225892Y-37901744D01*
X70270000Y-37906088D01*
X71970000Y-37906088D01*
X72014108Y-37901744D01*
X72056520Y-37888878D01*
X72095608Y-37867985D01*
X72129868Y-37839868D01*
X72157985Y-37805608D01*
X72178878Y-37766520D01*
X72191744Y-37724108D01*
X72196088Y-37680000D01*
X72196088Y-36830000D01*
X72579799Y-36830000D01*
X72600555Y-37040737D01*
X72662024Y-37243375D01*
X72761846Y-37430128D01*
X72896183Y-37593817D01*
X73059872Y-37728154D01*
X73246625Y-37827976D01*
X73449263Y-37889445D01*
X73607194Y-37905000D01*
X73712806Y-37905000D01*
X73870737Y-37889445D01*
X74073375Y-37827976D01*
X74260128Y-37728154D01*
X74423817Y-37593817D01*
X74558154Y-37430128D01*
X74657976Y-37243375D01*
X74719445Y-37040737D01*
X74740201Y-36830000D01*
X75119799Y-36830000D01*
X75140555Y-37040737D01*
X75202024Y-37243375D01*
X75301846Y-37430128D01*
X75436183Y-37593817D01*
X75599872Y-37728154D01*
X75786625Y-37827976D01*
X75989263Y-37889445D01*
X76147194Y-37905000D01*
X76252806Y-37905000D01*
X76410737Y-37889445D01*
X76613375Y-37827976D01*
X76800128Y-37728154D01*
X76963817Y-37593817D01*
X77098154Y-37430128D01*
X77197976Y-37243375D01*
X77259445Y-37040737D01*
X77280201Y-36830000D01*
X77659799Y-36830000D01*
X77680555Y-37040737D01*
X77742024Y-37243375D01*
X77841846Y-37430128D01*
X77976183Y-37593817D01*
X78139872Y-37728154D01*
X78326625Y-37827976D01*
X78529263Y-37889445D01*
X78687194Y-37905000D01*
X78792806Y-37905000D01*
X78950737Y-37889445D01*
X79153375Y-37827976D01*
X79340128Y-37728154D01*
X79503817Y-37593817D01*
X79638154Y-37430128D01*
X79737976Y-37243375D01*
X79799445Y-37040737D01*
X79820201Y-36830000D01*
X80199799Y-36830000D01*
X80220555Y-37040737D01*
X80282024Y-37243375D01*
X80381846Y-37430128D01*
X80516183Y-37593817D01*
X80679872Y-37728154D01*
X80866625Y-37827976D01*
X81069263Y-37889445D01*
X81227194Y-37905000D01*
X81332806Y-37905000D01*
X81490737Y-37889445D01*
X81693375Y-37827976D01*
X81880128Y-37728154D01*
X82043817Y-37593817D01*
X82178154Y-37430128D01*
X82277976Y-37243375D01*
X82339445Y-37040737D01*
X82360201Y-36830000D01*
X82739799Y-36830000D01*
X82760555Y-37040737D01*
X82822024Y-37243375D01*
X82921846Y-37430128D01*
X83056183Y-37593817D01*
X83219872Y-37728154D01*
X83406625Y-37827976D01*
X83609263Y-37889445D01*
X83767194Y-37905000D01*
X83872806Y-37905000D01*
X84030737Y-37889445D01*
X84233375Y-37827976D01*
X84420128Y-37728154D01*
X84583817Y-37593817D01*
X84718154Y-37430128D01*
X84817976Y-37243375D01*
X84879445Y-37040737D01*
X84900201Y-36830000D01*
X85279799Y-36830000D01*
X85300555Y-37040737D01*
X85362024Y-37243375D01*
X85461846Y-37430128D01*
X85596183Y-37593817D01*
X85759872Y-37728154D01*
X85946625Y-37827976D01*
X86149263Y-37889445D01*
X86307194Y-37905000D01*
X86412806Y-37905000D01*
X86570737Y-37889445D01*
X86773375Y-37827976D01*
X86960128Y-37728154D01*
X87123817Y-37593817D01*
X87258154Y-37430128D01*
X87357976Y-37243375D01*
X87419445Y-37040737D01*
X87440201Y-36830000D01*
X87819799Y-36830000D01*
X87840555Y-37040737D01*
X87902024Y-37243375D01*
X88001846Y-37430128D01*
X88136183Y-37593817D01*
X88299872Y-37728154D01*
X88486625Y-37827976D01*
X88689263Y-37889445D01*
X88847194Y-37905000D01*
X88952806Y-37905000D01*
X89110737Y-37889445D01*
X89313375Y-37827976D01*
X89500128Y-37728154D01*
X89663817Y-37593817D01*
X89798154Y-37430128D01*
X89897976Y-37243375D01*
X89959445Y-37040737D01*
X89980201Y-36830000D01*
X90359799Y-36830000D01*
X90380555Y-37040737D01*
X90442024Y-37243375D01*
X90541846Y-37430128D01*
X90676183Y-37593817D01*
X90839872Y-37728154D01*
X91026625Y-37827976D01*
X91229263Y-37889445D01*
X91387194Y-37905000D01*
X91492806Y-37905000D01*
X91650737Y-37889445D01*
X91853375Y-37827976D01*
X92040128Y-37728154D01*
X92203817Y-37593817D01*
X92338154Y-37430128D01*
X92437976Y-37243375D01*
X92499445Y-37040737D01*
X92520201Y-36830000D01*
X92899799Y-36830000D01*
X92920555Y-37040737D01*
X92982024Y-37243375D01*
X93081846Y-37430128D01*
X93216183Y-37593817D01*
X93379872Y-37728154D01*
X93566625Y-37827976D01*
X93769263Y-37889445D01*
X93927194Y-37905000D01*
X94032806Y-37905000D01*
X94190737Y-37889445D01*
X94393375Y-37827976D01*
X94580128Y-37728154D01*
X94743817Y-37593817D01*
X94878154Y-37430128D01*
X94977976Y-37243375D01*
X95039445Y-37040737D01*
X95060201Y-36830000D01*
X95439799Y-36830000D01*
X95460555Y-37040737D01*
X95522024Y-37243375D01*
X95621846Y-37430128D01*
X95756183Y-37593817D01*
X95919872Y-37728154D01*
X96106625Y-37827976D01*
X96309263Y-37889445D01*
X96467194Y-37905000D01*
X96572806Y-37905000D01*
X96730737Y-37889445D01*
X96933375Y-37827976D01*
X97120128Y-37728154D01*
X97283817Y-37593817D01*
X97418154Y-37430128D01*
X97517976Y-37243375D01*
X97579445Y-37040737D01*
X97600201Y-36830000D01*
X97979799Y-36830000D01*
X98000555Y-37040737D01*
X98062024Y-37243375D01*
X98161846Y-37430128D01*
X98296183Y-37593817D01*
X98459872Y-37728154D01*
X98646625Y-37827976D01*
X98849263Y-37889445D01*
X99007194Y-37905000D01*
X99112806Y-37905000D01*
X99270737Y-37889445D01*
X99473375Y-37827976D01*
X99660128Y-37728154D01*
X99823817Y-37593817D01*
X99958154Y-37430128D01*
X100057976Y-37243375D01*
X100119445Y-37040737D01*
X100140201Y-36830000D01*
X100519799Y-36830000D01*
X100540555Y-37040737D01*
X100602024Y-37243375D01*
X100701846Y-37430128D01*
X100836183Y-37593817D01*
X100999872Y-37728154D01*
X101186625Y-37827976D01*
X101389263Y-37889445D01*
X101547194Y-37905000D01*
X101652806Y-37905000D01*
X101810737Y-37889445D01*
X102013375Y-37827976D01*
X102200128Y-37728154D01*
X102363817Y-37593817D01*
X102498154Y-37430128D01*
X102597976Y-37243375D01*
X102659445Y-37040737D01*
X102680201Y-36830000D01*
X103059799Y-36830000D01*
X103080555Y-37040737D01*
X103142024Y-37243375D01*
X103241846Y-37430128D01*
X103376183Y-37593817D01*
X103539872Y-37728154D01*
X103726625Y-37827976D01*
X103929263Y-37889445D01*
X104087194Y-37905000D01*
X104192806Y-37905000D01*
X104350737Y-37889445D01*
X104553375Y-37827976D01*
X104740128Y-37728154D01*
X104903817Y-37593817D01*
X105038154Y-37430128D01*
X105137976Y-37243375D01*
X105199445Y-37040737D01*
X105220201Y-36830000D01*
X105599799Y-36830000D01*
X105620555Y-37040737D01*
X105682024Y-37243375D01*
X105781846Y-37430128D01*
X105916183Y-37593817D01*
X106079872Y-37728154D01*
X106266625Y-37827976D01*
X106469263Y-37889445D01*
X106627194Y-37905000D01*
X106732806Y-37905000D01*
X106890737Y-37889445D01*
X107093375Y-37827976D01*
X107280128Y-37728154D01*
X107443817Y-37593817D01*
X107578154Y-37430128D01*
X107677976Y-37243375D01*
X107739445Y-37040737D01*
X107760201Y-36830000D01*
X108139799Y-36830000D01*
X108160555Y-37040737D01*
X108222024Y-37243375D01*
X108321846Y-37430128D01*
X108456183Y-37593817D01*
X108619872Y-37728154D01*
X108806625Y-37827976D01*
X109009263Y-37889445D01*
X109167194Y-37905000D01*
X109272806Y-37905000D01*
X109430737Y-37889445D01*
X109633375Y-37827976D01*
X109820128Y-37728154D01*
X109983817Y-37593817D01*
X110118154Y-37430128D01*
X110217976Y-37243375D01*
X110279445Y-37040737D01*
X110300201Y-36830000D01*
X110679799Y-36830000D01*
X110700555Y-37040737D01*
X110762024Y-37243375D01*
X110861846Y-37430128D01*
X110996183Y-37593817D01*
X111159872Y-37728154D01*
X111346625Y-37827976D01*
X111549263Y-37889445D01*
X111707194Y-37905000D01*
X111812806Y-37905000D01*
X111970737Y-37889445D01*
X112173375Y-37827976D01*
X112360128Y-37728154D01*
X112523817Y-37593817D01*
X112658154Y-37430128D01*
X112757976Y-37243375D01*
X112819445Y-37040737D01*
X112840201Y-36830000D01*
X113219799Y-36830000D01*
X113240555Y-37040737D01*
X113302024Y-37243375D01*
X113401846Y-37430128D01*
X113536183Y-37593817D01*
X113699872Y-37728154D01*
X113886625Y-37827976D01*
X114089263Y-37889445D01*
X114247194Y-37905000D01*
X114352806Y-37905000D01*
X114510737Y-37889445D01*
X114713375Y-37827976D01*
X114900128Y-37728154D01*
X115063817Y-37593817D01*
X115198154Y-37430128D01*
X115297976Y-37243375D01*
X115359445Y-37040737D01*
X115380201Y-36830000D01*
X115759799Y-36830000D01*
X115780555Y-37040737D01*
X115842024Y-37243375D01*
X115941846Y-37430128D01*
X116076183Y-37593817D01*
X116239872Y-37728154D01*
X116426625Y-37827976D01*
X116629263Y-37889445D01*
X116787194Y-37905000D01*
X116892806Y-37905000D01*
X117050737Y-37889445D01*
X117253375Y-37827976D01*
X117440128Y-37728154D01*
X117603817Y-37593817D01*
X117738154Y-37430128D01*
X117837976Y-37243375D01*
X117899445Y-37040737D01*
X117920201Y-36830000D01*
X118299799Y-36830000D01*
X118320555Y-37040737D01*
X118382024Y-37243375D01*
X118481846Y-37430128D01*
X118616183Y-37593817D01*
X118779872Y-37728154D01*
X118966625Y-37827976D01*
X119169263Y-37889445D01*
X119327194Y-37905000D01*
X119432806Y-37905000D01*
X119590737Y-37889445D01*
X119793375Y-37827976D01*
X119980128Y-37728154D01*
X120143817Y-37593817D01*
X120278154Y-37430128D01*
X120377976Y-37243375D01*
X120439445Y-37040737D01*
X120460201Y-36830000D01*
X120839799Y-36830000D01*
X120860555Y-37040737D01*
X120922024Y-37243375D01*
X121021846Y-37430128D01*
X121156183Y-37593817D01*
X121319872Y-37728154D01*
X121506625Y-37827976D01*
X121709263Y-37889445D01*
X121867194Y-37905000D01*
X121972806Y-37905000D01*
X122130737Y-37889445D01*
X122333375Y-37827976D01*
X122520128Y-37728154D01*
X122683817Y-37593817D01*
X122818154Y-37430128D01*
X122917976Y-37243375D01*
X122979445Y-37040737D01*
X123000201Y-36830000D01*
X123379799Y-36830000D01*
X123400555Y-37040737D01*
X123462024Y-37243375D01*
X123561846Y-37430128D01*
X123696183Y-37593817D01*
X123859872Y-37728154D01*
X124046625Y-37827976D01*
X124249263Y-37889445D01*
X124407194Y-37905000D01*
X124512806Y-37905000D01*
X124670737Y-37889445D01*
X124873375Y-37827976D01*
X125060128Y-37728154D01*
X125223817Y-37593817D01*
X125358154Y-37430128D01*
X125457976Y-37243375D01*
X125519445Y-37040737D01*
X125540201Y-36830000D01*
X125519445Y-36619263D01*
X125457976Y-36416625D01*
X125358154Y-36229872D01*
X125223817Y-36066183D01*
X125060128Y-35931846D01*
X124873375Y-35832024D01*
X124670737Y-35770555D01*
X124512806Y-35755000D01*
X124407194Y-35755000D01*
X124249263Y-35770555D01*
X124046625Y-35832024D01*
X123859872Y-35931846D01*
X123696183Y-36066183D01*
X123561846Y-36229872D01*
X123462024Y-36416625D01*
X123400555Y-36619263D01*
X123379799Y-36830000D01*
X123000201Y-36830000D01*
X122979445Y-36619263D01*
X122917976Y-36416625D01*
X122818154Y-36229872D01*
X122683817Y-36066183D01*
X122520128Y-35931846D01*
X122333375Y-35832024D01*
X122130737Y-35770555D01*
X121972806Y-35755000D01*
X121867194Y-35755000D01*
X121709263Y-35770555D01*
X121506625Y-35832024D01*
X121319872Y-35931846D01*
X121156183Y-36066183D01*
X121021846Y-36229872D01*
X120922024Y-36416625D01*
X120860555Y-36619263D01*
X120839799Y-36830000D01*
X120460201Y-36830000D01*
X120439445Y-36619263D01*
X120377976Y-36416625D01*
X120278154Y-36229872D01*
X120143817Y-36066183D01*
X119980128Y-35931846D01*
X119793375Y-35832024D01*
X119590737Y-35770555D01*
X119432806Y-35755000D01*
X119327194Y-35755000D01*
X119169263Y-35770555D01*
X118966625Y-35832024D01*
X118779872Y-35931846D01*
X118616183Y-36066183D01*
X118481846Y-36229872D01*
X118382024Y-36416625D01*
X118320555Y-36619263D01*
X118299799Y-36830000D01*
X117920201Y-36830000D01*
X117899445Y-36619263D01*
X117837976Y-36416625D01*
X117738154Y-36229872D01*
X117603817Y-36066183D01*
X117440128Y-35931846D01*
X117253375Y-35832024D01*
X117050737Y-35770555D01*
X116892806Y-35755000D01*
X116787194Y-35755000D01*
X116629263Y-35770555D01*
X116426625Y-35832024D01*
X116239872Y-35931846D01*
X116076183Y-36066183D01*
X115941846Y-36229872D01*
X115842024Y-36416625D01*
X115780555Y-36619263D01*
X115759799Y-36830000D01*
X115380201Y-36830000D01*
X115359445Y-36619263D01*
X115297976Y-36416625D01*
X115198154Y-36229872D01*
X115063817Y-36066183D01*
X114900128Y-35931846D01*
X114713375Y-35832024D01*
X114510737Y-35770555D01*
X114352806Y-35755000D01*
X114247194Y-35755000D01*
X114089263Y-35770555D01*
X113886625Y-35832024D01*
X113699872Y-35931846D01*
X113536183Y-36066183D01*
X113401846Y-36229872D01*
X113302024Y-36416625D01*
X113240555Y-36619263D01*
X113219799Y-36830000D01*
X112840201Y-36830000D01*
X112819445Y-36619263D01*
X112757976Y-36416625D01*
X112658154Y-36229872D01*
X112523817Y-36066183D01*
X112360128Y-35931846D01*
X112173375Y-35832024D01*
X111970737Y-35770555D01*
X111812806Y-35755000D01*
X111707194Y-35755000D01*
X111549263Y-35770555D01*
X111346625Y-35832024D01*
X111159872Y-35931846D01*
X110996183Y-36066183D01*
X110861846Y-36229872D01*
X110762024Y-36416625D01*
X110700555Y-36619263D01*
X110679799Y-36830000D01*
X110300201Y-36830000D01*
X110279445Y-36619263D01*
X110217976Y-36416625D01*
X110118154Y-36229872D01*
X109983817Y-36066183D01*
X109820128Y-35931846D01*
X109633375Y-35832024D01*
X109430737Y-35770555D01*
X109272806Y-35755000D01*
X109167194Y-35755000D01*
X109009263Y-35770555D01*
X108806625Y-35832024D01*
X108619872Y-35931846D01*
X108456183Y-36066183D01*
X108321846Y-36229872D01*
X108222024Y-36416625D01*
X108160555Y-36619263D01*
X108139799Y-36830000D01*
X107760201Y-36830000D01*
X107739445Y-36619263D01*
X107677976Y-36416625D01*
X107578154Y-36229872D01*
X107443817Y-36066183D01*
X107280128Y-35931846D01*
X107093375Y-35832024D01*
X106890737Y-35770555D01*
X106732806Y-35755000D01*
X106627194Y-35755000D01*
X106469263Y-35770555D01*
X106266625Y-35832024D01*
X106079872Y-35931846D01*
X105916183Y-36066183D01*
X105781846Y-36229872D01*
X105682024Y-36416625D01*
X105620555Y-36619263D01*
X105599799Y-36830000D01*
X105220201Y-36830000D01*
X105199445Y-36619263D01*
X105137976Y-36416625D01*
X105038154Y-36229872D01*
X104903817Y-36066183D01*
X104740128Y-35931846D01*
X104553375Y-35832024D01*
X104350737Y-35770555D01*
X104192806Y-35755000D01*
X104087194Y-35755000D01*
X103929263Y-35770555D01*
X103726625Y-35832024D01*
X103539872Y-35931846D01*
X103376183Y-36066183D01*
X103241846Y-36229872D01*
X103142024Y-36416625D01*
X103080555Y-36619263D01*
X103059799Y-36830000D01*
X102680201Y-36830000D01*
X102659445Y-36619263D01*
X102597976Y-36416625D01*
X102498154Y-36229872D01*
X102363817Y-36066183D01*
X102200128Y-35931846D01*
X102013375Y-35832024D01*
X101810737Y-35770555D01*
X101652806Y-35755000D01*
X101547194Y-35755000D01*
X101389263Y-35770555D01*
X101186625Y-35832024D01*
X100999872Y-35931846D01*
X100836183Y-36066183D01*
X100701846Y-36229872D01*
X100602024Y-36416625D01*
X100540555Y-36619263D01*
X100519799Y-36830000D01*
X100140201Y-36830000D01*
X100119445Y-36619263D01*
X100057976Y-36416625D01*
X99958154Y-36229872D01*
X99823817Y-36066183D01*
X99660128Y-35931846D01*
X99473375Y-35832024D01*
X99270737Y-35770555D01*
X99112806Y-35755000D01*
X99007194Y-35755000D01*
X98849263Y-35770555D01*
X98646625Y-35832024D01*
X98459872Y-35931846D01*
X98296183Y-36066183D01*
X98161846Y-36229872D01*
X98062024Y-36416625D01*
X98000555Y-36619263D01*
X97979799Y-36830000D01*
X97600201Y-36830000D01*
X97579445Y-36619263D01*
X97517976Y-36416625D01*
X97418154Y-36229872D01*
X97283817Y-36066183D01*
X97120128Y-35931846D01*
X96933375Y-35832024D01*
X96730737Y-35770555D01*
X96572806Y-35755000D01*
X96467194Y-35755000D01*
X96309263Y-35770555D01*
X96106625Y-35832024D01*
X95919872Y-35931846D01*
X95756183Y-36066183D01*
X95621846Y-36229872D01*
X95522024Y-36416625D01*
X95460555Y-36619263D01*
X95439799Y-36830000D01*
X95060201Y-36830000D01*
X95039445Y-36619263D01*
X94977976Y-36416625D01*
X94878154Y-36229872D01*
X94743817Y-36066183D01*
X94580128Y-35931846D01*
X94393375Y-35832024D01*
X94190737Y-35770555D01*
X94032806Y-35755000D01*
X93927194Y-35755000D01*
X93769263Y-35770555D01*
X93566625Y-35832024D01*
X93379872Y-35931846D01*
X93216183Y-36066183D01*
X93081846Y-36229872D01*
X92982024Y-36416625D01*
X92920555Y-36619263D01*
X92899799Y-36830000D01*
X92520201Y-36830000D01*
X92499445Y-36619263D01*
X92437976Y-36416625D01*
X92338154Y-36229872D01*
X92203817Y-36066183D01*
X92040128Y-35931846D01*
X91853375Y-35832024D01*
X91650737Y-35770555D01*
X91492806Y-35755000D01*
X91387194Y-35755000D01*
X91229263Y-35770555D01*
X91026625Y-35832024D01*
X90839872Y-35931846D01*
X90676183Y-36066183D01*
X90541846Y-36229872D01*
X90442024Y-36416625D01*
X90380555Y-36619263D01*
X90359799Y-36830000D01*
X89980201Y-36830000D01*
X89959445Y-36619263D01*
X89897976Y-36416625D01*
X89798154Y-36229872D01*
X89663817Y-36066183D01*
X89500128Y-35931846D01*
X89313375Y-35832024D01*
X89110737Y-35770555D01*
X88952806Y-35755000D01*
X88847194Y-35755000D01*
X88689263Y-35770555D01*
X88486625Y-35832024D01*
X88299872Y-35931846D01*
X88136183Y-36066183D01*
X88001846Y-36229872D01*
X87902024Y-36416625D01*
X87840555Y-36619263D01*
X87819799Y-36830000D01*
X87440201Y-36830000D01*
X87419445Y-36619263D01*
X87357976Y-36416625D01*
X87258154Y-36229872D01*
X87123817Y-36066183D01*
X86960128Y-35931846D01*
X86773375Y-35832024D01*
X86570737Y-35770555D01*
X86412806Y-35755000D01*
X86307194Y-35755000D01*
X86149263Y-35770555D01*
X85946625Y-35832024D01*
X85759872Y-35931846D01*
X85596183Y-36066183D01*
X85461846Y-36229872D01*
X85362024Y-36416625D01*
X85300555Y-36619263D01*
X85279799Y-36830000D01*
X84900201Y-36830000D01*
X84879445Y-36619263D01*
X84817976Y-36416625D01*
X84718154Y-36229872D01*
X84583817Y-36066183D01*
X84420128Y-35931846D01*
X84233375Y-35832024D01*
X84030737Y-35770555D01*
X83872806Y-35755000D01*
X83767194Y-35755000D01*
X83609263Y-35770555D01*
X83406625Y-35832024D01*
X83219872Y-35931846D01*
X83056183Y-36066183D01*
X82921846Y-36229872D01*
X82822024Y-36416625D01*
X82760555Y-36619263D01*
X82739799Y-36830000D01*
X82360201Y-36830000D01*
X82339445Y-36619263D01*
X82277976Y-36416625D01*
X82178154Y-36229872D01*
X82043817Y-36066183D01*
X81880128Y-35931846D01*
X81693375Y-35832024D01*
X81490737Y-35770555D01*
X81332806Y-35755000D01*
X81227194Y-35755000D01*
X81069263Y-35770555D01*
X80866625Y-35832024D01*
X80679872Y-35931846D01*
X80516183Y-36066183D01*
X80381846Y-36229872D01*
X80282024Y-36416625D01*
X80220555Y-36619263D01*
X80199799Y-36830000D01*
X79820201Y-36830000D01*
X79799445Y-36619263D01*
X79737976Y-36416625D01*
X79638154Y-36229872D01*
X79503817Y-36066183D01*
X79340128Y-35931846D01*
X79153375Y-35832024D01*
X78950737Y-35770555D01*
X78792806Y-35755000D01*
X78687194Y-35755000D01*
X78529263Y-35770555D01*
X78326625Y-35832024D01*
X78139872Y-35931846D01*
X77976183Y-36066183D01*
X77841846Y-36229872D01*
X77742024Y-36416625D01*
X77680555Y-36619263D01*
X77659799Y-36830000D01*
X77280201Y-36830000D01*
X77259445Y-36619263D01*
X77197976Y-36416625D01*
X77098154Y-36229872D01*
X76963817Y-36066183D01*
X76800128Y-35931846D01*
X76613375Y-35832024D01*
X76410737Y-35770555D01*
X76252806Y-35755000D01*
X76147194Y-35755000D01*
X75989263Y-35770555D01*
X75786625Y-35832024D01*
X75599872Y-35931846D01*
X75436183Y-36066183D01*
X75301846Y-36229872D01*
X75202024Y-36416625D01*
X75140555Y-36619263D01*
X75119799Y-36830000D01*
X74740201Y-36830000D01*
X74719445Y-36619263D01*
X74657976Y-36416625D01*
X74558154Y-36229872D01*
X74423817Y-36066183D01*
X74260128Y-35931846D01*
X74073375Y-35832024D01*
X73870737Y-35770555D01*
X73712806Y-35755000D01*
X73607194Y-35755000D01*
X73449263Y-35770555D01*
X73246625Y-35832024D01*
X73059872Y-35931846D01*
X72896183Y-36066183D01*
X72761846Y-36229872D01*
X72662024Y-36416625D01*
X72600555Y-36619263D01*
X72579799Y-36830000D01*
X72196088Y-36830000D01*
X72196088Y-35980000D01*
X72191744Y-35935892D01*
X72178878Y-35893480D01*
X72157985Y-35854392D01*
X72129868Y-35820132D01*
X72095608Y-35792015D01*
X72056520Y-35771122D01*
X72014108Y-35758256D01*
X71970000Y-35753912D01*
X70270000Y-35753912D01*
X70225892Y-35758256D01*
X70183480Y-35771122D01*
X70144392Y-35792015D01*
X70110132Y-35820132D01*
X70082015Y-35854392D01*
X70061122Y-35893480D01*
X70048256Y-35935892D01*
X70043912Y-35980000D01*
X69049426Y-35980000D01*
X69050348Y-35976948D01*
X69255455Y-35591198D01*
X69531585Y-35252631D01*
X69868211Y-34974150D01*
X70252523Y-34766353D01*
X70669871Y-34637162D01*
X71118520Y-34590007D01*
X71120477Y-34590000D01*
X124445330Y-34590000D01*
X124894804Y-34634071D01*
X124894804Y-34634071D01*
G37*
X124894804Y-34634071D02*
X125313052Y-34760348D01*
X125698802Y-34965455D01*
X126037369Y-35241585D01*
X126315850Y-35578211D01*
X126523647Y-35962523D01*
X126652838Y-36379871D01*
X126699993Y-36828520D01*
X126700000Y-36830477D01*
X126700001Y-54595319D01*
X126655929Y-55044803D01*
X126529652Y-55463052D01*
X126324547Y-55848800D01*
X126048418Y-56187367D01*
X125711789Y-56465850D01*
X125327478Y-56673646D01*
X124910129Y-56802838D01*
X124461480Y-56849993D01*
X124459523Y-56850000D01*
X71134670Y-56850000D01*
X70685197Y-56805929D01*
X70266948Y-56679652D01*
X69881200Y-56474547D01*
X69542633Y-56198418D01*
X69264150Y-55861789D01*
X69056354Y-55477478D01*
X68927162Y-55060129D01*
X68880007Y-54611480D01*
X68880000Y-54609523D01*
X68880000Y-53760000D01*
X70043912Y-53760000D01*
X70043912Y-55460000D01*
X70048256Y-55504108D01*
X70061122Y-55546520D01*
X70082015Y-55585608D01*
X70110132Y-55619868D01*
X70144392Y-55647985D01*
X70183480Y-55668878D01*
X70225892Y-55681744D01*
X70270000Y-55686088D01*
X71970000Y-55686088D01*
X72014108Y-55681744D01*
X72056520Y-55668878D01*
X72095608Y-55647985D01*
X72129868Y-55619868D01*
X72157985Y-55585608D01*
X72178878Y-55546520D01*
X72191744Y-55504108D01*
X72196088Y-55460000D01*
X72196088Y-54610000D01*
X72579799Y-54610000D01*
X72600555Y-54820737D01*
X72662024Y-55023375D01*
X72761846Y-55210128D01*
X72896183Y-55373817D01*
X73059872Y-55508154D01*
X73246625Y-55607976D01*
X73449263Y-55669445D01*
X73607194Y-55685000D01*
X73712806Y-55685000D01*
X73870737Y-55669445D01*
X74073375Y-55607976D01*
X74260128Y-55508154D01*
X74423817Y-55373817D01*
X74558154Y-55210128D01*
X74657976Y-55023375D01*
X74719445Y-54820737D01*
X74740201Y-54610000D01*
X75119799Y-54610000D01*
X75140555Y-54820737D01*
X75202024Y-55023375D01*
X75301846Y-55210128D01*
X75436183Y-55373817D01*
X75599872Y-55508154D01*
X75786625Y-55607976D01*
X75989263Y-55669445D01*
X76147194Y-55685000D01*
X76252806Y-55685000D01*
X76410737Y-55669445D01*
X76613375Y-55607976D01*
X76800128Y-55508154D01*
X76963817Y-55373817D01*
X77098154Y-55210128D01*
X77197976Y-55023375D01*
X77259445Y-54820737D01*
X77280201Y-54610000D01*
X77659799Y-54610000D01*
X77680555Y-54820737D01*
X77742024Y-55023375D01*
X77841846Y-55210128D01*
X77976183Y-55373817D01*
X78139872Y-55508154D01*
X78326625Y-55607976D01*
X78529263Y-55669445D01*
X78687194Y-55685000D01*
X78792806Y-55685000D01*
X78950737Y-55669445D01*
X79153375Y-55607976D01*
X79340128Y-55508154D01*
X79503817Y-55373817D01*
X79638154Y-55210128D01*
X79737976Y-55023375D01*
X79799445Y-54820737D01*
X79820201Y-54610000D01*
X80199799Y-54610000D01*
X80220555Y-54820737D01*
X80282024Y-55023375D01*
X80381846Y-55210128D01*
X80516183Y-55373817D01*
X80679872Y-55508154D01*
X80866625Y-55607976D01*
X81069263Y-55669445D01*
X81227194Y-55685000D01*
X81332806Y-55685000D01*
X81490737Y-55669445D01*
X81693375Y-55607976D01*
X81880128Y-55508154D01*
X82043817Y-55373817D01*
X82178154Y-55210128D01*
X82277976Y-55023375D01*
X82339445Y-54820737D01*
X82360201Y-54610000D01*
X82739799Y-54610000D01*
X82760555Y-54820737D01*
X82822024Y-55023375D01*
X82921846Y-55210128D01*
X83056183Y-55373817D01*
X83219872Y-55508154D01*
X83406625Y-55607976D01*
X83609263Y-55669445D01*
X83767194Y-55685000D01*
X83872806Y-55685000D01*
X84030737Y-55669445D01*
X84233375Y-55607976D01*
X84420128Y-55508154D01*
X84583817Y-55373817D01*
X84718154Y-55210128D01*
X84817976Y-55023375D01*
X84879445Y-54820737D01*
X84900201Y-54610000D01*
X85279799Y-54610000D01*
X85300555Y-54820737D01*
X85362024Y-55023375D01*
X85461846Y-55210128D01*
X85596183Y-55373817D01*
X85759872Y-55508154D01*
X85946625Y-55607976D01*
X86149263Y-55669445D01*
X86307194Y-55685000D01*
X86412806Y-55685000D01*
X86570737Y-55669445D01*
X86773375Y-55607976D01*
X86960128Y-55508154D01*
X87123817Y-55373817D01*
X87258154Y-55210128D01*
X87357976Y-55023375D01*
X87419445Y-54820737D01*
X87440201Y-54610000D01*
X87819799Y-54610000D01*
X87840555Y-54820737D01*
X87902024Y-55023375D01*
X88001846Y-55210128D01*
X88136183Y-55373817D01*
X88299872Y-55508154D01*
X88486625Y-55607976D01*
X88689263Y-55669445D01*
X88847194Y-55685000D01*
X88952806Y-55685000D01*
X89110737Y-55669445D01*
X89313375Y-55607976D01*
X89500128Y-55508154D01*
X89663817Y-55373817D01*
X89798154Y-55210128D01*
X89897976Y-55023375D01*
X89959445Y-54820737D01*
X89980201Y-54610000D01*
X90359799Y-54610000D01*
X90380555Y-54820737D01*
X90442024Y-55023375D01*
X90541846Y-55210128D01*
X90676183Y-55373817D01*
X90839872Y-55508154D01*
X91026625Y-55607976D01*
X91229263Y-55669445D01*
X91387194Y-55685000D01*
X91492806Y-55685000D01*
X91650737Y-55669445D01*
X91853375Y-55607976D01*
X92040128Y-55508154D01*
X92203817Y-55373817D01*
X92338154Y-55210128D01*
X92437976Y-55023375D01*
X92499445Y-54820737D01*
X92520201Y-54610000D01*
X92899799Y-54610000D01*
X92920555Y-54820737D01*
X92982024Y-55023375D01*
X93081846Y-55210128D01*
X93216183Y-55373817D01*
X93379872Y-55508154D01*
X93566625Y-55607976D01*
X93769263Y-55669445D01*
X93927194Y-55685000D01*
X94032806Y-55685000D01*
X94190737Y-55669445D01*
X94393375Y-55607976D01*
X94580128Y-55508154D01*
X94743817Y-55373817D01*
X94878154Y-55210128D01*
X94977976Y-55023375D01*
X95039445Y-54820737D01*
X95060201Y-54610000D01*
X95439799Y-54610000D01*
X95460555Y-54820737D01*
X95522024Y-55023375D01*
X95621846Y-55210128D01*
X95756183Y-55373817D01*
X95919872Y-55508154D01*
X96106625Y-55607976D01*
X96309263Y-55669445D01*
X96467194Y-55685000D01*
X96572806Y-55685000D01*
X96730737Y-55669445D01*
X96933375Y-55607976D01*
X97120128Y-55508154D01*
X97283817Y-55373817D01*
X97418154Y-55210128D01*
X97517976Y-55023375D01*
X97579445Y-54820737D01*
X97600201Y-54610000D01*
X97979799Y-54610000D01*
X98000555Y-54820737D01*
X98062024Y-55023375D01*
X98161846Y-55210128D01*
X98296183Y-55373817D01*
X98459872Y-55508154D01*
X98646625Y-55607976D01*
X98849263Y-55669445D01*
X99007194Y-55685000D01*
X99112806Y-55685000D01*
X99270737Y-55669445D01*
X99473375Y-55607976D01*
X99660128Y-55508154D01*
X99823817Y-55373817D01*
X99958154Y-55210128D01*
X100057976Y-55023375D01*
X100119445Y-54820737D01*
X100140201Y-54610000D01*
X100519799Y-54610000D01*
X100540555Y-54820737D01*
X100602024Y-55023375D01*
X100701846Y-55210128D01*
X100836183Y-55373817D01*
X100999872Y-55508154D01*
X101186625Y-55607976D01*
X101389263Y-55669445D01*
X101547194Y-55685000D01*
X101652806Y-55685000D01*
X101810737Y-55669445D01*
X102013375Y-55607976D01*
X102200128Y-55508154D01*
X102363817Y-55373817D01*
X102498154Y-55210128D01*
X102597976Y-55023375D01*
X102659445Y-54820737D01*
X102680201Y-54610000D01*
X103059799Y-54610000D01*
X103080555Y-54820737D01*
X103142024Y-55023375D01*
X103241846Y-55210128D01*
X103376183Y-55373817D01*
X103539872Y-55508154D01*
X103726625Y-55607976D01*
X103929263Y-55669445D01*
X104087194Y-55685000D01*
X104192806Y-55685000D01*
X104350737Y-55669445D01*
X104553375Y-55607976D01*
X104740128Y-55508154D01*
X104903817Y-55373817D01*
X105038154Y-55210128D01*
X105137976Y-55023375D01*
X105199445Y-54820737D01*
X105220201Y-54610000D01*
X105599799Y-54610000D01*
X105620555Y-54820737D01*
X105682024Y-55023375D01*
X105781846Y-55210128D01*
X105916183Y-55373817D01*
X106079872Y-55508154D01*
X106266625Y-55607976D01*
X106469263Y-55669445D01*
X106627194Y-55685000D01*
X106732806Y-55685000D01*
X106890737Y-55669445D01*
X107093375Y-55607976D01*
X107280128Y-55508154D01*
X107443817Y-55373817D01*
X107578154Y-55210128D01*
X107677976Y-55023375D01*
X107739445Y-54820737D01*
X107760201Y-54610000D01*
X108139799Y-54610000D01*
X108160555Y-54820737D01*
X108222024Y-55023375D01*
X108321846Y-55210128D01*
X108456183Y-55373817D01*
X108619872Y-55508154D01*
X108806625Y-55607976D01*
X109009263Y-55669445D01*
X109167194Y-55685000D01*
X109272806Y-55685000D01*
X109430737Y-55669445D01*
X109633375Y-55607976D01*
X109820128Y-55508154D01*
X109983817Y-55373817D01*
X110118154Y-55210128D01*
X110217976Y-55023375D01*
X110279445Y-54820737D01*
X110300201Y-54610000D01*
X110679799Y-54610000D01*
X110700555Y-54820737D01*
X110762024Y-55023375D01*
X110861846Y-55210128D01*
X110996183Y-55373817D01*
X111159872Y-55508154D01*
X111346625Y-55607976D01*
X111549263Y-55669445D01*
X111707194Y-55685000D01*
X111812806Y-55685000D01*
X111970737Y-55669445D01*
X112173375Y-55607976D01*
X112360128Y-55508154D01*
X112523817Y-55373817D01*
X112658154Y-55210128D01*
X112757976Y-55023375D01*
X112819445Y-54820737D01*
X112840201Y-54610000D01*
X113219799Y-54610000D01*
X113240555Y-54820737D01*
X113302024Y-55023375D01*
X113401846Y-55210128D01*
X113536183Y-55373817D01*
X113699872Y-55508154D01*
X113886625Y-55607976D01*
X114089263Y-55669445D01*
X114247194Y-55685000D01*
X114352806Y-55685000D01*
X114510737Y-55669445D01*
X114713375Y-55607976D01*
X114900128Y-55508154D01*
X115063817Y-55373817D01*
X115198154Y-55210128D01*
X115297976Y-55023375D01*
X115359445Y-54820737D01*
X115380201Y-54610000D01*
X115759799Y-54610000D01*
X115780555Y-54820737D01*
X115842024Y-55023375D01*
X115941846Y-55210128D01*
X116076183Y-55373817D01*
X116239872Y-55508154D01*
X116426625Y-55607976D01*
X116629263Y-55669445D01*
X116787194Y-55685000D01*
X116892806Y-55685000D01*
X117050737Y-55669445D01*
X117253375Y-55607976D01*
X117440128Y-55508154D01*
X117603817Y-55373817D01*
X117738154Y-55210128D01*
X117837976Y-55023375D01*
X117899445Y-54820737D01*
X117920201Y-54610000D01*
X118299799Y-54610000D01*
X118320555Y-54820737D01*
X118382024Y-55023375D01*
X118481846Y-55210128D01*
X118616183Y-55373817D01*
X118779872Y-55508154D01*
X118966625Y-55607976D01*
X119169263Y-55669445D01*
X119327194Y-55685000D01*
X119432806Y-55685000D01*
X119590737Y-55669445D01*
X119793375Y-55607976D01*
X119980128Y-55508154D01*
X120143817Y-55373817D01*
X120278154Y-55210128D01*
X120377976Y-55023375D01*
X120439445Y-54820737D01*
X120460201Y-54610000D01*
X120839799Y-54610000D01*
X120860555Y-54820737D01*
X120922024Y-55023375D01*
X121021846Y-55210128D01*
X121156183Y-55373817D01*
X121319872Y-55508154D01*
X121506625Y-55607976D01*
X121709263Y-55669445D01*
X121867194Y-55685000D01*
X121972806Y-55685000D01*
X122130737Y-55669445D01*
X122333375Y-55607976D01*
X122520128Y-55508154D01*
X122683817Y-55373817D01*
X122818154Y-55210128D01*
X122917976Y-55023375D01*
X122979445Y-54820737D01*
X123000201Y-54610000D01*
X123379799Y-54610000D01*
X123400555Y-54820737D01*
X123462024Y-55023375D01*
X123561846Y-55210128D01*
X123696183Y-55373817D01*
X123859872Y-55508154D01*
X124046625Y-55607976D01*
X124249263Y-55669445D01*
X124407194Y-55685000D01*
X124512806Y-55685000D01*
X124670737Y-55669445D01*
X124873375Y-55607976D01*
X125060128Y-55508154D01*
X125223817Y-55373817D01*
X125358154Y-55210128D01*
X125457976Y-55023375D01*
X125519445Y-54820737D01*
X125540201Y-54610000D01*
X125519445Y-54399263D01*
X125457976Y-54196625D01*
X125358154Y-54009872D01*
X125223817Y-53846183D01*
X125060128Y-53711846D01*
X124873375Y-53612024D01*
X124670737Y-53550555D01*
X124512806Y-53535000D01*
X124407194Y-53535000D01*
X124249263Y-53550555D01*
X124046625Y-53612024D01*
X123859872Y-53711846D01*
X123696183Y-53846183D01*
X123561846Y-54009872D01*
X123462024Y-54196625D01*
X123400555Y-54399263D01*
X123379799Y-54610000D01*
X123000201Y-54610000D01*
X122979445Y-54399263D01*
X122917976Y-54196625D01*
X122818154Y-54009872D01*
X122683817Y-53846183D01*
X122520128Y-53711846D01*
X122333375Y-53612024D01*
X122130737Y-53550555D01*
X121972806Y-53535000D01*
X121867194Y-53535000D01*
X121709263Y-53550555D01*
X121506625Y-53612024D01*
X121319872Y-53711846D01*
X121156183Y-53846183D01*
X121021846Y-54009872D01*
X120922024Y-54196625D01*
X120860555Y-54399263D01*
X120839799Y-54610000D01*
X120460201Y-54610000D01*
X120439445Y-54399263D01*
X120377976Y-54196625D01*
X120278154Y-54009872D01*
X120143817Y-53846183D01*
X119980128Y-53711846D01*
X119793375Y-53612024D01*
X119590737Y-53550555D01*
X119432806Y-53535000D01*
X119327194Y-53535000D01*
X119169263Y-53550555D01*
X118966625Y-53612024D01*
X118779872Y-53711846D01*
X118616183Y-53846183D01*
X118481846Y-54009872D01*
X118382024Y-54196625D01*
X118320555Y-54399263D01*
X118299799Y-54610000D01*
X117920201Y-54610000D01*
X117899445Y-54399263D01*
X117837976Y-54196625D01*
X117738154Y-54009872D01*
X117603817Y-53846183D01*
X117440128Y-53711846D01*
X117253375Y-53612024D01*
X117050737Y-53550555D01*
X116892806Y-53535000D01*
X116787194Y-53535000D01*
X116629263Y-53550555D01*
X116426625Y-53612024D01*
X116239872Y-53711846D01*
X116076183Y-53846183D01*
X115941846Y-54009872D01*
X115842024Y-54196625D01*
X115780555Y-54399263D01*
X115759799Y-54610000D01*
X115380201Y-54610000D01*
X115359445Y-54399263D01*
X115297976Y-54196625D01*
X115198154Y-54009872D01*
X115063817Y-53846183D01*
X114900128Y-53711846D01*
X114713375Y-53612024D01*
X114510737Y-53550555D01*
X114352806Y-53535000D01*
X114247194Y-53535000D01*
X114089263Y-53550555D01*
X113886625Y-53612024D01*
X113699872Y-53711846D01*
X113536183Y-53846183D01*
X113401846Y-54009872D01*
X113302024Y-54196625D01*
X113240555Y-54399263D01*
X113219799Y-54610000D01*
X112840201Y-54610000D01*
X112819445Y-54399263D01*
X112757976Y-54196625D01*
X112658154Y-54009872D01*
X112523817Y-53846183D01*
X112360128Y-53711846D01*
X112173375Y-53612024D01*
X111970737Y-53550555D01*
X111812806Y-53535000D01*
X111707194Y-53535000D01*
X111549263Y-53550555D01*
X111346625Y-53612024D01*
X111159872Y-53711846D01*
X110996183Y-53846183D01*
X110861846Y-54009872D01*
X110762024Y-54196625D01*
X110700555Y-54399263D01*
X110679799Y-54610000D01*
X110300201Y-54610000D01*
X110279445Y-54399263D01*
X110217976Y-54196625D01*
X110118154Y-54009872D01*
X109983817Y-53846183D01*
X109820128Y-53711846D01*
X109633375Y-53612024D01*
X109430737Y-53550555D01*
X109272806Y-53535000D01*
X109167194Y-53535000D01*
X109009263Y-53550555D01*
X108806625Y-53612024D01*
X108619872Y-53711846D01*
X108456183Y-53846183D01*
X108321846Y-54009872D01*
X108222024Y-54196625D01*
X108160555Y-54399263D01*
X108139799Y-54610000D01*
X107760201Y-54610000D01*
X107739445Y-54399263D01*
X107677976Y-54196625D01*
X107578154Y-54009872D01*
X107443817Y-53846183D01*
X107280128Y-53711846D01*
X107093375Y-53612024D01*
X106890737Y-53550555D01*
X106732806Y-53535000D01*
X106627194Y-53535000D01*
X106469263Y-53550555D01*
X106266625Y-53612024D01*
X106079872Y-53711846D01*
X105916183Y-53846183D01*
X105781846Y-54009872D01*
X105682024Y-54196625D01*
X105620555Y-54399263D01*
X105599799Y-54610000D01*
X105220201Y-54610000D01*
X105199445Y-54399263D01*
X105137976Y-54196625D01*
X105038154Y-54009872D01*
X104903817Y-53846183D01*
X104740128Y-53711846D01*
X104553375Y-53612024D01*
X104350737Y-53550555D01*
X104192806Y-53535000D01*
X104087194Y-53535000D01*
X103929263Y-53550555D01*
X103726625Y-53612024D01*
X103539872Y-53711846D01*
X103376183Y-53846183D01*
X103241846Y-54009872D01*
X103142024Y-54196625D01*
X103080555Y-54399263D01*
X103059799Y-54610000D01*
X102680201Y-54610000D01*
X102659445Y-54399263D01*
X102597976Y-54196625D01*
X102498154Y-54009872D01*
X102363817Y-53846183D01*
X102200128Y-53711846D01*
X102013375Y-53612024D01*
X101810737Y-53550555D01*
X101652806Y-53535000D01*
X101547194Y-53535000D01*
X101389263Y-53550555D01*
X101186625Y-53612024D01*
X100999872Y-53711846D01*
X100836183Y-53846183D01*
X100701846Y-54009872D01*
X100602024Y-54196625D01*
X100540555Y-54399263D01*
X100519799Y-54610000D01*
X100140201Y-54610000D01*
X100119445Y-54399263D01*
X100057976Y-54196625D01*
X99958154Y-54009872D01*
X99823817Y-53846183D01*
X99660128Y-53711846D01*
X99473375Y-53612024D01*
X99270737Y-53550555D01*
X99112806Y-53535000D01*
X99007194Y-53535000D01*
X98849263Y-53550555D01*
X98646625Y-53612024D01*
X98459872Y-53711846D01*
X98296183Y-53846183D01*
X98161846Y-54009872D01*
X98062024Y-54196625D01*
X98000555Y-54399263D01*
X97979799Y-54610000D01*
X97600201Y-54610000D01*
X97579445Y-54399263D01*
X97517976Y-54196625D01*
X97418154Y-54009872D01*
X97283817Y-53846183D01*
X97120128Y-53711846D01*
X96933375Y-53612024D01*
X96730737Y-53550555D01*
X96572806Y-53535000D01*
X96467194Y-53535000D01*
X96309263Y-53550555D01*
X96106625Y-53612024D01*
X95919872Y-53711846D01*
X95756183Y-53846183D01*
X95621846Y-54009872D01*
X95522024Y-54196625D01*
X95460555Y-54399263D01*
X95439799Y-54610000D01*
X95060201Y-54610000D01*
X95039445Y-54399263D01*
X94977976Y-54196625D01*
X94878154Y-54009872D01*
X94743817Y-53846183D01*
X94580128Y-53711846D01*
X94393375Y-53612024D01*
X94190737Y-53550555D01*
X94032806Y-53535000D01*
X93927194Y-53535000D01*
X93769263Y-53550555D01*
X93566625Y-53612024D01*
X93379872Y-53711846D01*
X93216183Y-53846183D01*
X93081846Y-54009872D01*
X92982024Y-54196625D01*
X92920555Y-54399263D01*
X92899799Y-54610000D01*
X92520201Y-54610000D01*
X92499445Y-54399263D01*
X92437976Y-54196625D01*
X92338154Y-54009872D01*
X92203817Y-53846183D01*
X92040128Y-53711846D01*
X91853375Y-53612024D01*
X91650737Y-53550555D01*
X91492806Y-53535000D01*
X91387194Y-53535000D01*
X91229263Y-53550555D01*
X91026625Y-53612024D01*
X90839872Y-53711846D01*
X90676183Y-53846183D01*
X90541846Y-54009872D01*
X90442024Y-54196625D01*
X90380555Y-54399263D01*
X90359799Y-54610000D01*
X89980201Y-54610000D01*
X89959445Y-54399263D01*
X89897976Y-54196625D01*
X89798154Y-54009872D01*
X89663817Y-53846183D01*
X89500128Y-53711846D01*
X89313375Y-53612024D01*
X89110737Y-53550555D01*
X88952806Y-53535000D01*
X88847194Y-53535000D01*
X88689263Y-53550555D01*
X88486625Y-53612024D01*
X88299872Y-53711846D01*
X88136183Y-53846183D01*
X88001846Y-54009872D01*
X87902024Y-54196625D01*
X87840555Y-54399263D01*
X87819799Y-54610000D01*
X87440201Y-54610000D01*
X87419445Y-54399263D01*
X87357976Y-54196625D01*
X87258154Y-54009872D01*
X87123817Y-53846183D01*
X86960128Y-53711846D01*
X86773375Y-53612024D01*
X86570737Y-53550555D01*
X86412806Y-53535000D01*
X86307194Y-53535000D01*
X86149263Y-53550555D01*
X85946625Y-53612024D01*
X85759872Y-53711846D01*
X85596183Y-53846183D01*
X85461846Y-54009872D01*
X85362024Y-54196625D01*
X85300555Y-54399263D01*
X85279799Y-54610000D01*
X84900201Y-54610000D01*
X84879445Y-54399263D01*
X84817976Y-54196625D01*
X84718154Y-54009872D01*
X84583817Y-53846183D01*
X84420128Y-53711846D01*
X84233375Y-53612024D01*
X84030737Y-53550555D01*
X83872806Y-53535000D01*
X83767194Y-53535000D01*
X83609263Y-53550555D01*
X83406625Y-53612024D01*
X83219872Y-53711846D01*
X83056183Y-53846183D01*
X82921846Y-54009872D01*
X82822024Y-54196625D01*
X82760555Y-54399263D01*
X82739799Y-54610000D01*
X82360201Y-54610000D01*
X82339445Y-54399263D01*
X82277976Y-54196625D01*
X82178154Y-54009872D01*
X82043817Y-53846183D01*
X81880128Y-53711846D01*
X81693375Y-53612024D01*
X81490737Y-53550555D01*
X81332806Y-53535000D01*
X81227194Y-53535000D01*
X81069263Y-53550555D01*
X80866625Y-53612024D01*
X80679872Y-53711846D01*
X80516183Y-53846183D01*
X80381846Y-54009872D01*
X80282024Y-54196625D01*
X80220555Y-54399263D01*
X80199799Y-54610000D01*
X79820201Y-54610000D01*
X79799445Y-54399263D01*
X79737976Y-54196625D01*
X79638154Y-54009872D01*
X79503817Y-53846183D01*
X79340128Y-53711846D01*
X79153375Y-53612024D01*
X78950737Y-53550555D01*
X78792806Y-53535000D01*
X78687194Y-53535000D01*
X78529263Y-53550555D01*
X78326625Y-53612024D01*
X78139872Y-53711846D01*
X77976183Y-53846183D01*
X77841846Y-54009872D01*
X77742024Y-54196625D01*
X77680555Y-54399263D01*
X77659799Y-54610000D01*
X77280201Y-54610000D01*
X77259445Y-54399263D01*
X77197976Y-54196625D01*
X77098154Y-54009872D01*
X76963817Y-53846183D01*
X76800128Y-53711846D01*
X76613375Y-53612024D01*
X76410737Y-53550555D01*
X76252806Y-53535000D01*
X76147194Y-53535000D01*
X75989263Y-53550555D01*
X75786625Y-53612024D01*
X75599872Y-53711846D01*
X75436183Y-53846183D01*
X75301846Y-54009872D01*
X75202024Y-54196625D01*
X75140555Y-54399263D01*
X75119799Y-54610000D01*
X74740201Y-54610000D01*
X74719445Y-54399263D01*
X74657976Y-54196625D01*
X74558154Y-54009872D01*
X74423817Y-53846183D01*
X74260128Y-53711846D01*
X74073375Y-53612024D01*
X73870737Y-53550555D01*
X73712806Y-53535000D01*
X73607194Y-53535000D01*
X73449263Y-53550555D01*
X73246625Y-53612024D01*
X73059872Y-53711846D01*
X72896183Y-53846183D01*
X72761846Y-54009872D01*
X72662024Y-54196625D01*
X72600555Y-54399263D01*
X72579799Y-54610000D01*
X72196088Y-54610000D01*
X72196088Y-53760000D01*
X72191744Y-53715892D01*
X72178878Y-53673480D01*
X72157985Y-53634392D01*
X72129868Y-53600132D01*
X72095608Y-53572015D01*
X72056520Y-53551122D01*
X72014108Y-53538256D01*
X71970000Y-53533912D01*
X70270000Y-53533912D01*
X70225892Y-53538256D01*
X70183480Y-53551122D01*
X70144392Y-53572015D01*
X70110132Y-53600132D01*
X70082015Y-53634392D01*
X70061122Y-53673480D01*
X70048256Y-53715892D01*
X70043912Y-53760000D01*
X68880000Y-53760000D01*
X68880000Y-36844670D01*
X68924071Y-36395196D01*
X69049426Y-35980000D01*
X70043912Y-35980000D01*
X70043912Y-37680000D01*
X70048256Y-37724108D01*
X70061122Y-37766520D01*
X70082015Y-37805608D01*
X70110132Y-37839868D01*
X70144392Y-37867985D01*
X70183480Y-37888878D01*
X70225892Y-37901744D01*
X70270000Y-37906088D01*
X71970000Y-37906088D01*
X72014108Y-37901744D01*
X72056520Y-37888878D01*
X72095608Y-37867985D01*
X72129868Y-37839868D01*
X72157985Y-37805608D01*
X72178878Y-37766520D01*
X72191744Y-37724108D01*
X72196088Y-37680000D01*
X72196088Y-36830000D01*
X72579799Y-36830000D01*
X72600555Y-37040737D01*
X72662024Y-37243375D01*
X72761846Y-37430128D01*
X72896183Y-37593817D01*
X73059872Y-37728154D01*
X73246625Y-37827976D01*
X73449263Y-37889445D01*
X73607194Y-37905000D01*
X73712806Y-37905000D01*
X73870737Y-37889445D01*
X74073375Y-37827976D01*
X74260128Y-37728154D01*
X74423817Y-37593817D01*
X74558154Y-37430128D01*
X74657976Y-37243375D01*
X74719445Y-37040737D01*
X74740201Y-36830000D01*
X75119799Y-36830000D01*
X75140555Y-37040737D01*
X75202024Y-37243375D01*
X75301846Y-37430128D01*
X75436183Y-37593817D01*
X75599872Y-37728154D01*
X75786625Y-37827976D01*
X75989263Y-37889445D01*
X76147194Y-37905000D01*
X76252806Y-37905000D01*
X76410737Y-37889445D01*
X76613375Y-37827976D01*
X76800128Y-37728154D01*
X76963817Y-37593817D01*
X77098154Y-37430128D01*
X77197976Y-37243375D01*
X77259445Y-37040737D01*
X77280201Y-36830000D01*
X77659799Y-36830000D01*
X77680555Y-37040737D01*
X77742024Y-37243375D01*
X77841846Y-37430128D01*
X77976183Y-37593817D01*
X78139872Y-37728154D01*
X78326625Y-37827976D01*
X78529263Y-37889445D01*
X78687194Y-37905000D01*
X78792806Y-37905000D01*
X78950737Y-37889445D01*
X79153375Y-37827976D01*
X79340128Y-37728154D01*
X79503817Y-37593817D01*
X79638154Y-37430128D01*
X79737976Y-37243375D01*
X79799445Y-37040737D01*
X79820201Y-36830000D01*
X80199799Y-36830000D01*
X80220555Y-37040737D01*
X80282024Y-37243375D01*
X80381846Y-37430128D01*
X80516183Y-37593817D01*
X80679872Y-37728154D01*
X80866625Y-37827976D01*
X81069263Y-37889445D01*
X81227194Y-37905000D01*
X81332806Y-37905000D01*
X81490737Y-37889445D01*
X81693375Y-37827976D01*
X81880128Y-37728154D01*
X82043817Y-37593817D01*
X82178154Y-37430128D01*
X82277976Y-37243375D01*
X82339445Y-37040737D01*
X82360201Y-36830000D01*
X82739799Y-36830000D01*
X82760555Y-37040737D01*
X82822024Y-37243375D01*
X82921846Y-37430128D01*
X83056183Y-37593817D01*
X83219872Y-37728154D01*
X83406625Y-37827976D01*
X83609263Y-37889445D01*
X83767194Y-37905000D01*
X83872806Y-37905000D01*
X84030737Y-37889445D01*
X84233375Y-37827976D01*
X84420128Y-37728154D01*
X84583817Y-37593817D01*
X84718154Y-37430128D01*
X84817976Y-37243375D01*
X84879445Y-37040737D01*
X84900201Y-36830000D01*
X85279799Y-36830000D01*
X85300555Y-37040737D01*
X85362024Y-37243375D01*
X85461846Y-37430128D01*
X85596183Y-37593817D01*
X85759872Y-37728154D01*
X85946625Y-37827976D01*
X86149263Y-37889445D01*
X86307194Y-37905000D01*
X86412806Y-37905000D01*
X86570737Y-37889445D01*
X86773375Y-37827976D01*
X86960128Y-37728154D01*
X87123817Y-37593817D01*
X87258154Y-37430128D01*
X87357976Y-37243375D01*
X87419445Y-37040737D01*
X87440201Y-36830000D01*
X87819799Y-36830000D01*
X87840555Y-37040737D01*
X87902024Y-37243375D01*
X88001846Y-37430128D01*
X88136183Y-37593817D01*
X88299872Y-37728154D01*
X88486625Y-37827976D01*
X88689263Y-37889445D01*
X88847194Y-37905000D01*
X88952806Y-37905000D01*
X89110737Y-37889445D01*
X89313375Y-37827976D01*
X89500128Y-37728154D01*
X89663817Y-37593817D01*
X89798154Y-37430128D01*
X89897976Y-37243375D01*
X89959445Y-37040737D01*
X89980201Y-36830000D01*
X90359799Y-36830000D01*
X90380555Y-37040737D01*
X90442024Y-37243375D01*
X90541846Y-37430128D01*
X90676183Y-37593817D01*
X90839872Y-37728154D01*
X91026625Y-37827976D01*
X91229263Y-37889445D01*
X91387194Y-37905000D01*
X91492806Y-37905000D01*
X91650737Y-37889445D01*
X91853375Y-37827976D01*
X92040128Y-37728154D01*
X92203817Y-37593817D01*
X92338154Y-37430128D01*
X92437976Y-37243375D01*
X92499445Y-37040737D01*
X92520201Y-36830000D01*
X92899799Y-36830000D01*
X92920555Y-37040737D01*
X92982024Y-37243375D01*
X93081846Y-37430128D01*
X93216183Y-37593817D01*
X93379872Y-37728154D01*
X93566625Y-37827976D01*
X93769263Y-37889445D01*
X93927194Y-37905000D01*
X94032806Y-37905000D01*
X94190737Y-37889445D01*
X94393375Y-37827976D01*
X94580128Y-37728154D01*
X94743817Y-37593817D01*
X94878154Y-37430128D01*
X94977976Y-37243375D01*
X95039445Y-37040737D01*
X95060201Y-36830000D01*
X95439799Y-36830000D01*
X95460555Y-37040737D01*
X95522024Y-37243375D01*
X95621846Y-37430128D01*
X95756183Y-37593817D01*
X95919872Y-37728154D01*
X96106625Y-37827976D01*
X96309263Y-37889445D01*
X96467194Y-37905000D01*
X96572806Y-37905000D01*
X96730737Y-37889445D01*
X96933375Y-37827976D01*
X97120128Y-37728154D01*
X97283817Y-37593817D01*
X97418154Y-37430128D01*
X97517976Y-37243375D01*
X97579445Y-37040737D01*
X97600201Y-36830000D01*
X97979799Y-36830000D01*
X98000555Y-37040737D01*
X98062024Y-37243375D01*
X98161846Y-37430128D01*
X98296183Y-37593817D01*
X98459872Y-37728154D01*
X98646625Y-37827976D01*
X98849263Y-37889445D01*
X99007194Y-37905000D01*
X99112806Y-37905000D01*
X99270737Y-37889445D01*
X99473375Y-37827976D01*
X99660128Y-37728154D01*
X99823817Y-37593817D01*
X99958154Y-37430128D01*
X100057976Y-37243375D01*
X100119445Y-37040737D01*
X100140201Y-36830000D01*
X100519799Y-36830000D01*
X100540555Y-37040737D01*
X100602024Y-37243375D01*
X100701846Y-37430128D01*
X100836183Y-37593817D01*
X100999872Y-37728154D01*
X101186625Y-37827976D01*
X101389263Y-37889445D01*
X101547194Y-37905000D01*
X101652806Y-37905000D01*
X101810737Y-37889445D01*
X102013375Y-37827976D01*
X102200128Y-37728154D01*
X102363817Y-37593817D01*
X102498154Y-37430128D01*
X102597976Y-37243375D01*
X102659445Y-37040737D01*
X102680201Y-36830000D01*
X103059799Y-36830000D01*
X103080555Y-37040737D01*
X103142024Y-37243375D01*
X103241846Y-37430128D01*
X103376183Y-37593817D01*
X103539872Y-37728154D01*
X103726625Y-37827976D01*
X103929263Y-37889445D01*
X104087194Y-37905000D01*
X104192806Y-37905000D01*
X104350737Y-37889445D01*
X104553375Y-37827976D01*
X104740128Y-37728154D01*
X104903817Y-37593817D01*
X105038154Y-37430128D01*
X105137976Y-37243375D01*
X105199445Y-37040737D01*
X105220201Y-36830000D01*
X105599799Y-36830000D01*
X105620555Y-37040737D01*
X105682024Y-37243375D01*
X105781846Y-37430128D01*
X105916183Y-37593817D01*
X106079872Y-37728154D01*
X106266625Y-37827976D01*
X106469263Y-37889445D01*
X106627194Y-37905000D01*
X106732806Y-37905000D01*
X106890737Y-37889445D01*
X107093375Y-37827976D01*
X107280128Y-37728154D01*
X107443817Y-37593817D01*
X107578154Y-37430128D01*
X107677976Y-37243375D01*
X107739445Y-37040737D01*
X107760201Y-36830000D01*
X108139799Y-36830000D01*
X108160555Y-37040737D01*
X108222024Y-37243375D01*
X108321846Y-37430128D01*
X108456183Y-37593817D01*
X108619872Y-37728154D01*
X108806625Y-37827976D01*
X109009263Y-37889445D01*
X109167194Y-37905000D01*
X109272806Y-37905000D01*
X109430737Y-37889445D01*
X109633375Y-37827976D01*
X109820128Y-37728154D01*
X109983817Y-37593817D01*
X110118154Y-37430128D01*
X110217976Y-37243375D01*
X110279445Y-37040737D01*
X110300201Y-36830000D01*
X110679799Y-36830000D01*
X110700555Y-37040737D01*
X110762024Y-37243375D01*
X110861846Y-37430128D01*
X110996183Y-37593817D01*
X111159872Y-37728154D01*
X111346625Y-37827976D01*
X111549263Y-37889445D01*
X111707194Y-37905000D01*
X111812806Y-37905000D01*
X111970737Y-37889445D01*
X112173375Y-37827976D01*
X112360128Y-37728154D01*
X112523817Y-37593817D01*
X112658154Y-37430128D01*
X112757976Y-37243375D01*
X112819445Y-37040737D01*
X112840201Y-36830000D01*
X113219799Y-36830000D01*
X113240555Y-37040737D01*
X113302024Y-37243375D01*
X113401846Y-37430128D01*
X113536183Y-37593817D01*
X113699872Y-37728154D01*
X113886625Y-37827976D01*
X114089263Y-37889445D01*
X114247194Y-37905000D01*
X114352806Y-37905000D01*
X114510737Y-37889445D01*
X114713375Y-37827976D01*
X114900128Y-37728154D01*
X115063817Y-37593817D01*
X115198154Y-37430128D01*
X115297976Y-37243375D01*
X115359445Y-37040737D01*
X115380201Y-36830000D01*
X115759799Y-36830000D01*
X115780555Y-37040737D01*
X115842024Y-37243375D01*
X115941846Y-37430128D01*
X116076183Y-37593817D01*
X116239872Y-37728154D01*
X116426625Y-37827976D01*
X116629263Y-37889445D01*
X116787194Y-37905000D01*
X116892806Y-37905000D01*
X117050737Y-37889445D01*
X117253375Y-37827976D01*
X117440128Y-37728154D01*
X117603817Y-37593817D01*
X117738154Y-37430128D01*
X117837976Y-37243375D01*
X117899445Y-37040737D01*
X117920201Y-36830000D01*
X118299799Y-36830000D01*
X118320555Y-37040737D01*
X118382024Y-37243375D01*
X118481846Y-37430128D01*
X118616183Y-37593817D01*
X118779872Y-37728154D01*
X118966625Y-37827976D01*
X119169263Y-37889445D01*
X119327194Y-37905000D01*
X119432806Y-37905000D01*
X119590737Y-37889445D01*
X119793375Y-37827976D01*
X119980128Y-37728154D01*
X120143817Y-37593817D01*
X120278154Y-37430128D01*
X120377976Y-37243375D01*
X120439445Y-37040737D01*
X120460201Y-36830000D01*
X120839799Y-36830000D01*
X120860555Y-37040737D01*
X120922024Y-37243375D01*
X121021846Y-37430128D01*
X121156183Y-37593817D01*
X121319872Y-37728154D01*
X121506625Y-37827976D01*
X121709263Y-37889445D01*
X121867194Y-37905000D01*
X121972806Y-37905000D01*
X122130737Y-37889445D01*
X122333375Y-37827976D01*
X122520128Y-37728154D01*
X122683817Y-37593817D01*
X122818154Y-37430128D01*
X122917976Y-37243375D01*
X122979445Y-37040737D01*
X123000201Y-36830000D01*
X123379799Y-36830000D01*
X123400555Y-37040737D01*
X123462024Y-37243375D01*
X123561846Y-37430128D01*
X123696183Y-37593817D01*
X123859872Y-37728154D01*
X124046625Y-37827976D01*
X124249263Y-37889445D01*
X124407194Y-37905000D01*
X124512806Y-37905000D01*
X124670737Y-37889445D01*
X124873375Y-37827976D01*
X125060128Y-37728154D01*
X125223817Y-37593817D01*
X125358154Y-37430128D01*
X125457976Y-37243375D01*
X125519445Y-37040737D01*
X125540201Y-36830000D01*
X125519445Y-36619263D01*
X125457976Y-36416625D01*
X125358154Y-36229872D01*
X125223817Y-36066183D01*
X125060128Y-35931846D01*
X124873375Y-35832024D01*
X124670737Y-35770555D01*
X124512806Y-35755000D01*
X124407194Y-35755000D01*
X124249263Y-35770555D01*
X124046625Y-35832024D01*
X123859872Y-35931846D01*
X123696183Y-36066183D01*
X123561846Y-36229872D01*
X123462024Y-36416625D01*
X123400555Y-36619263D01*
X123379799Y-36830000D01*
X123000201Y-36830000D01*
X122979445Y-36619263D01*
X122917976Y-36416625D01*
X122818154Y-36229872D01*
X122683817Y-36066183D01*
X122520128Y-35931846D01*
X122333375Y-35832024D01*
X122130737Y-35770555D01*
X121972806Y-35755000D01*
X121867194Y-35755000D01*
X121709263Y-35770555D01*
X121506625Y-35832024D01*
X121319872Y-35931846D01*
X121156183Y-36066183D01*
X121021846Y-36229872D01*
X120922024Y-36416625D01*
X120860555Y-36619263D01*
X120839799Y-36830000D01*
X120460201Y-36830000D01*
X120439445Y-36619263D01*
X120377976Y-36416625D01*
X120278154Y-36229872D01*
X120143817Y-36066183D01*
X119980128Y-35931846D01*
X119793375Y-35832024D01*
X119590737Y-35770555D01*
X119432806Y-35755000D01*
X119327194Y-35755000D01*
X119169263Y-35770555D01*
X118966625Y-35832024D01*
X118779872Y-35931846D01*
X118616183Y-36066183D01*
X118481846Y-36229872D01*
X118382024Y-36416625D01*
X118320555Y-36619263D01*
X118299799Y-36830000D01*
X117920201Y-36830000D01*
X117899445Y-36619263D01*
X117837976Y-36416625D01*
X117738154Y-36229872D01*
X117603817Y-36066183D01*
X117440128Y-35931846D01*
X117253375Y-35832024D01*
X117050737Y-35770555D01*
X116892806Y-35755000D01*
X116787194Y-35755000D01*
X116629263Y-35770555D01*
X116426625Y-35832024D01*
X116239872Y-35931846D01*
X116076183Y-36066183D01*
X115941846Y-36229872D01*
X115842024Y-36416625D01*
X115780555Y-36619263D01*
X115759799Y-36830000D01*
X115380201Y-36830000D01*
X115359445Y-36619263D01*
X115297976Y-36416625D01*
X115198154Y-36229872D01*
X115063817Y-36066183D01*
X114900128Y-35931846D01*
X114713375Y-35832024D01*
X114510737Y-35770555D01*
X114352806Y-35755000D01*
X114247194Y-35755000D01*
X114089263Y-35770555D01*
X113886625Y-35832024D01*
X113699872Y-35931846D01*
X113536183Y-36066183D01*
X113401846Y-36229872D01*
X113302024Y-36416625D01*
X113240555Y-36619263D01*
X113219799Y-36830000D01*
X112840201Y-36830000D01*
X112819445Y-36619263D01*
X112757976Y-36416625D01*
X112658154Y-36229872D01*
X112523817Y-36066183D01*
X112360128Y-35931846D01*
X112173375Y-35832024D01*
X111970737Y-35770555D01*
X111812806Y-35755000D01*
X111707194Y-35755000D01*
X111549263Y-35770555D01*
X111346625Y-35832024D01*
X111159872Y-35931846D01*
X110996183Y-36066183D01*
X110861846Y-36229872D01*
X110762024Y-36416625D01*
X110700555Y-36619263D01*
X110679799Y-36830000D01*
X110300201Y-36830000D01*
X110279445Y-36619263D01*
X110217976Y-36416625D01*
X110118154Y-36229872D01*
X109983817Y-36066183D01*
X109820128Y-35931846D01*
X109633375Y-35832024D01*
X109430737Y-35770555D01*
X109272806Y-35755000D01*
X109167194Y-35755000D01*
X109009263Y-35770555D01*
X108806625Y-35832024D01*
X108619872Y-35931846D01*
X108456183Y-36066183D01*
X108321846Y-36229872D01*
X108222024Y-36416625D01*
X108160555Y-36619263D01*
X108139799Y-36830000D01*
X107760201Y-36830000D01*
X107739445Y-36619263D01*
X107677976Y-36416625D01*
X107578154Y-36229872D01*
X107443817Y-36066183D01*
X107280128Y-35931846D01*
X107093375Y-35832024D01*
X106890737Y-35770555D01*
X106732806Y-35755000D01*
X106627194Y-35755000D01*
X106469263Y-35770555D01*
X106266625Y-35832024D01*
X106079872Y-35931846D01*
X105916183Y-36066183D01*
X105781846Y-36229872D01*
X105682024Y-36416625D01*
X105620555Y-36619263D01*
X105599799Y-36830000D01*
X105220201Y-36830000D01*
X105199445Y-36619263D01*
X105137976Y-36416625D01*
X105038154Y-36229872D01*
X104903817Y-36066183D01*
X104740128Y-35931846D01*
X104553375Y-35832024D01*
X104350737Y-35770555D01*
X104192806Y-35755000D01*
X104087194Y-35755000D01*
X103929263Y-35770555D01*
X103726625Y-35832024D01*
X103539872Y-35931846D01*
X103376183Y-36066183D01*
X103241846Y-36229872D01*
X103142024Y-36416625D01*
X103080555Y-36619263D01*
X103059799Y-36830000D01*
X102680201Y-36830000D01*
X102659445Y-36619263D01*
X102597976Y-36416625D01*
X102498154Y-36229872D01*
X102363817Y-36066183D01*
X102200128Y-35931846D01*
X102013375Y-35832024D01*
X101810737Y-35770555D01*
X101652806Y-35755000D01*
X101547194Y-35755000D01*
X101389263Y-35770555D01*
X101186625Y-35832024D01*
X100999872Y-35931846D01*
X100836183Y-36066183D01*
X100701846Y-36229872D01*
X100602024Y-36416625D01*
X100540555Y-36619263D01*
X100519799Y-36830000D01*
X100140201Y-36830000D01*
X100119445Y-36619263D01*
X100057976Y-36416625D01*
X99958154Y-36229872D01*
X99823817Y-36066183D01*
X99660128Y-35931846D01*
X99473375Y-35832024D01*
X99270737Y-35770555D01*
X99112806Y-35755000D01*
X99007194Y-35755000D01*
X98849263Y-35770555D01*
X98646625Y-35832024D01*
X98459872Y-35931846D01*
X98296183Y-36066183D01*
X98161846Y-36229872D01*
X98062024Y-36416625D01*
X98000555Y-36619263D01*
X97979799Y-36830000D01*
X97600201Y-36830000D01*
X97579445Y-36619263D01*
X97517976Y-36416625D01*
X97418154Y-36229872D01*
X97283817Y-36066183D01*
X97120128Y-35931846D01*
X96933375Y-35832024D01*
X96730737Y-35770555D01*
X96572806Y-35755000D01*
X96467194Y-35755000D01*
X96309263Y-35770555D01*
X96106625Y-35832024D01*
X95919872Y-35931846D01*
X95756183Y-36066183D01*
X95621846Y-36229872D01*
X95522024Y-36416625D01*
X95460555Y-36619263D01*
X95439799Y-36830000D01*
X95060201Y-36830000D01*
X95039445Y-36619263D01*
X94977976Y-36416625D01*
X94878154Y-36229872D01*
X94743817Y-36066183D01*
X94580128Y-35931846D01*
X94393375Y-35832024D01*
X94190737Y-35770555D01*
X94032806Y-35755000D01*
X93927194Y-35755000D01*
X93769263Y-35770555D01*
X93566625Y-35832024D01*
X93379872Y-35931846D01*
X93216183Y-36066183D01*
X93081846Y-36229872D01*
X92982024Y-36416625D01*
X92920555Y-36619263D01*
X92899799Y-36830000D01*
X92520201Y-36830000D01*
X92499445Y-36619263D01*
X92437976Y-36416625D01*
X92338154Y-36229872D01*
X92203817Y-36066183D01*
X92040128Y-35931846D01*
X91853375Y-35832024D01*
X91650737Y-35770555D01*
X91492806Y-35755000D01*
X91387194Y-35755000D01*
X91229263Y-35770555D01*
X91026625Y-35832024D01*
X90839872Y-35931846D01*
X90676183Y-36066183D01*
X90541846Y-36229872D01*
X90442024Y-36416625D01*
X90380555Y-36619263D01*
X90359799Y-36830000D01*
X89980201Y-36830000D01*
X89959445Y-36619263D01*
X89897976Y-36416625D01*
X89798154Y-36229872D01*
X89663817Y-36066183D01*
X89500128Y-35931846D01*
X89313375Y-35832024D01*
X89110737Y-35770555D01*
X88952806Y-35755000D01*
X88847194Y-35755000D01*
X88689263Y-35770555D01*
X88486625Y-35832024D01*
X88299872Y-35931846D01*
X88136183Y-36066183D01*
X88001846Y-36229872D01*
X87902024Y-36416625D01*
X87840555Y-36619263D01*
X87819799Y-36830000D01*
X87440201Y-36830000D01*
X87419445Y-36619263D01*
X87357976Y-36416625D01*
X87258154Y-36229872D01*
X87123817Y-36066183D01*
X86960128Y-35931846D01*
X86773375Y-35832024D01*
X86570737Y-35770555D01*
X86412806Y-35755000D01*
X86307194Y-35755000D01*
X86149263Y-35770555D01*
X85946625Y-35832024D01*
X85759872Y-35931846D01*
X85596183Y-36066183D01*
X85461846Y-36229872D01*
X85362024Y-36416625D01*
X85300555Y-36619263D01*
X85279799Y-36830000D01*
X84900201Y-36830000D01*
X84879445Y-36619263D01*
X84817976Y-36416625D01*
X84718154Y-36229872D01*
X84583817Y-36066183D01*
X84420128Y-35931846D01*
X84233375Y-35832024D01*
X84030737Y-35770555D01*
X83872806Y-35755000D01*
X83767194Y-35755000D01*
X83609263Y-35770555D01*
X83406625Y-35832024D01*
X83219872Y-35931846D01*
X83056183Y-36066183D01*
X82921846Y-36229872D01*
X82822024Y-36416625D01*
X82760555Y-36619263D01*
X82739799Y-36830000D01*
X82360201Y-36830000D01*
X82339445Y-36619263D01*
X82277976Y-36416625D01*
X82178154Y-36229872D01*
X82043817Y-36066183D01*
X81880128Y-35931846D01*
X81693375Y-35832024D01*
X81490737Y-35770555D01*
X81332806Y-35755000D01*
X81227194Y-35755000D01*
X81069263Y-35770555D01*
X80866625Y-35832024D01*
X80679872Y-35931846D01*
X80516183Y-36066183D01*
X80381846Y-36229872D01*
X80282024Y-36416625D01*
X80220555Y-36619263D01*
X80199799Y-36830000D01*
X79820201Y-36830000D01*
X79799445Y-36619263D01*
X79737976Y-36416625D01*
X79638154Y-36229872D01*
X79503817Y-36066183D01*
X79340128Y-35931846D01*
X79153375Y-35832024D01*
X78950737Y-35770555D01*
X78792806Y-35755000D01*
X78687194Y-35755000D01*
X78529263Y-35770555D01*
X78326625Y-35832024D01*
X78139872Y-35931846D01*
X77976183Y-36066183D01*
X77841846Y-36229872D01*
X77742024Y-36416625D01*
X77680555Y-36619263D01*
X77659799Y-36830000D01*
X77280201Y-36830000D01*
X77259445Y-36619263D01*
X77197976Y-36416625D01*
X77098154Y-36229872D01*
X76963817Y-36066183D01*
X76800128Y-35931846D01*
X76613375Y-35832024D01*
X76410737Y-35770555D01*
X76252806Y-35755000D01*
X76147194Y-35755000D01*
X75989263Y-35770555D01*
X75786625Y-35832024D01*
X75599872Y-35931846D01*
X75436183Y-36066183D01*
X75301846Y-36229872D01*
X75202024Y-36416625D01*
X75140555Y-36619263D01*
X75119799Y-36830000D01*
X74740201Y-36830000D01*
X74719445Y-36619263D01*
X74657976Y-36416625D01*
X74558154Y-36229872D01*
X74423817Y-36066183D01*
X74260128Y-35931846D01*
X74073375Y-35832024D01*
X73870737Y-35770555D01*
X73712806Y-35755000D01*
X73607194Y-35755000D01*
X73449263Y-35770555D01*
X73246625Y-35832024D01*
X73059872Y-35931846D01*
X72896183Y-36066183D01*
X72761846Y-36229872D01*
X72662024Y-36416625D01*
X72600555Y-36619263D01*
X72579799Y-36830000D01*
X72196088Y-36830000D01*
X72196088Y-35980000D01*
X72191744Y-35935892D01*
X72178878Y-35893480D01*
X72157985Y-35854392D01*
X72129868Y-35820132D01*
X72095608Y-35792015D01*
X72056520Y-35771122D01*
X72014108Y-35758256D01*
X71970000Y-35753912D01*
X70270000Y-35753912D01*
X70225892Y-35758256D01*
X70183480Y-35771122D01*
X70144392Y-35792015D01*
X70110132Y-35820132D01*
X70082015Y-35854392D01*
X70061122Y-35893480D01*
X70048256Y-35935892D01*
X70043912Y-35980000D01*
X69049426Y-35980000D01*
X69050348Y-35976948D01*
X69255455Y-35591198D01*
X69531585Y-35252631D01*
X69868211Y-34974150D01*
X70252523Y-34766353D01*
X70669871Y-34637162D01*
X71118520Y-34590007D01*
X71120477Y-34590000D01*
X124445330Y-34590000D01*
X124894804Y-34634071D01*
M02*
