M48
; DRILL file {KiCad (5.1.4)-1} date 2019-10-24 16:58:33
; FORMAT={-:-/ absolute / inch / decimal}
; #@! TF.CreationDate,2019-10-24T16:58:33-04:00
; #@! TF.GenerationSoftware,Kicad,Pcbnew,(5.1.4)-1
; #@! TF.FileFunction,Plated,1,2,PTH
FMAT,2
INCH
T1C0.0394
%
G90
G05
T1
X2.8Y-1.45
X2.9Y-1.45
X3.0Y-1.45
X3.1Y-1.45
X3.2Y-1.45
X3.3Y-1.45
X3.4Y-1.45
X3.5Y-1.45
X3.6Y-1.45
X3.7Y-1.45
X3.8Y-1.45
X3.9Y-1.45
X4.0Y-1.45
X4.1Y-1.45
X4.2Y-1.45
X4.3Y-1.45
X4.4Y-1.45
X4.5Y-1.45
X4.6Y-1.45
X4.7Y-1.45
X4.8Y-1.45
X4.9Y-1.45
X2.8Y-2.15
X2.9Y-2.15
X3.0Y-2.15
X3.1Y-2.15
X3.2Y-2.15
X3.3Y-2.15
X3.4Y-2.15
X3.5Y-2.15
X3.6Y-2.15
X3.7Y-2.15
X3.8Y-2.15
X3.9Y-2.15
X4.0Y-2.15
X4.1Y-2.15
X4.2Y-2.15
X4.3Y-2.15
X4.4Y-2.15
X4.5Y-2.15
X4.6Y-2.15
X4.7Y-2.15
X4.8Y-2.15
X4.9Y-2.15
T0
M30
