G04 #@! TF.GenerationSoftware,KiCad,Pcbnew,(5.1.4)-1*
G04 #@! TF.CreationDate,2019-10-24T16:58:35-04:00*
G04 #@! TF.ProjectId,TQFP44,54514650-3434-42e6-9b69-6361645f7063,B*
G04 #@! TF.SameCoordinates,Original*
G04 #@! TF.FileFunction,Soldermask,Top*
G04 #@! TF.FilePolarity,Negative*
%FSLAX46Y46*%
G04 Gerber Fmt 4.6, Leading zero omitted, Abs format (unit mm)*
G04 Created by KiCad (PCBNEW (5.1.4)-1) date 2019-10-24 16:58:35*
%MOMM*%
%LPD*%
G04 APERTURE LIST*
%ADD10O,1.900000X1.900000*%
%ADD11R,1.900000X1.900000*%
%ADD12C,0.750000*%
%ADD13C,0.100000*%
G04 APERTURE END LIST*
D10*
X124460000Y-36830000D03*
X121920000Y-36830000D03*
X119380000Y-36830000D03*
X116840000Y-36830000D03*
X114300000Y-36830000D03*
X111760000Y-36830000D03*
X109220000Y-36830000D03*
X106680000Y-36830000D03*
X104140000Y-36830000D03*
X101600000Y-36830000D03*
X99060000Y-36830000D03*
X96520000Y-36830000D03*
X93980000Y-36830000D03*
X91440000Y-36830000D03*
X88900000Y-36830000D03*
X86360000Y-36830000D03*
X83820000Y-36830000D03*
X81280000Y-36830000D03*
X78740000Y-36830000D03*
X76200000Y-36830000D03*
X73660000Y-36830000D03*
D11*
X71120000Y-36830000D03*
D10*
X124460000Y-54610000D03*
X121920000Y-54610000D03*
X119380000Y-54610000D03*
X116840000Y-54610000D03*
X114300000Y-54610000D03*
X111760000Y-54610000D03*
X109220000Y-54610000D03*
X106680000Y-54610000D03*
X104140000Y-54610000D03*
X101600000Y-54610000D03*
X99060000Y-54610000D03*
X96520000Y-54610000D03*
X93980000Y-54610000D03*
X91440000Y-54610000D03*
X88900000Y-54610000D03*
X86360000Y-54610000D03*
X83820000Y-54610000D03*
X81280000Y-54610000D03*
X78740000Y-54610000D03*
X76200000Y-54610000D03*
X73660000Y-54610000D03*
D11*
X71120000Y-54610000D03*
D12*
X90931064Y-44517918D03*
D13*
G36*
X91797270Y-44853794D02*
G01*
X91266940Y-45384124D01*
X90064858Y-44182042D01*
X90595188Y-43651712D01*
X91797270Y-44853794D01*
X91797270Y-44853794D01*
G37*
D12*
X91496750Y-43952233D03*
D13*
G36*
X92362956Y-44288109D02*
G01*
X91832626Y-44818439D01*
X90630544Y-43616357D01*
X91160874Y-43086027D01*
X92362956Y-44288109D01*
X92362956Y-44288109D01*
G37*
D12*
X92062435Y-43386548D03*
D13*
G36*
X92928641Y-43722424D02*
G01*
X92398311Y-44252754D01*
X91196229Y-43050672D01*
X91726559Y-42520342D01*
X92928641Y-43722424D01*
X92928641Y-43722424D01*
G37*
D12*
X92628120Y-42820862D03*
D13*
G36*
X93494326Y-43156738D02*
G01*
X92963996Y-43687068D01*
X91761914Y-42484986D01*
X92292244Y-41954656D01*
X93494326Y-43156738D01*
X93494326Y-43156738D01*
G37*
D12*
X93193806Y-42255177D03*
D13*
G36*
X94060012Y-42591053D02*
G01*
X93529682Y-43121383D01*
X92327600Y-41919301D01*
X92857930Y-41388971D01*
X94060012Y-42591053D01*
X94060012Y-42591053D01*
G37*
D12*
X93759491Y-41689491D03*
D13*
G36*
X94625697Y-42025367D02*
G01*
X94095367Y-42555697D01*
X92893285Y-41353615D01*
X93423615Y-40823285D01*
X94625697Y-42025367D01*
X94625697Y-42025367D01*
G37*
D12*
X94325177Y-41123806D03*
D13*
G36*
X95191383Y-41459682D02*
G01*
X94661053Y-41990012D01*
X93458971Y-40787930D01*
X93989301Y-40257600D01*
X95191383Y-41459682D01*
X95191383Y-41459682D01*
G37*
D12*
X94890862Y-40558120D03*
D13*
G36*
X95757068Y-40893996D02*
G01*
X95226738Y-41424326D01*
X94024656Y-40222244D01*
X94554986Y-39691914D01*
X95757068Y-40893996D01*
X95757068Y-40893996D01*
G37*
D12*
X95456548Y-39992435D03*
D13*
G36*
X96322754Y-40328311D02*
G01*
X95792424Y-40858641D01*
X94590342Y-39656559D01*
X95120672Y-39126229D01*
X96322754Y-40328311D01*
X96322754Y-40328311D01*
G37*
D12*
X96022233Y-39426750D03*
D13*
G36*
X96888439Y-39762626D02*
G01*
X96358109Y-40292956D01*
X95156027Y-39090874D01*
X95686357Y-38560544D01*
X96888439Y-39762626D01*
X96888439Y-39762626D01*
G37*
D12*
X96587918Y-38861064D03*
D13*
G36*
X97454124Y-39196940D02*
G01*
X96923794Y-39727270D01*
X95721712Y-38525188D01*
X96252042Y-37994858D01*
X97454124Y-39196940D01*
X97454124Y-39196940D01*
G37*
D12*
X98992082Y-38861064D03*
D13*
G36*
X98656206Y-39727270D02*
G01*
X98125876Y-39196940D01*
X99327958Y-37994858D01*
X99858288Y-38525188D01*
X98656206Y-39727270D01*
X98656206Y-39727270D01*
G37*
D12*
X99557767Y-39426750D03*
D13*
G36*
X99221891Y-40292956D02*
G01*
X98691561Y-39762626D01*
X99893643Y-38560544D01*
X100423973Y-39090874D01*
X99221891Y-40292956D01*
X99221891Y-40292956D01*
G37*
D12*
X100123452Y-39992435D03*
D13*
G36*
X99787576Y-40858641D02*
G01*
X99257246Y-40328311D01*
X100459328Y-39126229D01*
X100989658Y-39656559D01*
X99787576Y-40858641D01*
X99787576Y-40858641D01*
G37*
D12*
X100689138Y-40558120D03*
D13*
G36*
X100353262Y-41424326D02*
G01*
X99822932Y-40893996D01*
X101025014Y-39691914D01*
X101555344Y-40222244D01*
X100353262Y-41424326D01*
X100353262Y-41424326D01*
G37*
D12*
X101254823Y-41123806D03*
D13*
G36*
X100918947Y-41990012D02*
G01*
X100388617Y-41459682D01*
X101590699Y-40257600D01*
X102121029Y-40787930D01*
X100918947Y-41990012D01*
X100918947Y-41990012D01*
G37*
D12*
X101820509Y-41689491D03*
D13*
G36*
X101484633Y-42555697D02*
G01*
X100954303Y-42025367D01*
X102156385Y-40823285D01*
X102686715Y-41353615D01*
X101484633Y-42555697D01*
X101484633Y-42555697D01*
G37*
D12*
X102386194Y-42255177D03*
D13*
G36*
X102050318Y-43121383D02*
G01*
X101519988Y-42591053D01*
X102722070Y-41388971D01*
X103252400Y-41919301D01*
X102050318Y-43121383D01*
X102050318Y-43121383D01*
G37*
D12*
X102951880Y-42820862D03*
D13*
G36*
X102616004Y-43687068D02*
G01*
X102085674Y-43156738D01*
X103287756Y-41954656D01*
X103818086Y-42484986D01*
X102616004Y-43687068D01*
X102616004Y-43687068D01*
G37*
D12*
X103517565Y-43386548D03*
D13*
G36*
X103181689Y-44252754D02*
G01*
X102651359Y-43722424D01*
X103853441Y-42520342D01*
X104383771Y-43050672D01*
X103181689Y-44252754D01*
X103181689Y-44252754D01*
G37*
D12*
X104083250Y-43952233D03*
D13*
G36*
X103747374Y-44818439D02*
G01*
X103217044Y-44288109D01*
X104419126Y-43086027D01*
X104949456Y-43616357D01*
X103747374Y-44818439D01*
X103747374Y-44818439D01*
G37*
D12*
X104648936Y-44517918D03*
D13*
G36*
X104313060Y-45384124D02*
G01*
X103782730Y-44853794D01*
X104984812Y-43651712D01*
X105515142Y-44182042D01*
X104313060Y-45384124D01*
X104313060Y-45384124D01*
G37*
D12*
X104648936Y-46922082D03*
D13*
G36*
X105515142Y-47257958D02*
G01*
X104984812Y-47788288D01*
X103782730Y-46586206D01*
X104313060Y-46055876D01*
X105515142Y-47257958D01*
X105515142Y-47257958D01*
G37*
D12*
X104083250Y-47487767D03*
D13*
G36*
X104949456Y-47823643D02*
G01*
X104419126Y-48353973D01*
X103217044Y-47151891D01*
X103747374Y-46621561D01*
X104949456Y-47823643D01*
X104949456Y-47823643D01*
G37*
D12*
X103517565Y-48053452D03*
D13*
G36*
X104383771Y-48389328D02*
G01*
X103853441Y-48919658D01*
X102651359Y-47717576D01*
X103181689Y-47187246D01*
X104383771Y-48389328D01*
X104383771Y-48389328D01*
G37*
D12*
X102951880Y-48619138D03*
D13*
G36*
X103818086Y-48955014D02*
G01*
X103287756Y-49485344D01*
X102085674Y-48283262D01*
X102616004Y-47752932D01*
X103818086Y-48955014D01*
X103818086Y-48955014D01*
G37*
D12*
X102386194Y-49184823D03*
D13*
G36*
X103252400Y-49520699D02*
G01*
X102722070Y-50051029D01*
X101519988Y-48848947D01*
X102050318Y-48318617D01*
X103252400Y-49520699D01*
X103252400Y-49520699D01*
G37*
D12*
X101820509Y-49750509D03*
D13*
G36*
X102686715Y-50086385D02*
G01*
X102156385Y-50616715D01*
X100954303Y-49414633D01*
X101484633Y-48884303D01*
X102686715Y-50086385D01*
X102686715Y-50086385D01*
G37*
D12*
X101254823Y-50316194D03*
D13*
G36*
X102121029Y-50652070D02*
G01*
X101590699Y-51182400D01*
X100388617Y-49980318D01*
X100918947Y-49449988D01*
X102121029Y-50652070D01*
X102121029Y-50652070D01*
G37*
D12*
X100689138Y-50881880D03*
D13*
G36*
X101555344Y-51217756D02*
G01*
X101025014Y-51748086D01*
X99822932Y-50546004D01*
X100353262Y-50015674D01*
X101555344Y-51217756D01*
X101555344Y-51217756D01*
G37*
D12*
X100123452Y-51447565D03*
D13*
G36*
X100989658Y-51783441D02*
G01*
X100459328Y-52313771D01*
X99257246Y-51111689D01*
X99787576Y-50581359D01*
X100989658Y-51783441D01*
X100989658Y-51783441D01*
G37*
D12*
X99557767Y-52013250D03*
D13*
G36*
X100423973Y-52349126D02*
G01*
X99893643Y-52879456D01*
X98691561Y-51677374D01*
X99221891Y-51147044D01*
X100423973Y-52349126D01*
X100423973Y-52349126D01*
G37*
D12*
X98992082Y-52578936D03*
D13*
G36*
X99858288Y-52914812D02*
G01*
X99327958Y-53445142D01*
X98125876Y-52243060D01*
X98656206Y-51712730D01*
X99858288Y-52914812D01*
X99858288Y-52914812D01*
G37*
D12*
X96587918Y-52578936D03*
D13*
G36*
X96252042Y-53445142D02*
G01*
X95721712Y-52914812D01*
X96923794Y-51712730D01*
X97454124Y-52243060D01*
X96252042Y-53445142D01*
X96252042Y-53445142D01*
G37*
D12*
X96022233Y-52013250D03*
D13*
G36*
X95686357Y-52879456D02*
G01*
X95156027Y-52349126D01*
X96358109Y-51147044D01*
X96888439Y-51677374D01*
X95686357Y-52879456D01*
X95686357Y-52879456D01*
G37*
D12*
X95456548Y-51447565D03*
D13*
G36*
X95120672Y-52313771D02*
G01*
X94590342Y-51783441D01*
X95792424Y-50581359D01*
X96322754Y-51111689D01*
X95120672Y-52313771D01*
X95120672Y-52313771D01*
G37*
D12*
X94890862Y-50881880D03*
D13*
G36*
X94554986Y-51748086D02*
G01*
X94024656Y-51217756D01*
X95226738Y-50015674D01*
X95757068Y-50546004D01*
X94554986Y-51748086D01*
X94554986Y-51748086D01*
G37*
D12*
X94325177Y-50316194D03*
D13*
G36*
X93989301Y-51182400D02*
G01*
X93458971Y-50652070D01*
X94661053Y-49449988D01*
X95191383Y-49980318D01*
X93989301Y-51182400D01*
X93989301Y-51182400D01*
G37*
D12*
X93759491Y-49750509D03*
D13*
G36*
X93423615Y-50616715D02*
G01*
X92893285Y-50086385D01*
X94095367Y-48884303D01*
X94625697Y-49414633D01*
X93423615Y-50616715D01*
X93423615Y-50616715D01*
G37*
D12*
X93193806Y-49184823D03*
D13*
G36*
X92857930Y-50051029D02*
G01*
X92327600Y-49520699D01*
X93529682Y-48318617D01*
X94060012Y-48848947D01*
X92857930Y-50051029D01*
X92857930Y-50051029D01*
G37*
D12*
X92628120Y-48619138D03*
D13*
G36*
X92292244Y-49485344D02*
G01*
X91761914Y-48955014D01*
X92963996Y-47752932D01*
X93494326Y-48283262D01*
X92292244Y-49485344D01*
X92292244Y-49485344D01*
G37*
D12*
X92062435Y-48053452D03*
D13*
G36*
X91726559Y-48919658D02*
G01*
X91196229Y-48389328D01*
X92398311Y-47187246D01*
X92928641Y-47717576D01*
X91726559Y-48919658D01*
X91726559Y-48919658D01*
G37*
D12*
X91496750Y-47487767D03*
D13*
G36*
X91160874Y-48353973D02*
G01*
X90630544Y-47823643D01*
X91832626Y-46621561D01*
X92362956Y-47151891D01*
X91160874Y-48353973D01*
X91160874Y-48353973D01*
G37*
D12*
X90931064Y-46922082D03*
D13*
G36*
X90595188Y-47788288D02*
G01*
X90064858Y-47257958D01*
X91266940Y-46055876D01*
X91797270Y-46586206D01*
X90595188Y-47788288D01*
X90595188Y-47788288D01*
G37*
M02*
