G04 #@! TF.GenerationSoftware,KiCad,Pcbnew,(5.1.4)-1*
G04 #@! TF.CreationDate,2019-10-24T16:58:35-04:00*
G04 #@! TF.ProjectId,TQFP44,54514650-3434-42e6-9b69-6361645f7063,B*
G04 #@! TF.SameCoordinates,Original*
G04 #@! TF.FileFunction,Legend,Bot*
G04 #@! TF.FilePolarity,Positive*
%FSLAX46Y46*%
G04 Gerber Fmt 4.6, Leading zero omitted, Abs format (unit mm)*
G04 Created by KiCad (PCBNEW (5.1.4)-1) date 2019-10-24 16:58:35*
%MOMM*%
%LPD*%
G04 APERTURE LIST*
%ADD10C,0.100000*%
%ADD11C,0.120000*%
G04 APERTURE END LIST*
D10*
X102747857Y-44391428D02*
X102405000Y-44391428D01*
X102576428Y-44991428D02*
X102576428Y-44391428D01*
X101805000Y-45048571D02*
X101862142Y-45020000D01*
X101919285Y-44962857D01*
X102005000Y-44877142D01*
X102062142Y-44848571D01*
X102119285Y-44848571D01*
X102090714Y-44991428D02*
X102147857Y-44962857D01*
X102205000Y-44905714D01*
X102233571Y-44791428D01*
X102233571Y-44591428D01*
X102205000Y-44477142D01*
X102147857Y-44420000D01*
X102090714Y-44391428D01*
X101976428Y-44391428D01*
X101919285Y-44420000D01*
X101862142Y-44477142D01*
X101833571Y-44591428D01*
X101833571Y-44791428D01*
X101862142Y-44905714D01*
X101919285Y-44962857D01*
X101976428Y-44991428D01*
X102090714Y-44991428D01*
X101376428Y-44677142D02*
X101576428Y-44677142D01*
X101576428Y-44991428D02*
X101576428Y-44391428D01*
X101290714Y-44391428D01*
X101062142Y-44991428D02*
X101062142Y-44391428D01*
X100833571Y-44391428D01*
X100776428Y-44420000D01*
X100747857Y-44448571D01*
X100719285Y-44505714D01*
X100719285Y-44591428D01*
X100747857Y-44648571D01*
X100776428Y-44677142D01*
X100833571Y-44705714D01*
X101062142Y-44705714D01*
X100205000Y-44591428D02*
X100205000Y-44991428D01*
X100347857Y-44362857D02*
X100490714Y-44791428D01*
X100119285Y-44791428D01*
X99633571Y-44591428D02*
X99633571Y-44991428D01*
X99776428Y-44362857D02*
X99919285Y-44791428D01*
X99547857Y-44791428D01*
X98662142Y-44677142D02*
X98576428Y-44705714D01*
X98547857Y-44734285D01*
X98519285Y-44791428D01*
X98519285Y-44877142D01*
X98547857Y-44934285D01*
X98576428Y-44962857D01*
X98633571Y-44991428D01*
X98862142Y-44991428D01*
X98862142Y-44391428D01*
X98662142Y-44391428D01*
X98605000Y-44420000D01*
X98576428Y-44448571D01*
X98547857Y-44505714D01*
X98547857Y-44562857D01*
X98576428Y-44620000D01*
X98605000Y-44648571D01*
X98662142Y-44677142D01*
X98862142Y-44677142D01*
X98262142Y-44991428D02*
X98262142Y-44591428D01*
X98262142Y-44705714D02*
X98233571Y-44648571D01*
X98205000Y-44620000D01*
X98147857Y-44591428D01*
X98090714Y-44591428D01*
X97662142Y-44962857D02*
X97719285Y-44991428D01*
X97833571Y-44991428D01*
X97890714Y-44962857D01*
X97919285Y-44905714D01*
X97919285Y-44677142D01*
X97890714Y-44620000D01*
X97833571Y-44591428D01*
X97719285Y-44591428D01*
X97662142Y-44620000D01*
X97633571Y-44677142D01*
X97633571Y-44734285D01*
X97919285Y-44791428D01*
X97119285Y-44991428D02*
X97119285Y-44677142D01*
X97147857Y-44620000D01*
X97205000Y-44591428D01*
X97319285Y-44591428D01*
X97376428Y-44620000D01*
X97119285Y-44962857D02*
X97176428Y-44991428D01*
X97319285Y-44991428D01*
X97376428Y-44962857D01*
X97405000Y-44905714D01*
X97405000Y-44848571D01*
X97376428Y-44791428D01*
X97319285Y-44762857D01*
X97176428Y-44762857D01*
X97119285Y-44734285D01*
X96833571Y-44991428D02*
X96833571Y-44391428D01*
X96776428Y-44762857D02*
X96605000Y-44991428D01*
X96605000Y-44591428D02*
X96833571Y-44820000D01*
X96262142Y-44991428D02*
X96319285Y-44962857D01*
X96347857Y-44934285D01*
X96376428Y-44877142D01*
X96376428Y-44705714D01*
X96347857Y-44648571D01*
X96319285Y-44620000D01*
X96262142Y-44591428D01*
X96176428Y-44591428D01*
X96119285Y-44620000D01*
X96090714Y-44648571D01*
X96062142Y-44705714D01*
X96062142Y-44877142D01*
X96090714Y-44934285D01*
X96119285Y-44962857D01*
X96176428Y-44991428D01*
X96262142Y-44991428D01*
X95547857Y-44591428D02*
X95547857Y-44991428D01*
X95805000Y-44591428D02*
X95805000Y-44905714D01*
X95776428Y-44962857D01*
X95719285Y-44991428D01*
X95633571Y-44991428D01*
X95576428Y-44962857D01*
X95547857Y-44934285D01*
X95347857Y-44591428D02*
X95119285Y-44591428D01*
X95262142Y-44391428D02*
X95262142Y-44905714D01*
X95233571Y-44962857D01*
X95176428Y-44991428D01*
X95119285Y-44991428D01*
X94119285Y-44991428D02*
X94319285Y-44705714D01*
X94462142Y-44991428D02*
X94462142Y-44391428D01*
X94233571Y-44391428D01*
X94176428Y-44420000D01*
X94147857Y-44448571D01*
X94119285Y-44505714D01*
X94119285Y-44591428D01*
X94147857Y-44648571D01*
X94176428Y-44677142D01*
X94233571Y-44705714D01*
X94462142Y-44705714D01*
X93633571Y-44962857D02*
X93690714Y-44991428D01*
X93805000Y-44991428D01*
X93862142Y-44962857D01*
X93890714Y-44905714D01*
X93890714Y-44677142D01*
X93862142Y-44620000D01*
X93805000Y-44591428D01*
X93690714Y-44591428D01*
X93633571Y-44620000D01*
X93605000Y-44677142D01*
X93605000Y-44734285D01*
X93890714Y-44791428D01*
X93405000Y-44591428D02*
X93262142Y-44991428D01*
X93119285Y-44591428D01*
X92462142Y-44820000D02*
X92176428Y-44820000D01*
X92519285Y-44991428D02*
X92319285Y-44391428D01*
X92119285Y-44991428D01*
X102690714Y-45448571D02*
X102662142Y-45420000D01*
X102605000Y-45391428D01*
X102462142Y-45391428D01*
X102405000Y-45420000D01*
X102376428Y-45448571D01*
X102347857Y-45505714D01*
X102347857Y-45562857D01*
X102376428Y-45648571D01*
X102719285Y-45991428D01*
X102347857Y-45991428D01*
X101976428Y-45391428D02*
X101919285Y-45391428D01*
X101862142Y-45420000D01*
X101833571Y-45448571D01*
X101805000Y-45505714D01*
X101776428Y-45620000D01*
X101776428Y-45762857D01*
X101805000Y-45877142D01*
X101833571Y-45934285D01*
X101862142Y-45962857D01*
X101919285Y-45991428D01*
X101976428Y-45991428D01*
X102033571Y-45962857D01*
X102062142Y-45934285D01*
X102090714Y-45877142D01*
X102119285Y-45762857D01*
X102119285Y-45620000D01*
X102090714Y-45505714D01*
X102062142Y-45448571D01*
X102033571Y-45420000D01*
X101976428Y-45391428D01*
X101205000Y-45991428D02*
X101547857Y-45991428D01*
X101376428Y-45991428D02*
X101376428Y-45391428D01*
X101433571Y-45477142D01*
X101490714Y-45534285D01*
X101547857Y-45562857D01*
X100919285Y-45991428D02*
X100805000Y-45991428D01*
X100747857Y-45962857D01*
X100719285Y-45934285D01*
X100662142Y-45848571D01*
X100633571Y-45734285D01*
X100633571Y-45505714D01*
X100662142Y-45448571D01*
X100690714Y-45420000D01*
X100747857Y-45391428D01*
X100862142Y-45391428D01*
X100919285Y-45420000D01*
X100947857Y-45448571D01*
X100976428Y-45505714D01*
X100976428Y-45648571D01*
X100947857Y-45705714D01*
X100919285Y-45734285D01*
X100862142Y-45762857D01*
X100747857Y-45762857D01*
X100690714Y-45734285D01*
X100662142Y-45705714D01*
X100633571Y-45648571D01*
X99919285Y-45991428D02*
X99919285Y-45391428D01*
X99776428Y-45391428D01*
X99690714Y-45420000D01*
X99633571Y-45477142D01*
X99605000Y-45534285D01*
X99576428Y-45648571D01*
X99576428Y-45734285D01*
X99605000Y-45848571D01*
X99633571Y-45905714D01*
X99690714Y-45962857D01*
X99776428Y-45991428D01*
X99919285Y-45991428D01*
X99233571Y-45991428D02*
X99290714Y-45962857D01*
X99319285Y-45934285D01*
X99347857Y-45877142D01*
X99347857Y-45705714D01*
X99319285Y-45648571D01*
X99290714Y-45620000D01*
X99233571Y-45591428D01*
X99147857Y-45591428D01*
X99090714Y-45620000D01*
X99062142Y-45648571D01*
X99033571Y-45705714D01*
X99033571Y-45877142D01*
X99062142Y-45934285D01*
X99090714Y-45962857D01*
X99147857Y-45991428D01*
X99233571Y-45991428D01*
X98776428Y-45991428D02*
X98776428Y-45591428D01*
X98776428Y-45648571D02*
X98747857Y-45620000D01*
X98690714Y-45591428D01*
X98605000Y-45591428D01*
X98547857Y-45620000D01*
X98519285Y-45677142D01*
X98519285Y-45991428D01*
X98519285Y-45677142D02*
X98490714Y-45620000D01*
X98433571Y-45591428D01*
X98347857Y-45591428D01*
X98290714Y-45620000D01*
X98262142Y-45677142D01*
X98262142Y-45991428D01*
X97976428Y-45991428D02*
X97976428Y-45591428D01*
X97976428Y-45391428D02*
X98005000Y-45420000D01*
X97976428Y-45448571D01*
X97947857Y-45420000D01*
X97976428Y-45391428D01*
X97976428Y-45448571D01*
X97690714Y-45591428D02*
X97690714Y-45991428D01*
X97690714Y-45648571D02*
X97662142Y-45620000D01*
X97605000Y-45591428D01*
X97519285Y-45591428D01*
X97462142Y-45620000D01*
X97433571Y-45677142D01*
X97433571Y-45991428D01*
X97147857Y-45991428D02*
X97147857Y-45591428D01*
X97147857Y-45391428D02*
X97176428Y-45420000D01*
X97147857Y-45448571D01*
X97119285Y-45420000D01*
X97147857Y-45391428D01*
X97147857Y-45448571D01*
X96605000Y-45962857D02*
X96662142Y-45991428D01*
X96776428Y-45991428D01*
X96833571Y-45962857D01*
X96862142Y-45934285D01*
X96890714Y-45877142D01*
X96890714Y-45705714D01*
X96862142Y-45648571D01*
X96833571Y-45620000D01*
X96776428Y-45591428D01*
X96662142Y-45591428D01*
X96605000Y-45620000D01*
X95976428Y-45391428D02*
X95633571Y-45391428D01*
X95805000Y-45991428D02*
X95805000Y-45391428D01*
X95433571Y-45991428D02*
X95433571Y-45391428D01*
X95176428Y-45991428D02*
X95176428Y-45677142D01*
X95205000Y-45620000D01*
X95262142Y-45591428D01*
X95347857Y-45591428D01*
X95405000Y-45620000D01*
X95433571Y-45648571D01*
X94890714Y-45991428D02*
X94890714Y-45591428D01*
X94890714Y-45391428D02*
X94919285Y-45420000D01*
X94890714Y-45448571D01*
X94862142Y-45420000D01*
X94890714Y-45391428D01*
X94890714Y-45448571D01*
X94605000Y-45991428D02*
X94605000Y-45391428D01*
X94605000Y-45620000D02*
X94547857Y-45591428D01*
X94433571Y-45591428D01*
X94376428Y-45620000D01*
X94347857Y-45648571D01*
X94319285Y-45705714D01*
X94319285Y-45877142D01*
X94347857Y-45934285D01*
X94376428Y-45962857D01*
X94433571Y-45991428D01*
X94547857Y-45991428D01*
X94605000Y-45962857D01*
X93976428Y-45991428D02*
X94033571Y-45962857D01*
X94062142Y-45934285D01*
X94090714Y-45877142D01*
X94090714Y-45705714D01*
X94062142Y-45648571D01*
X94033571Y-45620000D01*
X93976428Y-45591428D01*
X93890714Y-45591428D01*
X93833571Y-45620000D01*
X93805000Y-45648571D01*
X93776428Y-45705714D01*
X93776428Y-45877142D01*
X93805000Y-45934285D01*
X93833571Y-45962857D01*
X93890714Y-45991428D01*
X93976428Y-45991428D01*
X93262142Y-45991428D02*
X93262142Y-45391428D01*
X93262142Y-45962857D02*
X93319285Y-45991428D01*
X93433571Y-45991428D01*
X93490714Y-45962857D01*
X93519285Y-45934285D01*
X93547857Y-45877142D01*
X93547857Y-45705714D01*
X93519285Y-45648571D01*
X93490714Y-45620000D01*
X93433571Y-45591428D01*
X93319285Y-45591428D01*
X93262142Y-45620000D01*
X92747857Y-45962857D02*
X92805000Y-45991428D01*
X92919285Y-45991428D01*
X92976428Y-45962857D01*
X93005000Y-45905714D01*
X93005000Y-45677142D01*
X92976428Y-45620000D01*
X92919285Y-45591428D01*
X92805000Y-45591428D01*
X92747857Y-45620000D01*
X92719285Y-45677142D01*
X92719285Y-45734285D01*
X93005000Y-45791428D01*
X92205000Y-45991428D02*
X92205000Y-45677142D01*
X92233571Y-45620000D01*
X92290714Y-45591428D01*
X92405000Y-45591428D01*
X92462142Y-45620000D01*
X92205000Y-45962857D02*
X92262142Y-45991428D01*
X92405000Y-45991428D01*
X92462142Y-45962857D01*
X92490714Y-45905714D01*
X92490714Y-45848571D01*
X92462142Y-45791428D01*
X92405000Y-45762857D01*
X92262142Y-45762857D01*
X92205000Y-45734285D01*
X91662142Y-45591428D02*
X91662142Y-45991428D01*
X91919285Y-45591428D02*
X91919285Y-45905714D01*
X91890714Y-45962857D01*
X91833571Y-45991428D01*
X91747857Y-45991428D01*
X91690714Y-45962857D01*
X91662142Y-45934285D01*
X102405000Y-46991428D02*
X102405000Y-46391428D01*
X102405000Y-46962857D02*
X102462142Y-46991428D01*
X102576428Y-46991428D01*
X102633571Y-46962857D01*
X102662142Y-46934285D01*
X102690714Y-46877142D01*
X102690714Y-46705714D01*
X102662142Y-46648571D01*
X102633571Y-46620000D01*
X102576428Y-46591428D01*
X102462142Y-46591428D01*
X102405000Y-46620000D01*
X101890714Y-46962857D02*
X101947857Y-46991428D01*
X102062142Y-46991428D01*
X102119285Y-46962857D01*
X102147857Y-46905714D01*
X102147857Y-46677142D01*
X102119285Y-46620000D01*
X102062142Y-46591428D01*
X101947857Y-46591428D01*
X101890714Y-46620000D01*
X101862142Y-46677142D01*
X101862142Y-46734285D01*
X102147857Y-46791428D01*
X101662142Y-46591428D02*
X101519285Y-46991428D01*
X101376428Y-46591428D01*
X100776428Y-46705714D02*
X100805000Y-46677142D01*
X100862142Y-46648571D01*
X100919285Y-46648571D01*
X100976428Y-46677142D01*
X101005000Y-46705714D01*
X101033571Y-46762857D01*
X101033571Y-46820000D01*
X101005000Y-46877142D01*
X100976428Y-46905714D01*
X100919285Y-46934285D01*
X100862142Y-46934285D01*
X100805000Y-46905714D01*
X100776428Y-46877142D01*
X100776428Y-46648571D02*
X100776428Y-46877142D01*
X100747857Y-46905714D01*
X100719285Y-46905714D01*
X100662142Y-46877142D01*
X100633571Y-46820000D01*
X100633571Y-46677142D01*
X100690714Y-46591428D01*
X100776428Y-46534285D01*
X100890714Y-46505714D01*
X101005000Y-46534285D01*
X101090714Y-46591428D01*
X101147857Y-46677142D01*
X101176428Y-46791428D01*
X101147857Y-46905714D01*
X101090714Y-46991428D01*
X101005000Y-47048571D01*
X100890714Y-47077142D01*
X100776428Y-47048571D01*
X100690714Y-46991428D01*
X100376428Y-46991428D02*
X100376428Y-46391428D01*
X100119285Y-46991428D02*
X100119285Y-46677142D01*
X100147857Y-46620000D01*
X100205000Y-46591428D01*
X100290714Y-46591428D01*
X100347857Y-46620000D01*
X100376428Y-46648571D01*
X99747857Y-46991428D02*
X99805000Y-46962857D01*
X99833571Y-46934285D01*
X99862142Y-46877142D01*
X99862142Y-46705714D01*
X99833571Y-46648571D01*
X99805000Y-46620000D01*
X99747857Y-46591428D01*
X99662142Y-46591428D01*
X99605000Y-46620000D01*
X99576428Y-46648571D01*
X99547857Y-46705714D01*
X99547857Y-46877142D01*
X99576428Y-46934285D01*
X99605000Y-46962857D01*
X99662142Y-46991428D01*
X99747857Y-46991428D01*
X99376428Y-46591428D02*
X99147857Y-46591428D01*
X99290714Y-46391428D02*
X99290714Y-46905714D01*
X99262142Y-46962857D01*
X99205000Y-46991428D01*
X99147857Y-46991428D01*
X98947857Y-46991428D02*
X98947857Y-46391428D01*
X98890714Y-46762857D02*
X98719285Y-46991428D01*
X98719285Y-46591428D02*
X98947857Y-46820000D01*
X98233571Y-46962857D02*
X98290714Y-46991428D01*
X98405000Y-46991428D01*
X98462142Y-46962857D01*
X98490714Y-46905714D01*
X98490714Y-46677142D01*
X98462142Y-46620000D01*
X98405000Y-46591428D01*
X98290714Y-46591428D01*
X98233571Y-46620000D01*
X98205000Y-46677142D01*
X98205000Y-46734285D01*
X98490714Y-46791428D01*
X98005000Y-46591428D02*
X97862142Y-46991428D01*
X97719285Y-46591428D02*
X97862142Y-46991428D01*
X97919285Y-47134285D01*
X97947857Y-47162857D01*
X98005000Y-47191428D01*
X97519285Y-46962857D02*
X97462142Y-46991428D01*
X97347857Y-46991428D01*
X97290714Y-46962857D01*
X97262142Y-46905714D01*
X97262142Y-46877142D01*
X97290714Y-46820000D01*
X97347857Y-46791428D01*
X97433571Y-46791428D01*
X97490714Y-46762857D01*
X97519285Y-46705714D01*
X97519285Y-46677142D01*
X97490714Y-46620000D01*
X97433571Y-46591428D01*
X97347857Y-46591428D01*
X97290714Y-46620000D01*
X96919285Y-46991428D02*
X96976428Y-46962857D01*
X97005000Y-46934285D01*
X97033571Y-46877142D01*
X97033571Y-46705714D01*
X97005000Y-46648571D01*
X96976428Y-46620000D01*
X96919285Y-46591428D01*
X96833571Y-46591428D01*
X96776428Y-46620000D01*
X96747857Y-46648571D01*
X96719285Y-46705714D01*
X96719285Y-46877142D01*
X96747857Y-46934285D01*
X96776428Y-46962857D01*
X96833571Y-46991428D01*
X96919285Y-46991428D01*
X96547857Y-46591428D02*
X96319285Y-46591428D01*
X96462142Y-46991428D02*
X96462142Y-46477142D01*
X96433571Y-46420000D01*
X96376428Y-46391428D01*
X96319285Y-46391428D01*
X96205000Y-46591428D02*
X95976428Y-46591428D01*
X96119285Y-46391428D02*
X96119285Y-46905714D01*
X96090714Y-46962857D01*
X96033571Y-46991428D01*
X95976428Y-46991428D01*
X95776428Y-46934285D02*
X95747857Y-46962857D01*
X95776428Y-46991428D01*
X95805000Y-46962857D01*
X95776428Y-46934285D01*
X95776428Y-46991428D01*
X95490714Y-46591428D02*
X95490714Y-46991428D01*
X95490714Y-46648571D02*
X95462142Y-46620000D01*
X95405000Y-46591428D01*
X95319285Y-46591428D01*
X95262142Y-46620000D01*
X95233571Y-46677142D01*
X95233571Y-46991428D01*
X94719285Y-46962857D02*
X94776428Y-46991428D01*
X94890714Y-46991428D01*
X94947857Y-46962857D01*
X94976428Y-46905714D01*
X94976428Y-46677142D01*
X94947857Y-46620000D01*
X94890714Y-46591428D01*
X94776428Y-46591428D01*
X94719285Y-46620000D01*
X94690714Y-46677142D01*
X94690714Y-46734285D01*
X94976428Y-46791428D01*
X94519285Y-46591428D02*
X94290714Y-46591428D01*
X94433571Y-46391428D02*
X94433571Y-46905714D01*
X94405000Y-46962857D01*
X94347857Y-46991428D01*
X94290714Y-46991428D01*
D11*
X69790000Y-35500000D02*
X69790000Y-36830000D01*
X71120000Y-35500000D02*
X69790000Y-35500000D01*
X72390000Y-35500000D02*
X72390000Y-38160000D01*
X72390000Y-38160000D02*
X125790000Y-38160000D01*
X72390000Y-35500000D02*
X125790000Y-35500000D01*
X125790000Y-35500000D02*
X125790000Y-38160000D01*
X69790000Y-53280000D02*
X69790000Y-54610000D01*
X71120000Y-53280000D02*
X69790000Y-53280000D01*
X72390000Y-53280000D02*
X72390000Y-55940000D01*
X72390000Y-55940000D02*
X125790000Y-55940000D01*
X72390000Y-53280000D02*
X125790000Y-53280000D01*
X125790000Y-53280000D02*
X125790000Y-55940000D01*
M02*
