G04 #@! TF.GenerationSoftware,KiCad,Pcbnew,(5.1.4)-1*
G04 #@! TF.CreationDate,2019-10-24T16:58:35-04:00*
G04 #@! TF.ProjectId,TQFP44,54514650-3434-42e6-9b69-6361645f7063,B*
G04 #@! TF.SameCoordinates,Original*
G04 #@! TF.FileFunction,Copper,L1,Top*
G04 #@! TF.FilePolarity,Positive*
%FSLAX46Y46*%
G04 Gerber Fmt 4.6, Leading zero omitted, Abs format (unit mm)*
G04 Created by KiCad (PCBNEW (5.1.4)-1) date 2019-10-24 16:58:35*
%MOMM*%
%LPD*%
G04 APERTURE LIST*
%ADD10O,1.700000X1.700000*%
%ADD11R,1.700000X1.700000*%
%ADD12C,0.550000*%
%ADD13C,0.100000*%
%ADD14C,0.150000*%
G04 APERTURE END LIST*
D10*
X124460000Y-36830000D03*
X121920000Y-36830000D03*
X119380000Y-36830000D03*
X116840000Y-36830000D03*
X114300000Y-36830000D03*
X111760000Y-36830000D03*
X109220000Y-36830000D03*
X106680000Y-36830000D03*
X104140000Y-36830000D03*
X101600000Y-36830000D03*
X99060000Y-36830000D03*
X96520000Y-36830000D03*
X93980000Y-36830000D03*
X91440000Y-36830000D03*
X88900000Y-36830000D03*
X86360000Y-36830000D03*
X83820000Y-36830000D03*
X81280000Y-36830000D03*
X78740000Y-36830000D03*
X76200000Y-36830000D03*
X73660000Y-36830000D03*
D11*
X71120000Y-36830000D03*
D10*
X124460000Y-54610000D03*
X121920000Y-54610000D03*
X119380000Y-54610000D03*
X116840000Y-54610000D03*
X114300000Y-54610000D03*
X111760000Y-54610000D03*
X109220000Y-54610000D03*
X106680000Y-54610000D03*
X104140000Y-54610000D03*
X101600000Y-54610000D03*
X99060000Y-54610000D03*
X96520000Y-54610000D03*
X93980000Y-54610000D03*
X91440000Y-54610000D03*
X88900000Y-54610000D03*
X86360000Y-54610000D03*
X83820000Y-54610000D03*
X81280000Y-54610000D03*
X78740000Y-54610000D03*
X76200000Y-54610000D03*
X73660000Y-54610000D03*
D11*
X71120000Y-54610000D03*
D12*
X90931064Y-44517918D03*
D13*
G36*
X91655848Y-44853794D02*
G01*
X91266940Y-45242702D01*
X90206280Y-44182042D01*
X90595188Y-43793134D01*
X91655848Y-44853794D01*
X91655848Y-44853794D01*
G37*
D12*
X91496750Y-43952233D03*
D13*
G36*
X92221534Y-44288109D02*
G01*
X91832626Y-44677017D01*
X90771966Y-43616357D01*
X91160874Y-43227449D01*
X92221534Y-44288109D01*
X92221534Y-44288109D01*
G37*
D12*
X92062435Y-43386548D03*
D13*
G36*
X92787219Y-43722424D02*
G01*
X92398311Y-44111332D01*
X91337651Y-43050672D01*
X91726559Y-42661764D01*
X92787219Y-43722424D01*
X92787219Y-43722424D01*
G37*
D12*
X92628120Y-42820862D03*
D13*
G36*
X93352904Y-43156738D02*
G01*
X92963996Y-43545646D01*
X91903336Y-42484986D01*
X92292244Y-42096078D01*
X93352904Y-43156738D01*
X93352904Y-43156738D01*
G37*
D12*
X93193806Y-42255177D03*
D13*
G36*
X93918590Y-42591053D02*
G01*
X93529682Y-42979961D01*
X92469022Y-41919301D01*
X92857930Y-41530393D01*
X93918590Y-42591053D01*
X93918590Y-42591053D01*
G37*
D12*
X93759491Y-41689491D03*
D13*
G36*
X94484275Y-42025367D02*
G01*
X94095367Y-42414275D01*
X93034707Y-41353615D01*
X93423615Y-40964707D01*
X94484275Y-42025367D01*
X94484275Y-42025367D01*
G37*
D12*
X94325177Y-41123806D03*
D13*
G36*
X95049961Y-41459682D02*
G01*
X94661053Y-41848590D01*
X93600393Y-40787930D01*
X93989301Y-40399022D01*
X95049961Y-41459682D01*
X95049961Y-41459682D01*
G37*
D12*
X94890862Y-40558120D03*
D13*
G36*
X95615646Y-40893996D02*
G01*
X95226738Y-41282904D01*
X94166078Y-40222244D01*
X94554986Y-39833336D01*
X95615646Y-40893996D01*
X95615646Y-40893996D01*
G37*
D12*
X95456548Y-39992435D03*
D13*
G36*
X96181332Y-40328311D02*
G01*
X95792424Y-40717219D01*
X94731764Y-39656559D01*
X95120672Y-39267651D01*
X96181332Y-40328311D01*
X96181332Y-40328311D01*
G37*
D12*
X96022233Y-39426750D03*
D13*
G36*
X96747017Y-39762626D02*
G01*
X96358109Y-40151534D01*
X95297449Y-39090874D01*
X95686357Y-38701966D01*
X96747017Y-39762626D01*
X96747017Y-39762626D01*
G37*
D12*
X96587918Y-38861064D03*
D13*
G36*
X97312702Y-39196940D02*
G01*
X96923794Y-39585848D01*
X95863134Y-38525188D01*
X96252042Y-38136280D01*
X97312702Y-39196940D01*
X97312702Y-39196940D01*
G37*
D12*
X98992082Y-38861064D03*
D13*
G36*
X98656206Y-39585848D02*
G01*
X98267298Y-39196940D01*
X99327958Y-38136280D01*
X99716866Y-38525188D01*
X98656206Y-39585848D01*
X98656206Y-39585848D01*
G37*
D12*
X99557767Y-39426750D03*
D13*
G36*
X99221891Y-40151534D02*
G01*
X98832983Y-39762626D01*
X99893643Y-38701966D01*
X100282551Y-39090874D01*
X99221891Y-40151534D01*
X99221891Y-40151534D01*
G37*
D12*
X100123452Y-39992435D03*
D13*
G36*
X99787576Y-40717219D02*
G01*
X99398668Y-40328311D01*
X100459328Y-39267651D01*
X100848236Y-39656559D01*
X99787576Y-40717219D01*
X99787576Y-40717219D01*
G37*
D12*
X100689138Y-40558120D03*
D13*
G36*
X100353262Y-41282904D02*
G01*
X99964354Y-40893996D01*
X101025014Y-39833336D01*
X101413922Y-40222244D01*
X100353262Y-41282904D01*
X100353262Y-41282904D01*
G37*
D12*
X101254823Y-41123806D03*
D13*
G36*
X100918947Y-41848590D02*
G01*
X100530039Y-41459682D01*
X101590699Y-40399022D01*
X101979607Y-40787930D01*
X100918947Y-41848590D01*
X100918947Y-41848590D01*
G37*
D12*
X101820509Y-41689491D03*
D13*
G36*
X101484633Y-42414275D02*
G01*
X101095725Y-42025367D01*
X102156385Y-40964707D01*
X102545293Y-41353615D01*
X101484633Y-42414275D01*
X101484633Y-42414275D01*
G37*
D12*
X102386194Y-42255177D03*
D13*
G36*
X102050318Y-42979961D02*
G01*
X101661410Y-42591053D01*
X102722070Y-41530393D01*
X103110978Y-41919301D01*
X102050318Y-42979961D01*
X102050318Y-42979961D01*
G37*
D12*
X102951880Y-42820862D03*
D13*
G36*
X102616004Y-43545646D02*
G01*
X102227096Y-43156738D01*
X103287756Y-42096078D01*
X103676664Y-42484986D01*
X102616004Y-43545646D01*
X102616004Y-43545646D01*
G37*
D12*
X103517565Y-43386548D03*
D13*
G36*
X103181689Y-44111332D02*
G01*
X102792781Y-43722424D01*
X103853441Y-42661764D01*
X104242349Y-43050672D01*
X103181689Y-44111332D01*
X103181689Y-44111332D01*
G37*
D12*
X104083250Y-43952233D03*
D13*
G36*
X103747374Y-44677017D02*
G01*
X103358466Y-44288109D01*
X104419126Y-43227449D01*
X104808034Y-43616357D01*
X103747374Y-44677017D01*
X103747374Y-44677017D01*
G37*
D12*
X104648936Y-44517918D03*
D13*
G36*
X104313060Y-45242702D02*
G01*
X103924152Y-44853794D01*
X104984812Y-43793134D01*
X105373720Y-44182042D01*
X104313060Y-45242702D01*
X104313060Y-45242702D01*
G37*
D12*
X104648936Y-46922082D03*
D13*
G36*
X105373720Y-47257958D02*
G01*
X104984812Y-47646866D01*
X103924152Y-46586206D01*
X104313060Y-46197298D01*
X105373720Y-47257958D01*
X105373720Y-47257958D01*
G37*
D12*
X104083250Y-47487767D03*
D13*
G36*
X104808034Y-47823643D02*
G01*
X104419126Y-48212551D01*
X103358466Y-47151891D01*
X103747374Y-46762983D01*
X104808034Y-47823643D01*
X104808034Y-47823643D01*
G37*
D12*
X103517565Y-48053452D03*
D13*
G36*
X104242349Y-48389328D02*
G01*
X103853441Y-48778236D01*
X102792781Y-47717576D01*
X103181689Y-47328668D01*
X104242349Y-48389328D01*
X104242349Y-48389328D01*
G37*
D12*
X102951880Y-48619138D03*
D13*
G36*
X103676664Y-48955014D02*
G01*
X103287756Y-49343922D01*
X102227096Y-48283262D01*
X102616004Y-47894354D01*
X103676664Y-48955014D01*
X103676664Y-48955014D01*
G37*
D12*
X102386194Y-49184823D03*
D13*
G36*
X103110978Y-49520699D02*
G01*
X102722070Y-49909607D01*
X101661410Y-48848947D01*
X102050318Y-48460039D01*
X103110978Y-49520699D01*
X103110978Y-49520699D01*
G37*
D12*
X101820509Y-49750509D03*
D13*
G36*
X102545293Y-50086385D02*
G01*
X102156385Y-50475293D01*
X101095725Y-49414633D01*
X101484633Y-49025725D01*
X102545293Y-50086385D01*
X102545293Y-50086385D01*
G37*
D12*
X101254823Y-50316194D03*
D13*
G36*
X101979607Y-50652070D02*
G01*
X101590699Y-51040978D01*
X100530039Y-49980318D01*
X100918947Y-49591410D01*
X101979607Y-50652070D01*
X101979607Y-50652070D01*
G37*
D12*
X100689138Y-50881880D03*
D13*
G36*
X101413922Y-51217756D02*
G01*
X101025014Y-51606664D01*
X99964354Y-50546004D01*
X100353262Y-50157096D01*
X101413922Y-51217756D01*
X101413922Y-51217756D01*
G37*
D12*
X100123452Y-51447565D03*
D13*
G36*
X100848236Y-51783441D02*
G01*
X100459328Y-52172349D01*
X99398668Y-51111689D01*
X99787576Y-50722781D01*
X100848236Y-51783441D01*
X100848236Y-51783441D01*
G37*
D12*
X99557767Y-52013250D03*
D13*
G36*
X100282551Y-52349126D02*
G01*
X99893643Y-52738034D01*
X98832983Y-51677374D01*
X99221891Y-51288466D01*
X100282551Y-52349126D01*
X100282551Y-52349126D01*
G37*
D12*
X98992082Y-52578936D03*
D13*
G36*
X99716866Y-52914812D02*
G01*
X99327958Y-53303720D01*
X98267298Y-52243060D01*
X98656206Y-51854152D01*
X99716866Y-52914812D01*
X99716866Y-52914812D01*
G37*
D12*
X96587918Y-52578936D03*
D13*
G36*
X96252042Y-53303720D02*
G01*
X95863134Y-52914812D01*
X96923794Y-51854152D01*
X97312702Y-52243060D01*
X96252042Y-53303720D01*
X96252042Y-53303720D01*
G37*
D12*
X96022233Y-52013250D03*
D13*
G36*
X95686357Y-52738034D02*
G01*
X95297449Y-52349126D01*
X96358109Y-51288466D01*
X96747017Y-51677374D01*
X95686357Y-52738034D01*
X95686357Y-52738034D01*
G37*
D12*
X95456548Y-51447565D03*
D13*
G36*
X95120672Y-52172349D02*
G01*
X94731764Y-51783441D01*
X95792424Y-50722781D01*
X96181332Y-51111689D01*
X95120672Y-52172349D01*
X95120672Y-52172349D01*
G37*
D12*
X94890862Y-50881880D03*
D13*
G36*
X94554986Y-51606664D02*
G01*
X94166078Y-51217756D01*
X95226738Y-50157096D01*
X95615646Y-50546004D01*
X94554986Y-51606664D01*
X94554986Y-51606664D01*
G37*
D12*
X94325177Y-50316194D03*
D13*
G36*
X93989301Y-51040978D02*
G01*
X93600393Y-50652070D01*
X94661053Y-49591410D01*
X95049961Y-49980318D01*
X93989301Y-51040978D01*
X93989301Y-51040978D01*
G37*
D12*
X93759491Y-49750509D03*
D13*
G36*
X93423615Y-50475293D02*
G01*
X93034707Y-50086385D01*
X94095367Y-49025725D01*
X94484275Y-49414633D01*
X93423615Y-50475293D01*
X93423615Y-50475293D01*
G37*
D12*
X93193806Y-49184823D03*
D13*
G36*
X92857930Y-49909607D02*
G01*
X92469022Y-49520699D01*
X93529682Y-48460039D01*
X93918590Y-48848947D01*
X92857930Y-49909607D01*
X92857930Y-49909607D01*
G37*
D12*
X92628120Y-48619138D03*
D13*
G36*
X92292244Y-49343922D02*
G01*
X91903336Y-48955014D01*
X92963996Y-47894354D01*
X93352904Y-48283262D01*
X92292244Y-49343922D01*
X92292244Y-49343922D01*
G37*
D12*
X92062435Y-48053452D03*
D13*
G36*
X91726559Y-48778236D02*
G01*
X91337651Y-48389328D01*
X92398311Y-47328668D01*
X92787219Y-47717576D01*
X91726559Y-48778236D01*
X91726559Y-48778236D01*
G37*
D12*
X91496750Y-47487767D03*
D13*
G36*
X91160874Y-48212551D02*
G01*
X90771966Y-47823643D01*
X91832626Y-46762983D01*
X92221534Y-47151891D01*
X91160874Y-48212551D01*
X91160874Y-48212551D01*
G37*
D12*
X90931064Y-46922082D03*
D13*
G36*
X90595188Y-47646866D02*
G01*
X90206280Y-47257958D01*
X91266940Y-46197298D01*
X91655848Y-46586206D01*
X90595188Y-47646866D01*
X90595188Y-47646866D01*
G37*
D14*
X72120000Y-36830000D02*
X75422000Y-40132000D01*
X71120000Y-36830000D02*
X72120000Y-36830000D01*
X86545146Y-40132000D02*
X90931064Y-44517918D01*
X75422000Y-40132000D02*
X86545146Y-40132000D01*
X90895710Y-43351193D02*
X91496750Y-43952233D01*
X87324586Y-39780069D02*
X90895710Y-43351193D01*
X76610069Y-39780069D02*
X87324586Y-39780069D01*
X73660000Y-36830000D02*
X76610069Y-39780069D01*
X91461395Y-42785508D02*
X92062435Y-43386548D01*
X88155946Y-39480059D02*
X91461395Y-42785508D01*
X78850059Y-39480059D02*
X88155946Y-39480059D01*
X76200000Y-36830000D02*
X78850059Y-39480059D01*
X92027080Y-42219822D02*
X92628120Y-42820862D01*
X88987307Y-39180049D02*
X92027080Y-42219822D01*
X81090049Y-39180049D02*
X88987307Y-39180049D01*
X78740000Y-36830000D02*
X81090049Y-39180049D01*
X92592766Y-41654137D02*
X93193806Y-42255177D01*
X89818668Y-38880039D02*
X92592766Y-41654137D01*
X83330039Y-38880039D02*
X89818668Y-38880039D01*
X81280000Y-36830000D02*
X83330039Y-38880039D01*
X93158451Y-41088451D02*
X93759491Y-41689491D01*
X90650029Y-38580029D02*
X93158451Y-41088451D01*
X85570029Y-38580029D02*
X90650029Y-38580029D01*
X83820000Y-36830000D02*
X85570029Y-38580029D01*
X93724137Y-40522766D02*
X94325177Y-41123806D01*
X91481390Y-38280019D02*
X93724137Y-40522766D01*
X87810019Y-38280019D02*
X91481390Y-38280019D01*
X86360000Y-36830000D02*
X87810019Y-38280019D01*
X94289822Y-39957080D02*
X94890862Y-40558120D01*
X92312751Y-37980009D02*
X94289822Y-39957080D01*
X90050009Y-37980009D02*
X92312751Y-37980009D01*
X88900000Y-36830000D02*
X90050009Y-37980009D01*
X94855508Y-39391395D02*
X95456548Y-39992435D01*
X93144112Y-37679999D02*
X94855508Y-39391395D01*
X92289999Y-37679999D02*
X93144112Y-37679999D01*
X91440000Y-36830000D02*
X92289999Y-37679999D01*
X93980000Y-37384517D02*
X93980000Y-36830000D01*
X96022233Y-39426750D02*
X93980000Y-37384517D01*
X96587918Y-36897918D02*
X96520000Y-36830000D01*
X96587918Y-38861064D02*
X96587918Y-36897918D01*
X98992082Y-36897918D02*
X99060000Y-36830000D01*
X98992082Y-38861064D02*
X98992082Y-36897918D01*
X101600000Y-37384517D02*
X101600000Y-36830000D01*
X99557767Y-39426750D02*
X101600000Y-37384517D01*
X100724492Y-39391395D02*
X100123452Y-39992435D01*
X102435888Y-37679999D02*
X100724492Y-39391395D01*
X103290001Y-37679999D02*
X102435888Y-37679999D01*
X104140000Y-36830000D02*
X103290001Y-37679999D01*
X101290178Y-39957080D02*
X100689138Y-40558120D01*
X103267249Y-37980009D02*
X101290178Y-39957080D01*
X105529991Y-37980009D02*
X103267249Y-37980009D01*
X106680000Y-36830000D02*
X105529991Y-37980009D01*
X104024629Y-38354000D02*
X101254823Y-41123806D01*
X109220000Y-36830000D02*
X107696000Y-38354000D01*
X107696000Y-38354000D02*
X104024629Y-38354000D01*
X102421549Y-41088451D02*
X101820509Y-41689491D01*
X104855990Y-38654010D02*
X102421549Y-41088451D01*
X109935990Y-38654010D02*
X104855990Y-38654010D01*
X111760000Y-36830000D02*
X109935990Y-38654010D01*
X114300000Y-36830000D02*
X112014000Y-39116000D01*
X105525371Y-39116000D02*
X102386194Y-42255177D01*
X112014000Y-39116000D02*
X105525371Y-39116000D01*
X106356732Y-39416010D02*
X102951880Y-42820862D01*
X116840000Y-36830000D02*
X114253990Y-39416010D01*
X114253990Y-39416010D02*
X106356732Y-39416010D01*
X104118605Y-42785508D02*
X103517565Y-43386548D01*
X107188094Y-39716019D02*
X104118605Y-42785508D01*
X116493981Y-39716019D02*
X107188094Y-39716019D01*
X119380000Y-36830000D02*
X116493981Y-39716019D01*
X108019454Y-40016029D02*
X104083250Y-43952233D01*
X121920000Y-36830000D02*
X118733971Y-40016029D01*
X118733971Y-40016029D02*
X108019454Y-40016029D01*
X108780854Y-40386000D02*
X104648936Y-44517918D01*
X124460000Y-36830000D02*
X120904000Y-40386000D01*
X120904000Y-40386000D02*
X108780854Y-40386000D01*
X124460000Y-54610000D02*
X121158000Y-51308000D01*
X109034854Y-51308000D02*
X104648936Y-46922082D01*
X121158000Y-51308000D02*
X109034854Y-51308000D01*
X104684290Y-48088807D02*
X104083250Y-47487767D01*
X108255414Y-51659931D02*
X104684290Y-48088807D01*
X118969931Y-51659931D02*
X108255414Y-51659931D01*
X121920000Y-54610000D02*
X118969931Y-51659931D01*
X104118605Y-48654492D02*
X103517565Y-48053452D01*
X107424054Y-51959941D02*
X104118605Y-48654492D01*
X116729941Y-51959941D02*
X107424054Y-51959941D01*
X119380000Y-54610000D02*
X116729941Y-51959941D01*
X103552920Y-49220178D02*
X102951880Y-48619138D01*
X106592693Y-52259951D02*
X103552920Y-49220178D01*
X114489951Y-52259951D02*
X106592693Y-52259951D01*
X116840000Y-54610000D02*
X114489951Y-52259951D01*
X102987234Y-49785863D02*
X102386194Y-49184823D01*
X105761332Y-52559961D02*
X102987234Y-49785863D01*
X112249961Y-52559961D02*
X105761332Y-52559961D01*
X114300000Y-54610000D02*
X112249961Y-52559961D01*
X102421549Y-50351549D02*
X101820509Y-49750509D01*
X104929971Y-52859971D02*
X102421549Y-50351549D01*
X110009971Y-52859971D02*
X104929971Y-52859971D01*
X111760000Y-54610000D02*
X110009971Y-52859971D01*
X101855863Y-50917234D02*
X101254823Y-50316194D01*
X104098610Y-53159981D02*
X101855863Y-50917234D01*
X107769981Y-53159981D02*
X104098610Y-53159981D01*
X109220000Y-54610000D02*
X107769981Y-53159981D01*
X101290178Y-51482920D02*
X100689138Y-50881880D01*
X103267249Y-53459991D02*
X101290178Y-51482920D01*
X105529991Y-53459991D02*
X103267249Y-53459991D01*
X106680000Y-54610000D02*
X105529991Y-53459991D01*
X100724492Y-52048605D02*
X100123452Y-51447565D01*
X102435888Y-53760001D02*
X100724492Y-52048605D01*
X103290001Y-53760001D02*
X102435888Y-53760001D01*
X104140000Y-54610000D02*
X103290001Y-53760001D01*
X100158807Y-52614290D02*
X99557767Y-52013250D01*
X101600000Y-54610000D02*
X101600000Y-54055483D01*
X101600000Y-54055483D02*
X100158807Y-52614290D01*
X99060000Y-52646854D02*
X98992082Y-52578936D01*
X99060000Y-54610000D02*
X99060000Y-52646854D01*
X96520000Y-52646854D02*
X96587918Y-52578936D01*
X96520000Y-54610000D02*
X96520000Y-52646854D01*
X95421193Y-52614290D02*
X96022233Y-52013250D01*
X93980000Y-54610000D02*
X93980000Y-54055483D01*
X93980000Y-54055483D02*
X95421193Y-52614290D01*
X94855508Y-52048605D02*
X95456548Y-51447565D01*
X93144112Y-53760001D02*
X94855508Y-52048605D01*
X92289999Y-53760001D02*
X93144112Y-53760001D01*
X91440000Y-54610000D02*
X92289999Y-53760001D01*
X94289822Y-51482920D02*
X94890862Y-50881880D01*
X92312751Y-53459991D02*
X94289822Y-51482920D01*
X90050009Y-53459991D02*
X92312751Y-53459991D01*
X88900000Y-54610000D02*
X90050009Y-53459991D01*
X93724137Y-50917234D02*
X94325177Y-50316194D01*
X91481390Y-53159981D02*
X93724137Y-50917234D01*
X87810019Y-53159981D02*
X91481390Y-53159981D01*
X86360000Y-54610000D02*
X87810019Y-53159981D01*
X83820000Y-54610000D02*
X85598000Y-52832000D01*
X90678000Y-52832000D02*
X93759491Y-49750509D01*
X85598000Y-52832000D02*
X90678000Y-52832000D01*
X92592766Y-49785863D02*
X93193806Y-49184823D01*
X89846639Y-52531990D02*
X92592766Y-49785863D01*
X83358010Y-52531990D02*
X89846639Y-52531990D01*
X81280000Y-54610000D02*
X83358010Y-52531990D01*
X89015278Y-52231980D02*
X92628120Y-48619138D01*
X78740000Y-54610000D02*
X81118020Y-52231980D01*
X81118020Y-52231980D02*
X89015278Y-52231980D01*
X88183917Y-51931970D02*
X92062435Y-48053452D01*
X76200000Y-54610000D02*
X78878030Y-51931970D01*
X78878030Y-51931970D02*
X88183917Y-51931970D01*
X73660000Y-54610000D02*
X76712195Y-51557805D01*
X87426712Y-51557805D02*
X91496750Y-47487767D01*
X76712195Y-51557805D02*
X87426712Y-51557805D01*
X71120000Y-53610000D02*
X73676000Y-51054000D01*
X71120000Y-54610000D02*
X71120000Y-53610000D01*
X86799146Y-51054000D02*
X90931064Y-46922082D01*
X73676000Y-51054000D02*
X86799146Y-51054000D01*
G36*
X124894804Y-34634071D02*
G01*
X125313052Y-34760348D01*
X125698802Y-34965455D01*
X126037369Y-35241585D01*
X126315850Y-35578211D01*
X126523647Y-35962523D01*
X126652838Y-36379871D01*
X126699993Y-36828520D01*
X126700000Y-36830477D01*
X126700001Y-54595319D01*
X126655929Y-55044803D01*
X126529652Y-55463052D01*
X126324547Y-55848800D01*
X126048418Y-56187367D01*
X125711789Y-56465850D01*
X125327478Y-56673646D01*
X124910129Y-56802838D01*
X124461480Y-56849993D01*
X124459523Y-56850000D01*
X71134670Y-56850000D01*
X70685197Y-56805929D01*
X70266948Y-56679652D01*
X69881200Y-56474547D01*
X69542633Y-56198418D01*
X69264150Y-55861789D01*
X69056354Y-55477478D01*
X68927162Y-55060129D01*
X68880007Y-54611480D01*
X68880000Y-54609523D01*
X68880000Y-53760000D01*
X70043912Y-53760000D01*
X70043912Y-55460000D01*
X70048256Y-55504108D01*
X70061122Y-55546520D01*
X70082015Y-55585608D01*
X70110132Y-55619868D01*
X70144392Y-55647985D01*
X70183480Y-55668878D01*
X70225892Y-55681744D01*
X70270000Y-55686088D01*
X71970000Y-55686088D01*
X72014108Y-55681744D01*
X72056520Y-55668878D01*
X72095608Y-55647985D01*
X72129868Y-55619868D01*
X72157985Y-55585608D01*
X72178878Y-55546520D01*
X72191744Y-55504108D01*
X72196088Y-55460000D01*
X72196088Y-53760000D01*
X72191744Y-53715892D01*
X72178878Y-53673480D01*
X72157985Y-53634392D01*
X72129868Y-53600132D01*
X72095608Y-53572015D01*
X72056520Y-53551122D01*
X72014108Y-53538256D01*
X71970000Y-53533912D01*
X71620351Y-53533912D01*
X73800264Y-51354000D01*
X76491361Y-51354000D01*
X76489646Y-51356090D01*
X74177863Y-53667874D01*
X74073375Y-53612024D01*
X73870737Y-53550555D01*
X73712806Y-53535000D01*
X73607194Y-53535000D01*
X73449263Y-53550555D01*
X73246625Y-53612024D01*
X73059872Y-53711846D01*
X72896183Y-53846183D01*
X72761846Y-54009872D01*
X72662024Y-54196625D01*
X72600555Y-54399263D01*
X72579799Y-54610000D01*
X72600555Y-54820737D01*
X72662024Y-55023375D01*
X72761846Y-55210128D01*
X72896183Y-55373817D01*
X73059872Y-55508154D01*
X73246625Y-55607976D01*
X73449263Y-55669445D01*
X73607194Y-55685000D01*
X73712806Y-55685000D01*
X73870737Y-55669445D01*
X74073375Y-55607976D01*
X74260128Y-55508154D01*
X74423817Y-55373817D01*
X74558154Y-55210128D01*
X74657976Y-55023375D01*
X74719445Y-54820737D01*
X74740201Y-54610000D01*
X74719445Y-54399263D01*
X74657976Y-54196625D01*
X74602126Y-54092137D01*
X76836459Y-51857805D01*
X78527931Y-51857805D01*
X76717863Y-53667874D01*
X76613375Y-53612024D01*
X76410737Y-53550555D01*
X76252806Y-53535000D01*
X76147194Y-53535000D01*
X75989263Y-53550555D01*
X75786625Y-53612024D01*
X75599872Y-53711846D01*
X75436183Y-53846183D01*
X75301846Y-54009872D01*
X75202024Y-54196625D01*
X75140555Y-54399263D01*
X75119799Y-54610000D01*
X75140555Y-54820737D01*
X75202024Y-55023375D01*
X75301846Y-55210128D01*
X75436183Y-55373817D01*
X75599872Y-55508154D01*
X75786625Y-55607976D01*
X75989263Y-55669445D01*
X76147194Y-55685000D01*
X76252806Y-55685000D01*
X76410737Y-55669445D01*
X76613375Y-55607976D01*
X76800128Y-55508154D01*
X76963817Y-55373817D01*
X77098154Y-55210128D01*
X77197976Y-55023375D01*
X77259445Y-54820737D01*
X77280201Y-54610000D01*
X77259445Y-54399263D01*
X77197976Y-54196625D01*
X77142126Y-54092137D01*
X79002294Y-52231970D01*
X80693766Y-52231970D01*
X79257863Y-53667874D01*
X79153375Y-53612024D01*
X78950737Y-53550555D01*
X78792806Y-53535000D01*
X78687194Y-53535000D01*
X78529263Y-53550555D01*
X78326625Y-53612024D01*
X78139872Y-53711846D01*
X77976183Y-53846183D01*
X77841846Y-54009872D01*
X77742024Y-54196625D01*
X77680555Y-54399263D01*
X77659799Y-54610000D01*
X77680555Y-54820737D01*
X77742024Y-55023375D01*
X77841846Y-55210128D01*
X77976183Y-55373817D01*
X78139872Y-55508154D01*
X78326625Y-55607976D01*
X78529263Y-55669445D01*
X78687194Y-55685000D01*
X78792806Y-55685000D01*
X78950737Y-55669445D01*
X79153375Y-55607976D01*
X79340128Y-55508154D01*
X79503817Y-55373817D01*
X79638154Y-55210128D01*
X79737976Y-55023375D01*
X79799445Y-54820737D01*
X79820201Y-54610000D01*
X79799445Y-54399263D01*
X79737976Y-54196625D01*
X79682126Y-54092137D01*
X81242284Y-52531980D01*
X82933756Y-52531980D01*
X81797863Y-53667874D01*
X81693375Y-53612024D01*
X81490737Y-53550555D01*
X81332806Y-53535000D01*
X81227194Y-53535000D01*
X81069263Y-53550555D01*
X80866625Y-53612024D01*
X80679872Y-53711846D01*
X80516183Y-53846183D01*
X80381846Y-54009872D01*
X80282024Y-54196625D01*
X80220555Y-54399263D01*
X80199799Y-54610000D01*
X80220555Y-54820737D01*
X80282024Y-55023375D01*
X80381846Y-55210128D01*
X80516183Y-55373817D01*
X80679872Y-55508154D01*
X80866625Y-55607976D01*
X81069263Y-55669445D01*
X81227194Y-55685000D01*
X81332806Y-55685000D01*
X81490737Y-55669445D01*
X81693375Y-55607976D01*
X81880128Y-55508154D01*
X82043817Y-55373817D01*
X82178154Y-55210128D01*
X82277976Y-55023375D01*
X82339445Y-54820737D01*
X82360201Y-54610000D01*
X82339445Y-54399263D01*
X82277976Y-54196625D01*
X82222126Y-54092137D01*
X83482274Y-52831990D01*
X85173745Y-52831990D01*
X84337862Y-53667874D01*
X84233375Y-53612024D01*
X84030737Y-53550555D01*
X83872806Y-53535000D01*
X83767194Y-53535000D01*
X83609263Y-53550555D01*
X83406625Y-53612024D01*
X83219872Y-53711846D01*
X83056183Y-53846183D01*
X82921846Y-54009872D01*
X82822024Y-54196625D01*
X82760555Y-54399263D01*
X82739799Y-54610000D01*
X82760555Y-54820737D01*
X82822024Y-55023375D01*
X82921846Y-55210128D01*
X83056183Y-55373817D01*
X83219872Y-55508154D01*
X83406625Y-55607976D01*
X83609263Y-55669445D01*
X83767194Y-55685000D01*
X83872806Y-55685000D01*
X84030737Y-55669445D01*
X84233375Y-55607976D01*
X84420128Y-55508154D01*
X84583817Y-55373817D01*
X84718154Y-55210128D01*
X84817976Y-55023375D01*
X84879445Y-54820737D01*
X84900201Y-54610000D01*
X84879445Y-54399263D01*
X84817976Y-54196625D01*
X84762126Y-54092138D01*
X85722265Y-53132000D01*
X87413736Y-53132000D01*
X86877863Y-53667874D01*
X86773375Y-53612024D01*
X86570737Y-53550555D01*
X86412806Y-53535000D01*
X86307194Y-53535000D01*
X86149263Y-53550555D01*
X85946625Y-53612024D01*
X85759872Y-53711846D01*
X85596183Y-53846183D01*
X85461846Y-54009872D01*
X85362024Y-54196625D01*
X85300555Y-54399263D01*
X85279799Y-54610000D01*
X85300555Y-54820737D01*
X85362024Y-55023375D01*
X85461846Y-55210128D01*
X85596183Y-55373817D01*
X85759872Y-55508154D01*
X85946625Y-55607976D01*
X86149263Y-55669445D01*
X86307194Y-55685000D01*
X86412806Y-55685000D01*
X86570737Y-55669445D01*
X86773375Y-55607976D01*
X86960128Y-55508154D01*
X87123817Y-55373817D01*
X87258154Y-55210128D01*
X87357976Y-55023375D01*
X87419445Y-54820737D01*
X87440201Y-54610000D01*
X87419445Y-54399263D01*
X87357976Y-54196625D01*
X87302126Y-54092137D01*
X87934283Y-53459981D01*
X89625755Y-53459981D01*
X89417862Y-53667874D01*
X89313375Y-53612024D01*
X89110737Y-53550555D01*
X88952806Y-53535000D01*
X88847194Y-53535000D01*
X88689263Y-53550555D01*
X88486625Y-53612024D01*
X88299872Y-53711846D01*
X88136183Y-53846183D01*
X88001846Y-54009872D01*
X87902024Y-54196625D01*
X87840555Y-54399263D01*
X87819799Y-54610000D01*
X87840555Y-54820737D01*
X87902024Y-55023375D01*
X88001846Y-55210128D01*
X88136183Y-55373817D01*
X88299872Y-55508154D01*
X88486625Y-55607976D01*
X88689263Y-55669445D01*
X88847194Y-55685000D01*
X88952806Y-55685000D01*
X89110737Y-55669445D01*
X89313375Y-55607976D01*
X89500128Y-55508154D01*
X89663817Y-55373817D01*
X89798154Y-55210128D01*
X89897976Y-55023375D01*
X89959445Y-54820737D01*
X89980201Y-54610000D01*
X89959445Y-54399263D01*
X89897976Y-54196625D01*
X89842126Y-54092138D01*
X90174273Y-53759991D01*
X90781208Y-53759991D01*
X90676183Y-53846183D01*
X90541846Y-54009872D01*
X90442024Y-54196625D01*
X90380555Y-54399263D01*
X90359799Y-54610000D01*
X90380555Y-54820737D01*
X90442024Y-55023375D01*
X90541846Y-55210128D01*
X90676183Y-55373817D01*
X90839872Y-55508154D01*
X91026625Y-55607976D01*
X91229263Y-55669445D01*
X91387194Y-55685000D01*
X91492806Y-55685000D01*
X91650737Y-55669445D01*
X91853375Y-55607976D01*
X92040128Y-55508154D01*
X92203817Y-55373817D01*
X92338154Y-55210128D01*
X92437976Y-55023375D01*
X92499445Y-54820737D01*
X92520201Y-54610000D01*
X92499445Y-54399263D01*
X92437976Y-54196625D01*
X92382126Y-54092138D01*
X92414263Y-54060001D01*
X93055051Y-54060001D01*
X92982024Y-54196625D01*
X92920555Y-54399263D01*
X92899799Y-54610000D01*
X92920555Y-54820737D01*
X92982024Y-55023375D01*
X93081846Y-55210128D01*
X93216183Y-55373817D01*
X93379872Y-55508154D01*
X93566625Y-55607976D01*
X93769263Y-55669445D01*
X93927194Y-55685000D01*
X94032806Y-55685000D01*
X94190737Y-55669445D01*
X94393375Y-55607976D01*
X94580128Y-55508154D01*
X94743817Y-55373817D01*
X94878154Y-55210128D01*
X94977976Y-55023375D01*
X95039445Y-54820737D01*
X95060201Y-54610000D01*
X95039445Y-54399263D01*
X94977976Y-54196625D01*
X94878154Y-54009872D01*
X94743817Y-53846183D01*
X94672276Y-53787471D01*
X95545908Y-52913839D01*
X95560749Y-52926019D01*
X95599837Y-52946912D01*
X95641590Y-52959578D01*
X95654256Y-53001332D01*
X95675149Y-53040420D01*
X95703266Y-53074680D01*
X96092174Y-53463588D01*
X96126434Y-53491705D01*
X96165522Y-53512598D01*
X96207934Y-53525464D01*
X96220001Y-53526652D01*
X96220001Y-53577632D01*
X96106625Y-53612024D01*
X95919872Y-53711846D01*
X95756183Y-53846183D01*
X95621846Y-54009872D01*
X95522024Y-54196625D01*
X95460555Y-54399263D01*
X95439799Y-54610000D01*
X95460555Y-54820737D01*
X95522024Y-55023375D01*
X95621846Y-55210128D01*
X95756183Y-55373817D01*
X95919872Y-55508154D01*
X96106625Y-55607976D01*
X96309263Y-55669445D01*
X96467194Y-55685000D01*
X96572806Y-55685000D01*
X96730737Y-55669445D01*
X96933375Y-55607976D01*
X97120128Y-55508154D01*
X97283817Y-55373817D01*
X97418154Y-55210128D01*
X97517976Y-55023375D01*
X97579445Y-54820737D01*
X97600201Y-54610000D01*
X97979799Y-54610000D01*
X98000555Y-54820737D01*
X98062024Y-55023375D01*
X98161846Y-55210128D01*
X98296183Y-55373817D01*
X98459872Y-55508154D01*
X98646625Y-55607976D01*
X98849263Y-55669445D01*
X99007194Y-55685000D01*
X99112806Y-55685000D01*
X99270737Y-55669445D01*
X99473375Y-55607976D01*
X99660128Y-55508154D01*
X99823817Y-55373817D01*
X99958154Y-55210128D01*
X100057976Y-55023375D01*
X100119445Y-54820737D01*
X100140201Y-54610000D01*
X100119445Y-54399263D01*
X100057976Y-54196625D01*
X99958154Y-54009872D01*
X99823817Y-53846183D01*
X99660128Y-53711846D01*
X99473375Y-53612024D01*
X99360000Y-53577632D01*
X99360000Y-53526652D01*
X99372066Y-53525464D01*
X99414478Y-53512598D01*
X99453566Y-53491705D01*
X99487826Y-53463588D01*
X99876734Y-53074680D01*
X99904851Y-53040420D01*
X99925744Y-53001332D01*
X99938410Y-52959578D01*
X99980163Y-52946912D01*
X100019251Y-52926019D01*
X100034093Y-52913839D01*
X100907724Y-53787471D01*
X100836183Y-53846183D01*
X100701846Y-54009872D01*
X100602024Y-54196625D01*
X100540555Y-54399263D01*
X100519799Y-54610000D01*
X100540555Y-54820737D01*
X100602024Y-55023375D01*
X100701846Y-55210128D01*
X100836183Y-55373817D01*
X100999872Y-55508154D01*
X101186625Y-55607976D01*
X101389263Y-55669445D01*
X101547194Y-55685000D01*
X101652806Y-55685000D01*
X101810737Y-55669445D01*
X102013375Y-55607976D01*
X102200128Y-55508154D01*
X102363817Y-55373817D01*
X102498154Y-55210128D01*
X102597976Y-55023375D01*
X102659445Y-54820737D01*
X102680201Y-54610000D01*
X102659445Y-54399263D01*
X102597976Y-54196625D01*
X102524949Y-54060001D01*
X103165738Y-54060001D01*
X103197874Y-54092137D01*
X103142024Y-54196625D01*
X103080555Y-54399263D01*
X103059799Y-54610000D01*
X103080555Y-54820737D01*
X103142024Y-55023375D01*
X103241846Y-55210128D01*
X103376183Y-55373817D01*
X103539872Y-55508154D01*
X103726625Y-55607976D01*
X103929263Y-55669445D01*
X104087194Y-55685000D01*
X104192806Y-55685000D01*
X104350737Y-55669445D01*
X104553375Y-55607976D01*
X104740128Y-55508154D01*
X104903817Y-55373817D01*
X105038154Y-55210128D01*
X105137976Y-55023375D01*
X105199445Y-54820737D01*
X105220201Y-54610000D01*
X105199445Y-54399263D01*
X105137976Y-54196625D01*
X105038154Y-54009872D01*
X104903817Y-53846183D01*
X104798792Y-53759991D01*
X105405728Y-53759991D01*
X105737874Y-54092137D01*
X105682024Y-54196625D01*
X105620555Y-54399263D01*
X105599799Y-54610000D01*
X105620555Y-54820737D01*
X105682024Y-55023375D01*
X105781846Y-55210128D01*
X105916183Y-55373817D01*
X106079872Y-55508154D01*
X106266625Y-55607976D01*
X106469263Y-55669445D01*
X106627194Y-55685000D01*
X106732806Y-55685000D01*
X106890737Y-55669445D01*
X107093375Y-55607976D01*
X107280128Y-55508154D01*
X107443817Y-55373817D01*
X107578154Y-55210128D01*
X107677976Y-55023375D01*
X107739445Y-54820737D01*
X107760201Y-54610000D01*
X107739445Y-54399263D01*
X107677976Y-54196625D01*
X107578154Y-54009872D01*
X107443817Y-53846183D01*
X107280128Y-53711846D01*
X107093375Y-53612024D01*
X106890737Y-53550555D01*
X106732806Y-53535000D01*
X106627194Y-53535000D01*
X106469263Y-53550555D01*
X106266625Y-53612024D01*
X106162137Y-53667874D01*
X105954244Y-53459981D01*
X107645718Y-53459981D01*
X108277874Y-54092137D01*
X108222024Y-54196625D01*
X108160555Y-54399263D01*
X108139799Y-54610000D01*
X108160555Y-54820737D01*
X108222024Y-55023375D01*
X108321846Y-55210128D01*
X108456183Y-55373817D01*
X108619872Y-55508154D01*
X108806625Y-55607976D01*
X109009263Y-55669445D01*
X109167194Y-55685000D01*
X109272806Y-55685000D01*
X109430737Y-55669445D01*
X109633375Y-55607976D01*
X109820128Y-55508154D01*
X109983817Y-55373817D01*
X110118154Y-55210128D01*
X110217976Y-55023375D01*
X110279445Y-54820737D01*
X110300201Y-54610000D01*
X110279445Y-54399263D01*
X110217976Y-54196625D01*
X110118154Y-54009872D01*
X109983817Y-53846183D01*
X109820128Y-53711846D01*
X109633375Y-53612024D01*
X109430737Y-53550555D01*
X109272806Y-53535000D01*
X109167194Y-53535000D01*
X109009263Y-53550555D01*
X108806625Y-53612024D01*
X108702137Y-53667874D01*
X108194234Y-53159971D01*
X109885708Y-53159971D01*
X110817874Y-54092138D01*
X110762024Y-54196625D01*
X110700555Y-54399263D01*
X110679799Y-54610000D01*
X110700555Y-54820737D01*
X110762024Y-55023375D01*
X110861846Y-55210128D01*
X110996183Y-55373817D01*
X111159872Y-55508154D01*
X111346625Y-55607976D01*
X111549263Y-55669445D01*
X111707194Y-55685000D01*
X111812806Y-55685000D01*
X111970737Y-55669445D01*
X112173375Y-55607976D01*
X112360128Y-55508154D01*
X112523817Y-55373817D01*
X112658154Y-55210128D01*
X112757976Y-55023375D01*
X112819445Y-54820737D01*
X112840201Y-54610000D01*
X112819445Y-54399263D01*
X112757976Y-54196625D01*
X112658154Y-54009872D01*
X112523817Y-53846183D01*
X112360128Y-53711846D01*
X112173375Y-53612024D01*
X111970737Y-53550555D01*
X111812806Y-53535000D01*
X111707194Y-53535000D01*
X111549263Y-53550555D01*
X111346625Y-53612024D01*
X111242138Y-53667874D01*
X110434224Y-52859961D01*
X112125698Y-52859961D01*
X113357874Y-54092138D01*
X113302024Y-54196625D01*
X113240555Y-54399263D01*
X113219799Y-54610000D01*
X113240555Y-54820737D01*
X113302024Y-55023375D01*
X113401846Y-55210128D01*
X113536183Y-55373817D01*
X113699872Y-55508154D01*
X113886625Y-55607976D01*
X114089263Y-55669445D01*
X114247194Y-55685000D01*
X114352806Y-55685000D01*
X114510737Y-55669445D01*
X114713375Y-55607976D01*
X114900128Y-55508154D01*
X115063817Y-55373817D01*
X115198154Y-55210128D01*
X115297976Y-55023375D01*
X115359445Y-54820737D01*
X115380201Y-54610000D01*
X115359445Y-54399263D01*
X115297976Y-54196625D01*
X115198154Y-54009872D01*
X115063817Y-53846183D01*
X114900128Y-53711846D01*
X114713375Y-53612024D01*
X114510737Y-53550555D01*
X114352806Y-53535000D01*
X114247194Y-53535000D01*
X114089263Y-53550555D01*
X113886625Y-53612024D01*
X113782138Y-53667874D01*
X112674214Y-52559951D01*
X114365688Y-52559951D01*
X115897874Y-54092138D01*
X115842024Y-54196625D01*
X115780555Y-54399263D01*
X115759799Y-54610000D01*
X115780555Y-54820737D01*
X115842024Y-55023375D01*
X115941846Y-55210128D01*
X116076183Y-55373817D01*
X116239872Y-55508154D01*
X116426625Y-55607976D01*
X116629263Y-55669445D01*
X116787194Y-55685000D01*
X116892806Y-55685000D01*
X117050737Y-55669445D01*
X117253375Y-55607976D01*
X117440128Y-55508154D01*
X117603817Y-55373817D01*
X117738154Y-55210128D01*
X117837976Y-55023375D01*
X117899445Y-54820737D01*
X117920201Y-54610000D01*
X117899445Y-54399263D01*
X117837976Y-54196625D01*
X117738154Y-54009872D01*
X117603817Y-53846183D01*
X117440128Y-53711846D01*
X117253375Y-53612024D01*
X117050737Y-53550555D01*
X116892806Y-53535000D01*
X116787194Y-53535000D01*
X116629263Y-53550555D01*
X116426625Y-53612024D01*
X116322138Y-53667874D01*
X114914204Y-52259941D01*
X116605678Y-52259941D01*
X118437874Y-54092138D01*
X118382024Y-54196625D01*
X118320555Y-54399263D01*
X118299799Y-54610000D01*
X118320555Y-54820737D01*
X118382024Y-55023375D01*
X118481846Y-55210128D01*
X118616183Y-55373817D01*
X118779872Y-55508154D01*
X118966625Y-55607976D01*
X119169263Y-55669445D01*
X119327194Y-55685000D01*
X119432806Y-55685000D01*
X119590737Y-55669445D01*
X119793375Y-55607976D01*
X119980128Y-55508154D01*
X120143817Y-55373817D01*
X120278154Y-55210128D01*
X120377976Y-55023375D01*
X120439445Y-54820737D01*
X120460201Y-54610000D01*
X120439445Y-54399263D01*
X120377976Y-54196625D01*
X120278154Y-54009872D01*
X120143817Y-53846183D01*
X119980128Y-53711846D01*
X119793375Y-53612024D01*
X119590737Y-53550555D01*
X119432806Y-53535000D01*
X119327194Y-53535000D01*
X119169263Y-53550555D01*
X118966625Y-53612024D01*
X118862138Y-53667874D01*
X117154194Y-51959931D01*
X118845668Y-51959931D01*
X120977874Y-54092138D01*
X120922024Y-54196625D01*
X120860555Y-54399263D01*
X120839799Y-54610000D01*
X120860555Y-54820737D01*
X120922024Y-55023375D01*
X121021846Y-55210128D01*
X121156183Y-55373817D01*
X121319872Y-55508154D01*
X121506625Y-55607976D01*
X121709263Y-55669445D01*
X121867194Y-55685000D01*
X121972806Y-55685000D01*
X122130737Y-55669445D01*
X122333375Y-55607976D01*
X122520128Y-55508154D01*
X122683817Y-55373817D01*
X122818154Y-55210128D01*
X122917976Y-55023375D01*
X122979445Y-54820737D01*
X123000201Y-54610000D01*
X122979445Y-54399263D01*
X122917976Y-54196625D01*
X122818154Y-54009872D01*
X122683817Y-53846183D01*
X122520128Y-53711846D01*
X122333375Y-53612024D01*
X122130737Y-53550555D01*
X121972806Y-53535000D01*
X121867194Y-53535000D01*
X121709263Y-53550555D01*
X121506625Y-53612024D01*
X121402138Y-53667874D01*
X119342263Y-51608000D01*
X121033737Y-51608000D01*
X123517874Y-54092138D01*
X123462024Y-54196625D01*
X123400555Y-54399263D01*
X123379799Y-54610000D01*
X123400555Y-54820737D01*
X123462024Y-55023375D01*
X123561846Y-55210128D01*
X123696183Y-55373817D01*
X123859872Y-55508154D01*
X124046625Y-55607976D01*
X124249263Y-55669445D01*
X124407194Y-55685000D01*
X124512806Y-55685000D01*
X124670737Y-55669445D01*
X124873375Y-55607976D01*
X125060128Y-55508154D01*
X125223817Y-55373817D01*
X125358154Y-55210128D01*
X125457976Y-55023375D01*
X125519445Y-54820737D01*
X125540201Y-54610000D01*
X125519445Y-54399263D01*
X125457976Y-54196625D01*
X125358154Y-54009872D01*
X125223817Y-53846183D01*
X125060128Y-53711846D01*
X124873375Y-53612024D01*
X124670737Y-53550555D01*
X124512806Y-53535000D01*
X124407194Y-53535000D01*
X124249263Y-53550555D01*
X124046625Y-53612024D01*
X123942138Y-53667874D01*
X121380553Y-51106290D01*
X121371158Y-51094842D01*
X121325477Y-51057353D01*
X121273360Y-51029496D01*
X121216810Y-51012341D01*
X121172733Y-51008000D01*
X121172723Y-51008000D01*
X121158000Y-51006550D01*
X121143277Y-51008000D01*
X109159119Y-51008000D01*
X105549525Y-47398407D01*
X105561705Y-47383566D01*
X105582598Y-47344478D01*
X105595464Y-47302066D01*
X105599808Y-47257958D01*
X105595464Y-47213850D01*
X105582598Y-47171438D01*
X105561705Y-47132350D01*
X105533588Y-47098090D01*
X104472928Y-46037430D01*
X104438668Y-46009313D01*
X104399580Y-45988420D01*
X104357168Y-45975554D01*
X104313060Y-45971210D01*
X104268952Y-45975554D01*
X104226540Y-45988420D01*
X104187452Y-46009313D01*
X104153192Y-46037430D01*
X103764284Y-46426338D01*
X103736167Y-46460598D01*
X103715274Y-46499686D01*
X103702608Y-46541439D01*
X103660854Y-46554105D01*
X103621766Y-46574998D01*
X103587506Y-46603115D01*
X103198598Y-46992023D01*
X103170481Y-47026283D01*
X103149588Y-47065371D01*
X103136922Y-47107124D01*
X103095169Y-47119790D01*
X103056081Y-47140683D01*
X103021821Y-47168800D01*
X102632913Y-47557708D01*
X102604796Y-47591968D01*
X102583903Y-47631056D01*
X102571237Y-47672810D01*
X102529484Y-47685476D01*
X102490396Y-47706369D01*
X102456136Y-47734486D01*
X102067228Y-48123394D01*
X102039111Y-48157654D01*
X102018218Y-48196742D01*
X102005552Y-48238495D01*
X101963798Y-48251161D01*
X101924710Y-48272054D01*
X101890450Y-48300171D01*
X101501542Y-48689079D01*
X101473425Y-48723339D01*
X101452532Y-48762427D01*
X101439866Y-48804181D01*
X101398113Y-48816847D01*
X101359025Y-48837740D01*
X101324765Y-48865857D01*
X100935857Y-49254765D01*
X100907740Y-49289025D01*
X100886847Y-49328113D01*
X100874181Y-49369866D01*
X100832427Y-49382532D01*
X100793339Y-49403425D01*
X100759079Y-49431542D01*
X100370171Y-49820450D01*
X100342054Y-49854710D01*
X100321161Y-49893798D01*
X100308495Y-49935552D01*
X100266742Y-49948218D01*
X100227654Y-49969111D01*
X100193394Y-49997228D01*
X99804486Y-50386136D01*
X99776369Y-50420396D01*
X99755476Y-50459484D01*
X99742810Y-50501237D01*
X99701056Y-50513903D01*
X99661968Y-50534796D01*
X99627708Y-50562913D01*
X99238800Y-50951821D01*
X99210683Y-50986081D01*
X99189790Y-51025169D01*
X99177124Y-51066922D01*
X99135371Y-51079588D01*
X99096283Y-51100481D01*
X99062023Y-51128598D01*
X98673115Y-51517506D01*
X98644998Y-51551766D01*
X98624105Y-51590854D01*
X98611439Y-51632608D01*
X98569686Y-51645274D01*
X98530598Y-51666167D01*
X98496338Y-51694284D01*
X98107430Y-52083192D01*
X98079313Y-52117452D01*
X98058420Y-52156540D01*
X98045554Y-52198952D01*
X98041210Y-52243060D01*
X98045554Y-52287168D01*
X98058420Y-52329580D01*
X98079313Y-52368668D01*
X98107430Y-52402928D01*
X98760001Y-53055499D01*
X98760001Y-53577632D01*
X98646625Y-53612024D01*
X98459872Y-53711846D01*
X98296183Y-53846183D01*
X98161846Y-54009872D01*
X98062024Y-54196625D01*
X98000555Y-54399263D01*
X97979799Y-54610000D01*
X97600201Y-54610000D01*
X97579445Y-54399263D01*
X97517976Y-54196625D01*
X97418154Y-54009872D01*
X97283817Y-53846183D01*
X97120128Y-53711846D01*
X96933375Y-53612024D01*
X96820000Y-53577632D01*
X96820000Y-53055498D01*
X97472570Y-52402928D01*
X97500687Y-52368668D01*
X97521580Y-52329580D01*
X97534446Y-52287168D01*
X97538790Y-52243060D01*
X97534446Y-52198952D01*
X97521580Y-52156540D01*
X97500687Y-52117452D01*
X97472570Y-52083192D01*
X97083662Y-51694284D01*
X97049402Y-51666167D01*
X97010314Y-51645274D01*
X96968561Y-51632608D01*
X96955895Y-51590854D01*
X96935002Y-51551766D01*
X96906885Y-51517506D01*
X96517977Y-51128598D01*
X96483717Y-51100481D01*
X96444629Y-51079588D01*
X96402876Y-51066922D01*
X96390210Y-51025169D01*
X96369317Y-50986081D01*
X96341200Y-50951821D01*
X95952292Y-50562913D01*
X95918032Y-50534796D01*
X95878944Y-50513903D01*
X95837190Y-50501237D01*
X95824524Y-50459484D01*
X95803631Y-50420396D01*
X95775514Y-50386136D01*
X95386606Y-49997228D01*
X95352346Y-49969111D01*
X95313258Y-49948218D01*
X95271505Y-49935552D01*
X95258839Y-49893798D01*
X95237946Y-49854710D01*
X95209829Y-49820450D01*
X94820921Y-49431542D01*
X94786661Y-49403425D01*
X94747573Y-49382532D01*
X94705819Y-49369866D01*
X94693153Y-49328113D01*
X94672260Y-49289025D01*
X94644143Y-49254765D01*
X94255235Y-48865857D01*
X94220975Y-48837740D01*
X94181887Y-48816847D01*
X94140134Y-48804181D01*
X94127468Y-48762427D01*
X94106575Y-48723339D01*
X94078458Y-48689079D01*
X93689550Y-48300171D01*
X93655290Y-48272054D01*
X93616202Y-48251161D01*
X93574448Y-48238495D01*
X93561782Y-48196742D01*
X93540889Y-48157654D01*
X93512772Y-48123394D01*
X93123864Y-47734486D01*
X93089604Y-47706369D01*
X93050516Y-47685476D01*
X93008763Y-47672810D01*
X92996097Y-47631056D01*
X92975204Y-47591968D01*
X92947087Y-47557708D01*
X92558179Y-47168800D01*
X92523919Y-47140683D01*
X92484831Y-47119790D01*
X92443078Y-47107124D01*
X92430412Y-47065371D01*
X92409519Y-47026283D01*
X92381402Y-46992023D01*
X91992494Y-46603115D01*
X91958234Y-46574998D01*
X91919146Y-46554105D01*
X91877392Y-46541439D01*
X91864726Y-46499686D01*
X91843833Y-46460598D01*
X91815716Y-46426338D01*
X91426808Y-46037430D01*
X91392548Y-46009313D01*
X91353460Y-45988420D01*
X91311048Y-45975554D01*
X91266940Y-45971210D01*
X91222832Y-45975554D01*
X91180420Y-45988420D01*
X91141332Y-46009313D01*
X91107072Y-46037430D01*
X90046412Y-47098090D01*
X90018295Y-47132350D01*
X89997402Y-47171438D01*
X89984536Y-47213850D01*
X89980192Y-47257958D01*
X89984536Y-47302066D01*
X89997402Y-47344478D01*
X90018295Y-47383566D01*
X90030475Y-47398407D01*
X86674883Y-50754000D01*
X73690730Y-50754000D01*
X73676000Y-50752549D01*
X73661270Y-50754000D01*
X73661267Y-50754000D01*
X73617190Y-50758341D01*
X73573801Y-50771503D01*
X73560639Y-50775496D01*
X73508522Y-50803353D01*
X73484497Y-50823070D01*
X73462842Y-50840842D01*
X73453451Y-50852285D01*
X70918286Y-53387451D01*
X70906843Y-53396842D01*
X70897452Y-53408285D01*
X70897451Y-53408286D01*
X70869353Y-53442523D01*
X70841497Y-53494640D01*
X70829583Y-53533912D01*
X70270000Y-53533912D01*
X70225892Y-53538256D01*
X70183480Y-53551122D01*
X70144392Y-53572015D01*
X70110132Y-53600132D01*
X70082015Y-53634392D01*
X70061122Y-53673480D01*
X70048256Y-53715892D01*
X70043912Y-53760000D01*
X68880000Y-53760000D01*
X68880000Y-36844670D01*
X68924071Y-36395196D01*
X69049426Y-35980000D01*
X70043912Y-35980000D01*
X70043912Y-37680000D01*
X70048256Y-37724108D01*
X70061122Y-37766520D01*
X70082015Y-37805608D01*
X70110132Y-37839868D01*
X70144392Y-37867985D01*
X70183480Y-37888878D01*
X70225892Y-37901744D01*
X70270000Y-37906088D01*
X71970000Y-37906088D01*
X72014108Y-37901744D01*
X72056520Y-37888878D01*
X72095608Y-37867985D01*
X72129868Y-37839868D01*
X72157985Y-37805608D01*
X72178878Y-37766520D01*
X72191744Y-37724108D01*
X72196088Y-37680000D01*
X72196088Y-37330351D01*
X75199450Y-40333714D01*
X75208842Y-40345158D01*
X75220285Y-40354549D01*
X75254522Y-40382647D01*
X75282379Y-40397536D01*
X75306640Y-40410504D01*
X75363190Y-40427659D01*
X75407267Y-40432000D01*
X75407276Y-40432000D01*
X75421999Y-40433450D01*
X75436722Y-40432000D01*
X86420883Y-40432000D01*
X90030475Y-44041593D01*
X90018295Y-44056434D01*
X89997402Y-44095522D01*
X89984536Y-44137934D01*
X89980192Y-44182042D01*
X89984536Y-44226150D01*
X89997402Y-44268562D01*
X90018295Y-44307650D01*
X90046412Y-44341910D01*
X91107072Y-45402570D01*
X91141332Y-45430687D01*
X91180420Y-45451580D01*
X91222832Y-45464446D01*
X91266940Y-45468790D01*
X91311048Y-45464446D01*
X91353460Y-45451580D01*
X91392548Y-45430687D01*
X91426808Y-45402570D01*
X91815716Y-45013662D01*
X91843833Y-44979402D01*
X91864726Y-44940314D01*
X91877392Y-44898561D01*
X91919146Y-44885895D01*
X91958234Y-44865002D01*
X91992494Y-44836885D01*
X92381402Y-44447977D01*
X92409519Y-44413717D01*
X92430412Y-44374629D01*
X92443078Y-44332876D01*
X92484831Y-44320210D01*
X92523919Y-44299317D01*
X92558179Y-44271200D01*
X92947087Y-43882292D01*
X92975204Y-43848032D01*
X92996097Y-43808944D01*
X93008763Y-43767190D01*
X93050516Y-43754524D01*
X93089604Y-43733631D01*
X93123864Y-43705514D01*
X93512772Y-43316606D01*
X93540889Y-43282346D01*
X93561782Y-43243258D01*
X93574448Y-43201505D01*
X93616202Y-43188839D01*
X93655290Y-43167946D01*
X93689550Y-43139829D01*
X94078458Y-42750921D01*
X94106575Y-42716661D01*
X94127468Y-42677573D01*
X94140134Y-42635819D01*
X94181887Y-42623153D01*
X94220975Y-42602260D01*
X94255235Y-42574143D01*
X94644143Y-42185235D01*
X94672260Y-42150975D01*
X94693153Y-42111887D01*
X94705819Y-42070134D01*
X94747573Y-42057468D01*
X94786661Y-42036575D01*
X94820921Y-42008458D01*
X95209829Y-41619550D01*
X95237946Y-41585290D01*
X95258839Y-41546202D01*
X95271505Y-41504448D01*
X95313258Y-41491782D01*
X95352346Y-41470889D01*
X95386606Y-41442772D01*
X95775514Y-41053864D01*
X95803631Y-41019604D01*
X95824524Y-40980516D01*
X95837190Y-40938763D01*
X95878944Y-40926097D01*
X95918032Y-40905204D01*
X95952292Y-40877087D01*
X96341200Y-40488179D01*
X96369317Y-40453919D01*
X96390210Y-40414831D01*
X96402876Y-40373078D01*
X96444629Y-40360412D01*
X96483717Y-40339519D01*
X96517977Y-40311402D01*
X96906885Y-39922494D01*
X96935002Y-39888234D01*
X96955895Y-39849146D01*
X96968561Y-39807392D01*
X97010314Y-39794726D01*
X97049402Y-39773833D01*
X97083662Y-39745716D01*
X97472570Y-39356808D01*
X97500687Y-39322548D01*
X97521580Y-39283460D01*
X97534446Y-39241048D01*
X97538790Y-39196940D01*
X97534446Y-39152832D01*
X97521580Y-39110420D01*
X97500687Y-39071332D01*
X97472570Y-39037072D01*
X96887918Y-38452420D01*
X96887918Y-37841765D01*
X96933375Y-37827976D01*
X97120128Y-37728154D01*
X97283817Y-37593817D01*
X97418154Y-37430128D01*
X97517976Y-37243375D01*
X97579445Y-37040737D01*
X97600201Y-36830000D01*
X97979799Y-36830000D01*
X98000555Y-37040737D01*
X98062024Y-37243375D01*
X98161846Y-37430128D01*
X98296183Y-37593817D01*
X98459872Y-37728154D01*
X98646625Y-37827976D01*
X98692083Y-37841765D01*
X98692082Y-38452420D01*
X98107430Y-39037072D01*
X98079313Y-39071332D01*
X98058420Y-39110420D01*
X98045554Y-39152832D01*
X98041210Y-39196940D01*
X98045554Y-39241048D01*
X98058420Y-39283460D01*
X98079313Y-39322548D01*
X98107430Y-39356808D01*
X98496338Y-39745716D01*
X98530598Y-39773833D01*
X98569686Y-39794726D01*
X98611439Y-39807392D01*
X98624105Y-39849146D01*
X98644998Y-39888234D01*
X98673115Y-39922494D01*
X99062023Y-40311402D01*
X99096283Y-40339519D01*
X99135371Y-40360412D01*
X99177124Y-40373078D01*
X99189790Y-40414831D01*
X99210683Y-40453919D01*
X99238800Y-40488179D01*
X99627708Y-40877087D01*
X99661968Y-40905204D01*
X99701056Y-40926097D01*
X99742810Y-40938763D01*
X99755476Y-40980516D01*
X99776369Y-41019604D01*
X99804486Y-41053864D01*
X100193394Y-41442772D01*
X100227654Y-41470889D01*
X100266742Y-41491782D01*
X100308495Y-41504448D01*
X100321161Y-41546202D01*
X100342054Y-41585290D01*
X100370171Y-41619550D01*
X100759079Y-42008458D01*
X100793339Y-42036575D01*
X100832427Y-42057468D01*
X100874181Y-42070134D01*
X100886847Y-42111887D01*
X100907740Y-42150975D01*
X100935857Y-42185235D01*
X101324765Y-42574143D01*
X101359025Y-42602260D01*
X101398113Y-42623153D01*
X101439866Y-42635819D01*
X101452532Y-42677573D01*
X101473425Y-42716661D01*
X101501542Y-42750921D01*
X101890450Y-43139829D01*
X101924710Y-43167946D01*
X101963798Y-43188839D01*
X102005552Y-43201505D01*
X102018218Y-43243258D01*
X102039111Y-43282346D01*
X102067228Y-43316606D01*
X102456136Y-43705514D01*
X102490396Y-43733631D01*
X102529484Y-43754524D01*
X102571237Y-43767190D01*
X102583903Y-43808944D01*
X102604796Y-43848032D01*
X102632913Y-43882292D01*
X103021821Y-44271200D01*
X103056081Y-44299317D01*
X103095169Y-44320210D01*
X103136922Y-44332876D01*
X103149588Y-44374629D01*
X103170481Y-44413717D01*
X103198598Y-44447977D01*
X103587506Y-44836885D01*
X103621766Y-44865002D01*
X103660854Y-44885895D01*
X103702608Y-44898561D01*
X103715274Y-44940314D01*
X103736167Y-44979402D01*
X103764284Y-45013662D01*
X104153192Y-45402570D01*
X104187452Y-45430687D01*
X104226540Y-45451580D01*
X104268952Y-45464446D01*
X104313060Y-45468790D01*
X104357168Y-45464446D01*
X104399580Y-45451580D01*
X104438668Y-45430687D01*
X104472928Y-45402570D01*
X105533588Y-44341910D01*
X105561705Y-44307650D01*
X105582598Y-44268562D01*
X105595464Y-44226150D01*
X105599808Y-44182042D01*
X105595464Y-44137934D01*
X105582598Y-44095522D01*
X105561705Y-44056434D01*
X105549525Y-44041593D01*
X108905118Y-40686000D01*
X120889277Y-40686000D01*
X120904000Y-40687450D01*
X120918723Y-40686000D01*
X120918733Y-40686000D01*
X120962810Y-40681659D01*
X121019360Y-40664504D01*
X121071477Y-40636647D01*
X121117158Y-40599158D01*
X121126553Y-40587710D01*
X123942138Y-37772126D01*
X124046625Y-37827976D01*
X124249263Y-37889445D01*
X124407194Y-37905000D01*
X124512806Y-37905000D01*
X124670737Y-37889445D01*
X124873375Y-37827976D01*
X125060128Y-37728154D01*
X125223817Y-37593817D01*
X125358154Y-37430128D01*
X125457976Y-37243375D01*
X125519445Y-37040737D01*
X125540201Y-36830000D01*
X125519445Y-36619263D01*
X125457976Y-36416625D01*
X125358154Y-36229872D01*
X125223817Y-36066183D01*
X125060128Y-35931846D01*
X124873375Y-35832024D01*
X124670737Y-35770555D01*
X124512806Y-35755000D01*
X124407194Y-35755000D01*
X124249263Y-35770555D01*
X124046625Y-35832024D01*
X123859872Y-35931846D01*
X123696183Y-36066183D01*
X123561846Y-36229872D01*
X123462024Y-36416625D01*
X123400555Y-36619263D01*
X123379799Y-36830000D01*
X123400555Y-37040737D01*
X123462024Y-37243375D01*
X123517874Y-37347862D01*
X120779737Y-40086000D01*
X119088263Y-40086000D01*
X121402138Y-37772126D01*
X121506625Y-37827976D01*
X121709263Y-37889445D01*
X121867194Y-37905000D01*
X121972806Y-37905000D01*
X122130737Y-37889445D01*
X122333375Y-37827976D01*
X122520128Y-37728154D01*
X122683817Y-37593817D01*
X122818154Y-37430128D01*
X122917976Y-37243375D01*
X122979445Y-37040737D01*
X123000201Y-36830000D01*
X122979445Y-36619263D01*
X122917976Y-36416625D01*
X122818154Y-36229872D01*
X122683817Y-36066183D01*
X122520128Y-35931846D01*
X122333375Y-35832024D01*
X122130737Y-35770555D01*
X121972806Y-35755000D01*
X121867194Y-35755000D01*
X121709263Y-35770555D01*
X121506625Y-35832024D01*
X121319872Y-35931846D01*
X121156183Y-36066183D01*
X121021846Y-36229872D01*
X120922024Y-36416625D01*
X120860555Y-36619263D01*
X120839799Y-36830000D01*
X120860555Y-37040737D01*
X120922024Y-37243375D01*
X120977874Y-37347862D01*
X118609708Y-39716029D01*
X116918234Y-39716029D01*
X118862138Y-37772126D01*
X118966625Y-37827976D01*
X119169263Y-37889445D01*
X119327194Y-37905000D01*
X119432806Y-37905000D01*
X119590737Y-37889445D01*
X119793375Y-37827976D01*
X119980128Y-37728154D01*
X120143817Y-37593817D01*
X120278154Y-37430128D01*
X120377976Y-37243375D01*
X120439445Y-37040737D01*
X120460201Y-36830000D01*
X120439445Y-36619263D01*
X120377976Y-36416625D01*
X120278154Y-36229872D01*
X120143817Y-36066183D01*
X119980128Y-35931846D01*
X119793375Y-35832024D01*
X119590737Y-35770555D01*
X119432806Y-35755000D01*
X119327194Y-35755000D01*
X119169263Y-35770555D01*
X118966625Y-35832024D01*
X118779872Y-35931846D01*
X118616183Y-36066183D01*
X118481846Y-36229872D01*
X118382024Y-36416625D01*
X118320555Y-36619263D01*
X118299799Y-36830000D01*
X118320555Y-37040737D01*
X118382024Y-37243375D01*
X118437874Y-37347862D01*
X116369718Y-39416019D01*
X114678244Y-39416019D01*
X116322138Y-37772126D01*
X116426625Y-37827976D01*
X116629263Y-37889445D01*
X116787194Y-37905000D01*
X116892806Y-37905000D01*
X117050737Y-37889445D01*
X117253375Y-37827976D01*
X117440128Y-37728154D01*
X117603817Y-37593817D01*
X117738154Y-37430128D01*
X117837976Y-37243375D01*
X117899445Y-37040737D01*
X117920201Y-36830000D01*
X117899445Y-36619263D01*
X117837976Y-36416625D01*
X117738154Y-36229872D01*
X117603817Y-36066183D01*
X117440128Y-35931846D01*
X117253375Y-35832024D01*
X117050737Y-35770555D01*
X116892806Y-35755000D01*
X116787194Y-35755000D01*
X116629263Y-35770555D01*
X116426625Y-35832024D01*
X116239872Y-35931846D01*
X116076183Y-36066183D01*
X115941846Y-36229872D01*
X115842024Y-36416625D01*
X115780555Y-36619263D01*
X115759799Y-36830000D01*
X115780555Y-37040737D01*
X115842024Y-37243375D01*
X115897874Y-37347862D01*
X114129727Y-39116010D01*
X112438253Y-39116010D01*
X113782138Y-37772126D01*
X113886625Y-37827976D01*
X114089263Y-37889445D01*
X114247194Y-37905000D01*
X114352806Y-37905000D01*
X114510737Y-37889445D01*
X114713375Y-37827976D01*
X114900128Y-37728154D01*
X115063817Y-37593817D01*
X115198154Y-37430128D01*
X115297976Y-37243375D01*
X115359445Y-37040737D01*
X115380201Y-36830000D01*
X115359445Y-36619263D01*
X115297976Y-36416625D01*
X115198154Y-36229872D01*
X115063817Y-36066183D01*
X114900128Y-35931846D01*
X114713375Y-35832024D01*
X114510737Y-35770555D01*
X114352806Y-35755000D01*
X114247194Y-35755000D01*
X114089263Y-35770555D01*
X113886625Y-35832024D01*
X113699872Y-35931846D01*
X113536183Y-36066183D01*
X113401846Y-36229872D01*
X113302024Y-36416625D01*
X113240555Y-36619263D01*
X113219799Y-36830000D01*
X113240555Y-37040737D01*
X113302024Y-37243375D01*
X113357874Y-37347862D01*
X111889737Y-38816000D01*
X110198263Y-38816000D01*
X111242138Y-37772126D01*
X111346625Y-37827976D01*
X111549263Y-37889445D01*
X111707194Y-37905000D01*
X111812806Y-37905000D01*
X111970737Y-37889445D01*
X112173375Y-37827976D01*
X112360128Y-37728154D01*
X112523817Y-37593817D01*
X112658154Y-37430128D01*
X112757976Y-37243375D01*
X112819445Y-37040737D01*
X112840201Y-36830000D01*
X112819445Y-36619263D01*
X112757976Y-36416625D01*
X112658154Y-36229872D01*
X112523817Y-36066183D01*
X112360128Y-35931846D01*
X112173375Y-35832024D01*
X111970737Y-35770555D01*
X111812806Y-35755000D01*
X111707194Y-35755000D01*
X111549263Y-35770555D01*
X111346625Y-35832024D01*
X111159872Y-35931846D01*
X110996183Y-36066183D01*
X110861846Y-36229872D01*
X110762024Y-36416625D01*
X110700555Y-36619263D01*
X110679799Y-36830000D01*
X110700555Y-37040737D01*
X110762024Y-37243375D01*
X110817874Y-37347862D01*
X109811727Y-38354010D01*
X108120253Y-38354010D01*
X108702138Y-37772126D01*
X108806625Y-37827976D01*
X109009263Y-37889445D01*
X109167194Y-37905000D01*
X109272806Y-37905000D01*
X109430737Y-37889445D01*
X109633375Y-37827976D01*
X109820128Y-37728154D01*
X109983817Y-37593817D01*
X110118154Y-37430128D01*
X110217976Y-37243375D01*
X110279445Y-37040737D01*
X110300201Y-36830000D01*
X110279445Y-36619263D01*
X110217976Y-36416625D01*
X110118154Y-36229872D01*
X109983817Y-36066183D01*
X109820128Y-35931846D01*
X109633375Y-35832024D01*
X109430737Y-35770555D01*
X109272806Y-35755000D01*
X109167194Y-35755000D01*
X109009263Y-35770555D01*
X108806625Y-35832024D01*
X108619872Y-35931846D01*
X108456183Y-36066183D01*
X108321846Y-36229872D01*
X108222024Y-36416625D01*
X108160555Y-36619263D01*
X108139799Y-36830000D01*
X108160555Y-37040737D01*
X108222024Y-37243375D01*
X108277874Y-37347862D01*
X107571737Y-38054000D01*
X105880263Y-38054000D01*
X106162137Y-37772126D01*
X106266625Y-37827976D01*
X106469263Y-37889445D01*
X106627194Y-37905000D01*
X106732806Y-37905000D01*
X106890737Y-37889445D01*
X107093375Y-37827976D01*
X107280128Y-37728154D01*
X107443817Y-37593817D01*
X107578154Y-37430128D01*
X107677976Y-37243375D01*
X107739445Y-37040737D01*
X107760201Y-36830000D01*
X107739445Y-36619263D01*
X107677976Y-36416625D01*
X107578154Y-36229872D01*
X107443817Y-36066183D01*
X107280128Y-35931846D01*
X107093375Y-35832024D01*
X106890737Y-35770555D01*
X106732806Y-35755000D01*
X106627194Y-35755000D01*
X106469263Y-35770555D01*
X106266625Y-35832024D01*
X106079872Y-35931846D01*
X105916183Y-36066183D01*
X105781846Y-36229872D01*
X105682024Y-36416625D01*
X105620555Y-36619263D01*
X105599799Y-36830000D01*
X105620555Y-37040737D01*
X105682024Y-37243375D01*
X105737874Y-37347863D01*
X105405728Y-37680009D01*
X104798792Y-37680009D01*
X104903817Y-37593817D01*
X105038154Y-37430128D01*
X105137976Y-37243375D01*
X105199445Y-37040737D01*
X105220201Y-36830000D01*
X105199445Y-36619263D01*
X105137976Y-36416625D01*
X105038154Y-36229872D01*
X104903817Y-36066183D01*
X104740128Y-35931846D01*
X104553375Y-35832024D01*
X104350737Y-35770555D01*
X104192806Y-35755000D01*
X104087194Y-35755000D01*
X103929263Y-35770555D01*
X103726625Y-35832024D01*
X103539872Y-35931846D01*
X103376183Y-36066183D01*
X103241846Y-36229872D01*
X103142024Y-36416625D01*
X103080555Y-36619263D01*
X103059799Y-36830000D01*
X103080555Y-37040737D01*
X103142024Y-37243375D01*
X103197874Y-37347863D01*
X103165738Y-37379999D01*
X102524949Y-37379999D01*
X102597976Y-37243375D01*
X102659445Y-37040737D01*
X102680201Y-36830000D01*
X102659445Y-36619263D01*
X102597976Y-36416625D01*
X102498154Y-36229872D01*
X102363817Y-36066183D01*
X102200128Y-35931846D01*
X102013375Y-35832024D01*
X101810737Y-35770555D01*
X101652806Y-35755000D01*
X101547194Y-35755000D01*
X101389263Y-35770555D01*
X101186625Y-35832024D01*
X100999872Y-35931846D01*
X100836183Y-36066183D01*
X100701846Y-36229872D01*
X100602024Y-36416625D01*
X100540555Y-36619263D01*
X100519799Y-36830000D01*
X100540555Y-37040737D01*
X100602024Y-37243375D01*
X100701846Y-37430128D01*
X100836183Y-37593817D01*
X100907724Y-37652529D01*
X100034092Y-38526161D01*
X100019251Y-38513981D01*
X99980163Y-38493088D01*
X99938410Y-38480422D01*
X99925744Y-38438668D01*
X99904851Y-38399580D01*
X99876734Y-38365320D01*
X99487826Y-37976412D01*
X99453566Y-37948295D01*
X99414478Y-37927402D01*
X99372066Y-37914536D01*
X99327958Y-37910192D01*
X99292082Y-37913725D01*
X99292082Y-37882970D01*
X99473375Y-37827976D01*
X99660128Y-37728154D01*
X99823817Y-37593817D01*
X99958154Y-37430128D01*
X100057976Y-37243375D01*
X100119445Y-37040737D01*
X100140201Y-36830000D01*
X100119445Y-36619263D01*
X100057976Y-36416625D01*
X99958154Y-36229872D01*
X99823817Y-36066183D01*
X99660128Y-35931846D01*
X99473375Y-35832024D01*
X99270737Y-35770555D01*
X99112806Y-35755000D01*
X99007194Y-35755000D01*
X98849263Y-35770555D01*
X98646625Y-35832024D01*
X98459872Y-35931846D01*
X98296183Y-36066183D01*
X98161846Y-36229872D01*
X98062024Y-36416625D01*
X98000555Y-36619263D01*
X97979799Y-36830000D01*
X97600201Y-36830000D01*
X97579445Y-36619263D01*
X97517976Y-36416625D01*
X97418154Y-36229872D01*
X97283817Y-36066183D01*
X97120128Y-35931846D01*
X96933375Y-35832024D01*
X96730737Y-35770555D01*
X96572806Y-35755000D01*
X96467194Y-35755000D01*
X96309263Y-35770555D01*
X96106625Y-35832024D01*
X95919872Y-35931846D01*
X95756183Y-36066183D01*
X95621846Y-36229872D01*
X95522024Y-36416625D01*
X95460555Y-36619263D01*
X95439799Y-36830000D01*
X95460555Y-37040737D01*
X95522024Y-37243375D01*
X95621846Y-37430128D01*
X95756183Y-37593817D01*
X95919872Y-37728154D01*
X96106625Y-37827976D01*
X96287918Y-37882970D01*
X96287918Y-37913725D01*
X96252042Y-37910192D01*
X96207934Y-37914536D01*
X96165522Y-37927402D01*
X96126434Y-37948295D01*
X96092174Y-37976412D01*
X95703266Y-38365320D01*
X95675149Y-38399580D01*
X95654256Y-38438668D01*
X95641590Y-38480422D01*
X95599837Y-38493088D01*
X95560749Y-38513981D01*
X95545908Y-38526161D01*
X94672276Y-37652530D01*
X94743817Y-37593817D01*
X94878154Y-37430128D01*
X94977976Y-37243375D01*
X95039445Y-37040737D01*
X95060201Y-36830000D01*
X95039445Y-36619263D01*
X94977976Y-36416625D01*
X94878154Y-36229872D01*
X94743817Y-36066183D01*
X94580128Y-35931846D01*
X94393375Y-35832024D01*
X94190737Y-35770555D01*
X94032806Y-35755000D01*
X93927194Y-35755000D01*
X93769263Y-35770555D01*
X93566625Y-35832024D01*
X93379872Y-35931846D01*
X93216183Y-36066183D01*
X93081846Y-36229872D01*
X92982024Y-36416625D01*
X92920555Y-36619263D01*
X92899799Y-36830000D01*
X92920555Y-37040737D01*
X92982024Y-37243375D01*
X93055051Y-37379999D01*
X92414263Y-37379999D01*
X92382126Y-37347862D01*
X92437976Y-37243375D01*
X92499445Y-37040737D01*
X92520201Y-36830000D01*
X92499445Y-36619263D01*
X92437976Y-36416625D01*
X92338154Y-36229872D01*
X92203817Y-36066183D01*
X92040128Y-35931846D01*
X91853375Y-35832024D01*
X91650737Y-35770555D01*
X91492806Y-35755000D01*
X91387194Y-35755000D01*
X91229263Y-35770555D01*
X91026625Y-35832024D01*
X90839872Y-35931846D01*
X90676183Y-36066183D01*
X90541846Y-36229872D01*
X90442024Y-36416625D01*
X90380555Y-36619263D01*
X90359799Y-36830000D01*
X90380555Y-37040737D01*
X90442024Y-37243375D01*
X90541846Y-37430128D01*
X90676183Y-37593817D01*
X90781208Y-37680009D01*
X90174273Y-37680009D01*
X89842126Y-37347862D01*
X89897976Y-37243375D01*
X89959445Y-37040737D01*
X89980201Y-36830000D01*
X89959445Y-36619263D01*
X89897976Y-36416625D01*
X89798154Y-36229872D01*
X89663817Y-36066183D01*
X89500128Y-35931846D01*
X89313375Y-35832024D01*
X89110737Y-35770555D01*
X88952806Y-35755000D01*
X88847194Y-35755000D01*
X88689263Y-35770555D01*
X88486625Y-35832024D01*
X88299872Y-35931846D01*
X88136183Y-36066183D01*
X88001846Y-36229872D01*
X87902024Y-36416625D01*
X87840555Y-36619263D01*
X87819799Y-36830000D01*
X87840555Y-37040737D01*
X87902024Y-37243375D01*
X88001846Y-37430128D01*
X88136183Y-37593817D01*
X88299872Y-37728154D01*
X88486625Y-37827976D01*
X88689263Y-37889445D01*
X88847194Y-37905000D01*
X88952806Y-37905000D01*
X89110737Y-37889445D01*
X89313375Y-37827976D01*
X89417862Y-37772126D01*
X89625755Y-37980019D01*
X87934283Y-37980019D01*
X87302126Y-37347863D01*
X87357976Y-37243375D01*
X87419445Y-37040737D01*
X87440201Y-36830000D01*
X87419445Y-36619263D01*
X87357976Y-36416625D01*
X87258154Y-36229872D01*
X87123817Y-36066183D01*
X86960128Y-35931846D01*
X86773375Y-35832024D01*
X86570737Y-35770555D01*
X86412806Y-35755000D01*
X86307194Y-35755000D01*
X86149263Y-35770555D01*
X85946625Y-35832024D01*
X85759872Y-35931846D01*
X85596183Y-36066183D01*
X85461846Y-36229872D01*
X85362024Y-36416625D01*
X85300555Y-36619263D01*
X85279799Y-36830000D01*
X85300555Y-37040737D01*
X85362024Y-37243375D01*
X85461846Y-37430128D01*
X85596183Y-37593817D01*
X85759872Y-37728154D01*
X85946625Y-37827976D01*
X86149263Y-37889445D01*
X86307194Y-37905000D01*
X86412806Y-37905000D01*
X86570737Y-37889445D01*
X86773375Y-37827976D01*
X86877863Y-37772126D01*
X87385765Y-38280029D01*
X85694294Y-38280029D01*
X84762126Y-37347862D01*
X84817976Y-37243375D01*
X84879445Y-37040737D01*
X84900201Y-36830000D01*
X84879445Y-36619263D01*
X84817976Y-36416625D01*
X84718154Y-36229872D01*
X84583817Y-36066183D01*
X84420128Y-35931846D01*
X84233375Y-35832024D01*
X84030737Y-35770555D01*
X83872806Y-35755000D01*
X83767194Y-35755000D01*
X83609263Y-35770555D01*
X83406625Y-35832024D01*
X83219872Y-35931846D01*
X83056183Y-36066183D01*
X82921846Y-36229872D01*
X82822024Y-36416625D01*
X82760555Y-36619263D01*
X82739799Y-36830000D01*
X82760555Y-37040737D01*
X82822024Y-37243375D01*
X82921846Y-37430128D01*
X83056183Y-37593817D01*
X83219872Y-37728154D01*
X83406625Y-37827976D01*
X83609263Y-37889445D01*
X83767194Y-37905000D01*
X83872806Y-37905000D01*
X84030737Y-37889445D01*
X84233375Y-37827976D01*
X84337862Y-37772126D01*
X85145774Y-38580039D01*
X83454303Y-38580039D01*
X82222126Y-37347863D01*
X82277976Y-37243375D01*
X82339445Y-37040737D01*
X82360201Y-36830000D01*
X82339445Y-36619263D01*
X82277976Y-36416625D01*
X82178154Y-36229872D01*
X82043817Y-36066183D01*
X81880128Y-35931846D01*
X81693375Y-35832024D01*
X81490737Y-35770555D01*
X81332806Y-35755000D01*
X81227194Y-35755000D01*
X81069263Y-35770555D01*
X80866625Y-35832024D01*
X80679872Y-35931846D01*
X80516183Y-36066183D01*
X80381846Y-36229872D01*
X80282024Y-36416625D01*
X80220555Y-36619263D01*
X80199799Y-36830000D01*
X80220555Y-37040737D01*
X80282024Y-37243375D01*
X80381846Y-37430128D01*
X80516183Y-37593817D01*
X80679872Y-37728154D01*
X80866625Y-37827976D01*
X81069263Y-37889445D01*
X81227194Y-37905000D01*
X81332806Y-37905000D01*
X81490737Y-37889445D01*
X81693375Y-37827976D01*
X81797863Y-37772126D01*
X82905785Y-38880049D01*
X81214313Y-38880049D01*
X79682126Y-37347863D01*
X79737976Y-37243375D01*
X79799445Y-37040737D01*
X79820201Y-36830000D01*
X79799445Y-36619263D01*
X79737976Y-36416625D01*
X79638154Y-36229872D01*
X79503817Y-36066183D01*
X79340128Y-35931846D01*
X79153375Y-35832024D01*
X78950737Y-35770555D01*
X78792806Y-35755000D01*
X78687194Y-35755000D01*
X78529263Y-35770555D01*
X78326625Y-35832024D01*
X78139872Y-35931846D01*
X77976183Y-36066183D01*
X77841846Y-36229872D01*
X77742024Y-36416625D01*
X77680555Y-36619263D01*
X77659799Y-36830000D01*
X77680555Y-37040737D01*
X77742024Y-37243375D01*
X77841846Y-37430128D01*
X77976183Y-37593817D01*
X78139872Y-37728154D01*
X78326625Y-37827976D01*
X78529263Y-37889445D01*
X78687194Y-37905000D01*
X78792806Y-37905000D01*
X78950737Y-37889445D01*
X79153375Y-37827976D01*
X79257863Y-37772126D01*
X80665795Y-39180059D01*
X78974323Y-39180059D01*
X77142126Y-37347863D01*
X77197976Y-37243375D01*
X77259445Y-37040737D01*
X77280201Y-36830000D01*
X77259445Y-36619263D01*
X77197976Y-36416625D01*
X77098154Y-36229872D01*
X76963817Y-36066183D01*
X76800128Y-35931846D01*
X76613375Y-35832024D01*
X76410737Y-35770555D01*
X76252806Y-35755000D01*
X76147194Y-35755000D01*
X75989263Y-35770555D01*
X75786625Y-35832024D01*
X75599872Y-35931846D01*
X75436183Y-36066183D01*
X75301846Y-36229872D01*
X75202024Y-36416625D01*
X75140555Y-36619263D01*
X75119799Y-36830000D01*
X75140555Y-37040737D01*
X75202024Y-37243375D01*
X75301846Y-37430128D01*
X75436183Y-37593817D01*
X75599872Y-37728154D01*
X75786625Y-37827976D01*
X75989263Y-37889445D01*
X76147194Y-37905000D01*
X76252806Y-37905000D01*
X76410737Y-37889445D01*
X76613375Y-37827976D01*
X76717863Y-37772126D01*
X78425805Y-39480069D01*
X76734333Y-39480069D01*
X74602126Y-37347863D01*
X74657976Y-37243375D01*
X74719445Y-37040737D01*
X74740201Y-36830000D01*
X74719445Y-36619263D01*
X74657976Y-36416625D01*
X74558154Y-36229872D01*
X74423817Y-36066183D01*
X74260128Y-35931846D01*
X74073375Y-35832024D01*
X73870737Y-35770555D01*
X73712806Y-35755000D01*
X73607194Y-35755000D01*
X73449263Y-35770555D01*
X73246625Y-35832024D01*
X73059872Y-35931846D01*
X72896183Y-36066183D01*
X72761846Y-36229872D01*
X72662024Y-36416625D01*
X72600555Y-36619263D01*
X72579799Y-36830000D01*
X72583681Y-36869418D01*
X72342553Y-36628290D01*
X72333158Y-36616842D01*
X72287477Y-36579353D01*
X72235360Y-36551496D01*
X72196088Y-36539582D01*
X72196088Y-35980000D01*
X72191744Y-35935892D01*
X72178878Y-35893480D01*
X72157985Y-35854392D01*
X72129868Y-35820132D01*
X72095608Y-35792015D01*
X72056520Y-35771122D01*
X72014108Y-35758256D01*
X71970000Y-35753912D01*
X70270000Y-35753912D01*
X70225892Y-35758256D01*
X70183480Y-35771122D01*
X70144392Y-35792015D01*
X70110132Y-35820132D01*
X70082015Y-35854392D01*
X70061122Y-35893480D01*
X70048256Y-35935892D01*
X70043912Y-35980000D01*
X69049426Y-35980000D01*
X69050348Y-35976948D01*
X69255455Y-35591198D01*
X69531585Y-35252631D01*
X69868211Y-34974150D01*
X70252523Y-34766353D01*
X70669871Y-34637162D01*
X71118520Y-34590007D01*
X71120477Y-34590000D01*
X124445330Y-34590000D01*
X124894804Y-34634071D01*
X124894804Y-34634071D01*
G37*
X124894804Y-34634071D02*
X125313052Y-34760348D01*
X125698802Y-34965455D01*
X126037369Y-35241585D01*
X126315850Y-35578211D01*
X126523647Y-35962523D01*
X126652838Y-36379871D01*
X126699993Y-36828520D01*
X126700000Y-36830477D01*
X126700001Y-54595319D01*
X126655929Y-55044803D01*
X126529652Y-55463052D01*
X126324547Y-55848800D01*
X126048418Y-56187367D01*
X125711789Y-56465850D01*
X125327478Y-56673646D01*
X124910129Y-56802838D01*
X124461480Y-56849993D01*
X124459523Y-56850000D01*
X71134670Y-56850000D01*
X70685197Y-56805929D01*
X70266948Y-56679652D01*
X69881200Y-56474547D01*
X69542633Y-56198418D01*
X69264150Y-55861789D01*
X69056354Y-55477478D01*
X68927162Y-55060129D01*
X68880007Y-54611480D01*
X68880000Y-54609523D01*
X68880000Y-53760000D01*
X70043912Y-53760000D01*
X70043912Y-55460000D01*
X70048256Y-55504108D01*
X70061122Y-55546520D01*
X70082015Y-55585608D01*
X70110132Y-55619868D01*
X70144392Y-55647985D01*
X70183480Y-55668878D01*
X70225892Y-55681744D01*
X70270000Y-55686088D01*
X71970000Y-55686088D01*
X72014108Y-55681744D01*
X72056520Y-55668878D01*
X72095608Y-55647985D01*
X72129868Y-55619868D01*
X72157985Y-55585608D01*
X72178878Y-55546520D01*
X72191744Y-55504108D01*
X72196088Y-55460000D01*
X72196088Y-53760000D01*
X72191744Y-53715892D01*
X72178878Y-53673480D01*
X72157985Y-53634392D01*
X72129868Y-53600132D01*
X72095608Y-53572015D01*
X72056520Y-53551122D01*
X72014108Y-53538256D01*
X71970000Y-53533912D01*
X71620351Y-53533912D01*
X73800264Y-51354000D01*
X76491361Y-51354000D01*
X76489646Y-51356090D01*
X74177863Y-53667874D01*
X74073375Y-53612024D01*
X73870737Y-53550555D01*
X73712806Y-53535000D01*
X73607194Y-53535000D01*
X73449263Y-53550555D01*
X73246625Y-53612024D01*
X73059872Y-53711846D01*
X72896183Y-53846183D01*
X72761846Y-54009872D01*
X72662024Y-54196625D01*
X72600555Y-54399263D01*
X72579799Y-54610000D01*
X72600555Y-54820737D01*
X72662024Y-55023375D01*
X72761846Y-55210128D01*
X72896183Y-55373817D01*
X73059872Y-55508154D01*
X73246625Y-55607976D01*
X73449263Y-55669445D01*
X73607194Y-55685000D01*
X73712806Y-55685000D01*
X73870737Y-55669445D01*
X74073375Y-55607976D01*
X74260128Y-55508154D01*
X74423817Y-55373817D01*
X74558154Y-55210128D01*
X74657976Y-55023375D01*
X74719445Y-54820737D01*
X74740201Y-54610000D01*
X74719445Y-54399263D01*
X74657976Y-54196625D01*
X74602126Y-54092137D01*
X76836459Y-51857805D01*
X78527931Y-51857805D01*
X76717863Y-53667874D01*
X76613375Y-53612024D01*
X76410737Y-53550555D01*
X76252806Y-53535000D01*
X76147194Y-53535000D01*
X75989263Y-53550555D01*
X75786625Y-53612024D01*
X75599872Y-53711846D01*
X75436183Y-53846183D01*
X75301846Y-54009872D01*
X75202024Y-54196625D01*
X75140555Y-54399263D01*
X75119799Y-54610000D01*
X75140555Y-54820737D01*
X75202024Y-55023375D01*
X75301846Y-55210128D01*
X75436183Y-55373817D01*
X75599872Y-55508154D01*
X75786625Y-55607976D01*
X75989263Y-55669445D01*
X76147194Y-55685000D01*
X76252806Y-55685000D01*
X76410737Y-55669445D01*
X76613375Y-55607976D01*
X76800128Y-55508154D01*
X76963817Y-55373817D01*
X77098154Y-55210128D01*
X77197976Y-55023375D01*
X77259445Y-54820737D01*
X77280201Y-54610000D01*
X77259445Y-54399263D01*
X77197976Y-54196625D01*
X77142126Y-54092137D01*
X79002294Y-52231970D01*
X80693766Y-52231970D01*
X79257863Y-53667874D01*
X79153375Y-53612024D01*
X78950737Y-53550555D01*
X78792806Y-53535000D01*
X78687194Y-53535000D01*
X78529263Y-53550555D01*
X78326625Y-53612024D01*
X78139872Y-53711846D01*
X77976183Y-53846183D01*
X77841846Y-54009872D01*
X77742024Y-54196625D01*
X77680555Y-54399263D01*
X77659799Y-54610000D01*
X77680555Y-54820737D01*
X77742024Y-55023375D01*
X77841846Y-55210128D01*
X77976183Y-55373817D01*
X78139872Y-55508154D01*
X78326625Y-55607976D01*
X78529263Y-55669445D01*
X78687194Y-55685000D01*
X78792806Y-55685000D01*
X78950737Y-55669445D01*
X79153375Y-55607976D01*
X79340128Y-55508154D01*
X79503817Y-55373817D01*
X79638154Y-55210128D01*
X79737976Y-55023375D01*
X79799445Y-54820737D01*
X79820201Y-54610000D01*
X79799445Y-54399263D01*
X79737976Y-54196625D01*
X79682126Y-54092137D01*
X81242284Y-52531980D01*
X82933756Y-52531980D01*
X81797863Y-53667874D01*
X81693375Y-53612024D01*
X81490737Y-53550555D01*
X81332806Y-53535000D01*
X81227194Y-53535000D01*
X81069263Y-53550555D01*
X80866625Y-53612024D01*
X80679872Y-53711846D01*
X80516183Y-53846183D01*
X80381846Y-54009872D01*
X80282024Y-54196625D01*
X80220555Y-54399263D01*
X80199799Y-54610000D01*
X80220555Y-54820737D01*
X80282024Y-55023375D01*
X80381846Y-55210128D01*
X80516183Y-55373817D01*
X80679872Y-55508154D01*
X80866625Y-55607976D01*
X81069263Y-55669445D01*
X81227194Y-55685000D01*
X81332806Y-55685000D01*
X81490737Y-55669445D01*
X81693375Y-55607976D01*
X81880128Y-55508154D01*
X82043817Y-55373817D01*
X82178154Y-55210128D01*
X82277976Y-55023375D01*
X82339445Y-54820737D01*
X82360201Y-54610000D01*
X82339445Y-54399263D01*
X82277976Y-54196625D01*
X82222126Y-54092137D01*
X83482274Y-52831990D01*
X85173745Y-52831990D01*
X84337862Y-53667874D01*
X84233375Y-53612024D01*
X84030737Y-53550555D01*
X83872806Y-53535000D01*
X83767194Y-53535000D01*
X83609263Y-53550555D01*
X83406625Y-53612024D01*
X83219872Y-53711846D01*
X83056183Y-53846183D01*
X82921846Y-54009872D01*
X82822024Y-54196625D01*
X82760555Y-54399263D01*
X82739799Y-54610000D01*
X82760555Y-54820737D01*
X82822024Y-55023375D01*
X82921846Y-55210128D01*
X83056183Y-55373817D01*
X83219872Y-55508154D01*
X83406625Y-55607976D01*
X83609263Y-55669445D01*
X83767194Y-55685000D01*
X83872806Y-55685000D01*
X84030737Y-55669445D01*
X84233375Y-55607976D01*
X84420128Y-55508154D01*
X84583817Y-55373817D01*
X84718154Y-55210128D01*
X84817976Y-55023375D01*
X84879445Y-54820737D01*
X84900201Y-54610000D01*
X84879445Y-54399263D01*
X84817976Y-54196625D01*
X84762126Y-54092138D01*
X85722265Y-53132000D01*
X87413736Y-53132000D01*
X86877863Y-53667874D01*
X86773375Y-53612024D01*
X86570737Y-53550555D01*
X86412806Y-53535000D01*
X86307194Y-53535000D01*
X86149263Y-53550555D01*
X85946625Y-53612024D01*
X85759872Y-53711846D01*
X85596183Y-53846183D01*
X85461846Y-54009872D01*
X85362024Y-54196625D01*
X85300555Y-54399263D01*
X85279799Y-54610000D01*
X85300555Y-54820737D01*
X85362024Y-55023375D01*
X85461846Y-55210128D01*
X85596183Y-55373817D01*
X85759872Y-55508154D01*
X85946625Y-55607976D01*
X86149263Y-55669445D01*
X86307194Y-55685000D01*
X86412806Y-55685000D01*
X86570737Y-55669445D01*
X86773375Y-55607976D01*
X86960128Y-55508154D01*
X87123817Y-55373817D01*
X87258154Y-55210128D01*
X87357976Y-55023375D01*
X87419445Y-54820737D01*
X87440201Y-54610000D01*
X87419445Y-54399263D01*
X87357976Y-54196625D01*
X87302126Y-54092137D01*
X87934283Y-53459981D01*
X89625755Y-53459981D01*
X89417862Y-53667874D01*
X89313375Y-53612024D01*
X89110737Y-53550555D01*
X88952806Y-53535000D01*
X88847194Y-53535000D01*
X88689263Y-53550555D01*
X88486625Y-53612024D01*
X88299872Y-53711846D01*
X88136183Y-53846183D01*
X88001846Y-54009872D01*
X87902024Y-54196625D01*
X87840555Y-54399263D01*
X87819799Y-54610000D01*
X87840555Y-54820737D01*
X87902024Y-55023375D01*
X88001846Y-55210128D01*
X88136183Y-55373817D01*
X88299872Y-55508154D01*
X88486625Y-55607976D01*
X88689263Y-55669445D01*
X88847194Y-55685000D01*
X88952806Y-55685000D01*
X89110737Y-55669445D01*
X89313375Y-55607976D01*
X89500128Y-55508154D01*
X89663817Y-55373817D01*
X89798154Y-55210128D01*
X89897976Y-55023375D01*
X89959445Y-54820737D01*
X89980201Y-54610000D01*
X89959445Y-54399263D01*
X89897976Y-54196625D01*
X89842126Y-54092138D01*
X90174273Y-53759991D01*
X90781208Y-53759991D01*
X90676183Y-53846183D01*
X90541846Y-54009872D01*
X90442024Y-54196625D01*
X90380555Y-54399263D01*
X90359799Y-54610000D01*
X90380555Y-54820737D01*
X90442024Y-55023375D01*
X90541846Y-55210128D01*
X90676183Y-55373817D01*
X90839872Y-55508154D01*
X91026625Y-55607976D01*
X91229263Y-55669445D01*
X91387194Y-55685000D01*
X91492806Y-55685000D01*
X91650737Y-55669445D01*
X91853375Y-55607976D01*
X92040128Y-55508154D01*
X92203817Y-55373817D01*
X92338154Y-55210128D01*
X92437976Y-55023375D01*
X92499445Y-54820737D01*
X92520201Y-54610000D01*
X92499445Y-54399263D01*
X92437976Y-54196625D01*
X92382126Y-54092138D01*
X92414263Y-54060001D01*
X93055051Y-54060001D01*
X92982024Y-54196625D01*
X92920555Y-54399263D01*
X92899799Y-54610000D01*
X92920555Y-54820737D01*
X92982024Y-55023375D01*
X93081846Y-55210128D01*
X93216183Y-55373817D01*
X93379872Y-55508154D01*
X93566625Y-55607976D01*
X93769263Y-55669445D01*
X93927194Y-55685000D01*
X94032806Y-55685000D01*
X94190737Y-55669445D01*
X94393375Y-55607976D01*
X94580128Y-55508154D01*
X94743817Y-55373817D01*
X94878154Y-55210128D01*
X94977976Y-55023375D01*
X95039445Y-54820737D01*
X95060201Y-54610000D01*
X95039445Y-54399263D01*
X94977976Y-54196625D01*
X94878154Y-54009872D01*
X94743817Y-53846183D01*
X94672276Y-53787471D01*
X95545908Y-52913839D01*
X95560749Y-52926019D01*
X95599837Y-52946912D01*
X95641590Y-52959578D01*
X95654256Y-53001332D01*
X95675149Y-53040420D01*
X95703266Y-53074680D01*
X96092174Y-53463588D01*
X96126434Y-53491705D01*
X96165522Y-53512598D01*
X96207934Y-53525464D01*
X96220001Y-53526652D01*
X96220001Y-53577632D01*
X96106625Y-53612024D01*
X95919872Y-53711846D01*
X95756183Y-53846183D01*
X95621846Y-54009872D01*
X95522024Y-54196625D01*
X95460555Y-54399263D01*
X95439799Y-54610000D01*
X95460555Y-54820737D01*
X95522024Y-55023375D01*
X95621846Y-55210128D01*
X95756183Y-55373817D01*
X95919872Y-55508154D01*
X96106625Y-55607976D01*
X96309263Y-55669445D01*
X96467194Y-55685000D01*
X96572806Y-55685000D01*
X96730737Y-55669445D01*
X96933375Y-55607976D01*
X97120128Y-55508154D01*
X97283817Y-55373817D01*
X97418154Y-55210128D01*
X97517976Y-55023375D01*
X97579445Y-54820737D01*
X97600201Y-54610000D01*
X97979799Y-54610000D01*
X98000555Y-54820737D01*
X98062024Y-55023375D01*
X98161846Y-55210128D01*
X98296183Y-55373817D01*
X98459872Y-55508154D01*
X98646625Y-55607976D01*
X98849263Y-55669445D01*
X99007194Y-55685000D01*
X99112806Y-55685000D01*
X99270737Y-55669445D01*
X99473375Y-55607976D01*
X99660128Y-55508154D01*
X99823817Y-55373817D01*
X99958154Y-55210128D01*
X100057976Y-55023375D01*
X100119445Y-54820737D01*
X100140201Y-54610000D01*
X100119445Y-54399263D01*
X100057976Y-54196625D01*
X99958154Y-54009872D01*
X99823817Y-53846183D01*
X99660128Y-53711846D01*
X99473375Y-53612024D01*
X99360000Y-53577632D01*
X99360000Y-53526652D01*
X99372066Y-53525464D01*
X99414478Y-53512598D01*
X99453566Y-53491705D01*
X99487826Y-53463588D01*
X99876734Y-53074680D01*
X99904851Y-53040420D01*
X99925744Y-53001332D01*
X99938410Y-52959578D01*
X99980163Y-52946912D01*
X100019251Y-52926019D01*
X100034093Y-52913839D01*
X100907724Y-53787471D01*
X100836183Y-53846183D01*
X100701846Y-54009872D01*
X100602024Y-54196625D01*
X100540555Y-54399263D01*
X100519799Y-54610000D01*
X100540555Y-54820737D01*
X100602024Y-55023375D01*
X100701846Y-55210128D01*
X100836183Y-55373817D01*
X100999872Y-55508154D01*
X101186625Y-55607976D01*
X101389263Y-55669445D01*
X101547194Y-55685000D01*
X101652806Y-55685000D01*
X101810737Y-55669445D01*
X102013375Y-55607976D01*
X102200128Y-55508154D01*
X102363817Y-55373817D01*
X102498154Y-55210128D01*
X102597976Y-55023375D01*
X102659445Y-54820737D01*
X102680201Y-54610000D01*
X102659445Y-54399263D01*
X102597976Y-54196625D01*
X102524949Y-54060001D01*
X103165738Y-54060001D01*
X103197874Y-54092137D01*
X103142024Y-54196625D01*
X103080555Y-54399263D01*
X103059799Y-54610000D01*
X103080555Y-54820737D01*
X103142024Y-55023375D01*
X103241846Y-55210128D01*
X103376183Y-55373817D01*
X103539872Y-55508154D01*
X103726625Y-55607976D01*
X103929263Y-55669445D01*
X104087194Y-55685000D01*
X104192806Y-55685000D01*
X104350737Y-55669445D01*
X104553375Y-55607976D01*
X104740128Y-55508154D01*
X104903817Y-55373817D01*
X105038154Y-55210128D01*
X105137976Y-55023375D01*
X105199445Y-54820737D01*
X105220201Y-54610000D01*
X105199445Y-54399263D01*
X105137976Y-54196625D01*
X105038154Y-54009872D01*
X104903817Y-53846183D01*
X104798792Y-53759991D01*
X105405728Y-53759991D01*
X105737874Y-54092137D01*
X105682024Y-54196625D01*
X105620555Y-54399263D01*
X105599799Y-54610000D01*
X105620555Y-54820737D01*
X105682024Y-55023375D01*
X105781846Y-55210128D01*
X105916183Y-55373817D01*
X106079872Y-55508154D01*
X106266625Y-55607976D01*
X106469263Y-55669445D01*
X106627194Y-55685000D01*
X106732806Y-55685000D01*
X106890737Y-55669445D01*
X107093375Y-55607976D01*
X107280128Y-55508154D01*
X107443817Y-55373817D01*
X107578154Y-55210128D01*
X107677976Y-55023375D01*
X107739445Y-54820737D01*
X107760201Y-54610000D01*
X107739445Y-54399263D01*
X107677976Y-54196625D01*
X107578154Y-54009872D01*
X107443817Y-53846183D01*
X107280128Y-53711846D01*
X107093375Y-53612024D01*
X106890737Y-53550555D01*
X106732806Y-53535000D01*
X106627194Y-53535000D01*
X106469263Y-53550555D01*
X106266625Y-53612024D01*
X106162137Y-53667874D01*
X105954244Y-53459981D01*
X107645718Y-53459981D01*
X108277874Y-54092137D01*
X108222024Y-54196625D01*
X108160555Y-54399263D01*
X108139799Y-54610000D01*
X108160555Y-54820737D01*
X108222024Y-55023375D01*
X108321846Y-55210128D01*
X108456183Y-55373817D01*
X108619872Y-55508154D01*
X108806625Y-55607976D01*
X109009263Y-55669445D01*
X109167194Y-55685000D01*
X109272806Y-55685000D01*
X109430737Y-55669445D01*
X109633375Y-55607976D01*
X109820128Y-55508154D01*
X109983817Y-55373817D01*
X110118154Y-55210128D01*
X110217976Y-55023375D01*
X110279445Y-54820737D01*
X110300201Y-54610000D01*
X110279445Y-54399263D01*
X110217976Y-54196625D01*
X110118154Y-54009872D01*
X109983817Y-53846183D01*
X109820128Y-53711846D01*
X109633375Y-53612024D01*
X109430737Y-53550555D01*
X109272806Y-53535000D01*
X109167194Y-53535000D01*
X109009263Y-53550555D01*
X108806625Y-53612024D01*
X108702137Y-53667874D01*
X108194234Y-53159971D01*
X109885708Y-53159971D01*
X110817874Y-54092138D01*
X110762024Y-54196625D01*
X110700555Y-54399263D01*
X110679799Y-54610000D01*
X110700555Y-54820737D01*
X110762024Y-55023375D01*
X110861846Y-55210128D01*
X110996183Y-55373817D01*
X111159872Y-55508154D01*
X111346625Y-55607976D01*
X111549263Y-55669445D01*
X111707194Y-55685000D01*
X111812806Y-55685000D01*
X111970737Y-55669445D01*
X112173375Y-55607976D01*
X112360128Y-55508154D01*
X112523817Y-55373817D01*
X112658154Y-55210128D01*
X112757976Y-55023375D01*
X112819445Y-54820737D01*
X112840201Y-54610000D01*
X112819445Y-54399263D01*
X112757976Y-54196625D01*
X112658154Y-54009872D01*
X112523817Y-53846183D01*
X112360128Y-53711846D01*
X112173375Y-53612024D01*
X111970737Y-53550555D01*
X111812806Y-53535000D01*
X111707194Y-53535000D01*
X111549263Y-53550555D01*
X111346625Y-53612024D01*
X111242138Y-53667874D01*
X110434224Y-52859961D01*
X112125698Y-52859961D01*
X113357874Y-54092138D01*
X113302024Y-54196625D01*
X113240555Y-54399263D01*
X113219799Y-54610000D01*
X113240555Y-54820737D01*
X113302024Y-55023375D01*
X113401846Y-55210128D01*
X113536183Y-55373817D01*
X113699872Y-55508154D01*
X113886625Y-55607976D01*
X114089263Y-55669445D01*
X114247194Y-55685000D01*
X114352806Y-55685000D01*
X114510737Y-55669445D01*
X114713375Y-55607976D01*
X114900128Y-55508154D01*
X115063817Y-55373817D01*
X115198154Y-55210128D01*
X115297976Y-55023375D01*
X115359445Y-54820737D01*
X115380201Y-54610000D01*
X115359445Y-54399263D01*
X115297976Y-54196625D01*
X115198154Y-54009872D01*
X115063817Y-53846183D01*
X114900128Y-53711846D01*
X114713375Y-53612024D01*
X114510737Y-53550555D01*
X114352806Y-53535000D01*
X114247194Y-53535000D01*
X114089263Y-53550555D01*
X113886625Y-53612024D01*
X113782138Y-53667874D01*
X112674214Y-52559951D01*
X114365688Y-52559951D01*
X115897874Y-54092138D01*
X115842024Y-54196625D01*
X115780555Y-54399263D01*
X115759799Y-54610000D01*
X115780555Y-54820737D01*
X115842024Y-55023375D01*
X115941846Y-55210128D01*
X116076183Y-55373817D01*
X116239872Y-55508154D01*
X116426625Y-55607976D01*
X116629263Y-55669445D01*
X116787194Y-55685000D01*
X116892806Y-55685000D01*
X117050737Y-55669445D01*
X117253375Y-55607976D01*
X117440128Y-55508154D01*
X117603817Y-55373817D01*
X117738154Y-55210128D01*
X117837976Y-55023375D01*
X117899445Y-54820737D01*
X117920201Y-54610000D01*
X117899445Y-54399263D01*
X117837976Y-54196625D01*
X117738154Y-54009872D01*
X117603817Y-53846183D01*
X117440128Y-53711846D01*
X117253375Y-53612024D01*
X117050737Y-53550555D01*
X116892806Y-53535000D01*
X116787194Y-53535000D01*
X116629263Y-53550555D01*
X116426625Y-53612024D01*
X116322138Y-53667874D01*
X114914204Y-52259941D01*
X116605678Y-52259941D01*
X118437874Y-54092138D01*
X118382024Y-54196625D01*
X118320555Y-54399263D01*
X118299799Y-54610000D01*
X118320555Y-54820737D01*
X118382024Y-55023375D01*
X118481846Y-55210128D01*
X118616183Y-55373817D01*
X118779872Y-55508154D01*
X118966625Y-55607976D01*
X119169263Y-55669445D01*
X119327194Y-55685000D01*
X119432806Y-55685000D01*
X119590737Y-55669445D01*
X119793375Y-55607976D01*
X119980128Y-55508154D01*
X120143817Y-55373817D01*
X120278154Y-55210128D01*
X120377976Y-55023375D01*
X120439445Y-54820737D01*
X120460201Y-54610000D01*
X120439445Y-54399263D01*
X120377976Y-54196625D01*
X120278154Y-54009872D01*
X120143817Y-53846183D01*
X119980128Y-53711846D01*
X119793375Y-53612024D01*
X119590737Y-53550555D01*
X119432806Y-53535000D01*
X119327194Y-53535000D01*
X119169263Y-53550555D01*
X118966625Y-53612024D01*
X118862138Y-53667874D01*
X117154194Y-51959931D01*
X118845668Y-51959931D01*
X120977874Y-54092138D01*
X120922024Y-54196625D01*
X120860555Y-54399263D01*
X120839799Y-54610000D01*
X120860555Y-54820737D01*
X120922024Y-55023375D01*
X121021846Y-55210128D01*
X121156183Y-55373817D01*
X121319872Y-55508154D01*
X121506625Y-55607976D01*
X121709263Y-55669445D01*
X121867194Y-55685000D01*
X121972806Y-55685000D01*
X122130737Y-55669445D01*
X122333375Y-55607976D01*
X122520128Y-55508154D01*
X122683817Y-55373817D01*
X122818154Y-55210128D01*
X122917976Y-55023375D01*
X122979445Y-54820737D01*
X123000201Y-54610000D01*
X122979445Y-54399263D01*
X122917976Y-54196625D01*
X122818154Y-54009872D01*
X122683817Y-53846183D01*
X122520128Y-53711846D01*
X122333375Y-53612024D01*
X122130737Y-53550555D01*
X121972806Y-53535000D01*
X121867194Y-53535000D01*
X121709263Y-53550555D01*
X121506625Y-53612024D01*
X121402138Y-53667874D01*
X119342263Y-51608000D01*
X121033737Y-51608000D01*
X123517874Y-54092138D01*
X123462024Y-54196625D01*
X123400555Y-54399263D01*
X123379799Y-54610000D01*
X123400555Y-54820737D01*
X123462024Y-55023375D01*
X123561846Y-55210128D01*
X123696183Y-55373817D01*
X123859872Y-55508154D01*
X124046625Y-55607976D01*
X124249263Y-55669445D01*
X124407194Y-55685000D01*
X124512806Y-55685000D01*
X124670737Y-55669445D01*
X124873375Y-55607976D01*
X125060128Y-55508154D01*
X125223817Y-55373817D01*
X125358154Y-55210128D01*
X125457976Y-55023375D01*
X125519445Y-54820737D01*
X125540201Y-54610000D01*
X125519445Y-54399263D01*
X125457976Y-54196625D01*
X125358154Y-54009872D01*
X125223817Y-53846183D01*
X125060128Y-53711846D01*
X124873375Y-53612024D01*
X124670737Y-53550555D01*
X124512806Y-53535000D01*
X124407194Y-53535000D01*
X124249263Y-53550555D01*
X124046625Y-53612024D01*
X123942138Y-53667874D01*
X121380553Y-51106290D01*
X121371158Y-51094842D01*
X121325477Y-51057353D01*
X121273360Y-51029496D01*
X121216810Y-51012341D01*
X121172733Y-51008000D01*
X121172723Y-51008000D01*
X121158000Y-51006550D01*
X121143277Y-51008000D01*
X109159119Y-51008000D01*
X105549525Y-47398407D01*
X105561705Y-47383566D01*
X105582598Y-47344478D01*
X105595464Y-47302066D01*
X105599808Y-47257958D01*
X105595464Y-47213850D01*
X105582598Y-47171438D01*
X105561705Y-47132350D01*
X105533588Y-47098090D01*
X104472928Y-46037430D01*
X104438668Y-46009313D01*
X104399580Y-45988420D01*
X104357168Y-45975554D01*
X104313060Y-45971210D01*
X104268952Y-45975554D01*
X104226540Y-45988420D01*
X104187452Y-46009313D01*
X104153192Y-46037430D01*
X103764284Y-46426338D01*
X103736167Y-46460598D01*
X103715274Y-46499686D01*
X103702608Y-46541439D01*
X103660854Y-46554105D01*
X103621766Y-46574998D01*
X103587506Y-46603115D01*
X103198598Y-46992023D01*
X103170481Y-47026283D01*
X103149588Y-47065371D01*
X103136922Y-47107124D01*
X103095169Y-47119790D01*
X103056081Y-47140683D01*
X103021821Y-47168800D01*
X102632913Y-47557708D01*
X102604796Y-47591968D01*
X102583903Y-47631056D01*
X102571237Y-47672810D01*
X102529484Y-47685476D01*
X102490396Y-47706369D01*
X102456136Y-47734486D01*
X102067228Y-48123394D01*
X102039111Y-48157654D01*
X102018218Y-48196742D01*
X102005552Y-48238495D01*
X101963798Y-48251161D01*
X101924710Y-48272054D01*
X101890450Y-48300171D01*
X101501542Y-48689079D01*
X101473425Y-48723339D01*
X101452532Y-48762427D01*
X101439866Y-48804181D01*
X101398113Y-48816847D01*
X101359025Y-48837740D01*
X101324765Y-48865857D01*
X100935857Y-49254765D01*
X100907740Y-49289025D01*
X100886847Y-49328113D01*
X100874181Y-49369866D01*
X100832427Y-49382532D01*
X100793339Y-49403425D01*
X100759079Y-49431542D01*
X100370171Y-49820450D01*
X100342054Y-49854710D01*
X100321161Y-49893798D01*
X100308495Y-49935552D01*
X100266742Y-49948218D01*
X100227654Y-49969111D01*
X100193394Y-49997228D01*
X99804486Y-50386136D01*
X99776369Y-50420396D01*
X99755476Y-50459484D01*
X99742810Y-50501237D01*
X99701056Y-50513903D01*
X99661968Y-50534796D01*
X99627708Y-50562913D01*
X99238800Y-50951821D01*
X99210683Y-50986081D01*
X99189790Y-51025169D01*
X99177124Y-51066922D01*
X99135371Y-51079588D01*
X99096283Y-51100481D01*
X99062023Y-51128598D01*
X98673115Y-51517506D01*
X98644998Y-51551766D01*
X98624105Y-51590854D01*
X98611439Y-51632608D01*
X98569686Y-51645274D01*
X98530598Y-51666167D01*
X98496338Y-51694284D01*
X98107430Y-52083192D01*
X98079313Y-52117452D01*
X98058420Y-52156540D01*
X98045554Y-52198952D01*
X98041210Y-52243060D01*
X98045554Y-52287168D01*
X98058420Y-52329580D01*
X98079313Y-52368668D01*
X98107430Y-52402928D01*
X98760001Y-53055499D01*
X98760001Y-53577632D01*
X98646625Y-53612024D01*
X98459872Y-53711846D01*
X98296183Y-53846183D01*
X98161846Y-54009872D01*
X98062024Y-54196625D01*
X98000555Y-54399263D01*
X97979799Y-54610000D01*
X97600201Y-54610000D01*
X97579445Y-54399263D01*
X97517976Y-54196625D01*
X97418154Y-54009872D01*
X97283817Y-53846183D01*
X97120128Y-53711846D01*
X96933375Y-53612024D01*
X96820000Y-53577632D01*
X96820000Y-53055498D01*
X97472570Y-52402928D01*
X97500687Y-52368668D01*
X97521580Y-52329580D01*
X97534446Y-52287168D01*
X97538790Y-52243060D01*
X97534446Y-52198952D01*
X97521580Y-52156540D01*
X97500687Y-52117452D01*
X97472570Y-52083192D01*
X97083662Y-51694284D01*
X97049402Y-51666167D01*
X97010314Y-51645274D01*
X96968561Y-51632608D01*
X96955895Y-51590854D01*
X96935002Y-51551766D01*
X96906885Y-51517506D01*
X96517977Y-51128598D01*
X96483717Y-51100481D01*
X96444629Y-51079588D01*
X96402876Y-51066922D01*
X96390210Y-51025169D01*
X96369317Y-50986081D01*
X96341200Y-50951821D01*
X95952292Y-50562913D01*
X95918032Y-50534796D01*
X95878944Y-50513903D01*
X95837190Y-50501237D01*
X95824524Y-50459484D01*
X95803631Y-50420396D01*
X95775514Y-50386136D01*
X95386606Y-49997228D01*
X95352346Y-49969111D01*
X95313258Y-49948218D01*
X95271505Y-49935552D01*
X95258839Y-49893798D01*
X95237946Y-49854710D01*
X95209829Y-49820450D01*
X94820921Y-49431542D01*
X94786661Y-49403425D01*
X94747573Y-49382532D01*
X94705819Y-49369866D01*
X94693153Y-49328113D01*
X94672260Y-49289025D01*
X94644143Y-49254765D01*
X94255235Y-48865857D01*
X94220975Y-48837740D01*
X94181887Y-48816847D01*
X94140134Y-48804181D01*
X94127468Y-48762427D01*
X94106575Y-48723339D01*
X94078458Y-48689079D01*
X93689550Y-48300171D01*
X93655290Y-48272054D01*
X93616202Y-48251161D01*
X93574448Y-48238495D01*
X93561782Y-48196742D01*
X93540889Y-48157654D01*
X93512772Y-48123394D01*
X93123864Y-47734486D01*
X93089604Y-47706369D01*
X93050516Y-47685476D01*
X93008763Y-47672810D01*
X92996097Y-47631056D01*
X92975204Y-47591968D01*
X92947087Y-47557708D01*
X92558179Y-47168800D01*
X92523919Y-47140683D01*
X92484831Y-47119790D01*
X92443078Y-47107124D01*
X92430412Y-47065371D01*
X92409519Y-47026283D01*
X92381402Y-46992023D01*
X91992494Y-46603115D01*
X91958234Y-46574998D01*
X91919146Y-46554105D01*
X91877392Y-46541439D01*
X91864726Y-46499686D01*
X91843833Y-46460598D01*
X91815716Y-46426338D01*
X91426808Y-46037430D01*
X91392548Y-46009313D01*
X91353460Y-45988420D01*
X91311048Y-45975554D01*
X91266940Y-45971210D01*
X91222832Y-45975554D01*
X91180420Y-45988420D01*
X91141332Y-46009313D01*
X91107072Y-46037430D01*
X90046412Y-47098090D01*
X90018295Y-47132350D01*
X89997402Y-47171438D01*
X89984536Y-47213850D01*
X89980192Y-47257958D01*
X89984536Y-47302066D01*
X89997402Y-47344478D01*
X90018295Y-47383566D01*
X90030475Y-47398407D01*
X86674883Y-50754000D01*
X73690730Y-50754000D01*
X73676000Y-50752549D01*
X73661270Y-50754000D01*
X73661267Y-50754000D01*
X73617190Y-50758341D01*
X73573801Y-50771503D01*
X73560639Y-50775496D01*
X73508522Y-50803353D01*
X73484497Y-50823070D01*
X73462842Y-50840842D01*
X73453451Y-50852285D01*
X70918286Y-53387451D01*
X70906843Y-53396842D01*
X70897452Y-53408285D01*
X70897451Y-53408286D01*
X70869353Y-53442523D01*
X70841497Y-53494640D01*
X70829583Y-53533912D01*
X70270000Y-53533912D01*
X70225892Y-53538256D01*
X70183480Y-53551122D01*
X70144392Y-53572015D01*
X70110132Y-53600132D01*
X70082015Y-53634392D01*
X70061122Y-53673480D01*
X70048256Y-53715892D01*
X70043912Y-53760000D01*
X68880000Y-53760000D01*
X68880000Y-36844670D01*
X68924071Y-36395196D01*
X69049426Y-35980000D01*
X70043912Y-35980000D01*
X70043912Y-37680000D01*
X70048256Y-37724108D01*
X70061122Y-37766520D01*
X70082015Y-37805608D01*
X70110132Y-37839868D01*
X70144392Y-37867985D01*
X70183480Y-37888878D01*
X70225892Y-37901744D01*
X70270000Y-37906088D01*
X71970000Y-37906088D01*
X72014108Y-37901744D01*
X72056520Y-37888878D01*
X72095608Y-37867985D01*
X72129868Y-37839868D01*
X72157985Y-37805608D01*
X72178878Y-37766520D01*
X72191744Y-37724108D01*
X72196088Y-37680000D01*
X72196088Y-37330351D01*
X75199450Y-40333714D01*
X75208842Y-40345158D01*
X75220285Y-40354549D01*
X75254522Y-40382647D01*
X75282379Y-40397536D01*
X75306640Y-40410504D01*
X75363190Y-40427659D01*
X75407267Y-40432000D01*
X75407276Y-40432000D01*
X75421999Y-40433450D01*
X75436722Y-40432000D01*
X86420883Y-40432000D01*
X90030475Y-44041593D01*
X90018295Y-44056434D01*
X89997402Y-44095522D01*
X89984536Y-44137934D01*
X89980192Y-44182042D01*
X89984536Y-44226150D01*
X89997402Y-44268562D01*
X90018295Y-44307650D01*
X90046412Y-44341910D01*
X91107072Y-45402570D01*
X91141332Y-45430687D01*
X91180420Y-45451580D01*
X91222832Y-45464446D01*
X91266940Y-45468790D01*
X91311048Y-45464446D01*
X91353460Y-45451580D01*
X91392548Y-45430687D01*
X91426808Y-45402570D01*
X91815716Y-45013662D01*
X91843833Y-44979402D01*
X91864726Y-44940314D01*
X91877392Y-44898561D01*
X91919146Y-44885895D01*
X91958234Y-44865002D01*
X91992494Y-44836885D01*
X92381402Y-44447977D01*
X92409519Y-44413717D01*
X92430412Y-44374629D01*
X92443078Y-44332876D01*
X92484831Y-44320210D01*
X92523919Y-44299317D01*
X92558179Y-44271200D01*
X92947087Y-43882292D01*
X92975204Y-43848032D01*
X92996097Y-43808944D01*
X93008763Y-43767190D01*
X93050516Y-43754524D01*
X93089604Y-43733631D01*
X93123864Y-43705514D01*
X93512772Y-43316606D01*
X93540889Y-43282346D01*
X93561782Y-43243258D01*
X93574448Y-43201505D01*
X93616202Y-43188839D01*
X93655290Y-43167946D01*
X93689550Y-43139829D01*
X94078458Y-42750921D01*
X94106575Y-42716661D01*
X94127468Y-42677573D01*
X94140134Y-42635819D01*
X94181887Y-42623153D01*
X94220975Y-42602260D01*
X94255235Y-42574143D01*
X94644143Y-42185235D01*
X94672260Y-42150975D01*
X94693153Y-42111887D01*
X94705819Y-42070134D01*
X94747573Y-42057468D01*
X94786661Y-42036575D01*
X94820921Y-42008458D01*
X95209829Y-41619550D01*
X95237946Y-41585290D01*
X95258839Y-41546202D01*
X95271505Y-41504448D01*
X95313258Y-41491782D01*
X95352346Y-41470889D01*
X95386606Y-41442772D01*
X95775514Y-41053864D01*
X95803631Y-41019604D01*
X95824524Y-40980516D01*
X95837190Y-40938763D01*
X95878944Y-40926097D01*
X95918032Y-40905204D01*
X95952292Y-40877087D01*
X96341200Y-40488179D01*
X96369317Y-40453919D01*
X96390210Y-40414831D01*
X96402876Y-40373078D01*
X96444629Y-40360412D01*
X96483717Y-40339519D01*
X96517977Y-40311402D01*
X96906885Y-39922494D01*
X96935002Y-39888234D01*
X96955895Y-39849146D01*
X96968561Y-39807392D01*
X97010314Y-39794726D01*
X97049402Y-39773833D01*
X97083662Y-39745716D01*
X97472570Y-39356808D01*
X97500687Y-39322548D01*
X97521580Y-39283460D01*
X97534446Y-39241048D01*
X97538790Y-39196940D01*
X97534446Y-39152832D01*
X97521580Y-39110420D01*
X97500687Y-39071332D01*
X97472570Y-39037072D01*
X96887918Y-38452420D01*
X96887918Y-37841765D01*
X96933375Y-37827976D01*
X97120128Y-37728154D01*
X97283817Y-37593817D01*
X97418154Y-37430128D01*
X97517976Y-37243375D01*
X97579445Y-37040737D01*
X97600201Y-36830000D01*
X97979799Y-36830000D01*
X98000555Y-37040737D01*
X98062024Y-37243375D01*
X98161846Y-37430128D01*
X98296183Y-37593817D01*
X98459872Y-37728154D01*
X98646625Y-37827976D01*
X98692083Y-37841765D01*
X98692082Y-38452420D01*
X98107430Y-39037072D01*
X98079313Y-39071332D01*
X98058420Y-39110420D01*
X98045554Y-39152832D01*
X98041210Y-39196940D01*
X98045554Y-39241048D01*
X98058420Y-39283460D01*
X98079313Y-39322548D01*
X98107430Y-39356808D01*
X98496338Y-39745716D01*
X98530598Y-39773833D01*
X98569686Y-39794726D01*
X98611439Y-39807392D01*
X98624105Y-39849146D01*
X98644998Y-39888234D01*
X98673115Y-39922494D01*
X99062023Y-40311402D01*
X99096283Y-40339519D01*
X99135371Y-40360412D01*
X99177124Y-40373078D01*
X99189790Y-40414831D01*
X99210683Y-40453919D01*
X99238800Y-40488179D01*
X99627708Y-40877087D01*
X99661968Y-40905204D01*
X99701056Y-40926097D01*
X99742810Y-40938763D01*
X99755476Y-40980516D01*
X99776369Y-41019604D01*
X99804486Y-41053864D01*
X100193394Y-41442772D01*
X100227654Y-41470889D01*
X100266742Y-41491782D01*
X100308495Y-41504448D01*
X100321161Y-41546202D01*
X100342054Y-41585290D01*
X100370171Y-41619550D01*
X100759079Y-42008458D01*
X100793339Y-42036575D01*
X100832427Y-42057468D01*
X100874181Y-42070134D01*
X100886847Y-42111887D01*
X100907740Y-42150975D01*
X100935857Y-42185235D01*
X101324765Y-42574143D01*
X101359025Y-42602260D01*
X101398113Y-42623153D01*
X101439866Y-42635819D01*
X101452532Y-42677573D01*
X101473425Y-42716661D01*
X101501542Y-42750921D01*
X101890450Y-43139829D01*
X101924710Y-43167946D01*
X101963798Y-43188839D01*
X102005552Y-43201505D01*
X102018218Y-43243258D01*
X102039111Y-43282346D01*
X102067228Y-43316606D01*
X102456136Y-43705514D01*
X102490396Y-43733631D01*
X102529484Y-43754524D01*
X102571237Y-43767190D01*
X102583903Y-43808944D01*
X102604796Y-43848032D01*
X102632913Y-43882292D01*
X103021821Y-44271200D01*
X103056081Y-44299317D01*
X103095169Y-44320210D01*
X103136922Y-44332876D01*
X103149588Y-44374629D01*
X103170481Y-44413717D01*
X103198598Y-44447977D01*
X103587506Y-44836885D01*
X103621766Y-44865002D01*
X103660854Y-44885895D01*
X103702608Y-44898561D01*
X103715274Y-44940314D01*
X103736167Y-44979402D01*
X103764284Y-45013662D01*
X104153192Y-45402570D01*
X104187452Y-45430687D01*
X104226540Y-45451580D01*
X104268952Y-45464446D01*
X104313060Y-45468790D01*
X104357168Y-45464446D01*
X104399580Y-45451580D01*
X104438668Y-45430687D01*
X104472928Y-45402570D01*
X105533588Y-44341910D01*
X105561705Y-44307650D01*
X105582598Y-44268562D01*
X105595464Y-44226150D01*
X105599808Y-44182042D01*
X105595464Y-44137934D01*
X105582598Y-44095522D01*
X105561705Y-44056434D01*
X105549525Y-44041593D01*
X108905118Y-40686000D01*
X120889277Y-40686000D01*
X120904000Y-40687450D01*
X120918723Y-40686000D01*
X120918733Y-40686000D01*
X120962810Y-40681659D01*
X121019360Y-40664504D01*
X121071477Y-40636647D01*
X121117158Y-40599158D01*
X121126553Y-40587710D01*
X123942138Y-37772126D01*
X124046625Y-37827976D01*
X124249263Y-37889445D01*
X124407194Y-37905000D01*
X124512806Y-37905000D01*
X124670737Y-37889445D01*
X124873375Y-37827976D01*
X125060128Y-37728154D01*
X125223817Y-37593817D01*
X125358154Y-37430128D01*
X125457976Y-37243375D01*
X125519445Y-37040737D01*
X125540201Y-36830000D01*
X125519445Y-36619263D01*
X125457976Y-36416625D01*
X125358154Y-36229872D01*
X125223817Y-36066183D01*
X125060128Y-35931846D01*
X124873375Y-35832024D01*
X124670737Y-35770555D01*
X124512806Y-35755000D01*
X124407194Y-35755000D01*
X124249263Y-35770555D01*
X124046625Y-35832024D01*
X123859872Y-35931846D01*
X123696183Y-36066183D01*
X123561846Y-36229872D01*
X123462024Y-36416625D01*
X123400555Y-36619263D01*
X123379799Y-36830000D01*
X123400555Y-37040737D01*
X123462024Y-37243375D01*
X123517874Y-37347862D01*
X120779737Y-40086000D01*
X119088263Y-40086000D01*
X121402138Y-37772126D01*
X121506625Y-37827976D01*
X121709263Y-37889445D01*
X121867194Y-37905000D01*
X121972806Y-37905000D01*
X122130737Y-37889445D01*
X122333375Y-37827976D01*
X122520128Y-37728154D01*
X122683817Y-37593817D01*
X122818154Y-37430128D01*
X122917976Y-37243375D01*
X122979445Y-37040737D01*
X123000201Y-36830000D01*
X122979445Y-36619263D01*
X122917976Y-36416625D01*
X122818154Y-36229872D01*
X122683817Y-36066183D01*
X122520128Y-35931846D01*
X122333375Y-35832024D01*
X122130737Y-35770555D01*
X121972806Y-35755000D01*
X121867194Y-35755000D01*
X121709263Y-35770555D01*
X121506625Y-35832024D01*
X121319872Y-35931846D01*
X121156183Y-36066183D01*
X121021846Y-36229872D01*
X120922024Y-36416625D01*
X120860555Y-36619263D01*
X120839799Y-36830000D01*
X120860555Y-37040737D01*
X120922024Y-37243375D01*
X120977874Y-37347862D01*
X118609708Y-39716029D01*
X116918234Y-39716029D01*
X118862138Y-37772126D01*
X118966625Y-37827976D01*
X119169263Y-37889445D01*
X119327194Y-37905000D01*
X119432806Y-37905000D01*
X119590737Y-37889445D01*
X119793375Y-37827976D01*
X119980128Y-37728154D01*
X120143817Y-37593817D01*
X120278154Y-37430128D01*
X120377976Y-37243375D01*
X120439445Y-37040737D01*
X120460201Y-36830000D01*
X120439445Y-36619263D01*
X120377976Y-36416625D01*
X120278154Y-36229872D01*
X120143817Y-36066183D01*
X119980128Y-35931846D01*
X119793375Y-35832024D01*
X119590737Y-35770555D01*
X119432806Y-35755000D01*
X119327194Y-35755000D01*
X119169263Y-35770555D01*
X118966625Y-35832024D01*
X118779872Y-35931846D01*
X118616183Y-36066183D01*
X118481846Y-36229872D01*
X118382024Y-36416625D01*
X118320555Y-36619263D01*
X118299799Y-36830000D01*
X118320555Y-37040737D01*
X118382024Y-37243375D01*
X118437874Y-37347862D01*
X116369718Y-39416019D01*
X114678244Y-39416019D01*
X116322138Y-37772126D01*
X116426625Y-37827976D01*
X116629263Y-37889445D01*
X116787194Y-37905000D01*
X116892806Y-37905000D01*
X117050737Y-37889445D01*
X117253375Y-37827976D01*
X117440128Y-37728154D01*
X117603817Y-37593817D01*
X117738154Y-37430128D01*
X117837976Y-37243375D01*
X117899445Y-37040737D01*
X117920201Y-36830000D01*
X117899445Y-36619263D01*
X117837976Y-36416625D01*
X117738154Y-36229872D01*
X117603817Y-36066183D01*
X117440128Y-35931846D01*
X117253375Y-35832024D01*
X117050737Y-35770555D01*
X116892806Y-35755000D01*
X116787194Y-35755000D01*
X116629263Y-35770555D01*
X116426625Y-35832024D01*
X116239872Y-35931846D01*
X116076183Y-36066183D01*
X115941846Y-36229872D01*
X115842024Y-36416625D01*
X115780555Y-36619263D01*
X115759799Y-36830000D01*
X115780555Y-37040737D01*
X115842024Y-37243375D01*
X115897874Y-37347862D01*
X114129727Y-39116010D01*
X112438253Y-39116010D01*
X113782138Y-37772126D01*
X113886625Y-37827976D01*
X114089263Y-37889445D01*
X114247194Y-37905000D01*
X114352806Y-37905000D01*
X114510737Y-37889445D01*
X114713375Y-37827976D01*
X114900128Y-37728154D01*
X115063817Y-37593817D01*
X115198154Y-37430128D01*
X115297976Y-37243375D01*
X115359445Y-37040737D01*
X115380201Y-36830000D01*
X115359445Y-36619263D01*
X115297976Y-36416625D01*
X115198154Y-36229872D01*
X115063817Y-36066183D01*
X114900128Y-35931846D01*
X114713375Y-35832024D01*
X114510737Y-35770555D01*
X114352806Y-35755000D01*
X114247194Y-35755000D01*
X114089263Y-35770555D01*
X113886625Y-35832024D01*
X113699872Y-35931846D01*
X113536183Y-36066183D01*
X113401846Y-36229872D01*
X113302024Y-36416625D01*
X113240555Y-36619263D01*
X113219799Y-36830000D01*
X113240555Y-37040737D01*
X113302024Y-37243375D01*
X113357874Y-37347862D01*
X111889737Y-38816000D01*
X110198263Y-38816000D01*
X111242138Y-37772126D01*
X111346625Y-37827976D01*
X111549263Y-37889445D01*
X111707194Y-37905000D01*
X111812806Y-37905000D01*
X111970737Y-37889445D01*
X112173375Y-37827976D01*
X112360128Y-37728154D01*
X112523817Y-37593817D01*
X112658154Y-37430128D01*
X112757976Y-37243375D01*
X112819445Y-37040737D01*
X112840201Y-36830000D01*
X112819445Y-36619263D01*
X112757976Y-36416625D01*
X112658154Y-36229872D01*
X112523817Y-36066183D01*
X112360128Y-35931846D01*
X112173375Y-35832024D01*
X111970737Y-35770555D01*
X111812806Y-35755000D01*
X111707194Y-35755000D01*
X111549263Y-35770555D01*
X111346625Y-35832024D01*
X111159872Y-35931846D01*
X110996183Y-36066183D01*
X110861846Y-36229872D01*
X110762024Y-36416625D01*
X110700555Y-36619263D01*
X110679799Y-36830000D01*
X110700555Y-37040737D01*
X110762024Y-37243375D01*
X110817874Y-37347862D01*
X109811727Y-38354010D01*
X108120253Y-38354010D01*
X108702138Y-37772126D01*
X108806625Y-37827976D01*
X109009263Y-37889445D01*
X109167194Y-37905000D01*
X109272806Y-37905000D01*
X109430737Y-37889445D01*
X109633375Y-37827976D01*
X109820128Y-37728154D01*
X109983817Y-37593817D01*
X110118154Y-37430128D01*
X110217976Y-37243375D01*
X110279445Y-37040737D01*
X110300201Y-36830000D01*
X110279445Y-36619263D01*
X110217976Y-36416625D01*
X110118154Y-36229872D01*
X109983817Y-36066183D01*
X109820128Y-35931846D01*
X109633375Y-35832024D01*
X109430737Y-35770555D01*
X109272806Y-35755000D01*
X109167194Y-35755000D01*
X109009263Y-35770555D01*
X108806625Y-35832024D01*
X108619872Y-35931846D01*
X108456183Y-36066183D01*
X108321846Y-36229872D01*
X108222024Y-36416625D01*
X108160555Y-36619263D01*
X108139799Y-36830000D01*
X108160555Y-37040737D01*
X108222024Y-37243375D01*
X108277874Y-37347862D01*
X107571737Y-38054000D01*
X105880263Y-38054000D01*
X106162137Y-37772126D01*
X106266625Y-37827976D01*
X106469263Y-37889445D01*
X106627194Y-37905000D01*
X106732806Y-37905000D01*
X106890737Y-37889445D01*
X107093375Y-37827976D01*
X107280128Y-37728154D01*
X107443817Y-37593817D01*
X107578154Y-37430128D01*
X107677976Y-37243375D01*
X107739445Y-37040737D01*
X107760201Y-36830000D01*
X107739445Y-36619263D01*
X107677976Y-36416625D01*
X107578154Y-36229872D01*
X107443817Y-36066183D01*
X107280128Y-35931846D01*
X107093375Y-35832024D01*
X106890737Y-35770555D01*
X106732806Y-35755000D01*
X106627194Y-35755000D01*
X106469263Y-35770555D01*
X106266625Y-35832024D01*
X106079872Y-35931846D01*
X105916183Y-36066183D01*
X105781846Y-36229872D01*
X105682024Y-36416625D01*
X105620555Y-36619263D01*
X105599799Y-36830000D01*
X105620555Y-37040737D01*
X105682024Y-37243375D01*
X105737874Y-37347863D01*
X105405728Y-37680009D01*
X104798792Y-37680009D01*
X104903817Y-37593817D01*
X105038154Y-37430128D01*
X105137976Y-37243375D01*
X105199445Y-37040737D01*
X105220201Y-36830000D01*
X105199445Y-36619263D01*
X105137976Y-36416625D01*
X105038154Y-36229872D01*
X104903817Y-36066183D01*
X104740128Y-35931846D01*
X104553375Y-35832024D01*
X104350737Y-35770555D01*
X104192806Y-35755000D01*
X104087194Y-35755000D01*
X103929263Y-35770555D01*
X103726625Y-35832024D01*
X103539872Y-35931846D01*
X103376183Y-36066183D01*
X103241846Y-36229872D01*
X103142024Y-36416625D01*
X103080555Y-36619263D01*
X103059799Y-36830000D01*
X103080555Y-37040737D01*
X103142024Y-37243375D01*
X103197874Y-37347863D01*
X103165738Y-37379999D01*
X102524949Y-37379999D01*
X102597976Y-37243375D01*
X102659445Y-37040737D01*
X102680201Y-36830000D01*
X102659445Y-36619263D01*
X102597976Y-36416625D01*
X102498154Y-36229872D01*
X102363817Y-36066183D01*
X102200128Y-35931846D01*
X102013375Y-35832024D01*
X101810737Y-35770555D01*
X101652806Y-35755000D01*
X101547194Y-35755000D01*
X101389263Y-35770555D01*
X101186625Y-35832024D01*
X100999872Y-35931846D01*
X100836183Y-36066183D01*
X100701846Y-36229872D01*
X100602024Y-36416625D01*
X100540555Y-36619263D01*
X100519799Y-36830000D01*
X100540555Y-37040737D01*
X100602024Y-37243375D01*
X100701846Y-37430128D01*
X100836183Y-37593817D01*
X100907724Y-37652529D01*
X100034092Y-38526161D01*
X100019251Y-38513981D01*
X99980163Y-38493088D01*
X99938410Y-38480422D01*
X99925744Y-38438668D01*
X99904851Y-38399580D01*
X99876734Y-38365320D01*
X99487826Y-37976412D01*
X99453566Y-37948295D01*
X99414478Y-37927402D01*
X99372066Y-37914536D01*
X99327958Y-37910192D01*
X99292082Y-37913725D01*
X99292082Y-37882970D01*
X99473375Y-37827976D01*
X99660128Y-37728154D01*
X99823817Y-37593817D01*
X99958154Y-37430128D01*
X100057976Y-37243375D01*
X100119445Y-37040737D01*
X100140201Y-36830000D01*
X100119445Y-36619263D01*
X100057976Y-36416625D01*
X99958154Y-36229872D01*
X99823817Y-36066183D01*
X99660128Y-35931846D01*
X99473375Y-35832024D01*
X99270737Y-35770555D01*
X99112806Y-35755000D01*
X99007194Y-35755000D01*
X98849263Y-35770555D01*
X98646625Y-35832024D01*
X98459872Y-35931846D01*
X98296183Y-36066183D01*
X98161846Y-36229872D01*
X98062024Y-36416625D01*
X98000555Y-36619263D01*
X97979799Y-36830000D01*
X97600201Y-36830000D01*
X97579445Y-36619263D01*
X97517976Y-36416625D01*
X97418154Y-36229872D01*
X97283817Y-36066183D01*
X97120128Y-35931846D01*
X96933375Y-35832024D01*
X96730737Y-35770555D01*
X96572806Y-35755000D01*
X96467194Y-35755000D01*
X96309263Y-35770555D01*
X96106625Y-35832024D01*
X95919872Y-35931846D01*
X95756183Y-36066183D01*
X95621846Y-36229872D01*
X95522024Y-36416625D01*
X95460555Y-36619263D01*
X95439799Y-36830000D01*
X95460555Y-37040737D01*
X95522024Y-37243375D01*
X95621846Y-37430128D01*
X95756183Y-37593817D01*
X95919872Y-37728154D01*
X96106625Y-37827976D01*
X96287918Y-37882970D01*
X96287918Y-37913725D01*
X96252042Y-37910192D01*
X96207934Y-37914536D01*
X96165522Y-37927402D01*
X96126434Y-37948295D01*
X96092174Y-37976412D01*
X95703266Y-38365320D01*
X95675149Y-38399580D01*
X95654256Y-38438668D01*
X95641590Y-38480422D01*
X95599837Y-38493088D01*
X95560749Y-38513981D01*
X95545908Y-38526161D01*
X94672276Y-37652530D01*
X94743817Y-37593817D01*
X94878154Y-37430128D01*
X94977976Y-37243375D01*
X95039445Y-37040737D01*
X95060201Y-36830000D01*
X95039445Y-36619263D01*
X94977976Y-36416625D01*
X94878154Y-36229872D01*
X94743817Y-36066183D01*
X94580128Y-35931846D01*
X94393375Y-35832024D01*
X94190737Y-35770555D01*
X94032806Y-35755000D01*
X93927194Y-35755000D01*
X93769263Y-35770555D01*
X93566625Y-35832024D01*
X93379872Y-35931846D01*
X93216183Y-36066183D01*
X93081846Y-36229872D01*
X92982024Y-36416625D01*
X92920555Y-36619263D01*
X92899799Y-36830000D01*
X92920555Y-37040737D01*
X92982024Y-37243375D01*
X93055051Y-37379999D01*
X92414263Y-37379999D01*
X92382126Y-37347862D01*
X92437976Y-37243375D01*
X92499445Y-37040737D01*
X92520201Y-36830000D01*
X92499445Y-36619263D01*
X92437976Y-36416625D01*
X92338154Y-36229872D01*
X92203817Y-36066183D01*
X92040128Y-35931846D01*
X91853375Y-35832024D01*
X91650737Y-35770555D01*
X91492806Y-35755000D01*
X91387194Y-35755000D01*
X91229263Y-35770555D01*
X91026625Y-35832024D01*
X90839872Y-35931846D01*
X90676183Y-36066183D01*
X90541846Y-36229872D01*
X90442024Y-36416625D01*
X90380555Y-36619263D01*
X90359799Y-36830000D01*
X90380555Y-37040737D01*
X90442024Y-37243375D01*
X90541846Y-37430128D01*
X90676183Y-37593817D01*
X90781208Y-37680009D01*
X90174273Y-37680009D01*
X89842126Y-37347862D01*
X89897976Y-37243375D01*
X89959445Y-37040737D01*
X89980201Y-36830000D01*
X89959445Y-36619263D01*
X89897976Y-36416625D01*
X89798154Y-36229872D01*
X89663817Y-36066183D01*
X89500128Y-35931846D01*
X89313375Y-35832024D01*
X89110737Y-35770555D01*
X88952806Y-35755000D01*
X88847194Y-35755000D01*
X88689263Y-35770555D01*
X88486625Y-35832024D01*
X88299872Y-35931846D01*
X88136183Y-36066183D01*
X88001846Y-36229872D01*
X87902024Y-36416625D01*
X87840555Y-36619263D01*
X87819799Y-36830000D01*
X87840555Y-37040737D01*
X87902024Y-37243375D01*
X88001846Y-37430128D01*
X88136183Y-37593817D01*
X88299872Y-37728154D01*
X88486625Y-37827976D01*
X88689263Y-37889445D01*
X88847194Y-37905000D01*
X88952806Y-37905000D01*
X89110737Y-37889445D01*
X89313375Y-37827976D01*
X89417862Y-37772126D01*
X89625755Y-37980019D01*
X87934283Y-37980019D01*
X87302126Y-37347863D01*
X87357976Y-37243375D01*
X87419445Y-37040737D01*
X87440201Y-36830000D01*
X87419445Y-36619263D01*
X87357976Y-36416625D01*
X87258154Y-36229872D01*
X87123817Y-36066183D01*
X86960128Y-35931846D01*
X86773375Y-35832024D01*
X86570737Y-35770555D01*
X86412806Y-35755000D01*
X86307194Y-35755000D01*
X86149263Y-35770555D01*
X85946625Y-35832024D01*
X85759872Y-35931846D01*
X85596183Y-36066183D01*
X85461846Y-36229872D01*
X85362024Y-36416625D01*
X85300555Y-36619263D01*
X85279799Y-36830000D01*
X85300555Y-37040737D01*
X85362024Y-37243375D01*
X85461846Y-37430128D01*
X85596183Y-37593817D01*
X85759872Y-37728154D01*
X85946625Y-37827976D01*
X86149263Y-37889445D01*
X86307194Y-37905000D01*
X86412806Y-37905000D01*
X86570737Y-37889445D01*
X86773375Y-37827976D01*
X86877863Y-37772126D01*
X87385765Y-38280029D01*
X85694294Y-38280029D01*
X84762126Y-37347862D01*
X84817976Y-37243375D01*
X84879445Y-37040737D01*
X84900201Y-36830000D01*
X84879445Y-36619263D01*
X84817976Y-36416625D01*
X84718154Y-36229872D01*
X84583817Y-36066183D01*
X84420128Y-35931846D01*
X84233375Y-35832024D01*
X84030737Y-35770555D01*
X83872806Y-35755000D01*
X83767194Y-35755000D01*
X83609263Y-35770555D01*
X83406625Y-35832024D01*
X83219872Y-35931846D01*
X83056183Y-36066183D01*
X82921846Y-36229872D01*
X82822024Y-36416625D01*
X82760555Y-36619263D01*
X82739799Y-36830000D01*
X82760555Y-37040737D01*
X82822024Y-37243375D01*
X82921846Y-37430128D01*
X83056183Y-37593817D01*
X83219872Y-37728154D01*
X83406625Y-37827976D01*
X83609263Y-37889445D01*
X83767194Y-37905000D01*
X83872806Y-37905000D01*
X84030737Y-37889445D01*
X84233375Y-37827976D01*
X84337862Y-37772126D01*
X85145774Y-38580039D01*
X83454303Y-38580039D01*
X82222126Y-37347863D01*
X82277976Y-37243375D01*
X82339445Y-37040737D01*
X82360201Y-36830000D01*
X82339445Y-36619263D01*
X82277976Y-36416625D01*
X82178154Y-36229872D01*
X82043817Y-36066183D01*
X81880128Y-35931846D01*
X81693375Y-35832024D01*
X81490737Y-35770555D01*
X81332806Y-35755000D01*
X81227194Y-35755000D01*
X81069263Y-35770555D01*
X80866625Y-35832024D01*
X80679872Y-35931846D01*
X80516183Y-36066183D01*
X80381846Y-36229872D01*
X80282024Y-36416625D01*
X80220555Y-36619263D01*
X80199799Y-36830000D01*
X80220555Y-37040737D01*
X80282024Y-37243375D01*
X80381846Y-37430128D01*
X80516183Y-37593817D01*
X80679872Y-37728154D01*
X80866625Y-37827976D01*
X81069263Y-37889445D01*
X81227194Y-37905000D01*
X81332806Y-37905000D01*
X81490737Y-37889445D01*
X81693375Y-37827976D01*
X81797863Y-37772126D01*
X82905785Y-38880049D01*
X81214313Y-38880049D01*
X79682126Y-37347863D01*
X79737976Y-37243375D01*
X79799445Y-37040737D01*
X79820201Y-36830000D01*
X79799445Y-36619263D01*
X79737976Y-36416625D01*
X79638154Y-36229872D01*
X79503817Y-36066183D01*
X79340128Y-35931846D01*
X79153375Y-35832024D01*
X78950737Y-35770555D01*
X78792806Y-35755000D01*
X78687194Y-35755000D01*
X78529263Y-35770555D01*
X78326625Y-35832024D01*
X78139872Y-35931846D01*
X77976183Y-36066183D01*
X77841846Y-36229872D01*
X77742024Y-36416625D01*
X77680555Y-36619263D01*
X77659799Y-36830000D01*
X77680555Y-37040737D01*
X77742024Y-37243375D01*
X77841846Y-37430128D01*
X77976183Y-37593817D01*
X78139872Y-37728154D01*
X78326625Y-37827976D01*
X78529263Y-37889445D01*
X78687194Y-37905000D01*
X78792806Y-37905000D01*
X78950737Y-37889445D01*
X79153375Y-37827976D01*
X79257863Y-37772126D01*
X80665795Y-39180059D01*
X78974323Y-39180059D01*
X77142126Y-37347863D01*
X77197976Y-37243375D01*
X77259445Y-37040737D01*
X77280201Y-36830000D01*
X77259445Y-36619263D01*
X77197976Y-36416625D01*
X77098154Y-36229872D01*
X76963817Y-36066183D01*
X76800128Y-35931846D01*
X76613375Y-35832024D01*
X76410737Y-35770555D01*
X76252806Y-35755000D01*
X76147194Y-35755000D01*
X75989263Y-35770555D01*
X75786625Y-35832024D01*
X75599872Y-35931846D01*
X75436183Y-36066183D01*
X75301846Y-36229872D01*
X75202024Y-36416625D01*
X75140555Y-36619263D01*
X75119799Y-36830000D01*
X75140555Y-37040737D01*
X75202024Y-37243375D01*
X75301846Y-37430128D01*
X75436183Y-37593817D01*
X75599872Y-37728154D01*
X75786625Y-37827976D01*
X75989263Y-37889445D01*
X76147194Y-37905000D01*
X76252806Y-37905000D01*
X76410737Y-37889445D01*
X76613375Y-37827976D01*
X76717863Y-37772126D01*
X78425805Y-39480069D01*
X76734333Y-39480069D01*
X74602126Y-37347863D01*
X74657976Y-37243375D01*
X74719445Y-37040737D01*
X74740201Y-36830000D01*
X74719445Y-36619263D01*
X74657976Y-36416625D01*
X74558154Y-36229872D01*
X74423817Y-36066183D01*
X74260128Y-35931846D01*
X74073375Y-35832024D01*
X73870737Y-35770555D01*
X73712806Y-35755000D01*
X73607194Y-35755000D01*
X73449263Y-35770555D01*
X73246625Y-35832024D01*
X73059872Y-35931846D01*
X72896183Y-36066183D01*
X72761846Y-36229872D01*
X72662024Y-36416625D01*
X72600555Y-36619263D01*
X72579799Y-36830000D01*
X72583681Y-36869418D01*
X72342553Y-36628290D01*
X72333158Y-36616842D01*
X72287477Y-36579353D01*
X72235360Y-36551496D01*
X72196088Y-36539582D01*
X72196088Y-35980000D01*
X72191744Y-35935892D01*
X72178878Y-35893480D01*
X72157985Y-35854392D01*
X72129868Y-35820132D01*
X72095608Y-35792015D01*
X72056520Y-35771122D01*
X72014108Y-35758256D01*
X71970000Y-35753912D01*
X70270000Y-35753912D01*
X70225892Y-35758256D01*
X70183480Y-35771122D01*
X70144392Y-35792015D01*
X70110132Y-35820132D01*
X70082015Y-35854392D01*
X70061122Y-35893480D01*
X70048256Y-35935892D01*
X70043912Y-35980000D01*
X69049426Y-35980000D01*
X69050348Y-35976948D01*
X69255455Y-35591198D01*
X69531585Y-35252631D01*
X69868211Y-34974150D01*
X70252523Y-34766353D01*
X70669871Y-34637162D01*
X71118520Y-34590007D01*
X71120477Y-34590000D01*
X124445330Y-34590000D01*
X124894804Y-34634071D01*
G36*
X94995064Y-52360334D02*
G01*
X95034152Y-52381227D01*
X95075905Y-52393893D01*
X95088571Y-52435646D01*
X95109464Y-52474734D01*
X95121644Y-52489575D01*
X94072327Y-53538893D01*
X94032806Y-53535000D01*
X93927194Y-53535000D01*
X93778756Y-53549620D01*
X94980223Y-52348154D01*
X94995064Y-52360334D01*
X94995064Y-52360334D01*
G37*
X94995064Y-52360334D02*
X95034152Y-52381227D01*
X95075905Y-52393893D01*
X95088571Y-52435646D01*
X95109464Y-52474734D01*
X95121644Y-52489575D01*
X94072327Y-53538893D01*
X94032806Y-53535000D01*
X93927194Y-53535000D01*
X93778756Y-53549620D01*
X94980223Y-52348154D01*
X94995064Y-52360334D01*
G36*
X94429378Y-51794649D02*
G01*
X94468466Y-51815542D01*
X94510220Y-51828208D01*
X94522886Y-51869961D01*
X94543779Y-51909049D01*
X94555959Y-51923890D01*
X93019849Y-53460001D01*
X92737004Y-53460001D01*
X94414537Y-51782469D01*
X94429378Y-51794649D01*
X94429378Y-51794649D01*
G37*
X94429378Y-51794649D02*
X94468466Y-51815542D01*
X94510220Y-51828208D01*
X94522886Y-51869961D01*
X94543779Y-51909049D01*
X94555959Y-51923890D01*
X93019849Y-53460001D01*
X92737004Y-53460001D01*
X94414537Y-51782469D01*
X94429378Y-51794649D01*
G36*
X93863693Y-51228963D02*
G01*
X93902781Y-51249856D01*
X93944534Y-51262522D01*
X93957200Y-51304276D01*
X93978093Y-51343364D01*
X93990273Y-51358205D01*
X92188488Y-53159991D01*
X91905643Y-53159991D01*
X93848852Y-51216783D01*
X93863693Y-51228963D01*
X93863693Y-51228963D01*
G37*
X93863693Y-51228963D02*
X93902781Y-51249856D01*
X93944534Y-51262522D01*
X93957200Y-51304276D01*
X93978093Y-51343364D01*
X93990273Y-51358205D01*
X92188488Y-53159991D01*
X91905643Y-53159991D01*
X93848852Y-51216783D01*
X93863693Y-51228963D01*
G36*
X93298007Y-50663278D02*
G01*
X93337095Y-50684171D01*
X93378849Y-50696837D01*
X93391515Y-50738590D01*
X93412408Y-50777678D01*
X93424588Y-50792519D01*
X91357127Y-52859981D01*
X91074282Y-52859981D01*
X93283166Y-50651098D01*
X93298007Y-50663278D01*
X93298007Y-50663278D01*
G37*
X93298007Y-50663278D02*
X93337095Y-50684171D01*
X93378849Y-50696837D01*
X93391515Y-50738590D01*
X93412408Y-50777678D01*
X93424588Y-50792519D01*
X91357127Y-52859981D01*
X91074282Y-52859981D01*
X93283166Y-50651098D01*
X93298007Y-50663278D01*
G36*
X92732322Y-50097592D02*
G01*
X92771410Y-50118485D01*
X92813163Y-50131151D01*
X92825829Y-50172905D01*
X92846722Y-50211993D01*
X92858902Y-50226834D01*
X90553737Y-52532000D01*
X90270892Y-52532000D01*
X92717481Y-50085412D01*
X92732322Y-50097592D01*
X92732322Y-50097592D01*
G37*
X92732322Y-50097592D02*
X92771410Y-50118485D01*
X92813163Y-50131151D01*
X92825829Y-50172905D01*
X92846722Y-50211993D01*
X92858902Y-50226834D01*
X90553737Y-52532000D01*
X90270892Y-52532000D01*
X92717481Y-50085412D01*
X92732322Y-50097592D01*
G36*
X92166636Y-49531907D02*
G01*
X92205724Y-49552800D01*
X92247478Y-49565466D01*
X92260144Y-49607219D01*
X92281037Y-49646307D01*
X92293217Y-49661148D01*
X89722376Y-52231990D01*
X89439531Y-52231990D01*
X92151795Y-49519727D01*
X92166636Y-49531907D01*
X92166636Y-49531907D01*
G37*
X92166636Y-49531907D02*
X92205724Y-49552800D01*
X92247478Y-49565466D01*
X92260144Y-49607219D01*
X92281037Y-49646307D01*
X92293217Y-49661148D01*
X89722376Y-52231990D01*
X89439531Y-52231990D01*
X92151795Y-49519727D01*
X92166636Y-49531907D01*
G36*
X91600951Y-48966221D02*
G01*
X91640039Y-48987114D01*
X91681792Y-48999780D01*
X91694458Y-49041534D01*
X91715351Y-49080622D01*
X91727531Y-49095463D01*
X88891015Y-51931980D01*
X88608170Y-51931980D01*
X91586110Y-48954041D01*
X91600951Y-48966221D01*
X91600951Y-48966221D01*
G37*
X91600951Y-48966221D02*
X91640039Y-48987114D01*
X91681792Y-48999780D01*
X91694458Y-49041534D01*
X91715351Y-49080622D01*
X91727531Y-49095463D01*
X88891015Y-51931980D01*
X88608170Y-51931980D01*
X91586110Y-48954041D01*
X91600951Y-48966221D01*
G36*
X91035266Y-48400536D02*
G01*
X91074354Y-48421429D01*
X91116107Y-48434095D01*
X91128773Y-48475848D01*
X91149666Y-48514936D01*
X91161846Y-48529777D01*
X88059654Y-51631970D01*
X87776810Y-51631970D01*
X91020425Y-48388356D01*
X91035266Y-48400536D01*
X91035266Y-48400536D01*
G37*
X91035266Y-48400536D02*
X91074354Y-48421429D01*
X91116107Y-48434095D01*
X91128773Y-48475848D01*
X91149666Y-48514936D01*
X91161846Y-48529777D01*
X88059654Y-51631970D01*
X87776810Y-51631970D01*
X91020425Y-48388356D01*
X91035266Y-48400536D01*
G36*
X90469580Y-47834851D02*
G01*
X90508668Y-47855744D01*
X90550422Y-47868410D01*
X90563088Y-47910163D01*
X90583981Y-47949251D01*
X90596161Y-47964092D01*
X87302449Y-51257805D01*
X87019980Y-51257805D01*
X87021699Y-51255710D01*
X90454739Y-47822671D01*
X90469580Y-47834851D01*
X90469580Y-47834851D01*
G37*
X90469580Y-47834851D02*
X90508668Y-47855744D01*
X90550422Y-47868410D01*
X90563088Y-47910163D01*
X90583981Y-47949251D01*
X90596161Y-47964092D01*
X87302449Y-51257805D01*
X87019980Y-51257805D01*
X87021699Y-51255710D01*
X90454739Y-47822671D01*
X90469580Y-47834851D01*
G36*
X101801243Y-53549620D02*
G01*
X101652806Y-53535000D01*
X101547194Y-53535000D01*
X101507674Y-53538892D01*
X100458356Y-52489576D01*
X100470536Y-52474734D01*
X100491429Y-52435646D01*
X100504095Y-52393893D01*
X100545848Y-52381227D01*
X100584936Y-52360334D01*
X100599778Y-52348154D01*
X101801243Y-53549620D01*
X101801243Y-53549620D01*
G37*
X101801243Y-53549620D02*
X101652806Y-53535000D01*
X101547194Y-53535000D01*
X101507674Y-53538892D01*
X100458356Y-52489576D01*
X100470536Y-52474734D01*
X100491429Y-52435646D01*
X100504095Y-52393893D01*
X100545848Y-52381227D01*
X100584936Y-52360334D01*
X100599778Y-52348154D01*
X101801243Y-53549620D01*
G36*
X102842995Y-53460001D02*
G01*
X102560152Y-53460001D01*
X101024041Y-51923891D01*
X101036221Y-51909049D01*
X101057114Y-51869961D01*
X101069780Y-51828208D01*
X101111534Y-51815542D01*
X101150622Y-51794649D01*
X101165464Y-51782469D01*
X102842995Y-53460001D01*
X102842995Y-53460001D01*
G37*
X102842995Y-53460001D02*
X102560152Y-53460001D01*
X101024041Y-51923891D01*
X101036221Y-51909049D01*
X101057114Y-51869961D01*
X101069780Y-51828208D01*
X101111534Y-51815542D01*
X101150622Y-51794649D01*
X101165464Y-51782469D01*
X102842995Y-53460001D01*
G36*
X103674356Y-53159991D02*
G01*
X103391513Y-53159991D01*
X101589727Y-51358206D01*
X101601907Y-51343364D01*
X101622800Y-51304276D01*
X101635466Y-51262522D01*
X101677219Y-51249856D01*
X101716307Y-51228963D01*
X101731149Y-51216783D01*
X103674356Y-53159991D01*
X103674356Y-53159991D01*
G37*
X103674356Y-53159991D02*
X103391513Y-53159991D01*
X101589727Y-51358206D01*
X101601907Y-51343364D01*
X101622800Y-51304276D01*
X101635466Y-51262522D01*
X101677219Y-51249856D01*
X101716307Y-51228963D01*
X101731149Y-51216783D01*
X103674356Y-53159991D01*
G36*
X104505717Y-52859981D02*
G01*
X104222874Y-52859981D01*
X102155412Y-50792520D01*
X102167592Y-50777678D01*
X102188485Y-50738590D01*
X102201151Y-50696837D01*
X102242905Y-50684171D01*
X102281993Y-50663278D01*
X102296835Y-50651098D01*
X104505717Y-52859981D01*
X104505717Y-52859981D01*
G37*
X104505717Y-52859981D02*
X104222874Y-52859981D01*
X102155412Y-50792520D01*
X102167592Y-50777678D01*
X102188485Y-50738590D01*
X102201151Y-50696837D01*
X102242905Y-50684171D01*
X102281993Y-50663278D01*
X102296835Y-50651098D01*
X104505717Y-52859981D01*
G36*
X105337078Y-52559971D02*
G01*
X105054235Y-52559971D01*
X102721098Y-50226835D01*
X102733278Y-50211993D01*
X102754171Y-50172905D01*
X102766837Y-50131151D01*
X102808590Y-50118485D01*
X102847678Y-50097592D01*
X102862520Y-50085412D01*
X105337078Y-52559971D01*
X105337078Y-52559971D01*
G37*
X105337078Y-52559971D02*
X105054235Y-52559971D01*
X102721098Y-50226835D01*
X102733278Y-50211993D01*
X102754171Y-50172905D01*
X102766837Y-50131151D01*
X102808590Y-50118485D01*
X102847678Y-50097592D01*
X102862520Y-50085412D01*
X105337078Y-52559971D01*
G36*
X106168439Y-52259961D02*
G01*
X105885596Y-52259961D01*
X103286783Y-49661149D01*
X103298963Y-49646307D01*
X103319856Y-49607219D01*
X103332522Y-49565466D01*
X103374276Y-49552800D01*
X103413364Y-49531907D01*
X103428206Y-49519727D01*
X106168439Y-52259961D01*
X106168439Y-52259961D01*
G37*
X106168439Y-52259961D02*
X105885596Y-52259961D01*
X103286783Y-49661149D01*
X103298963Y-49646307D01*
X103319856Y-49607219D01*
X103332522Y-49565466D01*
X103374276Y-49552800D01*
X103413364Y-49531907D01*
X103428206Y-49519727D01*
X106168439Y-52259961D01*
G36*
X106999800Y-51959951D02*
G01*
X106716957Y-51959951D01*
X103852469Y-49095464D01*
X103864649Y-49080622D01*
X103885542Y-49041534D01*
X103898208Y-48999780D01*
X103939961Y-48987114D01*
X103979049Y-48966221D01*
X103993891Y-48954041D01*
X106999800Y-51959951D01*
X106999800Y-51959951D01*
G37*
X106999800Y-51959951D02*
X106716957Y-51959951D01*
X103852469Y-49095464D01*
X103864649Y-49080622D01*
X103885542Y-49041534D01*
X103898208Y-48999780D01*
X103939961Y-48987114D01*
X103979049Y-48966221D01*
X103993891Y-48954041D01*
X106999800Y-51959951D01*
G36*
X107831160Y-51659941D02*
G01*
X107548318Y-51659941D01*
X104418154Y-48529778D01*
X104430334Y-48514936D01*
X104451227Y-48475848D01*
X104463893Y-48434095D01*
X104505646Y-48421429D01*
X104544734Y-48400536D01*
X104559576Y-48388356D01*
X107831160Y-51659941D01*
X107831160Y-51659941D01*
G37*
X107831160Y-51659941D02*
X107548318Y-51659941D01*
X104418154Y-48529778D01*
X104430334Y-48514936D01*
X104451227Y-48475848D01*
X104463893Y-48434095D01*
X104505646Y-48421429D01*
X104544734Y-48400536D01*
X104559576Y-48388356D01*
X107831160Y-51659941D01*
G36*
X108662520Y-51359931D02*
G01*
X108379678Y-51359931D01*
X104983839Y-47964093D01*
X104996019Y-47949251D01*
X105016912Y-47910163D01*
X105029578Y-47868410D01*
X105071332Y-47855744D01*
X105110420Y-47834851D01*
X105125261Y-47822671D01*
X108662520Y-51359931D01*
X108662520Y-51359931D01*
G37*
X108662520Y-51359931D02*
X108379678Y-51359931D01*
X104983839Y-47964093D01*
X104996019Y-47949251D01*
X105016912Y-47910163D01*
X105029578Y-47868410D01*
X105071332Y-47855744D01*
X105110420Y-47834851D01*
X105125261Y-47822671D01*
X108662520Y-51359931D01*
G36*
X105125261Y-43617329D02*
G01*
X105110420Y-43605149D01*
X105071332Y-43584256D01*
X105029578Y-43571590D01*
X105016912Y-43529837D01*
X104996019Y-43490749D01*
X104983839Y-43475908D01*
X108143718Y-40316029D01*
X108426561Y-40316029D01*
X105125261Y-43617329D01*
X105125261Y-43617329D01*
G37*
X105125261Y-43617329D02*
X105110420Y-43605149D01*
X105071332Y-43584256D01*
X105029578Y-43571590D01*
X105016912Y-43529837D01*
X104996019Y-43490749D01*
X104983839Y-43475908D01*
X108143718Y-40316029D01*
X108426561Y-40316029D01*
X105125261Y-43617329D01*
G36*
X104559575Y-43051644D02*
G01*
X104544734Y-43039464D01*
X104505646Y-43018571D01*
X104463893Y-43005905D01*
X104451227Y-42964152D01*
X104430334Y-42925064D01*
X104418154Y-42910222D01*
X107312358Y-40016019D01*
X107595200Y-40016019D01*
X104559575Y-43051644D01*
X104559575Y-43051644D01*
G37*
X104559575Y-43051644D02*
X104544734Y-43039464D01*
X104505646Y-43018571D01*
X104463893Y-43005905D01*
X104451227Y-42964152D01*
X104430334Y-42925064D01*
X104418154Y-42910222D01*
X107312358Y-40016019D01*
X107595200Y-40016019D01*
X104559575Y-43051644D01*
G36*
X103993891Y-42485959D02*
G01*
X103979049Y-42473779D01*
X103939961Y-42452886D01*
X103898208Y-42440220D01*
X103885542Y-42398466D01*
X103864649Y-42359378D01*
X103852469Y-42344537D01*
X106480996Y-39716010D01*
X106763839Y-39716010D01*
X103993891Y-42485959D01*
X103993891Y-42485959D01*
G37*
X103993891Y-42485959D02*
X103979049Y-42473779D01*
X103939961Y-42452886D01*
X103898208Y-42440220D01*
X103885542Y-42398466D01*
X103864649Y-42359378D01*
X103852469Y-42344537D01*
X106480996Y-39716010D01*
X106763839Y-39716010D01*
X103993891Y-42485959D01*
G36*
X103428205Y-41920273D02*
G01*
X103413364Y-41908093D01*
X103374276Y-41887200D01*
X103332522Y-41874534D01*
X103319856Y-41832781D01*
X103298963Y-41793693D01*
X103286783Y-41778852D01*
X105649636Y-39416000D01*
X105932478Y-39416000D01*
X103428205Y-41920273D01*
X103428205Y-41920273D01*
G37*
X103428205Y-41920273D02*
X103413364Y-41908093D01*
X103374276Y-41887200D01*
X103332522Y-41874534D01*
X103319856Y-41832781D01*
X103298963Y-41793693D01*
X103286783Y-41778852D01*
X105649636Y-39416000D01*
X105932478Y-39416000D01*
X103428205Y-41920273D01*
G36*
X102862519Y-41354588D02*
G01*
X102847678Y-41342408D01*
X102808590Y-41321515D01*
X102766837Y-41308849D01*
X102754171Y-41267095D01*
X102733278Y-41228007D01*
X102721098Y-41213165D01*
X104980254Y-38954010D01*
X105263096Y-38954010D01*
X102862519Y-41354588D01*
X102862519Y-41354588D01*
G37*
X102862519Y-41354588D02*
X102847678Y-41342408D01*
X102808590Y-41321515D01*
X102766837Y-41308849D01*
X102754171Y-41267095D01*
X102733278Y-41228007D01*
X102721098Y-41213165D01*
X104980254Y-38954010D01*
X105263096Y-38954010D01*
X102862519Y-41354588D01*
G36*
X102296835Y-40788902D02*
G01*
X102281993Y-40776722D01*
X102242905Y-40755829D01*
X102201151Y-40743163D01*
X102188485Y-40701410D01*
X102167592Y-40662322D01*
X102155412Y-40647481D01*
X104148893Y-38654000D01*
X104431736Y-38654000D01*
X102296835Y-40788902D01*
X102296835Y-40788902D01*
G37*
X102296835Y-40788902D02*
X102281993Y-40776722D01*
X102242905Y-40755829D01*
X102201151Y-40743163D01*
X102188485Y-40701410D01*
X102167592Y-40662322D01*
X102155412Y-40647481D01*
X104148893Y-38654000D01*
X104431736Y-38654000D01*
X102296835Y-40788902D01*
G36*
X101731148Y-40223217D02*
G01*
X101716307Y-40211037D01*
X101677219Y-40190144D01*
X101635466Y-40177478D01*
X101622800Y-40135724D01*
X101601907Y-40096636D01*
X101589727Y-40081794D01*
X103391513Y-38280009D01*
X103674356Y-38280009D01*
X101731148Y-40223217D01*
X101731148Y-40223217D01*
G37*
X101731148Y-40223217D02*
X101716307Y-40211037D01*
X101677219Y-40190144D01*
X101635466Y-40177478D01*
X101622800Y-40135724D01*
X101601907Y-40096636D01*
X101589727Y-40081794D01*
X103391513Y-38280009D01*
X103674356Y-38280009D01*
X101731148Y-40223217D01*
G36*
X101165464Y-39657531D02*
G01*
X101150622Y-39645351D01*
X101111534Y-39624458D01*
X101069780Y-39611792D01*
X101057114Y-39570039D01*
X101036221Y-39530951D01*
X101024041Y-39516109D01*
X102560152Y-37979999D01*
X102842995Y-37979999D01*
X101165464Y-39657531D01*
X101165464Y-39657531D01*
G37*
X101165464Y-39657531D02*
X101150622Y-39645351D01*
X101111534Y-39624458D01*
X101069780Y-39611792D01*
X101057114Y-39570039D01*
X101036221Y-39530951D01*
X101024041Y-39516109D01*
X102560152Y-37979999D01*
X102842995Y-37979999D01*
X101165464Y-39657531D01*
G36*
X100599778Y-39091846D02*
G01*
X100584936Y-39079666D01*
X100545848Y-39058773D01*
X100504095Y-39046107D01*
X100491429Y-39004354D01*
X100470536Y-38965266D01*
X100458356Y-38950425D01*
X101507673Y-37901108D01*
X101547194Y-37905000D01*
X101652806Y-37905000D01*
X101801243Y-37890380D01*
X100599778Y-39091846D01*
X100599778Y-39091846D01*
G37*
X100599778Y-39091846D02*
X100584936Y-39079666D01*
X100545848Y-39058773D01*
X100504095Y-39046107D01*
X100491429Y-39004354D01*
X100470536Y-38965266D01*
X100458356Y-38950425D01*
X101507673Y-37901108D01*
X101547194Y-37905000D01*
X101652806Y-37905000D01*
X101801243Y-37890380D01*
X100599778Y-39091846D01*
G36*
X90596161Y-43475908D02*
G01*
X90583981Y-43490749D01*
X90563088Y-43529837D01*
X90550422Y-43571590D01*
X90508668Y-43584256D01*
X90469580Y-43605149D01*
X90454739Y-43617329D01*
X86917478Y-40080069D01*
X87200323Y-40080069D01*
X90596161Y-43475908D01*
X90596161Y-43475908D01*
G37*
X90596161Y-43475908D02*
X90583981Y-43490749D01*
X90563088Y-43529837D01*
X90550422Y-43571590D01*
X90508668Y-43584256D01*
X90469580Y-43605149D01*
X90454739Y-43617329D01*
X86917478Y-40080069D01*
X87200323Y-40080069D01*
X90596161Y-43475908D01*
G36*
X91161846Y-42910223D02*
G01*
X91149666Y-42925064D01*
X91128773Y-42964152D01*
X91116107Y-43005905D01*
X91074354Y-43018571D01*
X91035266Y-43039464D01*
X91020425Y-43051644D01*
X87748839Y-39780059D01*
X88031683Y-39780059D01*
X91161846Y-42910223D01*
X91161846Y-42910223D01*
G37*
X91161846Y-42910223D02*
X91149666Y-42925064D01*
X91128773Y-42964152D01*
X91116107Y-43005905D01*
X91074354Y-43018571D01*
X91035266Y-43039464D01*
X91020425Y-43051644D01*
X87748839Y-39780059D01*
X88031683Y-39780059D01*
X91161846Y-42910223D01*
G36*
X91727531Y-42344537D02*
G01*
X91715351Y-42359378D01*
X91694458Y-42398466D01*
X91681792Y-42440220D01*
X91640039Y-42452886D01*
X91600951Y-42473779D01*
X91586110Y-42485959D01*
X88580199Y-39480049D01*
X88863044Y-39480049D01*
X91727531Y-42344537D01*
X91727531Y-42344537D01*
G37*
X91727531Y-42344537D02*
X91715351Y-42359378D01*
X91694458Y-42398466D01*
X91681792Y-42440220D01*
X91640039Y-42452886D01*
X91600951Y-42473779D01*
X91586110Y-42485959D01*
X88580199Y-39480049D01*
X88863044Y-39480049D01*
X91727531Y-42344537D01*
G36*
X92293217Y-41778852D02*
G01*
X92281037Y-41793693D01*
X92260144Y-41832781D01*
X92247478Y-41874534D01*
X92205724Y-41887200D01*
X92166636Y-41908093D01*
X92151795Y-41920273D01*
X89411560Y-39180039D01*
X89694405Y-39180039D01*
X92293217Y-41778852D01*
X92293217Y-41778852D01*
G37*
X92293217Y-41778852D02*
X92281037Y-41793693D01*
X92260144Y-41832781D01*
X92247478Y-41874534D01*
X92205724Y-41887200D01*
X92166636Y-41908093D01*
X92151795Y-41920273D01*
X89411560Y-39180039D01*
X89694405Y-39180039D01*
X92293217Y-41778852D01*
G36*
X92858902Y-41213166D02*
G01*
X92846722Y-41228007D01*
X92825829Y-41267095D01*
X92813163Y-41308849D01*
X92771410Y-41321515D01*
X92732322Y-41342408D01*
X92717481Y-41354588D01*
X90242921Y-38880029D01*
X90525766Y-38880029D01*
X92858902Y-41213166D01*
X92858902Y-41213166D01*
G37*
X92858902Y-41213166D02*
X92846722Y-41228007D01*
X92825829Y-41267095D01*
X92813163Y-41308849D01*
X92771410Y-41321515D01*
X92732322Y-41342408D01*
X92717481Y-41354588D01*
X90242921Y-38880029D01*
X90525766Y-38880029D01*
X92858902Y-41213166D01*
G36*
X93424588Y-40647481D02*
G01*
X93412408Y-40662322D01*
X93391515Y-40701410D01*
X93378849Y-40743163D01*
X93337095Y-40755829D01*
X93298007Y-40776722D01*
X93283166Y-40788902D01*
X91074282Y-38580019D01*
X91357127Y-38580019D01*
X93424588Y-40647481D01*
X93424588Y-40647481D01*
G37*
X93424588Y-40647481D02*
X93412408Y-40662322D01*
X93391515Y-40701410D01*
X93378849Y-40743163D01*
X93337095Y-40755829D01*
X93298007Y-40776722D01*
X93283166Y-40788902D01*
X91074282Y-38580019D01*
X91357127Y-38580019D01*
X93424588Y-40647481D01*
G36*
X93990273Y-40081795D02*
G01*
X93978093Y-40096636D01*
X93957200Y-40135724D01*
X93944534Y-40177478D01*
X93902781Y-40190144D01*
X93863693Y-40211037D01*
X93848852Y-40223217D01*
X91905643Y-38280009D01*
X92188488Y-38280009D01*
X93990273Y-40081795D01*
X93990273Y-40081795D01*
G37*
X93990273Y-40081795D02*
X93978093Y-40096636D01*
X93957200Y-40135724D01*
X93944534Y-40177478D01*
X93902781Y-40190144D01*
X93863693Y-40211037D01*
X93848852Y-40223217D01*
X91905643Y-38280009D01*
X92188488Y-38280009D01*
X93990273Y-40081795D01*
G36*
X76237736Y-39832000D02*
G01*
X75546264Y-39832000D01*
X73619263Y-37905000D01*
X73712806Y-37905000D01*
X73870737Y-37889445D01*
X74073375Y-37827976D01*
X74177863Y-37772126D01*
X76237736Y-39832000D01*
X76237736Y-39832000D01*
G37*
X76237736Y-39832000D02*
X75546264Y-39832000D01*
X73619263Y-37905000D01*
X73712806Y-37905000D01*
X73870737Y-37889445D01*
X74073375Y-37827976D01*
X74177863Y-37772126D01*
X76237736Y-39832000D01*
G36*
X94555959Y-39516110D02*
G01*
X94543779Y-39530951D01*
X94522886Y-39570039D01*
X94510220Y-39611792D01*
X94468466Y-39624458D01*
X94429378Y-39645351D01*
X94414537Y-39657531D01*
X92737004Y-37979999D01*
X93019849Y-37979999D01*
X94555959Y-39516110D01*
X94555959Y-39516110D01*
G37*
X94555959Y-39516110D02*
X94543779Y-39530951D01*
X94522886Y-39570039D01*
X94510220Y-39611792D01*
X94468466Y-39624458D01*
X94429378Y-39645351D01*
X94414537Y-39657531D01*
X92737004Y-37979999D01*
X93019849Y-37979999D01*
X94555959Y-39516110D01*
G36*
X93927194Y-37905000D02*
G01*
X94032806Y-37905000D01*
X94072327Y-37901107D01*
X95121644Y-38950425D01*
X95109464Y-38965266D01*
X95088571Y-39004354D01*
X95075905Y-39046107D01*
X95034152Y-39058773D01*
X94995064Y-39079666D01*
X94980223Y-39091846D01*
X93778756Y-37890380D01*
X93927194Y-37905000D01*
X93927194Y-37905000D01*
G37*
X93927194Y-37905000D02*
X94032806Y-37905000D01*
X94072327Y-37901107D01*
X95121644Y-38950425D01*
X95109464Y-38965266D01*
X95088571Y-39004354D01*
X95075905Y-39046107D01*
X95034152Y-39058773D01*
X94995064Y-39079666D01*
X94980223Y-39091846D01*
X93778756Y-37890380D01*
X93927194Y-37905000D01*
M02*
