<?xml version="1.0" standalone="no"?>
 <!DOCTYPE svg PUBLIC "-//W3C//DTD SVG 1.1//EN" 
 "http://www.w3.org/Graphics/SVG/1.1/DTD/svg11.dtd"> 
<svg xmlns="http://www.w3.org/2000/svg" version="1.1" 
    width="7.98322cm" height="3.35026cm" viewBox="0 0 31430 13190 ">
<title>SVG Picture created as TQFP44-brd.svg date 2020/07/11 17:12:06 </title>
  <desc>Picture generated by PCBNEW </desc>
<g style="fill:#000000; fill-opacity:1;stroke:#000000; stroke-opacity:1;
stroke-linecap:round; stroke-linejoin:round; "
 transform="translate(0 0) scale(1 1)">
</g>
<g style="fill:#000000; fill-opacity:0.0; 
stroke:#000000; stroke-width:-0.000393701; stroke-opacity:1; 
stroke-linecap:round; stroke-linejoin:round;">
</g>
<g style="fill:#840084; fill-opacity:0.0; 
stroke:#840084; stroke-width:-0.000393701; stroke-opacity:1; 
stroke-linecap:round; stroke-linejoin:round;">
</g>
<g style="fill:#840084; fill-opacity:0.0; 
stroke:#840084; stroke-width:39.3701; stroke-opacity:1; 
stroke-linecap:round; stroke-linejoin:round;">
<path d="M18896 4796
L18761 4796
" />
<path d="M18829 5033
L18829 4796
" />
<path d="M18525 5055
L18548 5044
L18570 5021
L18604 4988
L18626 4976
L18649 4976
" />
<path d="M18638 5033
L18660 5021
L18683 4999
L18694 4954
L18694 4875
L18683 4830
L18660 4808
L18638 4796
L18593 4796
L18570 4808
L18548 4830
L18536 4875
L18536 4954
L18548 4999
L18570 5021
L18593 5033
L18638 5033
" />
<path d="M18356 4909
L18435 4909
" />
<path d="M18435 5033
L18435 4796
L18323 4796
" />
<path d="M18233 5033
L18233 4796
L18143 4796
L18120 4808
L18109 4819
L18098 4841
L18098 4875
L18109 4898
L18120 4909
L18143 4920
L18233 4920
" />
<path d="M17895 4875
L17895 5033
" />
<path d="M17951 4785
L18008 4954
L17861 4954
" />
<path d="M17670 4875
L17670 5033
" />
<path d="M17726 4785
L17783 4954
L17636 4954
" />
<path d="M17288 4909
L17254 4920
L17243 4931
L17232 4954
L17232 4988
L17243 5010
L17254 5021
L17276 5033
L17366 5033
L17366 4796
L17288 4796
L17265 4808
L17254 4819
L17243 4841
L17243 4864
L17254 4886
L17265 4898
L17288 4909
L17366 4909
" />
<path d="M17130 5033
L17130 4875
" />
<path d="M17130 4920
L17119 4898
L17108 4886
L17085 4875
L17063 4875
" />
<path d="M16894 5021
L16917 5033
L16962 5033
L16984 5021
L16995 4999
L16995 4909
L16984 4886
L16962 4875
L16917 4875
L16894 4886
L16883 4909
L16883 4931
L16995 4954
" />
<path d="M16680 5033
L16680 4909
L16692 4886
L16714 4875
L16759 4875
L16782 4886
" />
<path d="M16680 5021
L16703 5033
L16759 5033
L16782 5021
L16793 4999
L16793 4976
L16782 4954
L16759 4943
L16703 4943
L16680 4931
" />
<path d="M16568 5033
L16568 4796
" />
<path d="M16545 4943
L16478 5033
" />
<path d="M16478 4875
L16568 4965
" />
<path d="M16343 5033
L16365 5021
L16377 5010
L16388 4988
L16388 4920
L16377 4898
L16365 4886
L16343 4875
L16309 4875
L16287 4886
L16275 4898
L16264 4920
L16264 4988
L16275 5010
L16287 5021
L16309 5033
L16343 5033
" />
<path d="M16062 4875
L16062 5033
" />
<path d="M16163 4875
L16163 4999
L16152 5021
L16129 5033
L16095 5033
L16073 5021
L16062 5010
" />
<path d="M15983 4875
L15893 4875
" />
<path d="M15949 4796
L15949 4999
L15938 5021
L15915 5033
L15893 5033
" />
<path d="M15499 5033
L15578 4920
" />
<path d="M15634 5033
L15634 4796
L15544 4796
L15522 4808
L15510 4819
L15499 4841
L15499 4875
L15510 4898
L15522 4909
L15544 4920
L15634 4920
" />
<path d="M15308 5021
L15330 5033
L15375 5033
L15398 5021
L15409 4999
L15409 4909
L15398 4886
L15375 4875
L15330 4875
L15308 4886
L15297 4909
L15297 4931
L15409 4954
" />
<path d="M15218 4875
L15162 5033
L15106 4875
" />
<path d="M14847 4965
L14734 4965
" />
<path d="M14869 5033
L14791 4796
L14712 5033
" />
<path d="M18874 5213
L18863 5201
L18840 5190
L18784 5190
L18761 5201
L18750 5213
L18739 5235
L18739 5258
L18750 5291
L18885 5426
L18739 5426
" />
<path d="M18593 5190
L18570 5190
L18548 5201
L18536 5213
L18525 5235
L18514 5280
L18514 5336
L18525 5381
L18536 5404
L18548 5415
L18570 5426
L18593 5426
L18615 5415
L18626 5404
L18638 5381
L18649 5336
L18649 5280
L18638 5235
L18626 5213
L18615 5201
L18593 5190
" />
<path d="M18289 5426
L18424 5426
" />
<path d="M18356 5426
L18356 5190
L18379 5224
L18401 5246
L18424 5258
" />
<path d="M18176 5426
L18131 5426
L18109 5415
L18098 5404
L18075 5370
L18064 5325
L18064 5235
L18075 5213
L18086 5201
L18109 5190
L18154 5190
L18176 5201
L18188 5213
L18199 5235
L18199 5291
L18188 5314
L18176 5325
L18154 5336
L18109 5336
L18086 5325
L18075 5314
L18064 5291
" />
<path d="M17783 5426
L17783 5190
L17726 5190
L17693 5201
L17670 5224
L17659 5246
L17648 5291
L17648 5325
L17659 5370
L17670 5393
L17693 5415
L17726 5426
L17783 5426
" />
<path d="M17513 5426
L17535 5415
L17546 5404
L17558 5381
L17558 5314
L17546 5291
L17535 5280
L17513 5269
L17479 5269
L17456 5280
L17445 5291
L17434 5314
L17434 5381
L17445 5404
L17456 5415
L17479 5426
L17513 5426
" />
<path d="M17333 5426
L17333 5269
" />
<path d="M17333 5291
L17321 5280
L17299 5269
L17265 5269
L17243 5280
L17232 5303
L17232 5426
" />
<path d="M17232 5303
L17220 5280
L17198 5269
L17164 5269
L17142 5280
L17130 5303
L17130 5426
" />
<path d="M17018 5426
L17018 5269
" />
<path d="M17018 5190
L17029 5201
L17018 5213
L17007 5201
L17018 5190
L17018 5213
" />
<path d="M16905 5269
L16905 5426
" />
<path d="M16905 5291
L16894 5280
L16872 5269
L16838 5269
L16815 5280
L16804 5303
L16804 5426
" />
<path d="M16692 5426
L16692 5269
" />
<path d="M16692 5190
L16703 5201
L16692 5213
L16680 5201
L16692 5190
L16692 5213
" />
<path d="M16478 5415
L16500 5426
L16545 5426
L16568 5415
L16579 5404
L16590 5381
L16590 5314
L16579 5291
L16568 5280
L16545 5269
L16500 5269
L16478 5280
" />
<path d="M16230 5190
L16095 5190
" />
<path d="M16163 5426
L16163 5190
" />
<path d="M16017 5426
L16017 5190
" />
<path d="M15915 5426
L15915 5303
L15927 5280
L15949 5269
L15983 5269
L16005 5280
L16017 5291
" />
<path d="M15803 5426
L15803 5269
" />
<path d="M15803 5190
L15814 5201
L15803 5213
L15792 5201
L15803 5190
L15803 5213
" />
<path d="M15690 5426
L15690 5190
" />
<path d="M15690 5280
L15668 5269
L15623 5269
L15600 5280
L15589 5291
L15578 5314
L15578 5381
L15589 5404
L15600 5415
L15623 5426
L15668 5426
L15690 5415
" />
<path d="M15443 5426
L15465 5415
L15477 5404
L15488 5381
L15488 5314
L15477 5291
L15465 5280
L15443 5269
L15409 5269
L15387 5280
L15375 5291
L15364 5314
L15364 5381
L15375 5404
L15387 5415
L15409 5426
L15443 5426
" />
<path d="M15162 5426
L15162 5190
" />
<path d="M15162 5415
L15184 5426
L15229 5426
L15252 5415
L15263 5404
L15274 5381
L15274 5314
L15263 5291
L15252 5280
L15229 5269
L15184 5269
L15162 5280
" />
<path d="M14959 5415
L14982 5426
L15027 5426
L15049 5415
L15061 5393
L15061 5303
L15049 5280
L15027 5269
L14982 5269
L14959 5280
L14948 5303
L14948 5325
L15061 5348
" />
<path d="M14746 5426
L14746 5303
L14757 5280
L14779 5269
L14824 5269
L14847 5280
" />
<path d="M14746 5415
L14768 5426
L14824 5426
L14847 5415
L14858 5393
L14858 5370
L14847 5348
L14824 5336
L14768 5336
L14746 5325
" />
<path d="M14532 5269
L14532 5426
" />
<path d="M14633 5269
L14633 5393
L14622 5415
L14599 5426
L14566 5426
L14543 5415
L14532 5404
" />
<path d="M18761 5820
L18761 5584
" />
<path d="M18761 5809
L18784 5820
L18829 5820
L18851 5809
L18863 5797
L18874 5775
L18874 5708
L18863 5685
L18851 5674
L18829 5663
L18784 5663
L18761 5674
" />
<path d="M18559 5809
L18581 5820
L18626 5820
L18649 5809
L18660 5786
L18660 5696
L18649 5674
L18626 5663
L18581 5663
L18559 5674
L18548 5696
L18548 5719
L18660 5741
" />
<path d="M18469 5663
L18413 5820
L18356 5663
" />
<path d="M18120 5708
L18131 5696
L18154 5685
L18176 5685
L18199 5696
L18210 5708
L18221 5730
L18221 5752
L18210 5775
L18199 5786
L18176 5797
L18154 5797
L18131 5786
L18120 5775
" />
<path d="M18120 5685
L18120 5775
L18109 5786
L18098 5786
L18075 5775
L18064 5752
L18064 5696
L18086 5663
L18120 5640
L18165 5629
L18210 5640
L18244 5663
L18266 5696
L18278 5741
L18266 5786
L18244 5820
L18210 5842
L18165 5854
L18120 5842
L18086 5820
" />
<path d="M17963 5820
L17963 5584
" />
<path d="M17861 5820
L17861 5696
L17873 5674
L17895 5663
L17929 5663
L17951 5674
L17963 5685
" />
<path d="M17715 5820
L17738 5809
L17749 5797
L17760 5775
L17760 5708
L17749 5685
L17738 5674
L17715 5663
L17681 5663
L17659 5674
L17648 5685
L17636 5708
L17636 5775
L17648 5797
L17659 5809
L17681 5820
L17715 5820
" />
<path d="M17569 5663
L17479 5663
" />
<path d="M17535 5584
L17535 5786
L17524 5809
L17501 5820
L17479 5820
" />
<path d="M17400 5820
L17400 5584
" />
<path d="M17378 5730
L17310 5820
" />
<path d="M17310 5663
L17400 5752
" />
<path d="M17119 5809
L17142 5820
L17187 5820
L17209 5809
L17220 5786
L17220 5696
L17209 5674
L17187 5663
L17142 5663
L17119 5674
L17108 5696
L17108 5719
L17220 5741
" />
<path d="M17029 5663
L16973 5820
" />
<path d="M16917 5663
L16973 5820
L16995 5876
L17007 5887
L17029 5899
" />
<path d="M16838 5809
L16815 5820
L16770 5820
L16748 5809
L16737 5786
L16737 5775
L16748 5752
L16770 5741
L16804 5741
L16827 5730
L16838 5708
L16838 5696
L16827 5674
L16804 5663
L16770 5663
L16748 5674
" />
<path d="M16602 5820
L16624 5809
L16635 5797
L16647 5775
L16647 5708
L16635 5685
L16624 5674
L16602 5663
L16568 5663
L16545 5674
L16534 5685
L16523 5708
L16523 5775
L16534 5797
L16545 5809
L16568 5820
L16602 5820
" />
<path d="M16455 5663
L16365 5663
" />
<path d="M16422 5820
L16422 5618
L16410 5595
L16388 5584
L16365 5584
" />
<path d="M16320 5663
L16230 5663
" />
<path d="M16287 5584
L16287 5786
L16275 5809
L16253 5820
L16230 5820
" />
<path d="M16152 5797
L16140 5809
L16152 5820
L16163 5809
L16152 5797
L16152 5820
" />
<path d="M16039 5663
L16039 5820
" />
<path d="M16039 5685
L16028 5674
L16005 5663
L15972 5663
L15949 5674
L15938 5696
L15938 5820
" />
<path d="M15735 5809
L15758 5820
L15803 5820
L15825 5809
L15837 5786
L15837 5696
L15825 5674
L15803 5663
L15758 5663
L15735 5674
L15724 5696
L15724 5719
L15837 5741
" />
<path d="M15657 5663
L15567 5663
" />
<path d="M15623 5584
L15623 5786
L15612 5809
L15589 5820
L15567 5820
" />
</g>
<g style="fill:#840084; fill-opacity:0.0; 
stroke:#840084; stroke-width:47.2441; stroke-opacity:1; 
stroke-linecap:round; stroke-linejoin:round;">
<path d="M5921 1296
L5921 1819
" />
<path d="M6444 1296
L5921 1296
" />
<path d="M6944 1296
L6944 2343
" />
<path d="M6944 2343
L27968 2343
" />
<path d="M6944 1296
L27968 1296
" />
<path d="M27968 1296
L27968 2343
" />
<path d="M5921 8296
L5921 8819
" />
<path d="M6444 8296
L5921 8296
" />
<path d="M6944 8296
L6944 9343
" />
<path d="M6944 9343
L27968 9343
" />
<path d="M6944 8296
L27968 8296
" />
<path d="M27968 8296
L27968 9343
" />
<g >
</g>
</g>
<g style="fill:#000000; fill-opacity:0.0; 
stroke:#000000; stroke-width:47.2441; stroke-opacity:1; 
stroke-linecap:round; stroke-linejoin:round;">
<g >
</g>
<g style="fill:#848400; fill-opacity:0.0; 
stroke:#848400; stroke-width:47.2441; stroke-opacity:1; 
stroke-linecap:round; stroke-linejoin:round;">
</g>
<g style="fill:#848400; fill-opacity:0.0; 
stroke:#848400; stroke-width:748.031; stroke-opacity:1; 
stroke-linecap:round; stroke-linejoin:round;">
<path d="M27444 1819
L27444 1819
" />
<path d="M26444 1819
L26444 1819
" />
<path d="M25444 1819
L25444 1819
" />
<path d="M24444 1819
L24444 1819
" />
<path d="M23444 1819
L23444 1819
" />
<path d="M22444 1819
L22444 1819
" />
<path d="M21444 1819
L21444 1819
" />
<path d="M20444 1819
L20444 1819
" />
<path d="M19444 1819
L19444 1819
" />
<path d="M18444 1819
L18444 1819
" />
<path d="M17444 1819
L17444 1819
" />
<path d="M16444 1819
L16444 1819
" />
<path d="M15444 1819
L15444 1819
" />
<path d="M14444 1819
L14444 1819
" />
<path d="M13444 1819
L13444 1819
" />
<path d="M12444 1819
L12444 1819
" />
<path d="M11444 1819
L11444 1819
" />
<path d="M10444 1819
L10444 1819
" />
<path d="M9444 1819
L9444 1819
" />
<path d="M8444 1819
L8444 1819
" />
<path d="M7444 1819
L7444 1819
" />
</g>
<g style="fill:#848400; fill-opacity:0.0; 
stroke:#848400; stroke-width:0; stroke-opacity:1; 
stroke-linecap:round; stroke-linejoin:round;">
</g>
<g style="fill:#848400; fill-opacity:1.0; 
stroke:#848400; stroke-width:0; stroke-opacity:1; 
stroke-linecap:round; stroke-linejoin:round;">
<path style="fill:#848400; fill-opacity:1.0; 
stroke:#848400; stroke-width:0; stroke-opacity:1; 
stroke-linecap:round; stroke-linejoin:round;fill-rule:evenodd;"
d="M 6070,1445
6818,1445
6818,2193
6070,2193
6070,1445
Z" /> 
</g>
<g >
</g>
<g style="fill:#848400; fill-opacity:1.0; 
stroke:#848400; stroke-width:0; stroke-opacity:1; 
stroke-linecap:round; stroke-linejoin:round;">
</g>
<g style="fill:#848400; fill-opacity:1.0; 
stroke:#848400; stroke-width:748.031; stroke-opacity:1; 
stroke-linecap:round; stroke-linejoin:round;">
</g>
<g style="fill:#848400; fill-opacity:0.0; 
stroke:#848400; stroke-width:748.031; stroke-opacity:1; 
stroke-linecap:round; stroke-linejoin:round;">
<path d="M27444 8819
L27444 8819
" />
<path d="M26444 8819
L26444 8819
" />
<path d="M25444 8819
L25444 8819
" />
<path d="M24444 8819
L24444 8819
" />
<path d="M23444 8819
L23444 8819
" />
<path d="M22444 8819
L22444 8819
" />
<path d="M21444 8819
L21444 8819
" />
<path d="M20444 8819
L20444 8819
" />
<path d="M19444 8819
L19444 8819
" />
<path d="M18444 8819
L18444 8819
" />
<path d="M17444 8819
L17444 8819
" />
<path d="M16444 8819
L16444 8819
" />
<path d="M15444 8819
L15444 8819
" />
<path d="M14444 8819
L14444 8819
" />
<path d="M13444 8819
L13444 8819
" />
<path d="M12444 8819
L12444 8819
" />
<path d="M11444 8819
L11444 8819
" />
<path d="M10444 8819
L10444 8819
" />
<path d="M9444 8819
L9444 8819
" />
<path d="M8444 8819
L8444 8819
" />
<path d="M7444 8819
L7444 8819
" />
</g>
<g style="fill:#848400; fill-opacity:0.0; 
stroke:#848400; stroke-width:0; stroke-opacity:1; 
stroke-linecap:round; stroke-linejoin:round;">
</g>
<g style="fill:#848400; fill-opacity:1.0; 
stroke:#848400; stroke-width:0; stroke-opacity:1; 
stroke-linecap:round; stroke-linejoin:round;">
<path style="fill:#848400; fill-opacity:1.0; 
stroke:#848400; stroke-width:0; stroke-opacity:1; 
stroke-linecap:round; stroke-linejoin:round;fill-rule:evenodd;"
d="M 6070,8445
6818,8445
6818,9193
6070,9193
6070,8445
Z" /> 
</g>
<g >
</g>
<g >
</g>
<g >
</g>
<g >
</g>
</g>
<g style="fill:#000000; fill-opacity:1.0; 
stroke:#000000; stroke-width:0; stroke-opacity:1; 
stroke-linecap:round; stroke-linejoin:round;">
<g >
</g>
<g style="fill:#848400; fill-opacity:1.0; 
stroke:#848400; stroke-width:0; stroke-opacity:1; 
stroke-linecap:round; stroke-linejoin:round;">
</g>
<g style="fill:#848400; fill-opacity:1.0; 
stroke:#848400; stroke-width:669.291; stroke-opacity:1; 
stroke-linecap:round; stroke-linejoin:round;">
</g>
<g style="fill:#848400; fill-opacity:0.0; 
stroke:#848400; stroke-width:669.291; stroke-opacity:1; 
stroke-linecap:round; stroke-linejoin:round;">
<path d="M27444 1819
L27444 1819
" />
<path d="M26444 1819
L26444 1819
" />
<path d="M25444 1819
L25444 1819
" />
<path d="M24444 1819
L24444 1819
" />
<path d="M23444 1819
L23444 1819
" />
<path d="M22444 1819
L22444 1819
" />
<path d="M21444 1819
L21444 1819
" />
<path d="M20444 1819
L20444 1819
" />
<path d="M19444 1819
L19444 1819
" />
<path d="M18444 1819
L18444 1819
" />
<path d="M17444 1819
L17444 1819
" />
<path d="M16444 1819
L16444 1819
" />
<path d="M15444 1819
L15444 1819
" />
<path d="M14444 1819
L14444 1819
" />
<path d="M13444 1819
L13444 1819
" />
<path d="M12444 1819
L12444 1819
" />
<path d="M11444 1819
L11444 1819
" />
<path d="M10444 1819
L10444 1819
" />
<path d="M9444 1819
L9444 1819
" />
<path d="M8444 1819
L8444 1819
" />
<path d="M7444 1819
L7444 1819
" />
</g>
<g style="fill:#848400; fill-opacity:0.0; 
stroke:#848400; stroke-width:0; stroke-opacity:1; 
stroke-linecap:round; stroke-linejoin:round;">
</g>
<g style="fill:#848400; fill-opacity:1.0; 
stroke:#848400; stroke-width:0; stroke-opacity:1; 
stroke-linecap:round; stroke-linejoin:round;">
<path style="fill:#848400; fill-opacity:1.0; 
stroke:#848400; stroke-width:0; stroke-opacity:1; 
stroke-linecap:round; stroke-linejoin:round;fill-rule:evenodd;"
d="M 6110,1485
6779,1485
6779,2154
6110,2154
6110,1485
Z" /> 
</g>
<g >
</g>
<g style="fill:#848400; fill-opacity:1.0; 
stroke:#848400; stroke-width:0; stroke-opacity:1; 
stroke-linecap:round; stroke-linejoin:round;">
</g>
<g style="fill:#848400; fill-opacity:1.0; 
stroke:#848400; stroke-width:669.291; stroke-opacity:1; 
stroke-linecap:round; stroke-linejoin:round;">
</g>
<g style="fill:#848400; fill-opacity:0.0; 
stroke:#848400; stroke-width:669.291; stroke-opacity:1; 
stroke-linecap:round; stroke-linejoin:round;">
<path d="M27444 8819
L27444 8819
" />
<path d="M26444 8819
L26444 8819
" />
<path d="M25444 8819
L25444 8819
" />
<path d="M24444 8819
L24444 8819
" />
<path d="M23444 8819
L23444 8819
" />
<path d="M22444 8819
L22444 8819
" />
<path d="M21444 8819
L21444 8819
" />
<path d="M20444 8819
L20444 8819
" />
<path d="M19444 8819
L19444 8819
" />
<path d="M18444 8819
L18444 8819
" />
<path d="M17444 8819
L17444 8819
" />
<path d="M16444 8819
L16444 8819
" />
<path d="M15444 8819
L15444 8819
" />
<path d="M14444 8819
L14444 8819
" />
<path d="M13444 8819
L13444 8819
" />
<path d="M12444 8819
L12444 8819
" />
<path d="M11444 8819
L11444 8819
" />
<path d="M10444 8819
L10444 8819
" />
<path d="M9444 8819
L9444 8819
" />
<path d="M8444 8819
L8444 8819
" />
<path d="M7444 8819
L7444 8819
" />
</g>
<g style="fill:#848400; fill-opacity:0.0; 
stroke:#848400; stroke-width:0; stroke-opacity:1; 
stroke-linecap:round; stroke-linejoin:round;">
</g>
<g style="fill:#848400; fill-opacity:1.0; 
stroke:#848400; stroke-width:0; stroke-opacity:1; 
stroke-linecap:round; stroke-linejoin:round;">
<path style="fill:#848400; fill-opacity:1.0; 
stroke:#848400; stroke-width:0; stroke-opacity:1; 
stroke-linecap:round; stroke-linejoin:round;fill-rule:evenodd;"
d="M 6110,8485
6779,8485
6779,9154
6110,9154
6110,8485
Z" /> 
</g>
<g >
</g>
<g >
</g>
<g >
</g>
<g >
</g>
<g style="fill:#008400; fill-opacity:1.0; 
stroke:#008400; stroke-width:0; stroke-opacity:1; 
stroke-linecap:round; stroke-linejoin:round;">
</g>
<g style="fill:#008400; fill-opacity:1.0; 
stroke:#008400; stroke-width:59.0551; stroke-opacity:1; 
stroke-linecap:round; stroke-linejoin:round;">
<path style="fill:#008400; fill-opacity:1.0; 
stroke:#008400; stroke-width:59.0551; stroke-opacity:1; 
stroke-linecap:round; stroke-linejoin:round;fill-rule:evenodd;"
d="M 27616,955
27780,1005
27932,1085
28065,1194
28175,1327
28257,1478
28308,1642
28326,1819
28326,1820
28326,8814
28309,8991
28259,9155
28178,9307
28070,9440
27937,9550
27786,9632
27622,9683
27445,9701
27444,9701
6450,9701
6273,9684
6109,9634
5957,9554
5823,9445
5714,9312
5632,9161
5581,8997
5562,8820
5562,8819
5562,8485
6021,8485
6021,9154
6022,9171
6028,9188
6036,9204
6047,9217
6060,9228
6076,9236
6092,9241
6110,9243
6779,9243
6796,9241
6813,9236
6828,9228
6842,9217
6853,9204
6861,9188
6866,9171
6868,9154
6868,8819
7019,8819
7027,8902
7051,8982
7091,9056
7144,9120
7208,9173
7282,9212
7361,9237
7424,9243
7465,9243
7527,9237
7607,9212
7681,9173
7745,9120
7798,9056
7837,8982
7861,8902
7870,8819
8019,8819
8027,8902
8051,8982
8091,9056
8144,9120
8208,9173
8282,9212
8361,9237
8424,9243
8465,9243
8527,9237
8607,9212
8681,9173
8745,9120
8798,9056
8837,8982
8861,8902
8870,8819
9019,8819
9027,8902
9051,8982
9091,9056
9144,9120
9208,9173
9282,9212
9361,9237
9424,9243
9465,9243
9527,9237
9607,9212
9681,9173
9745,9120
9798,9056
9837,8982
9861,8902
9870,8819
10019,8819
10027,8902
10051,8982
10091,9056
10144,9120
10208,9173
10282,9212
10361,9237
10424,9243
10465,9243
10527,9237
10607,9212
10681,9173
10745,9120
10798,9056
10837,8982
10861,8902
10870,8819
11019,8819
11027,8902
11051,8982
11091,9056
11144,9120
11208,9173
11282,9212
11361,9237
11424,9243
11465,9243
11527,9237
11607,9212
11681,9173
11745,9120
11798,9056
11837,8982
11861,8902
11870,8819
12019,8819
12027,8902
12051,8982
12091,9056
12144,9120
12208,9173
12282,9212
12361,9237
12424,9243
12465,9243
12527,9237
12607,9212
12681,9173
12745,9120
12798,9056
12837,8982
12861,8902
12870,8819
13019,8819
13027,8902
13051,8982
13091,9056
13144,9120
13208,9173
13282,9212
13361,9237
13424,9243
13465,9243
13527,9237
13607,9212
13681,9173
13745,9120
13798,9056
13837,8982
13861,8902
13870,8819
14019,8819
14027,8902
14051,8982
14091,9056
14144,9120
14208,9173
14282,9212
14361,9237
14424,9243
14465,9243
14527,9237
14607,9212
14681,9173
14745,9120
14798,9056
14837,8982
14861,8902
14870,8819
15019,8819
15027,8902
15051,8982
15091,9056
15144,9120
15208,9173
15282,9212
15361,9237
15424,9243
15465,9243
15527,9237
15607,9212
15681,9173
15745,9120
15798,9056
15837,8982
15861,8902
15870,8819
16019,8819
16027,8902
16051,8982
16091,9056
16144,9120
16208,9173
16282,9212
16361,9237
16424,9243
16465,9243
16527,9237
16607,9212
16681,9173
16745,9120
16798,9056
16837,8982
16861,8902
16870,8819
17019,8819
17027,8902
17051,8982
17091,9056
17144,9120
17208,9173
17282,9212
17361,9237
17424,9243
17465,9243
17527,9237
17607,9212
17681,9173
17745,9120
17798,9056
17837,8982
17861,8902
17870,8819
18019,8819
18027,8902
18051,8982
18091,9056
18144,9120
18208,9173
18282,9212
18361,9237
18424,9243
18465,9243
18527,9237
18607,9212
18681,9173
18745,9120
18798,9056
18837,8982
18861,8902
18870,8819
19019,8819
19027,8902
19051,8982
19091,9056
19144,9120
19208,9173
19282,9212
19361,9237
19424,9243
19465,9243
19527,9237
19607,9212
19681,9173
19745,9120
19798,9056
19837,8982
19861,8902
19870,8819
20019,8819
20027,8902
20051,8982
20091,9056
20144,9120
20208,9173
20282,9212
20361,9237
20424,9243
20465,9243
20527,9237
20607,9212
20681,9173
20745,9120
20798,9056
20837,8982
20861,8902
20870,8819
21019,8819
21027,8902
21051,8982
21091,9056
21144,9120
21208,9173
21282,9212
21361,9237
21424,9243
21465,9243
21527,9237
21607,9212
21681,9173
21745,9120
21798,9056
21837,8982
21861,8902
21870,8819
22019,8819
22027,8902
22051,8982
22091,9056
22144,9120
22208,9173
22282,9212
22361,9237
22424,9243
22465,9243
22527,9237
22607,9212
22681,9173
22745,9120
22798,9056
22837,8982
22861,8902
22870,8819
23019,8819
23027,8902
23051,8982
23091,9056
23144,9120
23208,9173
23282,9212
23361,9237
23424,9243
23465,9243
23527,9237
23607,9212
23681,9173
23745,9120
23798,9056
23837,8982
23861,8902
23870,8819
24019,8819
24027,8902
24051,8982
24091,9056
24144,9120
24208,9173
24282,9212
24361,9237
24424,9243
24465,9243
24527,9237
24607,9212
24681,9173
24745,9120
24798,9056
24837,8982
24861,8902
24870,8819
25019,8819
25027,8902
25051,8982
25091,9056
25144,9120
25208,9173
25282,9212
25361,9237
25424,9243
25465,9243
25527,9237
25607,9212
25681,9173
25745,9120
25798,9056
25837,8982
25861,8902
25870,8819
26019,8819
26027,8902
26051,8982
26091,9056
26144,9120
26208,9173
26282,9212
26361,9237
26424,9243
26465,9243
26527,9237
26607,9212
26681,9173
26745,9120
26798,9056
26837,8982
26861,8902
26870,8819
27019,8819
27027,8902
27051,8982
27091,9056
27144,9120
27208,9173
27282,9212
27361,9237
27424,9243
27465,9243
27527,9237
27607,9212
27681,9173
27745,9120
27798,9056
27837,8982
27861,8902
27870,8819
27861,8736
27837,8657
27798,8583
27745,8519
27681,8466
27607,8427
27527,8402
27465,8396
27424,8396
27361,8402
27282,8427
27208,8466
27144,8519
27091,8583
27051,8657
27027,8736
27019,8819
26870,8819
26861,8736
26837,8657
26798,8583
26745,8519
26681,8466
26607,8427
26527,8402
26465,8396
26424,8396
26361,8402
26282,8427
26208,8466
26144,8519
26091,8583
26051,8657
26027,8736
26019,8819
25870,8819
25861,8736
25837,8657
25798,8583
25745,8519
25681,8466
25607,8427
25527,8402
25465,8396
25424,8396
25361,8402
25282,8427
25208,8466
25144,8519
25091,8583
25051,8657
25027,8736
25019,8819
24870,8819
24861,8736
24837,8657
24798,8583
24745,8519
24681,8466
24607,8427
24527,8402
24465,8396
24424,8396
24361,8402
24282,8427
24208,8466
24144,8519
24091,8583
24051,8657
24027,8736
24019,8819
23870,8819
23861,8736
23837,8657
23798,8583
23745,8519
23681,8466
23607,8427
23527,8402
23465,8396
23424,8396
23361,8402
23282,8427
23208,8466
23144,8519
23091,8583
23051,8657
23027,8736
23019,8819
22870,8819
22861,8736
22837,8657
22798,8583
22745,8519
22681,8466
22607,8427
22527,8402
22465,8396
22424,8396
22361,8402
22282,8427
22208,8466
22144,8519
22091,8583
22051,8657
22027,8736
22019,8819
21870,8819
21861,8736
21837,8657
21798,8583
21745,8519
21681,8466
21607,8427
21527,8402
21465,8396
21424,8396
21361,8402
21282,8427
21208,8466
21144,8519
21091,8583
21051,8657
21027,8736
21019,8819
20870,8819
20861,8736
20837,8657
20798,8583
20745,8519
20681,8466
20607,8427
20527,8402
20465,8396
20424,8396
20361,8402
20282,8427
20208,8466
20144,8519
20091,8583
20051,8657
20027,8736
20019,8819
19870,8819
19861,8736
19837,8657
19798,8583
19745,8519
19681,8466
19607,8427
19527,8402
19465,8396
19424,8396
19361,8402
19282,8427
19208,8466
19144,8519
19091,8583
19051,8657
19027,8736
19019,8819
18870,8819
18861,8736
18837,8657
18798,8583
18745,8519
18681,8466
18607,8427
18527,8402
18465,8396
18424,8396
18361,8402
18282,8427
18208,8466
18144,8519
18091,8583
18051,8657
18027,8736
18019,8819
17870,8819
17861,8736
17837,8657
17798,8583
17745,8519
17681,8466
17607,8427
17527,8402
17465,8396
17424,8396
17361,8402
17282,8427
17208,8466
17144,8519
17091,8583
17051,8657
17027,8736
17019,8819
16870,8819
16861,8736
16837,8657
16798,8583
16745,8519
16681,8466
16607,8427
16527,8402
16465,8396
16424,8396
16361,8402
16282,8427
16208,8466
16144,8519
16091,8583
16051,8657
16027,8736
16019,8819
15870,8819
15861,8736
15837,8657
15798,8583
15745,8519
15681,8466
15607,8427
15527,8402
15465,8396
15424,8396
15361,8402
15282,8427
15208,8466
15144,8519
15091,8583
15051,8657
15027,8736
15019,8819
14870,8819
14861,8736
14837,8657
14798,8583
14745,8519
14681,8466
14607,8427
14527,8402
14465,8396
14424,8396
14361,8402
14282,8427
14208,8466
14144,8519
14091,8583
14051,8657
14027,8736
14019,8819
13870,8819
13861,8736
13837,8657
13798,8583
13745,8519
13681,8466
13607,8427
13527,8402
13465,8396
13424,8396
13361,8402
13282,8427
13208,8466
13144,8519
13091,8583
13051,8657
13027,8736
13019,8819
12870,8819
12861,8736
12837,8657
12798,8583
12745,8519
12681,8466
12607,8427
12527,8402
12465,8396
12424,8396
12361,8402
12282,8427
12208,8466
12144,8519
12091,8583
12051,8657
12027,8736
12019,8819
11870,8819
11861,8736
11837,8657
11798,8583
11745,8519
11681,8466
11607,8427
11527,8402
11465,8396
11424,8396
11361,8402
11282,8427
11208,8466
11144,8519
11091,8583
11051,8657
11027,8736
11019,8819
10870,8819
10861,8736
10837,8657
10798,8583
10745,8519
10681,8466
10607,8427
10527,8402
10465,8396
10424,8396
10361,8402
10282,8427
10208,8466
10144,8519
10091,8583
10051,8657
10027,8736
10019,8819
9870,8819
9861,8736
9837,8657
9798,8583
9745,8519
9681,8466
9607,8427
9527,8402
9465,8396
9424,8396
9361,8402
9282,8427
9208,8466
9144,8519
9091,8583
9051,8657
9027,8736
9019,8819
8870,8819
8861,8736
8837,8657
8798,8583
8745,8519
8681,8466
8607,8427
8527,8402
8465,8396
8424,8396
8361,8402
8282,8427
8208,8466
8144,8519
8091,8583
8051,8657
8027,8736
8019,8819
7870,8819
7861,8736
7837,8657
7798,8583
7745,8519
7681,8466
7607,8427
7527,8402
7465,8396
7424,8396
7361,8402
7282,8427
7208,8466
7144,8519
7091,8583
7051,8657
7027,8736
7019,8819
6868,8819
6868,8485
6866,8467
6861,8451
6853,8435
6842,8422
6828,8411
6813,8403
6796,8397
6779,8396
6110,8396
6092,8397
6076,8403
6060,8411
6047,8422
6036,8435
6028,8451
6022,8467
6021,8485
5562,8485
5562,1825
5580,1648
5629,1485
6021,1485
6021,2154
6022,2171
6028,2188
6036,2204
6047,2217
6060,2228
6076,2236
6092,2241
6110,2243
6779,2243
6796,2241
6813,2236
6828,2228
6842,2217
6853,2204
6861,2188
6866,2171
6868,2154
6868,1819
7019,1819
7027,1902
7051,1982
7091,2056
7144,2120
7208,2173
7282,2212
7361,2237
7424,2243
7465,2243
7527,2237
7607,2212
7681,2173
7745,2120
7798,2056
7837,1982
7861,1902
7870,1819
8019,1819
8027,1902
8051,1982
8091,2056
8144,2120
8208,2173
8282,2212
8361,2237
8424,2243
8465,2243
8527,2237
8607,2212
8681,2173
8745,2120
8798,2056
8837,1982
8861,1902
8870,1819
9019,1819
9027,1902
9051,1982
9091,2056
9144,2120
9208,2173
9282,2212
9361,2237
9424,2243
9465,2243
9527,2237
9607,2212
9681,2173
9745,2120
9798,2056
9837,1982
9861,1902
9870,1819
10019,1819
10027,1902
10051,1982
10091,2056
10144,2120
10208,2173
10282,2212
10361,2237
10424,2243
10465,2243
10527,2237
10607,2212
10681,2173
10745,2120
10798,2056
10837,1982
10861,1902
10870,1819
11019,1819
11027,1902
11051,1982
11091,2056
11144,2120
11208,2173
11282,2212
11361,2237
11424,2243
11465,2243
11527,2237
11607,2212
11681,2173
11745,2120
11798,2056
11837,1982
11861,1902
11870,1819
12019,1819
12027,1902
12051,1982
12091,2056
12144,2120
12208,2173
12282,2212
12361,2237
12424,2243
12465,2243
12527,2237
12607,2212
12681,2173
12745,2120
12798,2056
12837,1982
12861,1902
12870,1819
13019,1819
13027,1902
13051,1982
13091,2056
13144,2120
13208,2173
13282,2212
13361,2237
13424,2243
13465,2243
13527,2237
13607,2212
13681,2173
13745,2120
13798,2056
13837,1982
13861,1902
13870,1819
14019,1819
14027,1902
14051,1982
14091,2056
14144,2120
14208,2173
14282,2212
14361,2237
14424,2243
14465,2243
14527,2237
14607,2212
14681,2173
14745,2120
14798,2056
14837,1982
14861,1902
14870,1819
15019,1819
15027,1902
15051,1982
15091,2056
15144,2120
15208,2173
15282,2212
15361,2237
15424,2243
15465,2243
15527,2237
15607,2212
15681,2173
15745,2120
15798,2056
15837,1982
15861,1902
15870,1819
16019,1819
16027,1902
16051,1982
16091,2056
16144,2120
16208,2173
16282,2212
16361,2237
16424,2243
16465,2243
16527,2237
16607,2212
16681,2173
16745,2120
16798,2056
16837,1982
16861,1902
16870,1819
17019,1819
17027,1902
17051,1982
17091,2056
17144,2120
17208,2173
17282,2212
17361,2237
17424,2243
17465,2243
17527,2237
17607,2212
17681,2173
17745,2120
17798,2056
17837,1982
17861,1902
17870,1819
18019,1819
18027,1902
18051,1982
18091,2056
18144,2120
18208,2173
18282,2212
18361,2237
18424,2243
18465,2243
18527,2237
18607,2212
18681,2173
18745,2120
18798,2056
18837,1982
18861,1902
18870,1819
19019,1819
19027,1902
19051,1982
19091,2056
19144,2120
19208,2173
19282,2212
19361,2237
19424,2243
19465,2243
19527,2237
19607,2212
19681,2173
19745,2120
19798,2056
19837,1982
19861,1902
19870,1819
20019,1819
20027,1902
20051,1982
20091,2056
20144,2120
20208,2173
20282,2212
20361,2237
20424,2243
20465,2243
20527,2237
20607,2212
20681,2173
20745,2120
20798,2056
20837,1982
20861,1902
20870,1819
21019,1819
21027,1902
21051,1982
21091,2056
21144,2120
21208,2173
21282,2212
21361,2237
21424,2243
21465,2243
21527,2237
21607,2212
21681,2173
21745,2120
21798,2056
21837,1982
21861,1902
21870,1819
22019,1819
22027,1902
22051,1982
22091,2056
22144,2120
22208,2173
22282,2212
22361,2237
22424,2243
22465,2243
22527,2237
22607,2212
22681,2173
22745,2120
22798,2056
22837,1982
22861,1902
22870,1819
23019,1819
23027,1902
23051,1982
23091,2056
23144,2120
23208,2173
23282,2212
23361,2237
23424,2243
23465,2243
23527,2237
23607,2212
23681,2173
23745,2120
23798,2056
23837,1982
23861,1902
23870,1819
24019,1819
24027,1902
24051,1982
24091,2056
24144,2120
24208,2173
24282,2212
24361,2237
24424,2243
24465,2243
24527,2237
24607,2212
24681,2173
24745,2120
24798,2056
24837,1982
24861,1902
24870,1819
25019,1819
25027,1902
25051,1982
25091,2056
25144,2120
25208,2173
25282,2212
25361,2237
25424,2243
25465,2243
25527,2237
25607,2212
25681,2173
25745,2120
25798,2056
25837,1982
25861,1902
25870,1819
26019,1819
26027,1902
26051,1982
26091,2056
26144,2120
26208,2173
26282,2212
26361,2237
26424,2243
26465,2243
26527,2237
26607,2212
26681,2173
26745,2120
26798,2056
26837,1982
26861,1902
26870,1819
27019,1819
27027,1902
27051,1982
27091,2056
27144,2120
27208,2173
27282,2212
27361,2237
27424,2243
27465,2243
27527,2237
27607,2212
27681,2173
27745,2120
27798,2056
27837,1982
27861,1902
27870,1819
27861,1736
27837,1657
27798,1583
27745,1519
27681,1466
27607,1427
27527,1402
27465,1396
27424,1396
27361,1402
27282,1427
27208,1466
27144,1519
27091,1583
27051,1657
27027,1736
27019,1819
26870,1819
26861,1736
26837,1657
26798,1583
26745,1519
26681,1466
26607,1427
26527,1402
26465,1396
26424,1396
26361,1402
26282,1427
26208,1466
26144,1519
26091,1583
26051,1657
26027,1736
26019,1819
25870,1819
25861,1736
25837,1657
25798,1583
25745,1519
25681,1466
25607,1427
25527,1402
25465,1396
25424,1396
25361,1402
25282,1427
25208,1466
25144,1519
25091,1583
25051,1657
25027,1736
25019,1819
24870,1819
24861,1736
24837,1657
24798,1583
24745,1519
24681,1466
24607,1427
24527,1402
24465,1396
24424,1396
24361,1402
24282,1427
24208,1466
24144,1519
24091,1583
24051,1657
24027,1736
24019,1819
23870,1819
23861,1736
23837,1657
23798,1583
23745,1519
23681,1466
23607,1427
23527,1402
23465,1396
23424,1396
23361,1402
23282,1427
23208,1466
23144,1519
23091,1583
23051,1657
23027,1736
23019,1819
22870,1819
22861,1736
22837,1657
22798,1583
22745,1519
22681,1466
22607,1427
22527,1402
22465,1396
22424,1396
22361,1402
22282,1427
22208,1466
22144,1519
22091,1583
22051,1657
22027,1736
22019,1819
21870,1819
21861,1736
21837,1657
21798,1583
21745,1519
21681,1466
21607,1427
21527,1402
21465,1396
21424,1396
21361,1402
21282,1427
21208,1466
21144,1519
21091,1583
21051,1657
21027,1736
21019,1819
20870,1819
20861,1736
20837,1657
20798,1583
20745,1519
20681,1466
20607,1427
20527,1402
20465,1396
20424,1396
20361,1402
20282,1427
20208,1466
20144,1519
20091,1583
20051,1657
20027,1736
20019,1819
19870,1819
19861,1736
19837,1657
19798,1583
19745,1519
19681,1466
19607,1427
19527,1402
19465,1396
19424,1396
19361,1402
19282,1427
19208,1466
19144,1519
19091,1583
19051,1657
19027,1736
19019,1819
18870,1819
18861,1736
18837,1657
18798,1583
18745,1519
18681,1466
18607,1427
18527,1402
18465,1396
18424,1396
18361,1402
18282,1427
18208,1466
18144,1519
18091,1583
18051,1657
18027,1736
18019,1819
17870,1819
17861,1736
17837,1657
17798,1583
17745,1519
17681,1466
17607,1427
17527,1402
17465,1396
17424,1396
17361,1402
17282,1427
17208,1466
17144,1519
17091,1583
17051,1657
17027,1736
17019,1819
16870,1819
16861,1736
16837,1657
16798,1583
16745,1519
16681,1466
16607,1427
16527,1402
16465,1396
16424,1396
16361,1402
16282,1427
16208,1466
16144,1519
16091,1583
16051,1657
16027,1736
16019,1819
15870,1819
15861,1736
15837,1657
15798,1583
15745,1519
15681,1466
15607,1427
15527,1402
15465,1396
15424,1396
15361,1402
15282,1427
15208,1466
15144,1519
15091,1583
15051,1657
15027,1736
15019,1819
14870,1819
14861,1736
14837,1657
14798,1583
14745,1519
14681,1466
14607,1427
14527,1402
14465,1396
14424,1396
14361,1402
14282,1427
14208,1466
14144,1519
14091,1583
14051,1657
14027,1736
14019,1819
13870,1819
13861,1736
13837,1657
13798,1583
13745,1519
13681,1466
13607,1427
13527,1402
13465,1396
13424,1396
13361,1402
13282,1427
13208,1466
13144,1519
13091,1583
13051,1657
13027,1736
13019,1819
12870,1819
12861,1736
12837,1657
12798,1583
12745,1519
12681,1466
12607,1427
12527,1402
12465,1396
12424,1396
12361,1402
12282,1427
12208,1466
12144,1519
12091,1583
12051,1657
12027,1736
12019,1819
11870,1819
11861,1736
11837,1657
11798,1583
11745,1519
11681,1466
11607,1427
11527,1402
11465,1396
11424,1396
11361,1402
11282,1427
11208,1466
11144,1519
11091,1583
11051,1657
11027,1736
11019,1819
10870,1819
10861,1736
10837,1657
10798,1583
10745,1519
10681,1466
10607,1427
10527,1402
10465,1396
10424,1396
10361,1402
10282,1427
10208,1466
10144,1519
10091,1583
10051,1657
10027,1736
10019,1819
9870,1819
9861,1736
9837,1657
9798,1583
9745,1519
9681,1466
9607,1427
9527,1402
9465,1396
9424,1396
9361,1402
9282,1427
9208,1466
9144,1519
9091,1583
9051,1657
9027,1736
9019,1819
8870,1819
8861,1736
8837,1657
8798,1583
8745,1519
8681,1466
8607,1427
8527,1402
8465,1396
8424,1396
8361,1402
8282,1427
8208,1466
8144,1519
8091,1583
8051,1657
8027,1736
8019,1819
7870,1819
7861,1736
7837,1657
7798,1583
7745,1519
7681,1466
7607,1427
7527,1402
7465,1396
7424,1396
7361,1402
7282,1427
7208,1466
7144,1519
7091,1583
7051,1657
7027,1736
7019,1819
6868,1819
6868,1485
6866,1467
6861,1451
6853,1435
6842,1422
6828,1411
6813,1403
6796,1397
6779,1396
6110,1396
6092,1397
6076,1403
6060,1411
6047,1422
6036,1435
6028,1451
6022,1467
6021,1485
5629,1485
5630,1484
5710,1332
5819,1198
5952,1089
6103,1007
6267,956
6444,938
6445,938
27439,938
27616,955
Z" /> 
</g>
</g>
<g style="fill:#FFFFFF; fill-opacity:1.0; 
stroke:#FFFFFF; stroke-width:59.0551; stroke-opacity:1; 
stroke-linecap:round; stroke-linejoin:round;">
</g>
<g style="fill:#FFFFFF; fill-opacity:1.0; 
stroke:#FFFFFF; stroke-width:0; stroke-opacity:1; 
stroke-linecap:round; stroke-linejoin:round;">
<circle cx="27444.9" cy="1819.93" r="196.85" /> 
</g>
<g style="fill:#FFFFFF; fill-opacity:1.0; 
stroke:#FFFFFF; stroke-width:39.3701; stroke-opacity:1; 
stroke-linecap:round; stroke-linejoin:round;">
</g>
<g style="fill:#FFFFFF; fill-opacity:1.0; 
stroke:#FFFFFF; stroke-width:0; stroke-opacity:1; 
stroke-linecap:round; stroke-linejoin:round;">
<circle cx="26444.9" cy="1819.93" r="196.85" /> 
</g>
<g style="fill:#FFFFFF; fill-opacity:1.0; 
stroke:#FFFFFF; stroke-width:39.3701; stroke-opacity:1; 
stroke-linecap:round; stroke-linejoin:round;">
</g>
<g style="fill:#FFFFFF; fill-opacity:1.0; 
stroke:#FFFFFF; stroke-width:0; stroke-opacity:1; 
stroke-linecap:round; stroke-linejoin:round;">
<circle cx="25444.9" cy="1819.93" r="196.85" /> 
</g>
<g style="fill:#FFFFFF; fill-opacity:1.0; 
stroke:#FFFFFF; stroke-width:39.3701; stroke-opacity:1; 
stroke-linecap:round; stroke-linejoin:round;">
</g>
<g style="fill:#FFFFFF; fill-opacity:1.0; 
stroke:#FFFFFF; stroke-width:0; stroke-opacity:1; 
stroke-linecap:round; stroke-linejoin:round;">
<circle cx="24444.9" cy="1819.93" r="196.85" /> 
</g>
<g style="fill:#FFFFFF; fill-opacity:1.0; 
stroke:#FFFFFF; stroke-width:39.3701; stroke-opacity:1; 
stroke-linecap:round; stroke-linejoin:round;">
</g>
<g style="fill:#FFFFFF; fill-opacity:1.0; 
stroke:#FFFFFF; stroke-width:0; stroke-opacity:1; 
stroke-linecap:round; stroke-linejoin:round;">
<circle cx="23444.9" cy="1819.93" r="196.85" /> 
</g>
<g style="fill:#FFFFFF; fill-opacity:1.0; 
stroke:#FFFFFF; stroke-width:39.3701; stroke-opacity:1; 
stroke-linecap:round; stroke-linejoin:round;">
</g>
<g style="fill:#FFFFFF; fill-opacity:1.0; 
stroke:#FFFFFF; stroke-width:0; stroke-opacity:1; 
stroke-linecap:round; stroke-linejoin:round;">
<circle cx="22444.9" cy="1819.93" r="196.85" /> 
</g>
<g style="fill:#FFFFFF; fill-opacity:1.0; 
stroke:#FFFFFF; stroke-width:39.3701; stroke-opacity:1; 
stroke-linecap:round; stroke-linejoin:round;">
</g>
<g style="fill:#FFFFFF; fill-opacity:1.0; 
stroke:#FFFFFF; stroke-width:0; stroke-opacity:1; 
stroke-linecap:round; stroke-linejoin:round;">
<circle cx="21444.9" cy="1819.93" r="196.85" /> 
</g>
<g style="fill:#FFFFFF; fill-opacity:1.0; 
stroke:#FFFFFF; stroke-width:39.3701; stroke-opacity:1; 
stroke-linecap:round; stroke-linejoin:round;">
</g>
<g style="fill:#FFFFFF; fill-opacity:1.0; 
stroke:#FFFFFF; stroke-width:0; stroke-opacity:1; 
stroke-linecap:round; stroke-linejoin:round;">
<circle cx="20444.9" cy="1819.93" r="196.85" /> 
</g>
<g style="fill:#FFFFFF; fill-opacity:1.0; 
stroke:#FFFFFF; stroke-width:39.3701; stroke-opacity:1; 
stroke-linecap:round; stroke-linejoin:round;">
</g>
<g style="fill:#FFFFFF; fill-opacity:1.0; 
stroke:#FFFFFF; stroke-width:0; stroke-opacity:1; 
stroke-linecap:round; stroke-linejoin:round;">
<circle cx="19444.9" cy="1819.93" r="196.85" /> 
</g>
<g style="fill:#FFFFFF; fill-opacity:1.0; 
stroke:#FFFFFF; stroke-width:39.3701; stroke-opacity:1; 
stroke-linecap:round; stroke-linejoin:round;">
</g>
<g style="fill:#FFFFFF; fill-opacity:1.0; 
stroke:#FFFFFF; stroke-width:0; stroke-opacity:1; 
stroke-linecap:round; stroke-linejoin:round;">
<circle cx="18444.9" cy="1819.93" r="196.85" /> 
</g>
<g style="fill:#FFFFFF; fill-opacity:1.0; 
stroke:#FFFFFF; stroke-width:39.3701; stroke-opacity:1; 
stroke-linecap:round; stroke-linejoin:round;">
</g>
<g style="fill:#FFFFFF; fill-opacity:1.0; 
stroke:#FFFFFF; stroke-width:0; stroke-opacity:1; 
stroke-linecap:round; stroke-linejoin:round;">
<circle cx="17444.9" cy="1819.93" r="196.85" /> 
</g>
<g style="fill:#FFFFFF; fill-opacity:1.0; 
stroke:#FFFFFF; stroke-width:39.3701; stroke-opacity:1; 
stroke-linecap:round; stroke-linejoin:round;">
</g>
<g style="fill:#FFFFFF; fill-opacity:1.0; 
stroke:#FFFFFF; stroke-width:0; stroke-opacity:1; 
stroke-linecap:round; stroke-linejoin:round;">
<circle cx="16444.9" cy="1819.93" r="196.85" /> 
</g>
<g style="fill:#FFFFFF; fill-opacity:1.0; 
stroke:#FFFFFF; stroke-width:39.3701; stroke-opacity:1; 
stroke-linecap:round; stroke-linejoin:round;">
</g>
<g style="fill:#FFFFFF; fill-opacity:1.0; 
stroke:#FFFFFF; stroke-width:0; stroke-opacity:1; 
stroke-linecap:round; stroke-linejoin:round;">
<circle cx="15444.9" cy="1819.93" r="196.85" /> 
</g>
<g style="fill:#FFFFFF; fill-opacity:1.0; 
stroke:#FFFFFF; stroke-width:39.3701; stroke-opacity:1; 
stroke-linecap:round; stroke-linejoin:round;">
</g>
<g style="fill:#FFFFFF; fill-opacity:1.0; 
stroke:#FFFFFF; stroke-width:0; stroke-opacity:1; 
stroke-linecap:round; stroke-linejoin:round;">
<circle cx="14444.9" cy="1819.93" r="196.85" /> 
</g>
<g style="fill:#FFFFFF; fill-opacity:1.0; 
stroke:#FFFFFF; stroke-width:39.3701; stroke-opacity:1; 
stroke-linecap:round; stroke-linejoin:round;">
</g>
<g style="fill:#FFFFFF; fill-opacity:1.0; 
stroke:#FFFFFF; stroke-width:0; stroke-opacity:1; 
stroke-linecap:round; stroke-linejoin:round;">
<circle cx="13444.9" cy="1819.93" r="196.85" /> 
</g>
<g style="fill:#FFFFFF; fill-opacity:1.0; 
stroke:#FFFFFF; stroke-width:39.3701; stroke-opacity:1; 
stroke-linecap:round; stroke-linejoin:round;">
</g>
<g style="fill:#FFFFFF; fill-opacity:1.0; 
stroke:#FFFFFF; stroke-width:0; stroke-opacity:1; 
stroke-linecap:round; stroke-linejoin:round;">
<circle cx="12444.9" cy="1819.93" r="196.85" /> 
</g>
<g style="fill:#FFFFFF; fill-opacity:1.0; 
stroke:#FFFFFF; stroke-width:39.3701; stroke-opacity:1; 
stroke-linecap:round; stroke-linejoin:round;">
</g>
<g style="fill:#FFFFFF; fill-opacity:1.0; 
stroke:#FFFFFF; stroke-width:0; stroke-opacity:1; 
stroke-linecap:round; stroke-linejoin:round;">
<circle cx="11444.9" cy="1819.93" r="196.85" /> 
</g>
<g style="fill:#FFFFFF; fill-opacity:1.0; 
stroke:#FFFFFF; stroke-width:39.3701; stroke-opacity:1; 
stroke-linecap:round; stroke-linejoin:round;">
</g>
<g style="fill:#FFFFFF; fill-opacity:1.0; 
stroke:#FFFFFF; stroke-width:0; stroke-opacity:1; 
stroke-linecap:round; stroke-linejoin:round;">
<circle cx="10444.9" cy="1819.93" r="196.85" /> 
</g>
<g style="fill:#FFFFFF; fill-opacity:1.0; 
stroke:#FFFFFF; stroke-width:39.3701; stroke-opacity:1; 
stroke-linecap:round; stroke-linejoin:round;">
</g>
<g style="fill:#FFFFFF; fill-opacity:1.0; 
stroke:#FFFFFF; stroke-width:0; stroke-opacity:1; 
stroke-linecap:round; stroke-linejoin:round;">
<circle cx="9444.88" cy="1819.93" r="196.85" /> 
</g>
<g style="fill:#FFFFFF; fill-opacity:1.0; 
stroke:#FFFFFF; stroke-width:39.3701; stroke-opacity:1; 
stroke-linecap:round; stroke-linejoin:round;">
</g>
<g style="fill:#FFFFFF; fill-opacity:1.0; 
stroke:#FFFFFF; stroke-width:0; stroke-opacity:1; 
stroke-linecap:round; stroke-linejoin:round;">
<circle cx="8444.88" cy="1819.93" r="196.85" /> 
</g>
<g style="fill:#FFFFFF; fill-opacity:1.0; 
stroke:#FFFFFF; stroke-width:39.3701; stroke-opacity:1; 
stroke-linecap:round; stroke-linejoin:round;">
</g>
<g style="fill:#FFFFFF; fill-opacity:1.0; 
stroke:#FFFFFF; stroke-width:0; stroke-opacity:1; 
stroke-linecap:round; stroke-linejoin:round;">
<circle cx="7444.88" cy="1819.93" r="196.85" /> 
</g>
<g style="fill:#FFFFFF; fill-opacity:1.0; 
stroke:#FFFFFF; stroke-width:39.3701; stroke-opacity:1; 
stroke-linecap:round; stroke-linejoin:round;">
</g>
<g style="fill:#FFFFFF; fill-opacity:1.0; 
stroke:#FFFFFF; stroke-width:0; stroke-opacity:1; 
stroke-linecap:round; stroke-linejoin:round;">
<circle cx="6444.88" cy="1819.93" r="196.85" /> 
</g>
<g style="fill:#FFFFFF; fill-opacity:1.0; 
stroke:#FFFFFF; stroke-width:39.3701; stroke-opacity:1; 
stroke-linecap:round; stroke-linejoin:round;">
</g>
<g style="fill:#FFFFFF; fill-opacity:1.0; 
stroke:#FFFFFF; stroke-width:0; stroke-opacity:1; 
stroke-linecap:round; stroke-linejoin:round;">
<circle cx="27444.9" cy="8819.93" r="196.85" /> 
</g>
<g style="fill:#FFFFFF; fill-opacity:1.0; 
stroke:#FFFFFF; stroke-width:39.3701; stroke-opacity:1; 
stroke-linecap:round; stroke-linejoin:round;">
</g>
<g style="fill:#FFFFFF; fill-opacity:1.0; 
stroke:#FFFFFF; stroke-width:0; stroke-opacity:1; 
stroke-linecap:round; stroke-linejoin:round;">
<circle cx="26444.9" cy="8819.93" r="196.85" /> 
</g>
<g style="fill:#FFFFFF; fill-opacity:1.0; 
stroke:#FFFFFF; stroke-width:39.3701; stroke-opacity:1; 
stroke-linecap:round; stroke-linejoin:round;">
</g>
<g style="fill:#FFFFFF; fill-opacity:1.0; 
stroke:#FFFFFF; stroke-width:0; stroke-opacity:1; 
stroke-linecap:round; stroke-linejoin:round;">
<circle cx="25444.9" cy="8819.93" r="196.85" /> 
</g>
<g style="fill:#FFFFFF; fill-opacity:1.0; 
stroke:#FFFFFF; stroke-width:39.3701; stroke-opacity:1; 
stroke-linecap:round; stroke-linejoin:round;">
</g>
<g style="fill:#FFFFFF; fill-opacity:1.0; 
stroke:#FFFFFF; stroke-width:0; stroke-opacity:1; 
stroke-linecap:round; stroke-linejoin:round;">
<circle cx="24444.9" cy="8819.93" r="196.85" /> 
</g>
<g style="fill:#FFFFFF; fill-opacity:1.0; 
stroke:#FFFFFF; stroke-width:39.3701; stroke-opacity:1; 
stroke-linecap:round; stroke-linejoin:round;">
</g>
<g style="fill:#FFFFFF; fill-opacity:1.0; 
stroke:#FFFFFF; stroke-width:0; stroke-opacity:1; 
stroke-linecap:round; stroke-linejoin:round;">
<circle cx="23444.9" cy="8819.93" r="196.85" /> 
</g>
<g style="fill:#FFFFFF; fill-opacity:1.0; 
stroke:#FFFFFF; stroke-width:39.3701; stroke-opacity:1; 
stroke-linecap:round; stroke-linejoin:round;">
</g>
<g style="fill:#FFFFFF; fill-opacity:1.0; 
stroke:#FFFFFF; stroke-width:0; stroke-opacity:1; 
stroke-linecap:round; stroke-linejoin:round;">
<circle cx="22444.9" cy="8819.93" r="196.85" /> 
</g>
<g style="fill:#FFFFFF; fill-opacity:1.0; 
stroke:#FFFFFF; stroke-width:39.3701; stroke-opacity:1; 
stroke-linecap:round; stroke-linejoin:round;">
</g>
<g style="fill:#FFFFFF; fill-opacity:1.0; 
stroke:#FFFFFF; stroke-width:0; stroke-opacity:1; 
stroke-linecap:round; stroke-linejoin:round;">
<circle cx="21444.9" cy="8819.93" r="196.85" /> 
</g>
<g style="fill:#FFFFFF; fill-opacity:1.0; 
stroke:#FFFFFF; stroke-width:39.3701; stroke-opacity:1; 
stroke-linecap:round; stroke-linejoin:round;">
</g>
<g style="fill:#FFFFFF; fill-opacity:1.0; 
stroke:#FFFFFF; stroke-width:0; stroke-opacity:1; 
stroke-linecap:round; stroke-linejoin:round;">
<circle cx="20444.9" cy="8819.93" r="196.85" /> 
</g>
<g style="fill:#FFFFFF; fill-opacity:1.0; 
stroke:#FFFFFF; stroke-width:39.3701; stroke-opacity:1; 
stroke-linecap:round; stroke-linejoin:round;">
</g>
<g style="fill:#FFFFFF; fill-opacity:1.0; 
stroke:#FFFFFF; stroke-width:0; stroke-opacity:1; 
stroke-linecap:round; stroke-linejoin:round;">
<circle cx="19444.9" cy="8819.93" r="196.85" /> 
</g>
<g style="fill:#FFFFFF; fill-opacity:1.0; 
stroke:#FFFFFF; stroke-width:39.3701; stroke-opacity:1; 
stroke-linecap:round; stroke-linejoin:round;">
</g>
<g style="fill:#FFFFFF; fill-opacity:1.0; 
stroke:#FFFFFF; stroke-width:0; stroke-opacity:1; 
stroke-linecap:round; stroke-linejoin:round;">
<circle cx="18444.9" cy="8819.93" r="196.85" /> 
</g>
<g style="fill:#FFFFFF; fill-opacity:1.0; 
stroke:#FFFFFF; stroke-width:39.3701; stroke-opacity:1; 
stroke-linecap:round; stroke-linejoin:round;">
</g>
<g style="fill:#FFFFFF; fill-opacity:1.0; 
stroke:#FFFFFF; stroke-width:0; stroke-opacity:1; 
stroke-linecap:round; stroke-linejoin:round;">
<circle cx="17444.9" cy="8819.93" r="196.85" /> 
</g>
<g style="fill:#FFFFFF; fill-opacity:1.0; 
stroke:#FFFFFF; stroke-width:39.3701; stroke-opacity:1; 
stroke-linecap:round; stroke-linejoin:round;">
</g>
<g style="fill:#FFFFFF; fill-opacity:1.0; 
stroke:#FFFFFF; stroke-width:0; stroke-opacity:1; 
stroke-linecap:round; stroke-linejoin:round;">
<circle cx="16444.9" cy="8819.93" r="196.85" /> 
</g>
<g style="fill:#FFFFFF; fill-opacity:1.0; 
stroke:#FFFFFF; stroke-width:39.3701; stroke-opacity:1; 
stroke-linecap:round; stroke-linejoin:round;">
</g>
<g style="fill:#FFFFFF; fill-opacity:1.0; 
stroke:#FFFFFF; stroke-width:0; stroke-opacity:1; 
stroke-linecap:round; stroke-linejoin:round;">
<circle cx="15444.9" cy="8819.93" r="196.85" /> 
</g>
<g style="fill:#FFFFFF; fill-opacity:1.0; 
stroke:#FFFFFF; stroke-width:39.3701; stroke-opacity:1; 
stroke-linecap:round; stroke-linejoin:round;">
</g>
<g style="fill:#FFFFFF; fill-opacity:1.0; 
stroke:#FFFFFF; stroke-width:0; stroke-opacity:1; 
stroke-linecap:round; stroke-linejoin:round;">
<circle cx="14444.9" cy="8819.93" r="196.85" /> 
</g>
<g style="fill:#FFFFFF; fill-opacity:1.0; 
stroke:#FFFFFF; stroke-width:39.3701; stroke-opacity:1; 
stroke-linecap:round; stroke-linejoin:round;">
</g>
<g style="fill:#FFFFFF; fill-opacity:1.0; 
stroke:#FFFFFF; stroke-width:0; stroke-opacity:1; 
stroke-linecap:round; stroke-linejoin:round;">
<circle cx="13444.9" cy="8819.93" r="196.85" /> 
</g>
<g style="fill:#FFFFFF; fill-opacity:1.0; 
stroke:#FFFFFF; stroke-width:39.3701; stroke-opacity:1; 
stroke-linecap:round; stroke-linejoin:round;">
</g>
<g style="fill:#FFFFFF; fill-opacity:1.0; 
stroke:#FFFFFF; stroke-width:0; stroke-opacity:1; 
stroke-linecap:round; stroke-linejoin:round;">
<circle cx="12444.9" cy="8819.93" r="196.85" /> 
</g>
<g style="fill:#FFFFFF; fill-opacity:1.0; 
stroke:#FFFFFF; stroke-width:39.3701; stroke-opacity:1; 
stroke-linecap:round; stroke-linejoin:round;">
</g>
<g style="fill:#FFFFFF; fill-opacity:1.0; 
stroke:#FFFFFF; stroke-width:0; stroke-opacity:1; 
stroke-linecap:round; stroke-linejoin:round;">
<circle cx="11444.9" cy="8819.93" r="196.85" /> 
</g>
<g style="fill:#FFFFFF; fill-opacity:1.0; 
stroke:#FFFFFF; stroke-width:39.3701; stroke-opacity:1; 
stroke-linecap:round; stroke-linejoin:round;">
</g>
<g style="fill:#FFFFFF; fill-opacity:1.0; 
stroke:#FFFFFF; stroke-width:0; stroke-opacity:1; 
stroke-linecap:round; stroke-linejoin:round;">
<circle cx="10444.9" cy="8819.93" r="196.85" /> 
</g>
<g style="fill:#FFFFFF; fill-opacity:1.0; 
stroke:#FFFFFF; stroke-width:39.3701; stroke-opacity:1; 
stroke-linecap:round; stroke-linejoin:round;">
</g>
<g style="fill:#FFFFFF; fill-opacity:1.0; 
stroke:#FFFFFF; stroke-width:0; stroke-opacity:1; 
stroke-linecap:round; stroke-linejoin:round;">
<circle cx="9444.88" cy="8819.93" r="196.85" /> 
</g>
<g style="fill:#FFFFFF; fill-opacity:1.0; 
stroke:#FFFFFF; stroke-width:39.3701; stroke-opacity:1; 
stroke-linecap:round; stroke-linejoin:round;">
</g>
<g style="fill:#FFFFFF; fill-opacity:1.0; 
stroke:#FFFFFF; stroke-width:0; stroke-opacity:1; 
stroke-linecap:round; stroke-linejoin:round;">
<circle cx="8444.88" cy="8819.93" r="196.85" /> 
</g>
<g style="fill:#FFFFFF; fill-opacity:1.0; 
stroke:#FFFFFF; stroke-width:39.3701; stroke-opacity:1; 
stroke-linecap:round; stroke-linejoin:round;">
</g>
<g style="fill:#FFFFFF; fill-opacity:1.0; 
stroke:#FFFFFF; stroke-width:0; stroke-opacity:1; 
stroke-linecap:round; stroke-linejoin:round;">
<circle cx="7444.88" cy="8819.93" r="196.85" /> 
</g>
<g style="fill:#FFFFFF; fill-opacity:1.0; 
stroke:#FFFFFF; stroke-width:39.3701; stroke-opacity:1; 
stroke-linecap:round; stroke-linejoin:round;">
</g>
<g style="fill:#FFFFFF; fill-opacity:1.0; 
stroke:#FFFFFF; stroke-width:0; stroke-opacity:1; 
stroke-linecap:round; stroke-linejoin:round;">
<circle cx="6444.88" cy="8819.93" r="196.85" /> 
</g>
<g style="fill:#FFFFFF; fill-opacity:1.0; 
stroke:#FFFFFF; stroke-width:39.3701; stroke-opacity:1; 
stroke-linecap:round; stroke-linejoin:round;">
</g>
<g style="fill:#000000; fill-opacity:1.0; 
stroke:#000000; stroke-width:39.3701; stroke-opacity:1; 
stroke-linecap:round; stroke-linejoin:round;">
<g >
</g>
<g >
</g>
<g >
</g>
<g >
</g>
</g>
<g style="fill:#000000; fill-opacity:1.0; 
stroke:#000000; stroke-width:39.3701; stroke-opacity:1; 
stroke-linecap:round; stroke-linejoin:round;">
</g>
<g style="fill:#C2C200; fill-opacity:1.0; 
stroke:#C2C200; stroke-width:39.3701; stroke-opacity:1; 
stroke-linecap:round; stroke-linejoin:round;">
</g>
<g style="fill:#C2C200; fill-opacity:0.0; 
stroke:#C2C200; stroke-width:59.0551; stroke-opacity:1; 
stroke-linecap:round; stroke-linejoin:round;">
<path d="M28444.9 1819.93 A1000 1000 0.0 0 0 27444.9 819.929 " />
<path d="M27444.9 9819.93 A1000 1000 0.0 0 0 28444.9 8819.93 " />
<path d="M5444.88 8819.93 A1000 1000 0.0 0 0 6444.88 9819.93 " />
<path d="M6444.88 819.929 A1000 1000 0.0 0 0 5444.88 1819.93 " />
<path d="M5444 8819
L5444 1819
" />
<path d="M27444 9819
L6444 9819
" />
<path d="M28444 1819
L28444 8819
" />
<path d="M6444 819
L27444 819
" />
<g >
</g>
<g >
</g>
<g >
</g>
<g >
</g>
</g> 
</svg>
